<svg width="20" height="21" viewBox="0 0 20 21" fill="none" xmlns="http://www.w3.org/2000/svg">
<g id="Group 871">
<path id="Vector" fill-rule="evenodd" clip-rule="evenodd" d="M0 15.5556C0 14.6964 0.639593 14 1.42857 14H3.57143C4.36041 14 5 14.6964 5 15.5556V19.4444C5 20.3036 4.36041 21 3.57143 21H1.42857C0.639593 21 0 20.3036 0 19.4444V15.5556ZM3.57143 15.8667C3.57143 15.6949 3.44351 15.5556 3.28571 15.5556H1.71429C1.55649 15.5556 1.42857 15.6949 1.42857 15.8667V19.1333C1.42857 19.3051 1.55649 19.4444 1.71429 19.4444H3.28571C3.44351 19.4444 3.57143 19.3051 3.57143 19.1333V15.8667Z" fill="#646464"/>
<path id="Vector_2" fill-rule="evenodd" clip-rule="evenodd" d="M7 1.61538C7 0.723232 7.8954 0 9 0H12C13.1046 0 14 0.723232 14 1.61538V19.3846C14 20.2768 13.1046 21 12 21H9C7.8954 21 7 20.2768 7 19.3846V1.61538ZM12 1.93846C12 1.76003 11.8209 1.61538 11.6 1.61538H9.4C9.1791 1.61538 9 1.76003 9 1.93846V19.0615C9 19.24 9.1791 19.3846 9.4 19.3846H11.6C11.8209 19.3846 12 19.24 12 19.0615V1.93846Z" fill="#646464"/>
<path id="Vector_3" fill-rule="evenodd" clip-rule="evenodd" d="M15 7.66667C15 6.74619 15.6396 6 16.4286 6H18.5714C19.3604 6 20 6.74619 20 7.66667V19.3333C20 20.2538 19.3604 21 18.5714 21H16.4286C15.6396 21 15 20.2538 15 19.3333V7.66667ZM18.5714 8C18.5714 7.81592 18.4435 7.66667 18.2857 7.66667H16.7143C16.5565 7.66667 16.4286 7.81592 16.4286 8V19C16.4286 19.1841 16.5565 19.3333 16.7143 19.3333H18.2857C18.4435 19.3333 18.5714 19.1841 18.5714 19V8Z" fill="#646464"/>
</g>
</svg>
