<svg width="28" height="27" viewBox="0 0 28 27" fill="none" xmlns="http://www.w3.org/2000/svg">
<path d="M20.4919 26.4747C20.1219 26.4133 19.745 26.3655 19.3751 26.2973C17.9362 26.0313 16.5864 25.4924 15.2846 24.8511C13.14 23.8006 11.153 22.5182 9.36471 20.9424C5.78127 17.784 2.95152 14.0935 1.35507 9.55037C0.964527 8.43163 0.724717 7.27197 0.752124 6.07819C0.779531 4.92535 1.15637 3.90894 1.97173 3.08353C2.69801 2.35362 3.40373 1.5896 4.17798 0.914268C5.43869 -0.177182 6.73366 -0.163539 7.93956 0.968841C9.15916 2.11486 10.3377 3.30864 11.4819 4.5297C12.4274 5.53247 12.4206 6.88996 11.4956 7.90637C10.8515 8.61582 10.1527 9.28433 9.46749 9.95284C9.33046 10.0825 9.31675 10.178 9.39897 10.3485C10.0841 11.7742 11.0708 12.9748 12.1465 14.1208C13.2359 15.2873 14.435 16.3242 15.7848 17.1837C16.141 17.4088 16.5247 17.5862 16.8879 17.8045C17.0318 17.8931 17.1208 17.8727 17.2373 17.7567C17.806 17.1769 18.3884 16.597 18.9708 16.024C19.423 15.5738 19.93 15.2123 20.581 15.1099C21.458 14.9667 22.198 15.2464 22.8146 15.8535C23.9383 16.9518 25.0483 18.0637 26.1582 19.1756C27.3504 20.3694 27.4532 21.7269 26.3432 22.9957C25.5758 23.8757 24.7331 24.6874 23.8835 25.4855C23.2805 26.0517 22.52 26.3314 21.6909 26.4269C21.6293 26.4337 21.5744 26.461 21.5196 26.4747C21.1771 26.4747 20.8345 26.4747 20.4919 26.4747ZM2.09506 6.09184C2.10191 7.51072 2.43764 8.63628 2.86245 9.7482C4.04094 12.8793 5.93886 15.5533 8.19993 17.9886C10.4062 20.3557 12.9756 22.2453 15.8944 23.6642C17.3469 24.3736 18.8406 24.9466 20.4645 25.1172C21.4511 25.2195 22.3898 25.1035 23.1366 24.3941C23.8972 23.6642 24.6372 22.907 25.3566 22.1293C25.9321 21.5018 25.9253 20.8605 25.3292 20.2534C24.1781 19.0801 23.0133 17.9273 21.8417 16.7812C21.3689 16.3174 20.7522 16.3105 20.2247 16.7198C20.1013 16.8153 19.9917 16.9245 19.8821 17.0336C19.238 17.668 18.6077 18.3093 17.9636 18.9437C17.5456 19.353 17.0934 19.428 16.5727 19.162C16.1959 18.971 15.819 18.7799 15.4627 18.5617C13.7567 17.5452 12.2767 16.256 10.9475 14.7962C9.83748 13.5819 8.82343 12.2995 8.13826 10.7851C7.78197 10.0074 7.85049 9.66634 8.46714 9.07286C9.13861 8.43163 9.80322 7.78359 10.4404 7.10825C10.9817 6.52842 10.9817 5.9213 10.4267 5.34829C9.58397 4.4683 8.7138 3.61561 7.85049 2.74927C7.53531 2.43548 7.22013 2.11486 6.8844 1.82154C6.34997 1.36449 5.75387 1.35767 5.20573 1.78743C5.0961 1.86929 4.99333 1.96479 4.8974 2.06029C4.30131 2.65377 3.71206 3.25407 3.10226 3.84072C2.40338 4.51606 2.06765 5.33464 2.09506 6.09184Z" fill="#6D6D6D"/>
</svg>
