<svg width="23" height="19" viewBox="0 0 23 19" fill="none" xmlns="http://www.w3.org/2000/svg">
<path d="M1 5.1V13.3C1 14.3874 1.43197 15.4303 2.20086 16.1991C2.96976 16.9681 4.01262 17.4 5.1 17.4H17.4C18.4874 17.4 19.5302 16.9681 20.2992 16.1991C21.068 15.4303 21.5 14.3874 21.5 13.3V5.1C21.5 4.01261 21.068 2.96975 20.2992 2.20086C19.5302 1.43196 18.4874 1 17.4 1H5.1C4.01262 1 2.96976 1.43196 2.20086 2.20086C1.43197 2.96975 1 4.01261 1 5.1Z" stroke="black" stroke-width="1.3" stroke-linecap="round" stroke-linejoin="round"/>
<path d="M5.09961 5.1001V13.3001" stroke="black" stroke-width="1.3" stroke-linecap="round" stroke-linejoin="round"/>
<path d="M8.17578 9.2002V13.3002" stroke="black" stroke-width="1.3" stroke-linecap="round" stroke-linejoin="round"/>
<path d="M8.17578 5.1001V6.1251" stroke="black" stroke-width="1.3" stroke-linecap="round" stroke-linejoin="round"/>
<path d="M14.3242 5.1001V13.3001" stroke="black" stroke-width="1.3" stroke-linecap="round" stroke-linejoin="round"/>
<path d="M11.2598 13.2388V13.3003" stroke="black" stroke-width="1.3" stroke-linecap="round" stroke-linejoin="round"/>
<path d="M11.2598 5.1001V10.2251" stroke="black" stroke-width="1.3" stroke-linecap="round" stroke-linejoin="round"/>
<path d="M17.4004 10.2251V13.3001" stroke="black" stroke-width="1.3" stroke-linecap="round" stroke-linejoin="round"/>
<path d="M17.4004 5.1001V7.1501" stroke="black" stroke-width="1.3" stroke-linecap="round" stroke-linejoin="round"/>
</svg>
