<svg width="13" height="14" viewBox="0 0 13 14" fill="none" xmlns="http://www.w3.org/2000/svg">
<path d="M6.5 14C6.99254 14 7.46492 13.8156 7.8132 13.4875C8.16148 13.1593 8.35714 12.7142 8.35714 12.2501H4.64286C4.64286 12.7142 4.83852 13.1593 5.1868 13.4875C5.53508 13.8156 6.00745 14 6.5 14ZM6.5 1.67892L5.75993 1.81979C4.92046 1.98096 4.16588 2.41047 3.62389 3.03564C3.0819 3.66081 2.78581 4.44323 2.78571 5.25048C2.78571 5.79995 2.66129 7.17275 2.3595 8.52455C2.21093 9.19564 2.01036 9.89472 1.74386 10.5002H11.2561C10.9896 9.89472 10.79 9.19651 10.6405 8.52455C10.3387 7.17275 10.2143 5.79995 10.2143 5.25048C10.214 4.44339 9.91778 3.66117 9.37582 3.03618C8.83385 2.41119 8.07938 1.9818 7.24007 1.82067L6.5 1.67892ZM12.2757 10.5002C12.4828 10.8913 12.7224 11.201 13 11.3751H0C0.277643 11.201 0.517214 10.8913 0.724286 10.5002C1.56 8.92528 1.85714 6.02044 1.85714 5.25048C1.85714 3.13309 3.45429 1.36569 5.57607 0.962338C5.56311 0.840679 5.57736 0.717812 5.61789 0.601659C5.65842 0.485507 5.72434 0.378648 5.81139 0.287976C5.89845 0.197303 6.0047 0.124829 6.12331 0.0752279C6.24191 0.0256269 6.37024 0 6.5 0C6.62976 0 6.75809 0.0256269 6.87669 0.0752279C6.9953 0.124829 7.10155 0.197303 7.18861 0.287976C7.27566 0.378648 7.34158 0.485507 7.38211 0.601659C7.42264 0.717812 7.43689 0.840679 7.42393 0.962338C8.47348 1.16349 9.41699 1.70024 10.0947 2.48169C10.7724 3.26315 11.1427 4.24129 11.1429 5.25048C11.1429 6.02044 11.44 8.92528 12.2757 10.5002Z" fill="#848484"/>
</svg>
