<svg width="25" height="14" viewBox="0 0 25 14" fill="none" xmlns="http://www.w3.org/2000/svg">
<path d="M0 2.25461C0.126894 1.81535 0.267146 1.38246 0.574364 1.01959C1.10198 0.395715 1.76984 0.039215 2.60468 0.0137507C3.18572 -0.0053475 3.76008 0.00101857 4.34113 0.00101857C7.56024 0.00101857 10.786 0.00101857 14.0051 0.00101857C15.214 0.00101857 16.1156 0.48484 16.6232 1.53524C16.7901 1.89174 16.8703 2.3119 16.8703 2.7066C16.8903 5.56496 16.8836 8.42969 16.877 11.2944C16.877 12.6631 15.9753 13.7135 14.6129 13.9618C14.4059 14 14.1921 14 13.9784 14C10.2851 14 6.59183 14 2.89854 14C1.38248 14 0.360647 13.217 0.0400719 11.8037C0.0333933 11.7846 0.0133573 11.7655 0 11.7464C0 8.58248 0 5.41854 0 2.25461Z" fill="white"/>
<path d="M24.9971 6.99788C24.9971 8.33475 25.0038 9.66526 24.9971 11.0021C24.9904 12.0653 23.9485 12.8037 22.9 12.5045C22.7263 12.4536 22.5527 12.3708 22.3924 12.2817C21.0767 11.5687 19.7677 10.8493 18.452 10.1363C18.2984 10.0536 18.2383 9.96446 18.2383 9.79258C18.245 7.92096 18.245 6.0557 18.2383 4.18408C18.2383 4.05676 18.245 3.9549 18.3919 3.87851C19.7744 3.12731 21.1502 2.35702 22.5393 1.61219C23.4743 1.10927 24.5964 1.54853 24.9169 2.52253C24.977 2.70078 24.9904 2.9045 24.9904 3.09548C25.0038 4.38779 24.9971 5.69283 24.9971 6.99788Z" fill="white"/>
</svg>
