<svg width="18" height="18" viewBox="0 0 18 18" fill="none" xmlns="http://www.w3.org/2000/svg">
<path id="comment" d="M9.0025 18C7.72617 18.0008 6.4645 17.728 5.3025 17.2L0.584499 17.986C0.557602 17.9929 0.530174 17.9976 0.502499 18C0.418841 18 0.336525 17.979 0.263093 17.9389C0.18966 17.8988 0.127458 17.841 0.0821836 17.7706C0.0369094 17.7003 0.0100106 17.6197 0.00395091 17.5362C-0.00210876 17.4528 0.0128645 17.3692 0.0474991 17.293L1.5375 14.031C0.415075 12.3661 -0.118366 10.3737 0.022038 8.37069C0.162442 6.36769 0.968625 4.46916 2.31234 2.97713C3.65605 1.4851 5.46012 0.485266 7.43754 0.136678C9.41497 -0.211911 11.4522 0.110771 13.2251 1.05339C14.998 1.99601 16.4048 3.50443 17.2216 5.33868C18.0385 7.17293 18.2185 9.22766 17.733 11.176C17.2475 13.1243 16.1245 14.8544 14.5425 16.0909C12.9605 17.3275 11.0104 17.9995 9.0025 18ZM5.3715 16.184C5.44582 16.184 5.51923 16.2004 5.5865 16.232C7.34713 17.0639 9.35074 17.2251 11.2217 16.6853C13.0927 16.1455 14.7025 14.9419 15.7495 13.3C16.5305 12.074 16.9628 10.6584 16.9998 9.20523C17.0367 7.75206 16.6771 6.31627 15.9594 5.05213C15.2418 3.78799 14.1933 2.74328 12.9265 2.03024C11.6598 1.31719 10.2227 0.962764 8.76969 1.00504C7.31667 1.04731 5.90262 1.48469 4.67948 2.27017C3.45633 3.05566 2.47032 4.15957 1.82739 5.46329C1.18445 6.76702 0.908883 8.22128 1.0303 9.66984C1.15171 11.1184 1.66551 12.5065 2.5165 13.685C2.56822 13.7565 2.60009 13.8405 2.60887 13.9283C2.61765 14.0161 2.60303 14.1047 2.5665 14.185L1.3485 16.848L5.2905 16.191C5.31727 16.1865 5.34436 16.1842 5.3715 16.184Z" fill="#222B45"/>
</svg>
