<svg width="29" height="30" viewBox="0 0 29 30" fill="none" xmlns="http://www.w3.org/2000/svg">
<path d="M20.6984 0.859453C20.9633 0.997725 21.2486 1.10143 21.4796 1.28118C21.8804 1.59229 21.9958 2.06242 22.0638 2.54637C22.0841 2.69155 22.1045 2.89896 22.1996 2.96809C22.4034 3.11328 22.6548 3.18242 22.8925 3.27229C22.9333 3.28612 23.0012 3.2239 23.0555 3.18933C23.2525 3.05797 23.4427 2.91279 23.6397 2.78834C24.2307 2.43575 24.9508 2.48414 25.4603 2.94044C25.7795 3.2239 26.0852 3.53501 26.3637 3.85995C26.8189 4.39229 26.8664 5.12513 26.5132 5.74044C26.4724 5.80958 26.4249 5.87871 26.3841 5.94785C26.0037 6.50093 26.0037 6.50093 26.2958 7.10933C26.3298 7.18538 26.4249 7.25451 26.5064 7.27525C26.7441 7.33748 26.9887 7.36513 27.2197 7.42735C27.9125 7.61402 28.3745 8.20167 28.4016 8.93451C28.4152 9.30093 28.4152 9.67426 28.4016 10.0407C28.3745 10.7943 27.8922 11.3957 27.1789 11.5755C27.077 11.6032 26.9683 11.6377 26.8596 11.6377C26.486 11.6446 26.2618 11.8036 26.1396 12.1908C26.0581 12.4466 26.0581 12.6195 26.2211 12.8338C26.52 13.214 26.7509 13.6219 26.7306 14.1404C26.7102 14.5138 26.6083 14.8525 26.3637 15.1291C26.0988 15.4264 25.8203 15.7236 25.5214 15.9933C24.9644 16.5118 24.2375 16.574 23.5922 16.1869C23.4971 16.1315 23.3952 16.0762 23.3205 16.0002C23.0488 15.7236 22.7838 15.7167 22.4238 15.8827C22.1385 16.014 22.0706 16.2007 22.0366 16.4634C21.9755 17.0234 21.8056 17.5419 21.2962 17.8392C21.0652 17.9775 20.7867 18.0812 20.515 18.1088C20.121 18.1572 19.7202 18.1365 19.3194 18.1157C18.6265 18.0881 18.0627 17.618 17.8793 16.9404C17.8521 16.8436 17.8113 16.7399 17.8113 16.6432C17.8317 16.1454 17.5736 15.9034 17.132 15.779C16.9758 15.7375 16.8671 15.7375 16.7381 15.8343C16.3916 16.0832 16.0655 16.3597 15.6172 16.415C15.1485 16.4703 14.7273 16.3735 14.3809 16.0555C14.0616 15.7651 13.7559 15.4609 13.4774 15.136C13.0223 14.6106 12.9747 13.8915 13.3144 13.2832C13.3619 13.1933 13.4027 13.0965 13.4774 13.0274C13.8986 12.654 13.7627 12.253 13.5318 11.852C13.491 11.7829 13.3823 11.7276 13.3008 11.7069C13.0562 11.6446 12.7981 11.617 12.5604 11.5478C11.915 11.3543 11.4735 10.7874 11.4463 10.1029C11.4327 9.72266 11.4259 9.34933 11.4395 8.96908C11.4667 8.16019 11.9626 7.55871 12.7438 7.38587C12.8525 7.36513 12.9543 7.33056 13.063 7.33056C13.3755 7.32365 13.525 7.16464 13.6676 6.86735C13.8578 6.48019 13.6812 6.25896 13.491 5.98242C12.8932 5.12513 12.9611 4.35081 13.6948 3.60414C13.9122 3.38291 14.1227 3.15476 14.3537 2.94735C14.8768 2.48414 15.5968 2.42192 16.1946 2.77451C16.2829 2.82291 16.378 2.86439 16.446 2.94044C16.8128 3.376 17.2068 3.21698 17.594 2.99575C17.6619 2.96118 17.7162 2.86439 17.7366 2.78143C17.7842 2.59476 17.8046 2.40118 17.8385 2.21451C17.9744 1.53698 18.3684 1.10143 19.0137 0.907848C19.0477 0.900934 19.0681 0.87328 19.102 0.852539C19.6523 0.859453 20.1753 0.859453 20.6984 0.859453ZM15.393 12.6056C15.3251 12.7577 15.2708 12.9236 15.1825 13.0688C15.0058 13.3454 14.8156 13.615 14.6254 13.8846C14.5099 14.0436 14.5167 14.1819 14.6662 14.3202C14.8428 14.493 15.0194 14.6659 15.1825 14.8456C15.3251 15.0046 15.461 15.0115 15.6308 14.8871C15.8957 14.6866 16.1606 14.5069 16.4324 14.3133C16.6973 14.1197 16.969 14.099 17.2747 14.2441C17.6755 14.4308 18.0831 14.6036 18.4974 14.7627C18.8303 14.8871 19.0137 15.1153 19.0681 15.4678C19.1156 15.779 19.1835 16.0832 19.2243 16.3943C19.2515 16.6293 19.3669 16.7054 19.5843 16.6985C19.8221 16.6846 20.053 16.6846 20.2908 16.6985C20.5218 16.7123 20.6101 16.5948 20.644 16.3804C20.6916 16.0693 20.7595 15.7651 20.8003 15.454C20.8478 15.0945 21.0516 14.8871 21.3777 14.7627C21.7853 14.6106 22.186 14.4377 22.58 14.258C22.8925 14.1128 23.171 14.1335 23.4495 14.334C23.7145 14.5276 23.9862 14.7143 24.2511 14.9078C24.4074 15.0254 24.5432 15.0185 24.6791 14.8733C24.8489 14.6866 25.0323 14.5069 25.2157 14.3271C25.3516 14.1957 25.3584 14.0644 25.2497 13.9123C25.0595 13.6427 24.8761 13.3661 24.6859 13.0965C24.4821 12.8061 24.4617 12.5157 24.6111 12.1908C24.7946 11.7898 24.9576 11.3819 25.107 10.9671C25.2293 10.6283 25.4535 10.4417 25.7999 10.3864C26.1124 10.338 26.4249 10.2688 26.7374 10.2204C26.9411 10.1928 27.0159 10.0891 27.0091 9.88859C27.0023 9.66735 26.9955 9.44612 27.0091 9.22488C27.0362 8.93451 26.9276 8.80315 26.6423 8.76859C26.3434 8.74093 26.0581 8.66488 25.7592 8.61649C25.4331 8.56118 25.2293 8.37451 25.1138 8.0634C24.9576 7.64167 24.7946 7.22686 24.6044 6.81896C24.4617 6.50093 24.4753 6.21748 24.6723 5.93402C24.8693 5.65748 25.0527 5.37402 25.2497 5.09748C25.3516 4.95229 25.3448 4.82785 25.2157 4.7034C25.0323 4.52365 24.8489 4.3439 24.6791 4.15723C24.5364 3.99822 24.4006 3.98439 24.2307 4.11575C23.9726 4.31624 23.7009 4.496 23.4292 4.68958C23.1642 4.88316 22.8857 4.9039 22.5868 4.75871C22.1792 4.57204 21.7581 4.39921 21.3369 4.23328C21.0312 4.11575 20.8478 3.90143 20.8003 3.56958C20.7527 3.24464 20.6848 2.9197 20.6372 2.58785C20.6033 2.39427 20.5082 2.29748 20.3044 2.30439C20.0598 2.3113 19.8153 2.3113 19.5707 2.30439C19.3602 2.29748 19.2515 2.38044 19.2243 2.59476C19.1835 2.91279 19.1156 3.23081 19.0613 3.54883C19.0069 3.8876 18.8235 4.10884 18.5042 4.23328C18.0899 4.39229 17.6823 4.55822 17.2815 4.7518C16.969 4.89698 16.6905 4.88315 16.412 4.68266C16.1471 4.48908 15.8753 4.30242 15.6172 4.10883C15.4542 3.98439 15.3251 3.99822 15.1892 4.1434C15.0194 4.32316 14.8496 4.50291 14.673 4.66884C14.5167 4.81402 14.5032 4.95229 14.6322 5.12513C14.8224 5.39476 15.0058 5.6713 15.196 5.94093C15.3862 6.21056 15.4066 6.48711 15.2708 6.79822C15.0806 7.21303 14.9107 7.64167 14.7477 8.07031C14.6322 8.38834 14.4216 8.56809 14.0956 8.61649C13.7899 8.66488 13.491 8.73402 13.1853 8.7755C12.9611 8.81007 12.8457 8.89994 12.8592 9.14883C12.8728 9.39081 12.866 9.62587 12.8592 9.86784C12.8525 10.0822 12.9272 10.1928 13.1446 10.2204C13.4434 10.2619 13.7287 10.338 14.0276 10.3725C14.408 10.4209 14.6458 10.6283 14.7749 10.9948C14.9175 11.3888 15.0874 11.776 15.2436 12.1701C15.2979 12.3014 15.3387 12.4397 15.393 12.6056Z" fill="#475165"/>
<path d="M0.589844 17.4521C0.678153 17.2447 0.739292 17.0165 0.854773 16.823C1.15366 16.2906 1.62238 15.9657 2.20658 15.9173C2.87909 15.8689 3.31384 15.6407 3.49725 14.9217C3.57197 14.6244 3.61953 14.4309 3.41574 14.1889C3.23233 13.9746 3.08288 13.7257 2.94702 13.4837C2.5734 12.8269 2.62774 11.9904 3.12363 11.4165C3.48366 10.9948 3.88445 10.6007 4.29883 10.2274C4.86265 9.72271 5.70498 9.66048 6.35031 10.0546C6.656 10.2412 6.92772 10.4625 7.2334 10.6491C7.30813 10.6975 7.43719 10.7183 7.51871 10.6906C7.8176 10.58 8.1097 10.4555 8.39501 10.3173C8.47652 10.2758 8.55804 10.179 8.57842 10.0891C8.64635 9.79184 8.68031 9.48764 8.74145 9.19727C8.82976 8.8032 9.18299 8.55431 9.54302 8.61653C9.90985 8.67876 10.1748 9.03135 10.1204 9.42542C10.0525 9.93703 9.9574 10.4417 9.8623 10.9464C9.80795 11.2437 9.61095 11.4165 9.33923 11.5271C8.789 11.7484 8.23197 11.9834 7.68853 12.2254C7.39643 12.3568 7.13151 12.3499 6.86658 12.1563C6.50655 11.8936 6.13973 11.6378 5.7797 11.382C5.4876 11.1746 5.31098 11.1953 5.05964 11.4442C4.81509 11.6862 4.57055 11.9351 4.33279 12.1839C4.08145 12.4467 4.06107 12.6126 4.26486 12.9168C4.50941 13.2763 4.74716 13.6289 4.99851 13.9815C5.22267 14.2926 5.22267 14.5899 5.05964 14.9355C4.83547 15.4264 4.61809 15.9242 4.44827 16.4358C4.31241 16.8299 4.08145 17.0511 3.68066 17.1133C3.25949 17.1755 2.84512 17.2585 2.42396 17.3346C2.12506 17.3968 2.00958 17.535 2.00958 17.8531C2.00279 18.2333 2.00279 18.6067 2.00958 18.9869C2.01638 19.2911 2.14544 19.4432 2.43754 19.4985C2.85871 19.5746 3.27308 19.6575 3.69425 19.7197C4.07466 19.775 4.29883 19.9755 4.43469 20.3489C4.6181 20.8743 4.83547 21.3928 5.06644 21.8975C5.21588 22.2363 5.21588 22.5267 5.0053 22.8308C4.75396 23.1904 4.50261 23.5499 4.25807 23.9163C4.06786 24.1928 4.08145 24.3726 4.30562 24.6076C4.56375 24.8773 4.82868 25.1469 5.09361 25.4096C5.31777 25.6308 5.4944 25.6447 5.74574 25.4649C6.10577 25.216 6.459 24.9671 6.81224 24.7044C7.11113 24.4763 7.41002 24.4694 7.74967 24.6284C8.24556 24.8634 8.75504 25.0847 9.2713 25.2713C9.63813 25.4027 9.83512 25.6378 9.88947 26.0249C9.95061 26.4467 10.0321 26.8615 10.1001 27.2763C10.1612 27.615 10.297 27.7326 10.6367 27.7395C10.9967 27.7464 11.3636 27.7464 11.7236 27.7395C12.0293 27.7326 12.1719 27.622 12.2263 27.3108C12.3078 26.9029 12.3825 26.495 12.4368 26.0871C12.498 25.6308 12.7222 25.375 13.1637 25.2368C13.6256 25.0916 14.0808 24.898 14.5155 24.6699C14.9095 24.4625 15.2424 24.4694 15.5956 24.7459C15.9081 24.9948 16.2409 25.216 16.5738 25.4442C16.8727 25.6516 17.0289 25.6308 17.2938 25.375C17.5452 25.1262 17.7965 24.8704 18.0411 24.6146C18.2652 24.3795 18.2788 24.1928 18.0954 23.9232C17.8509 23.5568 17.5995 23.1973 17.3482 22.8378C17.124 22.5267 17.1308 22.2294 17.287 21.8837C17.518 21.3859 17.7286 20.8743 17.912 20.3558C18.0411 19.9825 18.2652 19.775 18.6457 19.7197C19.0193 19.6644 19.3929 19.5884 19.7665 19.5192C19.8548 19.5054 19.9431 19.4916 20.0382 19.4847C20.4186 19.457 20.7515 19.7197 20.8058 20.0792C20.8602 20.4318 20.6224 20.7983 20.2624 20.8881C19.9703 20.9573 19.6714 20.9849 19.3861 21.061C19.2842 21.0886 19.1823 21.1854 19.128 21.2822C19.0396 21.4274 19.0261 21.621 18.931 21.7592C18.6728 22.1395 18.7543 22.4437 19.0329 22.7825C19.3589 23.1765 19.6238 23.619 19.6374 24.1721C19.6442 24.6768 19.5152 25.1262 19.1755 25.4926C18.8427 25.859 18.503 26.2185 18.1362 26.5434C17.4773 27.138 16.6553 27.1933 15.9081 26.7163C15.6499 26.5504 15.4054 26.3499 15.1405 26.1909C15.0522 26.1355 14.9095 26.1286 14.8076 26.1563C14.6446 26.1978 14.5019 26.3291 14.3321 26.3568C13.8838 26.4397 13.7479 26.7232 13.6868 27.1588C13.6324 27.5528 13.5169 27.9538 13.3471 28.3064C13.1026 28.8042 12.6203 29.0254 12.1176 29.1844C11.4858 29.1844 10.8473 29.1844 10.2155 29.1844C10.1748 29.1637 10.1408 29.136 10.1001 29.1291C9.35282 28.9079 8.89769 28.417 8.73466 27.6427C8.67352 27.3523 8.64635 27.062 8.57162 26.7785C8.54445 26.6748 8.44935 26.5573 8.36104 26.5089C8.10291 26.3775 7.82439 26.2876 7.56626 26.1563C7.42361 26.0871 7.3285 26.0941 7.19944 26.1909C6.91413 26.4052 6.62883 26.6126 6.32314 26.7923C5.67101 27.1795 4.83547 27.1034 4.27165 26.5918C3.87087 26.2254 3.48366 25.8313 3.12363 25.4165C2.75681 24.9948 2.65492 24.4763 2.74323 23.9163C2.82474 23.4185 3.11005 23.0383 3.40215 22.6649C3.61953 22.3884 3.57198 22.1741 3.48367 21.856C3.30026 21.1923 2.90626 20.9642 2.27451 20.9227C1.66993 20.8812 1.17404 20.5632 0.861564 20.017C0.752876 19.8234 0.678153 19.6022 0.589844 19.3948C0.589844 18.738 0.589844 18.0951 0.589844 17.4521Z" fill="#475165"/>
<path d="M11.1477 23.2452C8.34901 23.1899 6.18884 20.7424 6.46735 17.9217C6.7051 15.502 8.743 13.6145 11.1206 13.6007C11.5213 13.6007 11.8474 13.898 11.8746 14.2852C11.895 14.6654 11.6029 15.0042 11.1953 15.0249C10.3733 15.0664 9.63289 15.3084 9.00793 15.8615C7.94823 16.8017 7.58819 18.2812 8.09767 19.6363C8.57997 20.9222 9.82989 21.7795 11.2021 21.7726C12.9275 21.7587 14.3336 20.4175 14.4695 18.6753C14.4899 18.3918 14.4899 18.1015 14.7208 17.8871C14.9314 17.6936 15.2439 17.6383 15.4817 17.7627C15.767 17.9148 15.9096 18.1499 15.9028 18.4748C15.8553 20.701 14.388 22.5607 12.255 23.0862C11.8882 23.1691 11.5146 23.1899 11.1477 23.2452Z" fill="#475165"/>
<path d="M19.9171 12.9238C18.049 12.9169 16.5546 11.389 16.5613 9.48775C16.5613 7.58652 18.0898 6.04479 19.9578 6.05862C21.8123 6.07245 23.3204 7.628 23.3068 9.51541C23.2932 11.4028 21.7784 12.9307 19.9171 12.9238ZM19.9375 11.4858C21.0108 11.4789 21.8939 10.587 21.8939 9.49467C21.8939 8.39541 20.9904 7.48973 19.9103 7.49664C18.8438 7.50356 17.9675 8.41615 17.9743 9.5085C17.9811 10.6078 18.8642 11.4858 19.9375 11.4858Z" fill="#475165"/>
</svg>
