<svg width="27" height="27" viewBox="0 0 27 27" fill="none" xmlns="http://www.w3.org/2000/svg">
<path d="M20.3747 26.6295C20.0047 26.5681 19.6279 26.5203 19.2579 26.4521C17.819 26.1861 16.4692 25.6472 15.1674 25.0059C13.0228 23.9554 11.0358 22.673 9.24753 21.0972C5.66409 17.9388 2.83433 14.2483 1.23789 9.70516C0.847339 8.58642 0.60753 7.42675 0.634937 6.23298C0.662344 5.08013 1.03919 4.06372 1.85454 3.23831C2.58082 2.5084 3.28655 1.74439 4.06079 1.06905C5.3215 -0.0223972 6.61647 -0.00875404 7.82237 1.12363C9.04198 2.26965 10.2205 3.46342 11.3647 4.68448C12.3102 5.68725 12.3034 7.04475 11.3784 8.06116C10.7343 8.7706 10.0355 9.43912 9.3503 10.1076C9.21327 10.2372 9.19956 10.3327 9.28179 10.5033C9.96696 11.929 10.9536 13.1296 12.0293 14.2756C13.1187 15.4421 14.3178 16.479 15.6676 17.3385C16.0239 17.5636 16.4076 17.741 16.7707 17.9592C16.9146 18.0479 17.0037 18.0275 17.1201 17.9115C17.6888 17.3317 18.2712 16.7518 18.8536 16.1788C19.3058 15.7286 19.8129 15.3671 20.4638 15.2647C21.3408 15.1215 22.0808 15.4012 22.6974 16.0083C23.8211 17.1066 24.9311 18.2185 26.041 19.3304C27.2332 20.5242 27.336 21.8817 26.226 23.1505C25.4587 24.0304 24.6159 24.8422 23.7663 25.6403C23.1633 26.2065 22.4028 26.4862 21.5737 26.5817C21.5121 26.5885 21.4573 26.6158 21.4024 26.6295C21.0599 26.6295 20.7173 26.6295 20.3747 26.6295ZM1.97787 6.24662C1.98472 7.66551 2.32046 8.79107 2.74526 9.90298C3.92375 13.0341 5.82168 15.7081 8.08274 18.1434C10.289 20.5105 12.8584 22.4001 15.7772 23.819C17.2298 24.5284 18.7234 25.1014 20.3473 25.272C21.3339 25.3743 22.2726 25.2583 23.0195 24.5489C23.78 23.819 24.52 23.0618 25.2394 22.2841C25.8149 21.6565 25.8081 21.0153 25.212 20.4082C24.0609 19.2349 22.8961 18.082 21.7245 16.936C21.2517 16.4721 20.6351 16.4653 20.1075 16.8746C19.9841 16.9701 19.8745 17.0793 19.7649 17.1884C19.1208 17.8228 18.4905 18.464 17.8464 19.0985C17.4285 19.5077 16.9762 19.5828 16.4555 19.3167C16.0787 19.1257 15.7018 18.9347 15.3455 18.7164C13.6395 17.7 12.1595 16.4108 10.8303 14.9509C9.72029 13.7367 8.70624 12.4542 8.02107 10.9399C7.66478 10.1622 7.7333 9.82112 8.34995 9.22765C9.02142 8.58642 9.68604 7.93837 10.3232 7.26304C10.8645 6.6832 10.8645 6.07608 10.3095 5.50307C9.46678 4.62309 8.59662 3.77039 7.7333 2.90405C7.41812 2.59026 7.10294 2.26965 6.76721 1.97632C6.23278 1.51928 5.63668 1.51246 5.08854 1.94221C4.97892 2.02407 4.87614 2.11957 4.78022 2.21508C4.18412 2.80855 3.59487 3.40885 2.98507 3.99551C2.2862 4.67084 1.95046 5.48943 1.97787 6.24662Z" fill="#475165"/>
</svg>
