<svg width="40" height="23" viewBox="0 0 40 23" fill="none" xmlns="http://www.w3.org/2000/svg">
<path d="M1.91456 2.59277L1.91482 2.59246C2.61424 1.76544 3.46352 1.31993 4.53525 1.28724L4.53702 1.28718C5.24815 1.26381 5.95046 1.26533 6.67192 1.26691C6.85449 1.2673 7.03829 1.2677 7.22377 1.2677H7.25322H7.28267H7.31213H7.34158H7.37103H7.40048H7.42994H7.45939H7.48885H7.5183H7.54775H7.57721H7.60666H7.63612H7.66558H7.69503H7.72449H7.75394H7.7834H7.81286H7.84231H7.87177H7.90123H7.93068H7.96014H7.9896H8.01906H8.04852H8.07797H8.10743H8.13689H8.16635H8.19581H8.22527H8.25473H8.28419H8.31365H8.34311H8.37257H8.40203H8.43149H8.46095H8.49041H8.51988H8.54934H8.5788H8.60826H8.63772H8.66719H8.69665H8.72611H8.75558H8.78504H8.8145H8.84397H8.87343H8.90289H8.93236H8.96182H8.99129H9.02075H9.05022H9.07968H9.10915H9.13861H9.16808H9.19755H9.22701H9.25648H9.28594H9.31541H9.34488H9.37434H9.40381H9.43328H9.46275H9.49221H9.52168H9.55115H9.58062H9.61009H9.63955H9.66902H9.69849H9.72796H9.75743H9.7869H9.81637H9.84584H9.87531H9.90478H9.93425H9.96372H9.99319H10.0227H10.0521H10.0816H10.1111H10.1405H10.17H10.1995H10.229H10.2584H10.2879H10.3174H10.3468H10.3763H10.4058H10.4353H10.4647H10.4942H10.5237H10.5532H10.5826H10.6121H10.6416H10.671H10.7005H10.73H10.7595H10.7889H10.8184H10.8479H10.8774H10.9068H10.9363H10.9658H10.9953H11.0247H11.0542H11.0837H11.1132H11.1426H11.1721H11.2016H11.2311H11.2605H11.29H11.3195H11.349H11.3784H11.4079H11.4374H11.4669H11.4964H11.5258H11.5553H11.5848H11.6143H11.6437H11.6732H11.7027H11.7322H11.7616H11.7911H11.8206H11.8501H11.8796H11.909H11.9385H11.968H11.9975H12.027H12.0564H12.0859H12.1154H12.1449H12.1743H12.2038H12.2333H12.2628H12.2923H12.3217H12.3512H12.3807H12.4102H12.4397H12.4691H12.4986H12.5281H12.5576H12.5871H12.6165H12.646H12.6755H12.705H12.7345H12.7639H12.7934H12.8229H12.8524H12.8819H12.9113H12.9408H12.9703H12.9998H13.0293H13.0587H13.0882H13.1177H13.1472H13.1767H13.2062H13.2356H13.2651H13.2946H13.3241H13.3536H13.383H13.4125H13.442H13.4715H13.501H13.5305H13.5599H13.5894H13.6189H13.6484H13.6779H13.7073H13.7368H13.7663H13.7958H13.8253H13.8548H13.8842H13.9137H13.9432H13.9727H14.0022H14.0316H14.0611H14.0906H14.1201H14.1496H14.1791H14.2085H14.238H14.2675H14.297H14.3265H14.356H14.3854H14.4149H14.4444H14.4739H14.5034H14.5328H14.5623H14.5918H14.6213H14.6508H14.6803H14.7097H14.7392H14.7687H14.7982H14.8277H14.8572H14.8866H14.9161H14.9456H14.9751H15.0046H15.0341H15.0635H15.093H15.1225H15.152H15.1815H15.2109H15.2404H15.2699H15.2994H15.3289H15.3584H15.3878H15.4173H15.4468H15.4763H15.5058H15.5353H15.5647H15.5942H15.6237H15.6532H15.6827H15.7121H15.7416H15.7711H15.8006H15.8301H15.8596H15.889H15.9185H15.948H15.9775H16.007H16.0365H16.0659H16.0954H16.1249H16.1544H16.1839H16.2133H16.2428H16.2723H16.3018H16.3313H16.3607H16.3902H16.4197H16.4492H16.4787H16.5082H16.5376H16.5671H16.5966H16.6261H16.6556H16.685H16.7145H16.744H16.7735H16.803H16.8324H16.8619H16.8914H16.9209H16.9504H16.9798H17.0093H17.0388H17.0683H17.0978H17.1272H17.1567H17.1862H17.2157H17.2452H17.2746H17.3041H17.3336H17.3631H17.3926H17.422H17.4515H17.481H17.5105H17.5399H17.5694H17.5989H17.6284H17.6579H17.6873H17.7168H17.7463H17.7758H17.8053H17.8347H17.8642H17.8937H17.9232H17.9526H17.9821H18.0116H18.0411H18.0705H18.1H18.1295H18.159H18.1884H18.2179H18.2474H18.2769H18.3064H18.3358H18.3653H18.3948H18.4243H18.4537H18.4832H18.5127H18.5422H18.5716H18.6011H18.6306H18.6601H18.6895H18.719H18.7485H18.778H18.8074H18.8369H18.8664H18.8958H18.9253H18.9548H18.9843H19.0137H19.0432H19.0727H19.1022H19.1316H19.1611H19.1906H19.22H19.2495H19.279H19.3085H19.3379H19.3674H19.3969H19.4263H19.4558H19.4853H19.5148H19.5442H19.5737H19.6032H19.6326H19.6621H19.6916H19.7211H19.7505H19.78H19.8095H19.8389H19.8684H19.8979H19.9273H19.9568H19.9863H20.0157H20.0452H20.0747H20.1041H20.1336H20.1631H20.1925H20.222H20.2515H20.2809H20.3104H20.3399H20.3693H20.3988H20.4283H20.4577H20.4872H20.5167H20.5461H20.5756H20.6051H20.6345H20.664H20.6935H20.7229H20.7524H20.7818H20.8113H20.8408H20.8702H20.8997H20.9292H20.9586H20.9881H21.0175H21.047H21.0765H21.1059H21.1354H21.1649H21.1943H21.2238H21.2532H21.2827H21.3122H21.3416H21.3711H21.4005H21.43H21.4594H21.4889H21.5184H21.5478H21.5773H21.6067H21.6362H21.6657H21.6951H21.7246H21.754H21.7835H21.8129H21.8424H21.8718H21.9013H21.9308H21.9602H21.9897H22.0191H22.0486H22.078H22.1075H22.1369H22.1664H22.1958H22.2253H22.2547H22.2842H22.3137C23.1583 1.2677 23.8465 1.43649 24.3952 1.75109C24.9372 2.06185 25.3873 2.53985 25.7243 3.23547C25.9303 3.67735 26.0374 4.22037 26.0374 4.74233L26.0375 4.74759C26.0687 9.2067 26.0583 13.6763 26.0479 18.1501V18.1518C26.0479 19.9136 24.9121 21.2539 23.1282 21.5789L23.1266 21.5792C22.8823 21.6243 22.6181 21.6264 22.2719 21.6264H22.2381H22.2044H22.1706H22.1368H22.103H22.0692H22.0354H22.0016H21.9678H21.934H21.9002H21.8665H21.8327H21.7989H21.7651H21.7313H21.6975H21.6637H21.6299H21.5961H21.5623H21.5285H21.4948H21.461H21.4272H21.3934H21.3596H21.3258H21.292H21.2582H21.2244H21.1906H21.1569H21.1231H21.0893H21.0555H21.0217H20.9879H20.9541H20.9203H20.8865H20.8527H20.8189H20.7852H20.7514H20.7176H20.6838H20.65H20.6162H20.5824H20.5486H20.5148H20.481H20.4473H20.4135H20.3797H20.3459H20.3121H20.2783H20.2445H20.2107H20.1769H20.1431H20.1094H20.0756H20.0418H20.008H19.9742H19.9404H19.9066H19.8728H19.839H19.8052H19.7714H19.7377H19.7039H19.6701H19.6363H19.6025H19.5687H19.5349H19.5011H19.4673H19.4335H19.3998H19.366H19.3322H19.2984H19.2646H19.2308H19.197H19.1632H19.1294H19.0956H19.0618H19.0281H18.9943H18.9605H18.9267H18.8929H18.8591H18.8253H18.7915H18.7577H18.7239H18.6902H18.6564H18.6226H18.5888H18.555H18.5212H18.4874H18.4536H18.4198H18.386H18.3522H18.3185H18.2847H18.2509H18.2171H18.1833H18.1495H18.1157H18.0819H18.0481H18.0143H17.9806H17.9468H17.913H17.8792H17.8454H17.8116H17.7778H17.744H17.7102H17.6764H17.6426H17.6089H17.5751H17.5413H17.5075H17.4737H17.4399H17.4061H17.3723H17.3385H17.3047H17.271H17.2372H17.2034H17.1696H17.1358H17.102H17.0682H17.0344H17.0006H16.9668H16.9331H16.8993H16.8655H16.8317H16.7979H16.7641H16.7303H16.6965H16.6627H16.6289H16.5951H16.5614H16.5276H16.4938H16.46H16.4262H16.3924H16.3586H16.3248H16.291H16.2572H16.2235H16.1897H16.1559H16.1221H16.0883H16.0545H16.0207H15.9869H15.9531H15.9193H15.8855H15.8518H15.818H15.7842H15.7504H15.7166H15.6828H15.649H15.6152H15.5814H15.5476H15.5139H15.4801H15.4463H15.4125H15.3787H15.3449H15.3111H15.2773H15.2435H15.2097H15.1759H15.1422H15.1084H15.0746H15.0408H15.007H14.9732H14.9394H14.9056H14.8718H14.838H14.8043H14.7705H14.7367H14.7029H14.6691H14.6353H14.6015H14.5677H14.5339H14.5001H14.4663H14.4326H14.3988H14.365H14.3312H14.2974H14.2636H14.2298H14.196H14.1622H14.1284H14.0947H14.0609H14.0271H13.9933H13.9595H13.9257H13.8919H13.8581H13.8243H13.7905H13.7567H13.723H13.6892H13.6554H13.6216H13.5878H13.554H13.5202H13.4864H13.4526H13.4188H13.3851H13.3513H13.3175H13.2837H13.2499H13.2161H13.1823H13.1485H13.1147H13.0809H13.0471H13.0134H12.9796H12.9458H12.912H12.8782H12.8444H12.8106H12.7768H12.743H12.7092H12.6755H12.6417H12.6079H12.5741H12.5403H12.5065H12.4727H12.4389H12.4051H12.3713H12.3376H12.3038H12.27H12.2362H12.2024H12.1686H12.1348H12.101H12.0672H12.0334H11.9996H11.9659H11.9321H11.8983H11.8645H11.8307H11.7969H11.7631H11.7293H11.6955H11.6617H11.628H11.5942H11.5604H11.5266H11.4928H11.459H11.4252H11.3914H11.3576H11.3238H11.29H11.2563H11.2225H11.1887H11.1549H11.1211H11.0873H11.0535H11.0197H10.9859H10.9521H10.9184H10.8846H10.8508H10.817H10.7832H10.7494H10.7156H10.6818H10.648H10.6142H10.5804H10.5467H10.5129H10.4791H10.4453H10.4115H10.3777H10.3439H10.3101H10.2763H10.2425H10.2088H10.175H10.1412H10.1074H10.0736H10.0398H10.006H9.97222H9.93843H9.90464H9.87085H9.83706H9.80327H9.76948H9.73569H9.7019H9.66811H9.63432H9.60052H9.56673H9.53294H9.49915H9.46536H9.43157H9.39778H9.36399H9.3302H9.29641H9.26262H9.22883H9.19504H9.16125H9.12746H9.09367H9.05988H9.02609H8.9923H8.95851H8.92472H8.89093H8.85714H8.82335H8.78955H8.75576H8.72197H8.68818H8.65439H8.6206H8.58681H8.55302H8.51923H8.48544H8.45165H8.41786H8.38407H8.35028H8.31649H8.2827H8.24891H8.21512H8.18133H8.14754H8.11375H8.07996H8.04616H8.01237H7.97858H7.94479H7.911H7.87721H7.84342H7.80963H7.77584H7.74205H7.70826H7.67447H7.64068H7.60689H7.5731H7.53931H7.50552H7.47173H7.43794H7.40415H7.37036H7.33657H7.30278H7.26898H7.23519H7.2014H7.16761H7.13382H7.10003H7.06624H7.03245H6.99866H6.96487H6.93108H6.89729H6.8635H6.82971H6.79592H6.76213H6.72834H6.69455H6.66076H6.62697H6.59318H6.55939H6.5256H6.49181H6.45801H6.42422H6.39043H6.35664H6.32285H6.28906H6.25527H6.22148H6.18769H6.1539H6.12011H6.08632H6.05253H6.01874H5.98495H5.95116H5.91737H5.88358H5.84979H5.816H5.78221H5.74842H5.71462H5.68083H5.64704H5.61325H5.57946H5.54567H5.51188H5.47809H5.4443H5.41051H5.37672H5.34293H5.30914H5.27535H5.24156H5.20777H5.17398H5.14019H5.1064H5.07261H5.03882H5.00503H4.97124C3.91721 21.6264 3.09698 21.3556 2.4963 20.8944C1.89861 20.4355 1.45712 19.7414 1.2393 18.7811L1.22989 18.7396L1.21584 18.6995C1.20932 18.6808 1.20239 18.6632 1.19531 18.6466V4.14359C1.38312 3.50491 1.56706 3.00321 1.91456 2.59277ZM32.6884 17.3577C31.6837 16.8094 30.6778 16.2605 29.6694 15.7138L39.4622 5.34713C39.4778 6.86014 39.4759 8.38433 39.4739 9.91131C39.4733 10.4208 39.4726 10.9307 39.4726 11.4405C39.4726 12.1367 39.4738 12.8318 39.4749 13.5265V13.5276V13.5287C39.4772 14.9163 39.4796 16.3024 39.4726 17.693L38.7226 17.6883C38.7226 17.6886 38.7226 17.6889 38.7226 17.6892C38.7149 18.8136 37.6027 19.658 36.4066 19.3185C36.2111 19.2608 35.9955 19.1609 35.77 19.0355L35.77 19.0355L35.7629 19.0316C34.7368 18.4755 33.7132 17.9169 32.6884 17.3577L32.6884 17.3577Z" stroke="#475165" stroke-width="1.5"/>
</svg>
