<svg width="24" height="24" viewBox="0 0 24 24" fill="none" xmlns="http://www.w3.org/2000/svg">
<path d="M0.808594 10.3347C0.873474 9.90528 0.919817 9.47583 1.00787 9.0511C1.42496 7.07844 2.39817 5.42198 3.83945 4.05339C5.79051 2.19872 8.12158 1.18408 10.7632 0.896201C13.6642 0.58473 16.38 1.16048 18.8501 2.76503C21.005 4.16665 22.539 6.07796 23.2017 8.63108C23.8691 11.1984 23.4612 13.6193 22.0617 15.8421C20.5462 18.249 18.3542 19.7355 15.6895 20.5284C13.9979 21.0286 12.2693 21.1749 10.5175 20.9012C10.1839 20.8493 9.91507 20.9106 9.62774 21.0899C8.19109 21.996 6.74518 22.8833 5.29927 23.7752C5.22975 23.8177 5.16951 23.8696 5.10926 23.9168C5.09536 23.9168 5.08145 23.9168 5.06292 23.9168C5.06292 22.2792 5.06291 20.6416 5.06755 19.004C5.06755 18.8625 5.02584 18.7775 4.91462 18.6878C4.5346 18.3811 4.14532 18.0791 3.79311 17.7346C2.27768 16.2574 1.2813 14.4924 0.933721 12.3687C0.887378 12.095 0.850303 11.8213 0.808594 11.5523C0.808594 11.1465 0.808594 10.7406 0.808594 10.3347ZM6.43468 21.3448C6.5181 21.2976 6.57834 21.2646 6.64322 21.2268C7.49131 20.7077 8.34866 20.2074 9.18284 19.6647C9.56286 19.4146 9.92434 19.2636 10.3692 19.4382C10.4434 19.4665 10.5314 19.4571 10.6102 19.4712C12.2044 19.7119 13.7801 19.5892 15.3187 19.1267C17.5617 18.4566 19.434 17.2202 20.7594 15.2239C21.9875 13.3739 22.3768 11.3447 21.867 9.16436C21.3758 7.05957 20.1616 5.44086 18.4422 4.23272C15.8517 2.41109 12.9645 1.87781 9.8919 2.49603C7.24105 3.02931 5.03048 4.34599 3.51041 6.67258C2.0923 8.84345 1.82351 11.1936 2.73184 13.6429C3.40846 15.474 4.65509 16.8426 6.26321 17.8856C6.41151 17.9799 6.46712 18.0838 6.46249 18.2631C6.43931 19.2258 6.43468 20.1886 6.42541 21.1513C6.42541 21.2079 6.43004 21.2646 6.43468 21.3448Z" fill="black"/>
<path d="M12.177 8.75834C13.8036 8.75834 15.4257 8.75834 17.0523 8.75834C17.6038 8.75834 17.9607 9.22555 17.7846 9.71636C17.6826 10.0042 17.4694 10.16 17.1728 10.1977C17.0987 10.2072 17.0245 10.2024 16.9504 10.2024C13.7527 10.2024 10.555 10.2024 7.35726 10.2024C7.2553 10.2024 7.14871 10.2072 7.04676 10.1836C6.68528 10.1081 6.44429 9.76827 6.486 9.40488C6.52308 9.0415 6.81504 8.76306 7.19506 8.75834C7.82996 8.7489 8.46487 8.75362 9.09977 8.75362C10.124 8.75834 11.1482 8.75834 12.177 8.75834Z" fill="black"/>
<path d="M12.1461 14.5348C10.9783 14.5348 9.81505 14.5395 8.6472 14.5348C8.11425 14.5348 7.76667 14.0582 7.94278 13.5768C8.04473 13.2889 8.25791 13.1332 8.55451 13.1001C8.62866 13.0907 8.70281 13.0954 8.77696 13.0954C11.0292 13.0954 13.2815 13.0954 15.5338 13.0954C15.6358 13.0954 15.7424 13.0907 15.8443 13.1143C16.1965 13.1898 16.4329 13.5154 16.4051 13.8741C16.3773 14.2328 16.0992 14.5112 15.7377 14.5395C15.6636 14.5442 15.5894 14.5442 15.5153 14.5442C14.3891 14.5348 13.2676 14.5348 12.1461 14.5348Z" fill="black"/>
</svg>
