<svg width="21" height="21" viewBox="0 0 21 21" fill="none" xmlns="http://www.w3.org/2000/svg">
<path id="notebook" d="M17.0604 20.001H4.11936C3.36137 20.0212 2.62626 19.7402 2.07503 19.2195C1.5238 18.6988 1.20138 17.9809 1.17836 17.223V15.557H0.590362C0.514542 15.5616 0.438593 15.5506 0.367183 15.5247C0.295774 15.4988 0.230413 15.4586 0.175119 15.4065C0.119825 15.3544 0.0757656 15.2916 0.0456504 15.2219C0.0155351 15.1521 0 15.077 0 15.001C0 14.9251 0.0155351 14.8499 0.0456504 14.7802C0.0757656 14.7104 0.119825 14.6476 0.175119 14.5955C0.230413 14.5435 0.295774 14.5032 0.367183 14.4774C0.438593 14.4515 0.514542 14.4405 0.590362 14.445H1.17836V5.55702H0.590362C0.514542 5.56157 0.438593 5.55056 0.367183 5.52468C0.295774 5.49879 0.230413 5.45858 0.175119 5.4065C0.119825 5.35442 0.0757656 5.29159 0.0456504 5.22186C0.0155351 5.15213 0 5.07697 0 5.00102C0 4.92506 0.0155351 4.84991 0.0456504 4.78018C0.0757656 4.71045 0.119825 4.64761 0.175119 4.59554C0.230413 4.54346 0.295774 4.50324 0.367183 4.47736C0.438593 4.45147 0.514542 4.44047 0.590362 4.44502H1.17836V2.77902C1.20138 2.0211 1.5238 1.3032 2.07503 0.782519C2.62626 0.26184 3.36137 -0.0191746 4.11936 0.00101756H17.0604C17.8184 -0.0191746 18.5535 0.26184 19.1047 0.782519C19.6559 1.3032 19.9783 2.0211 20.0014 2.77902V17.223C19.9783 17.9809 19.6559 18.6988 19.1047 19.2195C18.5535 19.7402 17.8184 20.0212 17.0604 20.001ZM2.35436 15.557V17.223C2.36822 17.6778 2.56174 18.1086 2.89255 18.4211C3.22336 18.7335 3.66449 18.9021 4.11936 18.89H17.0604C17.5152 18.9021 17.9564 18.7335 18.2872 18.4211C18.618 18.1086 18.8115 17.6778 18.8254 17.223V2.77902C18.8115 2.3242 18.618 1.8934 18.2872 1.58096C17.9564 1.26853 17.5152 1.0999 17.0604 1.11202H4.11936C3.66449 1.0999 3.22336 1.26853 2.89255 1.58096C2.56174 1.8934 2.36822 2.3242 2.35436 2.77902V4.44502H2.94336C3.01918 4.44047 3.09513 4.45147 3.16654 4.47736C3.23795 4.50324 3.30331 4.54346 3.3586 4.59554C3.4139 4.64761 3.45796 4.71045 3.48807 4.78018C3.51819 4.84991 3.53372 4.92506 3.53372 5.00102C3.53372 5.07697 3.51819 5.15213 3.48807 5.22186C3.45796 5.29159 3.4139 5.35442 3.3586 5.4065C3.30331 5.45858 3.23795 5.49879 3.16654 5.52468C3.09513 5.55056 3.01918 5.56157 2.94336 5.55702H2.35436V14.445H2.94336C3.01918 14.4405 3.09513 14.4515 3.16654 14.4774C3.23795 14.5032 3.30331 14.5435 3.3586 14.5955C3.4139 14.6476 3.45796 14.7104 3.48807 14.7802C3.51819 14.8499 3.53372 14.9251 3.53372 15.001C3.53372 15.077 3.51819 15.1521 3.48807 15.2219C3.45796 15.2916 3.4139 15.3544 3.3586 15.4065C3.30331 15.4586 3.23795 15.4988 3.16654 15.5247C3.09513 15.5506 3.01918 15.5616 2.94336 15.557H2.35436ZM14.7074 8.89002H6.47136C6.01649 8.90213 5.57536 8.73351 5.24455 8.42107C4.91374 8.10863 4.72022 7.67784 4.70636 7.22302V5.00102C4.72022 4.5462 4.91374 4.1154 5.24455 3.80296C5.57536 3.49053 6.01649 3.3219 6.47136 3.33402H14.7064C15.1614 3.32163 15.6028 3.49014 15.9338 3.8026C16.2648 4.11507 16.4585 4.54602 16.4724 5.00102V7.22302C16.4585 7.67784 16.265 8.10863 15.9342 8.42107C15.6034 8.73351 15.1622 8.90213 14.7074 8.89002ZM6.47136 4.44502C6.31989 4.44125 6.17308 4.49763 6.06308 4.60183C5.95307 4.70603 5.88881 4.84956 5.88436 5.00102V7.22302C5.88881 7.37465 5.95321 7.51834 6.06343 7.62256C6.17366 7.72679 6.32072 7.78305 6.47236 7.77902H14.7074C14.859 7.78305 15.0061 7.72679 15.1163 7.62256C15.2265 7.51834 15.2909 7.37465 15.2954 7.22302V5.00102C15.2909 4.84938 15.2265 4.7057 15.1163 4.60147C15.0061 4.49724 14.859 4.44098 14.7074 4.44502H6.47136Z" fill="#222B45"/>
</svg>
