<svg width="19" height="26" viewBox="0 0 19 26" fill="none" xmlns="http://www.w3.org/2000/svg">
<g id="Group 861">
<g id="Group">
<g id="Group_2">
<path id="Vector" d="M18.9049 5.76926C18.6945 5.4472 18.2582 5.4003 17.9852 5.64753C16.8782 6.64981 16.7958 6.71827 16.5067 7.0077L14.9307 6.79055L14.7707 7.22333C14.9704 7.64022 14.9994 8.12161 14.8478 8.5607L15.1618 8.60393C14.7517 9.18392 14.3932 9.79737 14.0897 10.4376C14.0392 11.4293 14.1301 12.4259 14.3632 13.3977C14.7228 11.7114 15.4681 10.1367 16.539 8.79368L17.1679 8.88032C17.6491 8.94697 18.0959 8.61054 18.1625 8.12661C18.2028 7.83468 18.0946 7.55706 17.8966 7.36804L18.7886 6.56047C19.0117 6.35847 19.0694 6.02116 18.9049 5.76926Z" fill="#EB9C3A"/>
</g>
</g>
<g id="Group_3">
<g id="Group_4">
<path id="Vector_2" d="M14.2058 5.03115C13.8907 4.91446 13.5411 5.07569 13.4247 5.39061L13.1172 6.22248C13.5487 6.2072 13.9544 6.34975 14.2732 6.60223L14.5653 5.81216C14.6817 5.49724 14.5207 5.14754 14.2058 5.03115Z" fill="#EB9C3A"/>
</g>
</g>
<g id="Group_5">
<g id="Group_6">
<path id="Vector_3" d="M15.0765 23.0684C16.0655 22.8144 16.7965 21.917 16.7965 20.8488C16.7965 20.4457 16.692 20.067 16.5091 19.738C16.3111 19.3815 16.0208 19.0835 15.6704 18.8761L14.1599 15.0149C13.497 13.3204 13.2657 11.5067 13.4659 9.72754C13.4031 9.73778 13.4763 9.72867 12.2295 9.86858C12.0605 11.7534 12.3264 13.6657 13.0275 15.4579L14.2255 18.5204L13.4542 18.4179L12.7366 16.5833L12.5506 18.2978L10.2997 17.9986C10.1325 18.2679 9.90988 18.4895 9.61261 18.6566L9.98883 18.6748C10.3538 18.6924 10.6598 18.9779 10.6776 19.3428C10.6985 19.7703 10.3464 20.105 9.93914 20.0845C9.6452 20.0702 7.7094 19.9766 7.45418 19.9643C7.06517 19.9455 6.76501 19.6149 6.78382 19.2259C6.80024 18.8873 7.06184 18.5332 7.58733 18.5587C7.23586 18.3123 6.97461 17.952 6.85199 17.5403L5.61645 17.3761L6.22618 15.461C6.26838 15.3285 6.28308 15.1886 6.26931 15.0502L6.06103 12.9527C4.10828 12.5884 4.16518 12.6079 3.96685 12.5364L4.21571 15.0423L3.58583 17.0207C1.58388 17.1504 0 18.8142 0 20.8488C0 21.9715 0.482221 22.9814 1.25069 23.6831L0.683636 24.2502C0.511281 24.4226 0.479427 24.6988 0.625416 24.894C0.807376 25.1372 1.15395 25.1556 1.36071 24.9488L2.06002 24.2495C2.59145 24.5278 3.19574 24.6861 3.83723 24.6861C4.40928 24.6861 13.865 23.2246 13.865 23.2246L15.5609 24.9463C15.7493 25.1376 16.0573 25.1401 16.2487 24.9515C16.44 24.7631 16.4424 24.4551 16.2539 24.2637L15.0765 23.0684ZM6.12758 20.9683C6.06848 22.1334 5.12173 23.0801 3.95661 23.1392C2.59586 23.2081 1.47807 22.0904 1.54703 20.7296C1.60608 19.5644 2.55278 18.6177 3.71795 18.5586C5.0787 18.4896 6.19649 19.6075 6.12758 20.9683Z" fill="#EB9C3A"/>
</g>
</g>
<g id="Group_7">
<g id="Group_8">
<path id="Vector_4" d="M10.4975 0.221789C9.45255 -0.321641 8.17427 0.172685 7.76679 1.27777C7.4308 2.18904 7.83202 3.22655 8.69374 3.67462C9.7387 4.218 11.0168 3.72372 11.4244 2.61868C11.7604 1.70741 11.3593 0.669901 10.4975 0.221789Z" fill="#EB9C3A"/>
</g>
</g>
<g id="Group_9">
<g id="Group_10">
<path id="Vector_5" d="M13.0808 7.10888L10.0475 7.44937L8.20782 5.25767C8.60384 5.53671 9.18559 5.9466 10.0566 6.56035L12.2789 6.31101C12.2789 6.31101 9.01088 4.87719 7.03922 4.00517C6.4387 3.73961 5.70503 4.1171 5.43652 4.82382C5.24359 5.33182 3.72827 9.32116 3.48201 9.96956C3.21556 10.6709 3.48059 11.4344 4.10336 11.671C4.31115 11.7854 4.10885 11.7268 8.10334 12.4719L7.62612 16.882C7.55824 17.5096 8.05007 18.0549 8.68024 18.0549C9.21377 18.0549 9.67291 17.6527 9.73172 17.1099L10.3144 11.7247C10.374 11.1745 9.99988 10.6713 9.45586 10.5698L7.77559 10.2564L8.19567 9.24118C8.05296 8.93784 6.99149 6.68037 6.85599 6.39231L8.99971 8.94636C9.18662 9.16914 9.47556 9.28941 9.77406 9.25603L13.2547 8.8654C13.7047 8.81488 14.0627 8.44086 14.0618 7.9879C14.0608 7.45231 13.5984 7.05076 13.0808 7.10888Z" fill="#EB9C3A"/>
</g>
</g>
</g>
</svg>
