<svg width="16" height="24" viewBox="0 0 16 24" fill="none" xmlns="http://www.w3.org/2000/svg">
<g id="Group">
<g id="Group_2">
<path id="Vector" d="M7.24367 9.68963C7.24367 10.6542 6.36489 11.6871 5.22549 11.6871V21.675C5.22549 23.9862 2.07533 23.9862 2.07533 21.675V11.6871C0.965783 11.6871 0 10.8325 0 9.5523V0.592423C0 -0.187461 1.1273 -0.217501 1.1273 0.622463V7.2462H2.07065V0.562382C2.07065 -0.154494 3.15582 -0.200725 3.15582 0.592423V7.24601H4.13077V0.57038C4.13077 -0.178097 5.18433 -0.208333 5.18433 0.60042V7.2462H6.14348V0.57038C6.14348 -0.170295 7.24425 -0.200725 7.24425 0.60042L7.24367 9.68963Z" fill="#2C47F8"/>
</g>
<g id="Group_3">
<path id="Vector_2" d="M15.648 2.67455V21.6666C15.648 23.9269 12.4915 23.8935 12.4915 21.6666V14.4758H10.8105V2.67455C10.8107 -0.875891 15.648 -0.875891 15.648 2.67455Z" fill="#2C47F8"/>
</g>
</g>
</svg>
