<svg width="25" height="23" viewBox="0 0 25 23" fill="none" xmlns="http://www.w3.org/2000/svg">
<path d="M24.6787 8.27989C24.5944 8.77038 24.5342 9.26699 24.4198 9.74522C24.1128 11.0205 23.5047 12.1425 22.74 13.1848C21.5599 14.7911 20.127 16.1522 18.6459 17.4643C16.8999 19.0093 15.1478 20.5421 13.3958 22.081C12.7214 22.6696 11.9989 22.6942 11.3487 22.124C9.0668 20.113 6.78492 18.1019 4.53314 16.0603C3.37715 15.0119 2.33556 13.8347 1.48663 12.5042C-0.0306137 10.1131 -0.44605 7.55028 0.517276 4.85872C1.39029 2.42466 3.08213 0.830572 5.61689 0.333951C8.24797 -0.181063 10.3673 0.775393 12.0531 2.84158C12.1374 2.93968 12.2097 3.05004 12.2879 3.14814C12.3 3.1604 12.312 3.16653 12.3542 3.20332C12.4445 3.08682 12.5348 2.9642 12.6311 2.84771C13.6065 1.63375 14.7986 0.738607 16.3219 0.37074C18.977 -0.266897 21.7948 0.861227 23.324 3.15427C24.0827 4.28852 24.4981 5.53927 24.6366 6.89425C24.6426 6.98009 24.6667 7.06592 24.6787 7.15789C24.6787 7.52576 24.6787 7.90589 24.6787 8.27989ZM12.3421 21.051C12.4023 21.002 12.4565 20.9652 12.5047 20.9223C14.4554 19.2055 16.4122 17.5072 18.3448 15.7721C19.6935 14.5582 20.9759 13.2767 21.9814 11.7378C22.9327 10.2725 23.4023 8.67228 23.1856 6.90651C22.9508 4.99974 22.15 3.41791 20.4822 2.41853C18.9289 1.49273 17.2972 1.37624 15.6475 2.17942C14.6722 2.65765 13.9557 3.43017 13.3536 4.33144C13.2693 4.4602 13.191 4.59508 13.1007 4.7177C12.7034 5.2695 11.9989 5.26951 11.5955 4.72384C11.2463 4.24561 10.9212 3.74286 10.5238 3.31368C9.23538 1.92191 7.63987 1.3885 5.79751 1.79316C3.81667 2.22847 2.51016 3.50987 1.85389 5.43504C1.08925 7.6729 1.4505 9.77588 2.72089 11.7378C3.50359 12.9579 4.46692 14.0247 5.52658 14.9935C7.27261 16.5937 9.05476 18.1571 10.8249 19.7328C11.3246 20.1681 11.8303 20.6034 12.3421 21.051Z" fill="black"/>
</svg>
