<svg width="18" height="18" viewBox="0 0 18 18" fill="none" xmlns="http://www.w3.org/2000/svg">
<g id="1. Icons - Line -  info-circle" clip-path="url(#clip0_529_807)">
<path id="info-circle" d="M9 18C7.21997 18 5.47991 17.4722 3.99987 16.4832C2.51983 15.4943 1.36628 14.0887 0.685088 12.4442C0.00389957 10.7996 -0.17433 8.99002 0.172937 7.24419C0.520203 5.49836 1.37737 3.89472 2.63604 2.63604C3.89472 1.37737 5.49836 0.520203 7.24419 0.172937C8.99002 -0.17433 10.7996 0.00389957 12.4442 0.685088C14.0887 1.36628 15.4943 2.51983 16.4832 3.99987C17.4722 5.47991 18 7.21997 18 9C17.9974 11.3861 17.0483 13.6738 15.361 15.361C13.6738 17.0483 11.3861 17.9974 9 18ZM9 0.900004C7.21692 0.900047 5.48368 1.48845 4.0691 2.57395C2.65451 3.65944 1.63763 5.18138 1.17616 6.90371C0.714698 8.62604 0.834441 10.4525 1.51682 12.0999C2.1992 13.7472 3.40608 15.1233 4.95028 16.0149C6.49448 16.9064 8.28971 17.2635 10.0575 17.0307C11.8254 16.7979 13.467 15.9884 14.7278 14.7275C15.9886 13.4667 16.7982 11.8251 17.0309 10.0572C17.2636 8.28942 16.9065 6.49419 16.015 4.95C15.3034 3.71923 14.2807 2.69719 13.0494 1.98635C11.8182 1.27552 10.4217 0.900881 9 0.900004ZM11.25 13.5H7.65C7.53066 13.5 7.4162 13.4526 7.33181 13.3682C7.24741 13.2838 7.2 13.1694 7.2 13.05C7.2 12.9307 7.24741 12.8162 7.33181 12.7318C7.4162 12.6474 7.53066 12.6 7.65 12.6H9V8.1H7.65C7.53066 8.1 7.4162 8.05259 7.33181 7.9682C7.24741 7.88381 7.2 7.76935 7.2 7.65C7.2 7.53066 7.24741 7.4162 7.33181 7.33181C7.4162 7.24741 7.53066 7.2 7.65 7.2H9.45C9.56935 7.2 9.68381 7.24741 9.7682 7.33181C9.85259 7.4162 9.9 7.53066 9.9 7.65V12.6H11.25C11.3694 12.6 11.4838 12.6474 11.5682 12.7318C11.6526 12.8162 11.7 12.9307 11.7 13.05C11.7 13.1694 11.6526 13.2838 11.5682 13.3682C11.4838 13.4526 11.3694 13.5 11.25 13.5ZM9.45 6.3H8.55C8.43074 6.29974 8.31643 6.25224 8.2321 6.16791C8.14776 6.08358 8.10027 5.96927 8.1 5.85V4.95C8.1 4.83066 8.14741 4.7162 8.23181 4.63181C8.3162 4.54741 8.43066 4.5 8.55 4.5H9.45C9.56935 4.5 9.68381 4.54741 9.7682 4.63181C9.85259 4.7162 9.9 4.83066 9.9 4.95V5.85C9.9 5.96935 9.85259 6.08381 9.7682 6.1682C9.68381 6.25259 9.56935 6.3 9.45 6.3Z" fill="#222B45"/>
</g>
<defs>
<clipPath id="clip0_529_807">
<rect width="18" height="18" fill="white"/>
</clipPath>
</defs>
</svg>
