<svg width="51" height="51" viewBox="0 0 51 51" fill="none" xmlns="http://www.w3.org/2000/svg">
<g id="Group 858">
<g id="Group">
<path id="Vector" d="M34.2346 15.828C34.2346 11.0132 30.3174 7.09619 25.5028 7.09619C20.688 7.09619 16.7709 11.0132 16.7709 15.828C16.7709 15.828 16.6736 18.6924 18.1464 20.7769C19.3065 22.6115 22.8777 25.4847 22.8777 25.4847C22.8777 25.3977 21.6217 21.2799 20.5354 18.3532C19.9992 16.9087 20.0669 15.4818 20.0699 15.4387C20.2701 12.6165 22.6303 10.3816 25.5026 10.3816C28.5056 10.3816 30.9488 12.8248 30.9488 15.8279H34.2346V15.828Z" fill="url(#paint0_linear_529_726)"/>
<path id="Vector_2" d="M34.2261 15.853C34.2261 15.8506 34.2261 15.8485 34.2261 15.8462C34.2261 15.8462 34.4923 13.0066 32.2324 10.1628C28.432 6.18591 24.147 6.75093 21.5275 8.02118C19.0501 9.22268 18.0675 11.2553 18.0675 11.2553C18.0674 11.2931 20.9693 6.59415 26.6881 8.90889C28.6395 9.81768 29.7841 12.1215 30.3488 13.3424C30.9807 14.7088 30.9309 16.1565 30.9281 16.1989C30.8706 17.0847 30.6135 18.4001 30.052 19.0199L29.9782 19.1014L29.9157 19.1923C29.2353 20.1819 27.2374 22.0289 24.7018 24.0123L24.0711 24.5056V24.5459C22.4218 25.8464 20.3061 27.5676 18.4315 29.8511C16.8194 31.721 16.7676 34.7602 16.7676 35.1386C16.7676 35.1408 16.7676 35.143 16.7676 35.145L18.4114 35.1424L20.053 35.1443C20.0566 34.2931 20.3009 32.679 20.9418 31.9714L21.0156 31.8899L21.078 31.7992C21.7958 30.755 24.0088 28.7339 26.7158 26.6501L27.3565 26.1569V26.1011C29.0471 24.7478 31.4628 22.6863 32.5623 21.1403C34.1743 19.2707 34.2261 16.2319 34.2261 15.853Z" fill="url(#paint1_linear_529_726)"/>
<path id="Vector_3" d="M34.2354 35.1422H30.95C30.95 38.1452 28.5066 40.5885 25.5037 40.5885C22.5005 40.5885 20.0572 38.1452 20.0572 35.1422C20.0572 35.1422 20.0498 34.3134 20.3562 33.1389C20.423 32.8826 20.8509 31.7666 22.7754 30.0642C24.8602 27.9071 28.5525 25.3649 29.4988 22.4831C31.3352 16.8911 30.8918 15.4028 30.8918 15.4028C30.8918 15.4028 30.9935 16.8179 30.543 18.2159C29.9272 19.4207 28.5628 20.8184 26.3313 22.6952C22.4558 25.4673 18.7572 29.1225 17.9192 30.5628C16.5908 32.8264 16.7719 35.2183 16.7721 35.2393C16.8244 40.0095 20.7211 43.874 25.5035 43.874C30.3182 43.874 34.2354 39.9568 34.2354 35.1422Z" fill="url(#paint2_linear_529_726)"/>
<path id="Vector_4" d="M34.226 35.1383C34.226 35.0878 34.2251 34.9901 34.2197 34.8542C34.1845 33.9703 33.9593 31.4715 32.5622 29.8509C31.3621 28.164 26.2919 24.0123 26.2919 24.0123C23.7563 22.0288 21.7584 20.1818 21.078 19.1922L21.0155 19.1014L20.9417 19.0199C20.2694 18.2777 20.0531 16.5734 20.0531 15.8576C20.0531 15.8557 20.0531 15.8537 20.0531 15.8517L16.7676 15.8462C16.7676 15.8483 16.7676 15.8505 16.7676 15.8528C16.7676 16.2312 16.8193 19.2703 18.4313 21.1401C19.5309 22.6862 21.9466 24.7477 23.6371 26.1011L24.2778 26.6501C26.9849 28.7338 29.1978 30.7549 29.9156 31.799L29.9779 31.8898L30.0519 31.9714C30.7242 32.7137 30.9406 34.418 30.9406 35.1337C30.9406 35.1357 30.9406 35.1376 30.9406 35.1397C30.9406 35.1397 30.7471 39.1209 28.4091 40.9822C22.3917 44.7315 18.9226 40.8756 18.9226 40.8756C18.9226 40.8751 20.3443 42.7142 22.9722 43.5001C25.677 44.3091 29.6444 44.3568 32.8849 39.9369C34.3901 37.8158 34.226 35.1393 34.226 35.1383Z" fill="url(#paint3_linear_529_726)"/>
<g id="Group_2">
<path id="Vector_5" d="M20.0699 15.4384C20.0762 15.3495 20.0846 15.2614 20.0951 15.1738H16.7949C16.7789 15.3897 16.7706 15.6078 16.7706 15.8277C16.7706 15.8277 16.6393 18.6921 18.1121 20.7766C19.9432 23.2251 22.8775 25.4844 22.8775 25.4844C24.0842 26.5503 27.9959 29.4209 29.4483 31.2136C31.5859 33.3777 30.6929 36.7924 30.6929 36.7924C30.6929 36.7579 32.4484 33.423 28.8168 28.0908C26.0231 23.8189 21.1368 19.8645 20.5351 18.3528C19.9655 16.9212 20.0668 15.4814 20.0699 15.4384Z" fill="url(#paint4_linear_529_726)"/>
</g>
</g>
<path id="Vector_6" d="M50.3985 25.5C50.3985 39.251 39.251 50.3985 25.5 50.3985C11.749 50.3985 0.601537 39.251 0.601537 25.5C0.601537 11.749 11.749 0.601537 25.5 0.601537C39.251 0.601537 50.3985 11.749 50.3985 25.5ZM25.5 0C11.4167 0 0 11.4167 0 25.5C0 39.5833 11.4167 51 25.5 51C39.5833 51 51 39.5833 51 25.5C51 11.4167 39.5833 0 25.5 0Z" fill="url(#paint5_linear_529_726)"/>
</g>
<defs>
<linearGradient id="paint0_linear_529_726" x1="25.5021" y1="7.09617" x2="25.5021" y2="25.4848" gradientUnits="userSpaceOnUse">
<stop stop-color="#37CFF0"/>
<stop offset="0.1496" stop-color="#37CDF0"/>
<stop offset="0.226" stop-color="#36C5F1"/>
<stop offset="0.2858" stop-color="#35B8F1"/>
<stop offset="0.3371" stop-color="#34A5F2"/>
<stop offset="0.3828" stop-color="#328CF4"/>
<stop offset="0.4246" stop-color="#2F6EF6"/>
<stop offset="0.4627" stop-color="#2C4BF8"/>
<stop offset="0.4665" stop-color="#2C47F8"/>
<stop offset="0.4728" stop-color="#3347F2"/>
<stop offset="0.5228" stop-color="#6249C4"/>
<stop offset="0.5757" stop-color="#8C4A9B"/>
<stop offset="0.6308" stop-color="#AF4B79"/>
<stop offset="0.6886" stop-color="#CC4C5D"/>
<stop offset="0.7502" stop-color="#E24D48"/>
<stop offset="0.8171" stop-color="#F24E39"/>
<stop offset="0.8935" stop-color="#FB4E30"/>
<stop offset="1" stop-color="#FE4E2D"/>
</linearGradient>
<linearGradient id="paint1_linear_529_726" x1="34.2358" y1="21.1115" x2="16.7675" y2="21.1115" gradientUnits="userSpaceOnUse">
<stop stop-color="#37CFF0"/>
<stop offset="0.1496" stop-color="#37CDF0"/>
<stop offset="0.226" stop-color="#36C5F1"/>
<stop offset="0.2858" stop-color="#35B8F1"/>
<stop offset="0.3371" stop-color="#34A5F2"/>
<stop offset="0.3828" stop-color="#328CF4"/>
<stop offset="0.4246" stop-color="#2F6EF6"/>
<stop offset="0.4627" stop-color="#2C4BF8"/>
<stop offset="0.4665" stop-color="#2C47F8"/>
<stop offset="0.4728" stop-color="#3347F2"/>
<stop offset="0.5228" stop-color="#6249C4"/>
<stop offset="0.5757" stop-color="#8C4A9B"/>
<stop offset="0.6308" stop-color="#AF4B79"/>
<stop offset="0.6886" stop-color="#CC4C5D"/>
<stop offset="0.7502" stop-color="#E24D48"/>
<stop offset="0.8171" stop-color="#F24E39"/>
<stop offset="0.8935" stop-color="#FB4E30"/>
<stop offset="1" stop-color="#FE4E2D"/>
</linearGradient>
<linearGradient id="paint2_linear_529_726" x1="25.4996" y1="15.4027" x2="25.4996" y2="43.874" gradientUnits="userSpaceOnUse">
<stop stop-color="#37CFF0"/>
<stop offset="0.1496" stop-color="#37CDF0"/>
<stop offset="0.226" stop-color="#36C5F1"/>
<stop offset="0.2858" stop-color="#35B8F1"/>
<stop offset="0.3371" stop-color="#34A5F2"/>
<stop offset="0.3828" stop-color="#328CF4"/>
<stop offset="0.4246" stop-color="#2F6EF6"/>
<stop offset="0.4627" stop-color="#2C4BF8"/>
<stop offset="0.4665" stop-color="#2C47F8"/>
<stop offset="0.4728" stop-color="#3347F2"/>
<stop offset="0.5228" stop-color="#6249C4"/>
<stop offset="0.5757" stop-color="#8C4A9B"/>
<stop offset="0.6308" stop-color="#AF4B79"/>
<stop offset="0.6886" stop-color="#CC4C5D"/>
<stop offset="0.7502" stop-color="#E24D48"/>
<stop offset="0.8171" stop-color="#F24E39"/>
<stop offset="0.8935" stop-color="#FB4E30"/>
<stop offset="1" stop-color="#FE4E2D"/>
</linearGradient>
<linearGradient id="paint3_linear_529_726" x1="17.0128" y1="29.9591" x2="34.1324" y2="29.6603" gradientUnits="userSpaceOnUse">
<stop stop-color="#37CFF0"/>
<stop offset="0.1496" stop-color="#37CDF0"/>
<stop offset="0.226" stop-color="#36C5F1"/>
<stop offset="0.2858" stop-color="#35B8F1"/>
<stop offset="0.3371" stop-color="#34A5F2"/>
<stop offset="0.3828" stop-color="#328CF4"/>
<stop offset="0.4246" stop-color="#2F6EF6"/>
<stop offset="0.4627" stop-color="#2C4BF8"/>
<stop offset="0.4665" stop-color="#2C47F8"/>
<stop offset="0.4728" stop-color="#3347F2"/>
<stop offset="0.5228" stop-color="#6249C4"/>
<stop offset="0.5757" stop-color="#8C4A9B"/>
<stop offset="0.6308" stop-color="#AF4B79"/>
<stop offset="0.6886" stop-color="#CC4C5D"/>
<stop offset="0.7502" stop-color="#E24D48"/>
<stop offset="0.8171" stop-color="#F24E39"/>
<stop offset="0.8935" stop-color="#FB4E30"/>
<stop offset="1" stop-color="#FE4E2D"/>
</linearGradient>
<linearGradient id="paint4_linear_529_726" x1="23.2752" y1="7.77974" x2="23.9119" y2="24.4617" gradientUnits="userSpaceOnUse">
<stop stop-color="#37CFF0"/>
<stop offset="0.1496" stop-color="#37CDF0"/>
<stop offset="0.226" stop-color="#36C5F1"/>
<stop offset="0.2858" stop-color="#35B8F1"/>
<stop offset="0.3371" stop-color="#34A5F2"/>
<stop offset="0.3828" stop-color="#328CF4"/>
<stop offset="0.4246" stop-color="#2F6EF6"/>
<stop offset="0.4627" stop-color="#2C4BF8"/>
<stop offset="0.4665" stop-color="#2C47F8"/>
<stop offset="0.4728" stop-color="#3347F2"/>
<stop offset="0.5228" stop-color="#6249C4"/>
<stop offset="0.5757" stop-color="#8C4A9B"/>
<stop offset="0.6308" stop-color="#AF4B79"/>
<stop offset="0.6886" stop-color="#CC4C5D"/>
<stop offset="0.7502" stop-color="#E24D48"/>
<stop offset="0.8171" stop-color="#F24E39"/>
<stop offset="0.8935" stop-color="#FB4E30"/>
<stop offset="1" stop-color="#FE4E2D"/>
</linearGradient>
<linearGradient id="paint5_linear_529_726" x1="-1.12711e-05" y1="25.5" x2="51" y2="25.5" gradientUnits="userSpaceOnUse">
<stop stop-color="#37CFF0"/>
<stop offset="0.1496" stop-color="#37CDF0"/>
<stop offset="0.226" stop-color="#36C5F1"/>
<stop offset="0.2858" stop-color="#35B8F1"/>
<stop offset="0.3371" stop-color="#34A5F2"/>
<stop offset="0.3828" stop-color="#328CF4"/>
<stop offset="0.4246" stop-color="#2F6EF6"/>
<stop offset="0.4627" stop-color="#2C4BF8"/>
<stop offset="0.4665" stop-color="#2C47F8"/>
<stop offset="0.4728" stop-color="#3347F2"/>
<stop offset="0.5228" stop-color="#6249C4"/>
<stop offset="0.5757" stop-color="#8C4A9B"/>
<stop offset="0.6308" stop-color="#AF4B79"/>
<stop offset="0.6886" stop-color="#CC4C5D"/>
<stop offset="0.7502" stop-color="#E24D48"/>
<stop offset="0.8171" stop-color="#F24E39"/>
<stop offset="0.8935" stop-color="#FB4E30"/>
<stop offset="1" stop-color="#FE4E2D"/>
</linearGradient>
</defs>
</svg>
