<svg width="9" height="12" viewBox="0 0 9 12" fill="none" xmlns="http://www.w3.org/2000/svg">
<path d="M4.95415 0.0351786C4.26415 -0.147263 3.62323 0.404642 3.57703 1.11914C3.52507 1.92143 3.41103 2.65807 3.26812 3.09623C3.1779 3.37104 2.9224 3.86951 2.51749 4.34737C2.11547 4.82294 1.5922 5.2466 0.979426 5.4237C0.494404 5.56339 0 6.00767 0 6.65652V9.7107C0 10.3557 0.492239 10.8283 1.04511 10.8901C1.81739 10.9771 2.17394 11.2069 2.5377 11.442L2.57235 11.4649C2.76866 11.5908 2.98952 11.7305 3.27245 11.8344C3.55899 11.9382 3.89389 12 4.33055 12H6.8567C7.53299 12 8.01079 11.6359 8.25258 11.1878C8.36944 10.9763 8.4326 10.7365 8.43591 10.4916C8.43591 10.3756 8.41931 10.2534 8.38033 10.1374C8.52541 9.93665 8.6546 9.6962 8.73255 9.44963C8.81195 9.19773 8.85669 8.86796 8.73544 8.57254C8.78524 8.4733 8.82205 8.3672 8.8502 8.2649C8.90577 8.0588 8.93176 7.83132 8.93176 7.61071C8.93176 7.39086 8.90577 7.16415 8.8502 6.95728C8.82495 6.86218 8.79161 6.76969 8.7506 6.68094C8.87698 6.49077 8.95829 6.27126 8.98768 6.0409C9.01707 5.81054 8.99369 5.57609 8.91949 5.35729C8.77081 4.90538 8.42725 4.5176 8.05338 4.3863C7.44205 4.17103 6.75205 4.17561 6.23743 4.22523C6.1306 4.2354 6.02399 4.24813 5.9177 4.2634C6.16808 3.12935 6.15272 1.94777 5.87295 0.821434C5.82427 0.640969 5.7309 0.477531 5.60249 0.348024C5.47407 0.218517 5.31528 0.127642 5.14253 0.0847967L4.95415 0.0351786ZM6.8567 11.2374H4.33055C3.96245 11.2374 3.70767 11.1847 3.50774 11.1122C3.30493 11.0382 3.14254 10.9382 2.94766 10.8122L2.91879 10.7939C2.51821 10.5351 2.05412 10.2359 1.12161 10.1313C0.881267 10.1038 0.721758 9.90993 0.721758 9.71146V6.65652C0.721758 6.46263 0.884875 6.24202 1.16925 6.16034C1.95957 5.93133 2.59616 5.40004 3.05592 4.85653C3.51424 4.31455 3.82387 3.73058 3.94946 3.34661C4.12485 2.81226 4.24322 1.997 4.29735 1.17105C4.31539 0.894716 4.55718 0.717618 4.77876 0.775633L4.96786 0.826014C5.08334 0.856548 5.15407 0.935174 5.17573 1.02067C5.47048 2.20847 5.43414 3.46108 5.07107 4.62752C5.05052 4.6924 5.04684 4.76192 5.06041 4.82882C5.07397 4.89572 5.10429 4.95753 5.14819 5.00778C5.19209 5.05803 5.24796 5.09488 5.30994 5.11447C5.37193 5.13406 5.43775 5.13566 5.50052 5.11912L5.50268 5.11836L5.51279 5.11607L5.55465 5.10538C5.80146 5.04995 6.05114 5.00993 6.30239 4.98553C6.78092 4.93973 7.35399 4.94431 7.8253 5.11072C7.95161 5.155 8.15009 5.33973 8.2367 5.6069C8.31393 5.84202 8.2995 6.11835 8.04472 6.38705L7.78994 6.65652L8.04472 6.92674C8.07575 6.95957 8.1205 7.03438 8.15587 7.1672C8.19051 7.29468 8.21 7.44964 8.21 7.61071C8.21 7.77254 8.19051 7.92674 8.15587 8.05498C8.11978 8.18781 8.07575 8.26262 8.04472 8.29544L7.78994 8.5649L8.04472 8.83513C8.07864 8.87101 8.12339 8.97025 8.04833 9.20765C7.97011 9.43786 7.84577 9.64748 7.68384 9.82215L7.42906 10.0916L7.68384 10.3618C7.68817 10.3657 7.71343 10.4 7.71343 10.4916C7.71023 10.6036 7.68018 10.7129 7.6261 10.8092C7.50701 11.029 7.26305 11.2374 6.8567 11.2374Z" fill="#969696"/>
</svg>
