<?xml version="1.0" encoding="UTF-8"?>
<svg xmlns="http://www.w3.org/2000/svg" xmlns:xlink="http://www.w3.org/1999/xlink" width="318pt" height="192.016602pt" viewBox="0 0 318 192.016602" version="1.1">
<defs>
<clipPath id="clip1">
  <path d="M 5 191 L 318 191 L 318 192.015625 L 5 192.015625 Z M 5 191 "/>
</clipPath>
</defs>
<g id="surface1">
<path style=" stroke:none;fill-rule:nonzero;fill:rgb(21.568298%,81.175232%,94.116211%);fill-opacity:1;" d="M 300.175781 191.488281 C 282.308594 191.488281 22.011719 191.546875 21.863281 191.097656 L 21.839844 191.039063 C 21.839844 191.039063 21.816406 190.984375 21.816406 190.960938 C 21.714844 190.730469 -32.25 145.714844 29.945313 100.984375 C 54.28125 83.480469 30.566406 68.519531 49.917969 49.042969 C 72.164063 26.648438 108.234375 35.582031 132.96875 25.417969 C 137.335938 23.628906 141.722656 20.746094 146.109375 16.3125 C 148.578125 13.820313 151.285156 11.648438 154.179688 9.765625 C 154.628906 9.480469 155.078125 9.191406 155.523438 8.914063 C 157.257813 7.859375 159.0625 6.917969 160.910156 6.054688 C 162.152344 5.480469 163.425781 4.953125 164.710938 4.472656 C 166.765625 3.703125 168.867188 3.035156 171.015625 2.460938 C 174.070313 1.65625 177.21875 1.0625 180.421875 0.660156 C 181.824219 0.488281 183.234375 0.335938 184.648438 0.234375 C 212.277344 -1.796875 243.378906 9.617188 259.421875 26.28125 C 262.648438 29.632813 277.347656 47.007813 265.757813 70.882813 C 258.445313 85.960938 289.082031 100.351563 299.957031 117.566406 C 327.667969 161.34375 300.429688 190.914063 300.175781 191.488281 Z M 300.175781 191.488281 "/>
<path style=" stroke:none;fill-rule:nonzero;fill:rgb(87.449646%,92.155457%,99.215698%);fill-opacity:1;" d="M 120.359375 59.859375 C 120.359375 59.859375 128.113281 74.683594 125.265625 75.960938 C 122.417969 77.234375 117.8125 58.8125 117.8125 58.8125 C 117.8125 58.8125 101.054688 56.242188 95.488281 58.539063 C 95.488281 58.539063 109.234375 71.136719 106.15625 71.664063 C 103.078125 72.191406 88.171875 59.753906 88.171875 59.753906 C 88.171875 59.753906 72.347656 61.558594 72.644531 71.171875 C 72.945313 80.78125 78.179688 84.042969 80.570313 83.917969 C 82.957031 83.792969 97.152344 79.265625 97.335938 81.230469 C 97.53125 83.195313 88.8125 89.085938 82.933594 89.050781 C 82.933594 89.050781 93.304688 101.867188 100.847656 98.753906 C 108.394531 95.644531 109.335938 90.109375 114.03125 88.269531 C 118.730469 86.433594 122.644531 86.664063 120.625 88.683594 C 118.613281 90.714844 110.207031 92.324219 107.328125 96.8125 C 104.445313 101.304688 101.917969 104.289063 109.589844 103.578125 C 117.261719 102.855469 129.925781 97.984375 130.824219 91.648438 C 130.855469 91.371094 130.902344 91.105469 130.9375 90.855469 C 130.925781 91.359375 130.824219 91.648438 130.824219 91.648438 C 132.394531 92.015625 135.519531 95.113281 137.769531 97.527344 C 138.113281 97.953125 138.632813 98.527344 139.367188 99.292969 C 139.675781 99.652344 139.929688 99.9375 140.113281 100.144531 C 144.59375 105.738281 146.601563 117.128906 146.601563 117.128906 L 148.265625 117.070313 C 148.3125 104.957031 139.539063 97.6875 139.539063 97.6875 C 133.453125 91.65625 131.71875 85.308594 131.71875 85.308594 C 131.71875 85.308594 143.226563 73.304688 133.53125 64.738281 C 133.566406 64.726563 126.414063 59.835938 120.359375 59.859375 Z M 120.359375 59.859375 "/>
<path style=" stroke:none;fill-rule:nonzero;fill:rgb(87.449646%,92.155457%,99.215698%);fill-opacity:1;" d="M 194.949219 26.542969 C 194.949219 26.542969 187.199219 41.371094 190.046875 42.644531 C 192.894531 43.917969 197.5 25.5 197.5 25.5 C 197.5 25.5 214.253906 22.925781 219.824219 25.222656 C 219.824219 25.222656 206.078125 37.820313 209.15625 38.347656 C 212.234375 38.878906 227.140625 26.441406 227.140625 26.441406 C 227.140625 26.441406 242.976563 28.230469 242.664063 37.84375 C 242.367188 47.457031 237.128906 50.71875 234.742188 50.589844 C 232.351563 50.464844 218.160156 45.941406 217.976563 47.902344 C 217.78125 49.867188 226.496094 55.757813 232.375 55.726563 C 232.375 55.726563 222.003906 68.539063 214.460938 65.429688 C 206.914063 62.316406 205.972656 56.78125 201.277344 54.945313 C 196.578125 53.105469 192.664063 53.335938 194.683594 55.355469 C 196.695313 57.390625 205.101563 58.996094 207.984375 63.488281 C 210.867188 67.976563 213.390625 70.964844 205.722656 70.25 C 198.050781 69.527344 185.382813 64.660156 184.488281 58.320313 C 184.453125 58.042969 184.40625 57.78125 184.371094 57.527344 C 184.382813 58.03125 184.488281 58.320313 184.488281 58.320313 C 182.914063 58.6875 179.789063 61.789063 177.539063 64.199219 C 177.195313 64.625 176.679688 65.199219 175.941406 65.96875 C 175.632813 66.324219 175.378906 66.613281 175.195313 66.816406 C 170.71875 72.410156 168.707031 83.804688 168.707031 83.804688 L 167.042969 83.746094 C 166.996094 71.628906 175.769531 64.359375 175.769531 64.359375 C 181.859375 58.332031 183.589844 51.980469 183.589844 51.980469 C 183.589844 51.980469 172.085938 39.980469 181.777344 31.414063 C 181.742188 31.414063 188.898438 26.519531 194.949219 26.542969 Z M 194.949219 26.542969 "/>
<path style=" stroke:none;fill-rule:nonzero;fill:rgb(87.449646%,92.155457%,99.215698%);fill-opacity:1;" d="M 136.472656 63.683594 C 136.472656 63.683594 134.507813 40.566406 117.097656 35.476563 C 117.097656 35.476563 113.699219 34.535156 111.988281 38.175781 C 110.277344 41.816406 117.144531 42.863281 121.175781 45.023438 C 125.183594 47.191406 134.128906 55.152344 136.472656 63.683594 Z M 136.472656 63.683594 "/>
<path style=" stroke:none;fill-rule:nonzero;fill:rgb(87.449646%,92.155457%,99.215698%);fill-opacity:1;" d="M 136.679688 61.316406 C 136.679688 61.316406 124.550781 47.363281 115.214844 49.144531 C 105.878906 50.914063 108.660156 55.390625 111.472656 54.976563 C 114.285156 54.566406 119.75 52.671875 124.851563 55.046875 C 129.949219 57.425781 136.679688 61.316406 136.679688 61.316406 Z M 136.679688 61.316406 "/>
<path style=" stroke:none;fill-rule:nonzero;fill:rgb(96.861267%,49.01886%,28.234863%);fill-opacity:1;" d="M 214.046875 48.144531 L 214.046875 50.0625 L 129.285156 50.0625 L 129.285156 48.144531 C 129.285156 44.917969 132.796875 42.289063 137.140625 42.289063 L 206.191406 42.289063 C 210.53125 42.289063 214.046875 44.90625 214.046875 48.144531 Z M 214.046875 48.144531 "/>
<path style=" stroke:none;fill-rule:nonzero;fill:rgb(76.077271%,81.175232%,100%);fill-opacity:1;" d="M 214.046875 50.0625 L 214.046875 182.082031 C 214.046875 186.503906 210.53125 190.085938 206.191406 190.085938 L 137.140625 190.085938 C 132.796875 190.085938 129.285156 186.503906 129.285156 182.082031 L 129.285156 50.0625 Z M 214.046875 50.0625 "/>
<path style=" stroke:none;fill-rule:nonzero;fill:rgb(96.861267%,49.01886%,28.234863%);fill-opacity:1;" d="M 206.191406 191.085938 L 137.136719 191.085938 C 132.257813 191.085938 128.296875 187.125 128.296875 182.242188 L 128.296875 50.144531 C 128.296875 45.261719 132.257813 41.300781 137.136719 41.300781 L 206.191406 41.300781 C 211.074219 41.300781 215.035156 45.261719 215.035156 50.144531 L 215.035156 182.242188 C 215.035156 187.125 211.074219 191.085938 206.191406 191.085938 Z M 137.136719 43.277344 C 133.347656 43.277344 130.269531 46.355469 130.269531 50.144531 L 130.269531 182.242188 C 130.269531 186.035156 133.347656 189.109375 137.136719 189.109375 L 206.191406 189.109375 C 209.980469 189.109375 213.058594 186.035156 213.058594 182.242188 L 213.058594 50.144531 C 213.058594 46.355469 209.980469 43.277344 206.191406 43.277344 Z M 137.136719 43.277344 "/>
<path style=" stroke:none;fill-rule:nonzero;fill:rgb(96.861267%,49.01886%,28.234863%);fill-opacity:1;" d="M 208.902344 189.617188 L 135.773438 189.617188 C 132.351563 189.617188 129.570313 186.835938 129.570313 183.414063 L 129.570313 179.464844 L 214.195313 179.464844 L 214.195313 184.324219 C 214.195313 187.25 211.832031 189.617188 208.902344 189.617188 Z M 208.902344 189.617188 "/>
<path style=" stroke:none;fill-rule:nonzero;fill:rgb(100%,69.802856%,49.01886%);fill-opacity:1;" d="M 64.125 151.214844 C 65.066406 156.554688 65.765625 160.5625 65.765625 160.5625 C 63.996094 167.808594 66.660156 177.097656 68.84375 182.945313 C 69.347656 184.277344 69.820313 185.4375 70.210938 186.34375 C 70.210938 186.34375 70.210938 186.34375 70.210938 186.355469 C 70.210938 186.355469 70.210938 186.355469 70.210938 186.367188 C 70.210938 186.378906 70.210938 186.378906 70.222656 186.390625 C 70.234375 186.414063 70.246094 186.445313 70.257813 186.46875 C 70.257813 186.46875 70.257813 186.46875 70.257813 186.480469 C 70.832031 187.800781 71.222656 188.570313 71.222656 188.570313 L 74.449219 188.71875 C 74.449219 188.71875 74.195313 187.332031 73.917969 184.988281 C 73.917969 184.976563 73.917969 184.976563 73.917969 184.964844 C 73.828125 184.207031 73.734375 183.359375 73.65625 182.414063 C 73.160156 177.097656 72.828125 169.082031 73.964844 161.011719 C 76.765625 141.292969 73.070313 128.085938 73.070313 128.085938 L 61.21875 131.910156 L 60.667969 132.082031 C 61.722656 137.675781 63.078125 145.265625 64.125 151.214844 Z M 64.125 151.214844 "/>
<path style=" stroke:none;fill-rule:nonzero;fill:rgb(95.684814%,65.097046%,44.313049%);fill-opacity:1;" d="M 61.871094 138.386719 C 62.929688 143.96875 63.078125 145.265625 64.136719 151.203125 C 70.644531 139.84375 69.683594 136.882813 69.683594 136.882813 Z M 61.871094 138.386719 "/>
<path style=" stroke:none;fill-rule:nonzero;fill:rgb(100%,69.802856%,49.01886%);fill-opacity:1;" d="M 41.453125 184.851563 C 41.464844 185.058594 41.464844 185.265625 41.476563 185.460938 C 41.570313 187.367188 41.730469 188.527344 41.730469 188.527344 L 44.84375 187.445313 C 44.84375 187.445313 44.992188 187 45.242188 186.21875 C 45.347656 185.90625 45.472656 185.527344 45.613281 185.113281 L 45.613281 185.101563 C 45.863281 184.34375 46.175781 183.449219 46.53125 182.4375 C 48.65625 176.363281 52.261719 166.636719 54.363281 164.398438 C 60.367188 158 69.210938 130.082031 69.210938 130.082031 L 57.269531 126.203125 C 55.5 127.925781 54.050781 131.128906 52.890625 134.917969 C 49.964844 144.472656 48.828125 157.644531 48.675781 159.5625 C 48.667969 159.710938 48.585938 159.839844 48.492188 159.941406 C 42.902344 166.167969 41.59375 175.226563 41.429688 181.460938 C 41.398438 182.738281 41.40625 183.875 41.453125 184.851563 Z M 41.453125 184.851563 "/>
<path style=" stroke:none;fill-rule:nonzero;fill:rgb(96.861267%,49.01886%,28.234863%);fill-opacity:1;" d="M 64.605469 139.398438 L 66.683594 139.144531 C 67.683594 138.8125 68.671875 138.582031 69.578125 138.433594 C 72.519531 137.9375 74.746094 138.226563 74.746094 138.226563 C 73.851563 128.589844 72.542969 125.523438 72.542969 125.523438 L 68.210938 133.105469 Z M 64.605469 139.398438 "/>
<path style=" stroke:none;fill-rule:nonzero;fill:rgb(86.665344%,37.254333%,19.999695%);fill-opacity:1;" d="M 64.605469 139.398438 L 66.683594 139.144531 C 67.683594 138.8125 68.671875 138.582031 69.578125 138.433594 C 69.703125 136.582031 68.96875 134.597656 68.210938 133.105469 Z M 64.605469 139.398438 "/>
<path style=" stroke:none;fill-rule:nonzero;fill:rgb(96.861267%,49.01886%,28.234863%);fill-opacity:1;" d="M 72.542969 125.511719 C 72.542969 125.511719 69.679688 127.671875 66.777344 127.476563 C 63.871094 127.28125 55.394531 125.339844 55.394531 125.339844 C 55.394531 125.339844 53.820313 127.625 52.730469 132.152344 C 51.59375 136.824219 51.59375 140.292969 51.59375 140.292969 C 51.59375 140.292969 61.539063 138.996094 65.535156 141.097656 Z M 72.542969 125.511719 "/>
<path style=" stroke:none;fill-rule:nonzero;fill:rgb(100%,69.802856%,49.01886%);fill-opacity:1;" d="M 70.484375 191.671875 C 71.65625 191.683594 74.425781 191.375 75.527344 191.671875 L 79.972656 191.671875 C 81.003906 191.039063 81.429688 190.292969 78.683594 189.960938 C 74.722656 189.46875 74 185.492188 73.917969 184.988281 C 73.917969 184.976563 73.917969 184.976563 73.917969 184.964844 C 73.917969 184.941406 73.917969 184.929688 73.917969 184.929688 L 70.210938 186.355469 C 70.210938 186.355469 70.210938 186.355469 70.210938 186.367188 C 70.210938 186.367188 70.210938 186.367188 70.210938 186.378906 C 70.210938 186.378906 70.222656 186.390625 70.222656 186.402344 C 70.234375 186.425781 70.246094 186.445313 70.253906 186.480469 C 70.253906 186.480469 70.253906 186.480469 70.253906 186.492188 C 70.382813 186.835938 70.679688 187.824219 70.265625 189.007813 C 69.933594 189.996094 69.3125 191.648438 70.484375 191.671875 Z M 70.484375 191.671875 "/>
<path style=" stroke:none;fill-rule:nonzero;fill:rgb(100%,69.802856%,49.01886%);fill-opacity:1;" d="M 41.328125 191.671875 C 42.5 191.683594 45.265625 191.375 46.371094 191.671875 L 50.8125 191.671875 C 51.847656 191.039063 52.25 190.441406 49.527344 189.960938 C 45.519531 189.25 45.058594 187.421875 45.242188 186.230469 C 45.335938 185.632813 45.578125 185.195313 45.609375 185.125 L 45.609375 185.113281 L 41.441406 184.851563 C 41.441406 184.851563 41.453125 185.089844 41.464844 185.460938 C 41.488281 186.332031 41.464844 187.960938 41.109375 188.984375 C 40.777344 189.996094 40.15625 191.648438 41.328125 191.671875 Z M 41.328125 191.671875 "/>
<path style=" stroke:none;fill-rule:nonzero;fill:rgb(45.097351%,60.391235%,94.116211%);fill-opacity:1;" d="M 70.265625 186.480469 C 70.394531 186.824219 70.691406 187.8125 70.277344 188.996094 C 69.921875 190.007813 69.3125 191.660156 70.484375 191.671875 C 71.65625 191.683594 74.425781 191.375 75.527344 191.671875 L 79.972656 191.671875 C 81.003906 191.039063 81.429688 190.292969 78.683594 189.960938 C 74.722656 189.46875 74 185.492188 73.917969 184.988281 C 73.917969 184.976563 73.917969 184.976563 73.917969 184.964844 C 73.828125 184.207031 73.734375 183.359375 73.65625 182.414063 C 73.65625 182.414063 71.816406 183.769531 68.832031 182.957031 C 69.335938 184.289063 69.808594 185.449219 70.199219 186.355469 C 70.199219 186.355469 70.199219 186.355469 70.199219 186.367188 C 70.199219 186.367188 70.199219 186.367188 70.199219 186.378906 C 70.199219 186.390625 70.199219 186.390625 70.210938 186.402344 C 70.246094 186.425781 70.257813 186.445313 70.265625 186.480469 C 70.265625 186.480469 70.265625 186.46875 70.265625 186.480469 Z M 70.265625 186.480469 "/>
<path style=" stroke:none;fill-rule:nonzero;fill:rgb(45.097351%,60.391235%,94.116211%);fill-opacity:1;" d="M 41.328125 191.671875 C 42.5 191.683594 45.265625 191.375 46.371094 191.671875 L 50.8125 191.671875 C 51.847656 191.039063 52.25 190.441406 49.527344 189.960938 C 45.519531 189.25 45.058594 187.421875 45.242188 186.230469 C 45.347656 185.917969 45.472656 185.539063 45.609375 185.125 L 45.609375 185.113281 C 45.863281 184.355469 46.175781 183.460938 46.53125 182.449219 C 45.382813 182.460938 43.292969 182.335938 41.417969 181.484375 C 41.386719 182.738281 41.40625 183.875 41.441406 184.851563 C 41.453125 185.058594 41.453125 185.265625 41.464844 185.460938 C 41.488281 186.332031 41.464844 187.960938 41.109375 188.984375 C 40.777344 189.996094 40.15625 191.648438 41.328125 191.671875 Z M 41.328125 191.671875 "/>
<path style=" stroke:none;fill-rule:nonzero;fill:rgb(95.684814%,65.097046%,44.313049%);fill-opacity:1;" d="M 67.476563 96.859375 C 67.476563 96.859375 73.253906 98.652344 73.917969 101.191406 C 74.988281 105.230469 76.34375 113.226563 76.34375 113.226563 L 82.53125 105.542969 L 84.761719 106.609375 C 84.761719 106.609375 79.476563 120.816406 75.023438 120.148438 C 70.554688 119.496094 67.476563 96.859375 67.476563 96.859375 Z M 67.476563 96.859375 "/>
<path style=" stroke:none;fill-rule:nonzero;fill:rgb(100%,69.802856%,49.01886%);fill-opacity:1;" d="M 54.363281 98.558594 C 52.203125 103.304688 50.054688 119.277344 49.457031 120.679688 C 48.863281 122.078125 47.023438 129.785156 45.449219 133.585938 L 47.449219 134.183594 C 47.449219 134.183594 54.050781 123.226563 54.648438 120.367188 C 55.246094 117.519531 58.542969 105.921875 58.542969 105.921875 C 58.542969 105.921875 55.027344 97.089844 54.363281 98.558594 Z M 54.363281 98.558594 "/>
<path style=" stroke:none;fill-rule:nonzero;fill:rgb(45.097351%,60.391235%,94.116211%);fill-opacity:1;" d="M 56.234375 109.609375 L 53.085938 129.027344 C 53.085938 129.027344 60.722656 133.253906 73.964844 129.003906 C 73.964844 129.003906 73.070313 110.203125 73.804688 106.402344 C 73.828125 106.265625 73.851563 106.128906 73.863281 105.992188 C 74.285156 102.371094 73.242188 99.695313 72.425781 97.972656 C 72.425781 97.972656 67.808594 95.425781 59.496094 96.574219 C 58.300781 96.734375 56.222656 97.03125 54.71875 98.136719 C 54.71875 98.136719 55.738281 99.410156 56.371094 100.9375 C 56.554688 101.386719 56.714844 101.855469 56.796875 102.316406 C 57.027344 103.554688 57.648438 105.933594 56.246094 107.804688 Z M 56.234375 109.609375 "/>
<path style=" stroke:none;fill-rule:nonzero;fill:rgb(93.72406%,49.411011%,16.078186%);fill-opacity:1;" d="M 38.433594 134.859375 C 38.925781 133.011719 40.890625 131.933594 42.808594 132.449219 C 43.304688 132.574219 43.738281 132.804688 44.117188 133.09375 L 44.875 133.644531 L 44.785156 133.757813 C 45.417969 134.585938 45.679688 135.664063 45.394531 136.722656 C 44.898438 138.570313 42.933594 139.648438 41.019531 139.132813 C 40.902344 139.097656 40.777344 139.0625 40.660156 139.019531 L 40.570313 139.132813 L 39.707031 138.5 C 38.617188 137.664063 38.066406 136.238281 38.433594 134.859375 Z M 38.433594 134.859375 "/>
<path style=" stroke:none;fill-rule:nonzero;fill:rgb(97.647095%,59.214783%,27.450562%);fill-opacity:1;" d="M 46.101563 137.242188 C 46.597656 135.394531 45.445313 133.476563 43.53125 132.960938 C 41.613281 132.449219 39.65625 133.53125 39.160156 135.378906 C 38.664063 137.230469 39.816406 139.148438 41.734375 139.660156 C 43.652344 140.175781 45.605469 139.09375 46.101563 137.242188 Z M 46.101563 137.242188 "/>
<path style=" stroke:none;fill-rule:nonzero;fill:rgb(93.72406%,49.411011%,16.078186%);fill-opacity:1;" d="M 41.960938 136.285156 C 41.992188 135.871094 42.5 135.46875 43.039063 135.664063 C 43.257813 135.746094 49.046875 139.363281 49.046875 139.363281 L 47.804688 140.890625 L 42.1875 136.882813 C 42.1875 136.894531 41.925781 136.710938 41.960938 136.285156 Z M 41.960938 136.285156 "/>
<path style=" stroke:none;fill-rule:nonzero;fill:rgb(93.72406%,49.411011%,16.078186%);fill-opacity:1;" d="M 88.976563 100.902344 C 88.480469 99.054688 86.515625 97.972656 84.597656 98.492188 C 84.105469 98.617188 83.667969 98.847656 83.289063 99.132813 L 82.53125 99.683594 L 82.625 99.800781 C 81.992188 100.628906 81.726563 101.707031 82.015625 102.761719 C 82.507813 104.613281 84.472656 105.691406 86.390625 105.175781 C 86.503906 105.140625 86.632813 105.105469 86.746094 105.058594 L 86.839844 105.175781 L 87.699219 104.542969 C 88.800781 103.703125 89.355469 102.28125 88.976563 100.902344 Z M 88.976563 100.902344 "/>
<path style=" stroke:none;fill-rule:nonzero;fill:rgb(97.647095%,59.214783%,27.450562%);fill-opacity:1;" d="M 85.679688 105.71875 C 87.597656 105.203125 88.75 103.289063 88.253906 101.4375 C 87.757813 99.585938 85.800781 98.503906 83.886719 99.019531 C 81.96875 99.53125 80.816406 101.449219 81.3125 103.300781 C 81.808594 105.148438 83.765625 106.230469 85.679688 105.71875 Z M 85.679688 105.71875 "/>
<path style=" stroke:none;fill-rule:nonzero;fill:rgb(93.72406%,49.411011%,16.078186%);fill-opacity:1;" d="M 85.460938 102.328125 C 85.425781 101.914063 84.921875 101.511719 84.382813 101.707031 C 84.164063 101.785156 78.375 105.40625 78.375 105.40625 L 79.617188 106.933594 L 85.230469 102.925781 C 85.230469 102.933594 85.496094 102.75 85.460938 102.328125 Z M 85.460938 102.328125 "/>
<path style=" stroke:none;fill-rule:nonzero;fill:rgb(95.684814%,65.097046%,44.313049%);fill-opacity:1;" d="M 84.75 106.621094 C 84.75 106.621094 86.816406 104.0625 85.324219 102.738281 C 83.839844 101.417969 81.914063 101.808594 81.855469 102.578125 C 81.796875 103.347656 82.519531 105.554688 82.519531 105.554688 Z M 84.75 106.621094 "/>
<path style=" stroke:none;fill-rule:nonzero;fill:rgb(100%,69.802856%,49.01886%);fill-opacity:1;" d="M 45.601563 133.253906 C 45.601563 133.253906 44.992188 134.6875 44.359375 135.089844 C 43.726563 135.492188 42.820313 136.457031 42.992188 137.226563 C 43.164063 137.996094 43.324219 139.191406 44.128906 139.191406 C 44.933594 139.191406 46.792969 135.652344 47.035156 134.988281 C 47.265625 134.320313 47.472656 134.183594 47.472656 134.183594 Z M 45.601563 133.253906 "/>
<path style=" stroke:none;fill-rule:nonzero;fill:rgb(93.72406%,49.411011%,16.078186%);fill-opacity:1;" d="M 42.855469 138.179688 C 43.394531 136.171875 45.519531 135 47.609375 135.550781 C 48.148438 135.6875 48.621094 135.941406 49.035156 136.25 L 49.859375 136.847656 L 49.757813 136.972656 C 50.445313 137.871094 50.722656 139.050781 50.410156 140.199219 C 49.871094 142.210938 47.746094 143.382813 45.65625 142.832031 C 45.53125 142.796875 45.394531 142.75 45.277344 142.703125 L 45.1875 142.832031 L 44.257813 142.140625 C 43.050781 141.222656 42.453125 139.671875 42.855469 138.179688 Z M 42.855469 138.179688 "/>
<path style=" stroke:none;fill-rule:nonzero;fill:rgb(97.647095%,59.214783%,27.450562%);fill-opacity:1;" d="M 51.203125 140.765625 C 51.742188 138.757813 50.484375 136.675781 48.394531 136.113281 C 46.308594 135.554688 44.175781 136.730469 43.636719 138.738281 C 43.097656 140.746094 44.355469 142.832031 46.445313 143.390625 C 48.535156 143.949219 50.664063 142.777344 51.203125 140.765625 Z M 51.203125 140.765625 "/>
<path style=" stroke:none;fill-rule:nonzero;fill:rgb(93.72406%,49.411011%,16.078186%);fill-opacity:1;" d="M 46.175781 139.269531 C 46.347656 138.617188 47.035156 138.238281 47.714844 138.421875 C 47.886719 138.464844 48.046875 138.546875 48.171875 138.652344 L 48.4375 138.847656 L 48.402344 138.890625 C 48.621094 139.179688 48.710938 139.570313 48.621094 139.9375 C 48.449219 140.589844 47.757813 140.96875 47.082031 140.785156 C 47.035156 140.773438 47 140.761719 46.957031 140.753906 L 46.921875 140.785156 L 46.621094 140.558594 C 46.230469 140.257813 46.035156 139.765625 46.175781 139.269531 Z M 46.175781 139.269531 "/>
<path style=" stroke:none;fill-rule:nonzero;fill:rgb(97.647095%,59.214783%,27.450562%);fill-opacity:1;" d="M 48.886719 140.105469 C 49.0625 139.449219 48.652344 138.769531 47.972656 138.589844 C 47.292969 138.40625 46.601563 138.789063 46.425781 139.445313 C 46.25 140.101563 46.65625 140.78125 47.335938 140.960938 C 48.019531 141.144531 48.710938 140.761719 48.886719 140.105469 Z M 48.886719 140.105469 "/>
<path style=" stroke:none;fill-rule:nonzero;fill:rgb(93.72406%,49.411011%,16.078186%);fill-opacity:1;" d="M 84.566406 104.222656 C 84.027344 102.210938 81.902344 101.039063 79.8125 101.589844 C 79.269531 101.730469 78.800781 101.980469 78.386719 102.292969 L 77.558594 102.890625 L 77.664063 103.015625 C 76.972656 103.910156 76.699219 105.09375 77.007813 106.242188 C 77.546875 108.253906 79.671875 109.421875 81.761719 108.871094 C 81.890625 108.839844 82.027344 108.792969 82.140625 108.746094 L 82.234375 108.871094 L 83.164063 108.183594 C 84.371094 107.265625 84.96875 105.726563 84.566406 104.222656 Z M 84.566406 104.222656 "/>
<path style=" stroke:none;fill-rule:nonzero;fill:rgb(97.647095%,59.214783%,27.450562%);fill-opacity:1;" d="M 80.980469 109.449219 C 83.070313 108.890625 84.328125 106.804688 83.789063 104.796875 C 83.25 102.785156 81.121094 101.613281 79.03125 102.171875 C 76.941406 102.734375 75.683594 104.816406 76.222656 106.824219 C 76.761719 108.835938 78.894531 110.007813 80.980469 109.449219 Z M 80.980469 109.449219 "/>
<path style=" stroke:none;fill-rule:nonzero;fill:rgb(93.72406%,49.411011%,16.078186%);fill-opacity:1;" d="M 81.246094 105.3125 C 81.074219 104.65625 80.386719 104.277344 79.707031 104.460938 C 79.535156 104.507813 79.375 104.589844 79.246094 104.691406 L 78.984375 104.886719 L 79.019531 104.933594 C 78.800781 105.222656 78.707031 105.609375 78.800781 105.980469 C 78.972656 106.632813 79.660156 107.011719 80.339844 106.828125 C 80.386719 106.816406 80.417969 106.804688 80.464844 106.792969 L 80.5 106.828125 L 80.796875 106.597656 C 81.175781 106.300781 81.371094 105.804688 81.246094 105.3125 Z M 81.246094 105.3125 "/>
<path style=" stroke:none;fill-rule:nonzero;fill:rgb(97.647095%,59.214783%,27.450562%);fill-opacity:1;" d="M 80.082031 107.023438 C 80.761719 106.839844 81.167969 106.160156 80.992188 105.507813 C 80.816406 104.851563 80.125 104.46875 79.445313 104.648438 C 78.761719 104.832031 78.355469 105.511719 78.53125 106.167969 C 78.707031 106.824219 79.398438 107.207031 80.082031 107.023438 Z M 80.082031 107.023438 "/>
<path style=" stroke:none;fill-rule:nonzero;fill:rgb(45.097351%,60.391235%,94.116211%);fill-opacity:1;" d="M 59.324219 96.699219 C 59.324219 96.699219 56.074219 96.941406 54.085938 98.273438 C 52.101563 99.605469 50.25 107.207031 50.25 107.207031 C 50.25 107.207031 51.984375 109.699219 56.566406 109.390625 L 59.804688 105.621094 Z M 59.324219 96.699219 "/>
<path style=" stroke:none;fill-rule:nonzero;fill:rgb(17.254639%,22.744751%,39.215088%);fill-opacity:1;" d="M 60.710938 78.335938 C 60.710938 78.335938 59.910156 75.132813 55.210938 76.132813 C 55.210938 76.132813 57.464844 75.84375 58.082031 76.71875 C 58.082031 76.71875 56.304688 75.902344 55.175781 76.578125 C 54.0625 77.269531 53.878906 79.566406 54.039063 80.265625 C 54.214844 80.964844 55.441406 83.054688 56.257813 83.054688 C 57.074219 83.054688 58.035156 82.34375 58.035156 82.34375 Z M 60.710938 78.335938 "/>
<path style=" stroke:none;fill-rule:nonzero;fill:rgb(17.254639%,22.744751%,39.215088%);fill-opacity:1;" d="M 69.164063 81.644531 C 69.164063 81.644531 63.203125 74.488281 60.058594 79.070313 C 60.058594 79.070313 57.703125 80.046875 56.855469 84.054688 C 55.980469 88.144531 58.703125 91.246094 60.105469 90.476563 C 61 89.980469 61.6875 91.554688 61.6875 91.554688 Z M 69.164063 81.644531 "/>
<path style=" stroke:none;fill-rule:nonzero;fill:rgb(100%,69.802856%,49.01886%);fill-opacity:1;" d="M 66.71875 97.582031 C 64.421875 98.824219 61.277344 97.539063 60.5625 96.609375 C 60.300781 96.261719 61.722656 94.539063 61.710938 90.625 L 62.011719 90.683594 L 67.050781 91.679688 C 67.050781 91.679688 66.9375 93.265625 66.9375 94.757813 C 66.9375 96.011719 66.996094 97.433594 66.71875 97.582031 Z M 66.71875 97.582031 "/>
<path style=" stroke:none;fill-rule:nonzero;fill:rgb(95.684814%,65.097046%,44.313049%);fill-opacity:1;" d="M 67.050781 91.679688 C 67.050781 91.679688 66.9375 93.265625 66.9375 94.757813 C 64.125 94.679688 62.628906 92.105469 62.023438 90.683594 Z M 67.050781 91.679688 "/>
<path style=" stroke:none;fill-rule:nonzero;fill:rgb(17.254639%,22.744751%,39.215088%);fill-opacity:1;" d="M 61.492188 90.128906 C 61.492188 90.128906 60.011719 87.800781 59.65625 85.800781 C 59.402344 84.378906 60.125 79.09375 65.433594 79.851563 C 65.433594 79.851563 66.972656 80 68.417969 80.976563 C 69.566406 81.757813 71.230469 83.4375 69.371094 88.039063 L 68.890625 89.601563 Z M 61.492188 90.128906 "/>
<path style=" stroke:none;fill-rule:nonzero;fill:rgb(100%,69.802856%,49.01886%);fill-opacity:1;" d="M 67.992188 93.09375 C 67.992188 93.09375 61.320313 93.207031 61.320313 89.050781 C 61.320313 84.894531 60.449219 82.113281 64.710938 81.863281 C 68.96875 81.621094 69.796875 83.207031 70.128906 84.582031 C 70.472656 85.972656 69.726563 92.957031 67.992188 93.09375 Z M 67.992188 93.09375 "/>
<path style=" stroke:none;fill-rule:nonzero;fill:rgb(17.254639%,22.744751%,39.215088%);fill-opacity:1;" d="M 67.753906 81.757813 C 67.753906 81.757813 65.925781 86.628906 63.125 87.351563 C 60.324219 88.074219 59.105469 87.316406 59.105469 87.316406 C 59.105469 87.316406 61.253906 85.605469 61.699219 82.632813 C 61.699219 82.644531 66.375 79.4375 67.753906 81.757813 Z M 67.753906 81.757813 "/>
<path style=" stroke:none;fill-rule:nonzero;fill:rgb(17.254639%,22.744751%,39.215088%);fill-opacity:1;" d="M 67.292969 82.160156 C 67.292969 82.160156 68.660156 83.25 68.992188 84.308594 C 69.324219 85.363281 69.476563 87.546875 70.105469 87.464844 C 70.105469 87.464844 71.484375 84.160156 69.933594 82.277344 C 68.304688 80.289063 67.292969 82.160156 67.292969 82.160156 Z M 67.292969 82.160156 "/>
<path style=" stroke:none;fill-rule:nonzero;fill:rgb(17.254639%,22.744751%,39.215088%);fill-opacity:1;" d="M 67.558594 82.320313 C 67.558594 82.320313 66.257813 87.421875 62.722656 89.0625 C 62.722656 89.0625 66.257813 85.925781 66.558594 82.5625 C 66.855469 79.1875 67.558594 82.320313 67.558594 82.320313 Z M 67.558594 82.320313 "/>
<path style=" stroke:none;fill-rule:nonzero;fill:rgb(100%,100%,100%);fill-opacity:1;" d="M 68.785156 90.660156 C 68.785156 90.660156 68.613281 91.039063 68.535156 91.234375 C 68.453125 91.429688 67.351563 91.429688 66.996094 91.222656 C 66.707031 91.050781 66.339844 90.554688 66.363281 90.566406 C 66.375 90.566406 68.292969 90.519531 68.785156 90.660156 Z M 68.785156 90.660156 "/>
<path style=" stroke:none;fill-rule:nonzero;fill:rgb(45.097351%,60.391235%,94.116211%);fill-opacity:1;" d="M 72.4375 97.972656 C 72.4375 97.972656 75.296875 99.101563 75.757813 106.378906 C 75.757813 106.378906 74.792969 107.839844 72.886719 108.207031 C 69.40625 108.859375 72.4375 97.972656 72.4375 97.972656 Z M 72.4375 97.972656 "/>
<path style=" stroke:none;fill-rule:nonzero;fill:rgb(86.273193%,89.802551%,100%);fill-opacity:1;" d="M 166.34375 117.027344 L 138.988281 117.027344 C 137.265625 117.027344 135.863281 115.613281 135.863281 113.902344 L 135.863281 73.019531 C 135.863281 71.296875 137.277344 69.894531 138.988281 69.894531 L 166.34375 69.894531 C 168.066406 69.894531 169.464844 71.308594 169.464844 73.019531 L 169.464844 113.902344 C 169.464844 115.613281 168.066406 117.027344 166.34375 117.027344 Z M 166.34375 117.027344 "/>
<path style=" stroke:none;fill-rule:nonzero;fill:rgb(96.861267%,49.01886%,28.234863%);fill-opacity:1;" d="M 164.089844 77.039063 C 159.28125 70.816406 152.917969 78.441406 152.917969 78.441406 C 152.917969 78.441406 146.566406 70.816406 141.742188 77.039063 C 136.933594 83.261719 152.917969 95.242188 152.917969 95.242188 C 152.917969 95.242188 168.914063 83.261719 164.089844 77.039063 Z M 164.089844 77.039063 "/>
<path style=" stroke:none;fill-rule:nonzero;fill:rgb(100%,100%,100%);fill-opacity:1;" d="M 152.882813 86.421875 L 152.871094 86.421875 C 152.78125 86.410156 152.710938 86.339844 152.699219 86.25 L 152.230469 82.058594 L 151.332031 86.273438 C 151.308594 86.363281 151.242188 86.421875 151.148438 86.421875 L 149.472656 86.421875 C 149.402344 86.421875 149.335938 86.375 149.300781 86.316406 L 148.851563 85.433594 L 148.359375 86.328125 C 148.324219 86.386719 148.265625 86.421875 148.199219 86.421875 L 147.199219 86.421875 C 147.117188 86.421875 147.050781 86.375 147.027344 86.296875 L 145.980469 83.332031 L 144.695313 86.308594 C 144.660156 86.375 144.589844 86.421875 144.523438 86.421875 L 139.710938 86.421875 C 139.609375 86.421875 139.527344 86.339844 139.527344 86.238281 C 139.527344 86.132813 139.609375 86.054688 139.710938 86.054688 L 144.40625 86.054688 L 145.832031 82.757813 C 145.867188 82.6875 145.933594 82.644531 146.015625 82.644531 C 146.097656 82.644531 146.164063 82.699219 146.1875 82.769531 L 147.347656 86.054688 L 148.105469 86.054688 L 148.726563 84.953125 C 148.761719 84.894531 148.828125 84.847656 148.898438 84.859375 C 148.96875 84.859375 149.035156 84.90625 149.058594 84.964844 L 149.609375 86.066406 L 151.011719 86.066406 L 152.113281 80.863281 C 152.136719 80.773438 152.21875 80.703125 152.308594 80.714844 C 152.402344 80.714844 152.480469 80.792969 152.492188 80.886719 L 152.988281 85.261719 L 153.457031 83.527344 C 153.480469 83.449219 153.5625 83.390625 153.640625 83.390625 C 153.734375 83.390625 153.800781 83.457031 153.824219 83.539063 L 154.332031 86.066406 L 156.316406 86.066406 L 157.878906 81.3125 C 157.902344 81.230469 157.980469 81.171875 158.074219 81.183594 C 158.164063 81.195313 158.234375 81.253906 158.246094 81.335938 L 159.085938 86.066406 L 159.683594 86.066406 L 160.496094 84.367188 C 160.53125 84.296875 160.601563 84.25 160.679688 84.261719 C 160.761719 84.273438 160.832031 84.332031 160.839844 84.402344 L 161.277344 86.066406 L 164.011719 86.066406 C 164.113281 86.066406 164.195313 86.144531 164.195313 86.25 C 164.195313 86.351563 164.113281 86.433594 164.011719 86.433594 L 161.140625 86.433594 C 161.058594 86.433594 160.980469 86.375 160.957031 86.296875 L 160.613281 84.984375 L 159.96875 86.328125 C 159.933594 86.398438 159.878906 86.433594 159.796875 86.433594 L 158.921875 86.433594 C 158.832031 86.433594 158.75 86.363281 158.738281 86.273438 L 158.003906 82.125 L 156.636719 86.296875 C 156.617188 86.375 156.535156 86.421875 156.453125 86.421875 L 154.179688 86.421875 C 154.089844 86.421875 154.007813 86.351563 153.996094 86.273438 L 153.617188 84.378906 L 153.089844 86.285156 C 153.042969 86.375 152.976563 86.421875 152.882813 86.421875 Z M 152.882813 86.421875 "/>
<path style=" stroke:none;fill-rule:nonzero;fill:rgb(45.097351%,60.391235%,94.116211%);fill-opacity:1;" d="M 204.941406 117.027344 L 179.214844 117.027344 C 177.539063 117.027344 176.171875 115.660156 176.171875 113.984375 L 176.171875 72.929688 C 176.171875 71.25 177.539063 69.882813 179.214844 69.882813 L 204.941406 69.882813 C 206.617188 69.882813 207.984375 71.25 207.984375 72.929688 L 207.984375 113.972656 C 207.996094 115.648438 206.617188 117.027344 204.941406 117.027344 Z M 204.941406 117.027344 "/>
<path style=" stroke:none;fill-rule:nonzero;fill:rgb(86.273193%,89.802551%,100%);fill-opacity:1;" d="M 191.101563 84.917969 C 191.492188 90.335938 189.402344 91.394531 187.3125 91.394531 C 185.222656 91.394531 182.902344 90.691406 183.523438 84.917969 C 183.902344 81.355469 185.222656 78.441406 187.3125 78.441406 C 189.402344 78.441406 190.839844 81.34375 191.101563 84.917969 Z M 191.101563 84.917969 "/>
<path style=" stroke:none;fill-rule:nonzero;fill:rgb(86.273193%,89.802551%,100%);fill-opacity:1;" d="M 190.769531 96.597656 C 191.148438 99.546875 189.21875 100.054688 187.3125 100.054688 C 185.40625 100.054688 183.417969 99.777344 183.855469 96.597656 C 184.121094 94.703125 185.40625 93.140625 187.3125 93.140625 C 189.21875 93.140625 190.515625 94.703125 190.769531 96.597656 Z M 190.769531 96.597656 "/>
<path style=" stroke:none;fill-rule:nonzero;fill:rgb(86.273193%,89.802551%,100%);fill-opacity:1;" d="M 200.667969 89.351563 C 201.058594 94.769531 198.96875 95.828125 196.878906 95.828125 C 194.789063 95.828125 192.46875 95.125 193.089844 89.351563 C 193.46875 85.789063 194.789063 82.871094 196.878906 82.871094 C 198.96875 82.871094 200.414063 85.777344 200.667969 89.351563 Z M 200.667969 89.351563 "/>
<path style=" stroke:none;fill-rule:nonzero;fill:rgb(86.273193%,89.802551%,100%);fill-opacity:1;" d="M 200.335938 101.027344 C 200.714844 103.980469 198.785156 104.484375 196.878906 104.484375 C 194.972656 104.484375 192.984375 104.210938 193.421875 101.027344 C 193.6875 99.132813 194.972656 97.570313 196.878906 97.570313 C 198.796875 97.570313 200.09375 99.132813 200.335938 101.027344 Z M 200.335938 101.027344 "/>
<path style=" stroke:none;fill-rule:nonzero;fill:rgb(45.097351%,60.391235%,94.116211%);fill-opacity:1;" d="M 203.449219 170.609375 L 139.652344 170.609375 C 137.160156 170.609375 135.117188 168.566406 135.117188 166.074219 L 135.117188 129.359375 C 135.117188 126.867188 137.160156 124.824219 139.652344 124.824219 L 203.449219 124.824219 C 205.9375 124.824219 207.984375 126.867188 207.984375 129.359375 L 207.984375 166.074219 C 207.996094 168.566406 205.949219 170.609375 203.449219 170.609375 Z M 203.449219 170.609375 "/>
<path style=" stroke:none;fill-rule:nonzero;fill:rgb(8.627319%,20.783997%,37.646484%);fill-opacity:1;" d="M 148.839844 57.402344 L 137.320313 57.402344 C 136.941406 57.402344 136.644531 57.089844 136.644531 56.722656 C 136.644531 56.34375 136.953125 56.046875 137.320313 56.046875 L 148.839844 56.046875 C 149.21875 56.046875 149.519531 56.355469 149.519531 56.722656 C 149.53125 57.089844 149.21875 57.402344 148.839844 57.402344 Z M 148.839844 57.402344 "/>
<path style=" stroke:none;fill-rule:nonzero;fill:rgb(8.627319%,20.783997%,37.646484%);fill-opacity:1;" d="M 148.839844 60.238281 L 137.320313 60.238281 C 136.941406 60.238281 136.644531 59.929688 136.644531 59.5625 C 136.644531 59.179688 136.953125 58.882813 137.320313 58.882813 L 148.839844 58.882813 C 149.21875 58.882813 149.519531 59.191406 149.519531 59.5625 C 149.53125 59.929688 149.21875 60.238281 148.839844 60.238281 Z M 148.839844 60.238281 "/>
<path style=" stroke:none;fill-rule:nonzero;fill:rgb(8.627319%,20.783997%,37.646484%);fill-opacity:1;" d="M 148.839844 62.949219 L 137.320313 62.949219 C 136.941406 62.949219 136.644531 62.636719 136.644531 62.269531 C 136.644531 61.890625 136.953125 61.59375 137.320313 61.59375 L 148.839844 61.59375 C 149.21875 61.59375 149.519531 61.902344 149.519531 62.269531 C 149.53125 62.648438 149.21875 62.949219 148.839844 62.949219 Z M 148.839844 62.949219 "/>
<path style=" stroke:none;fill-rule:nonzero;fill:rgb(97.647095%,59.214783%,27.450562%);fill-opacity:1;" d="M 246.535156 145.09375 C 245.304688 146.300781 243.492188 147.503906 246.097656 150.546875 C 249.441406 154.453125 254.058594 170.726563 254.058594 170.726563 C 253.839844 171.324219 253.988281 172.183594 253.539063 172.414063 C 252.816406 172.78125 251.09375 171.449219 251.09375 171.449219 C 251.09375 171.449219 235.71875 153.671875 234.601563 149.800781 C 233.777344 146.941406 239.519531 133.632813 242.882813 126.683594 C 244.078125 124.226563 244.972656 122.5625 245.191406 122.433594 C 245.226563 122.414063 245.261719 122.402344 245.285156 122.378906 C 247.097656 121.355469 248.738281 121.597656 250.175781 122.527344 C 250.484375 122.722656 250.773438 122.964844 251.058594 123.214844 C 254.539063 126.375 256.503906 133.515625 256.183594 134.964844 C 255.953125 135.976563 254.058594 138.019531 251.988281 140.039063 C 251.566406 140.453125 251.128906 140.878906 250.691406 141.28125 C 248.832031 143.039063 247.0625 144.578125 246.535156 145.09375 Z M 246.535156 145.09375 "/>
<path style=" stroke:none;fill-rule:nonzero;fill:rgb(92.939758%,49.01886%,16.862488%);fill-opacity:1;" d="M 252 140.027344 C 251.578125 140.441406 251.140625 140.867188 250.703125 141.269531 L 242.894531 126.671875 C 244.089844 124.214844 244.984375 122.550781 245.203125 122.421875 C 245.238281 122.402344 245.273438 122.390625 245.296875 122.367188 L 250.1875 122.515625 L 251.070313 122.539063 L 251.070313 123.203125 Z M 252 140.027344 "/>
<path style=" stroke:none;fill-rule:nonzero;fill:rgb(100%,69.802856%,49.01886%);fill-opacity:1;" d="M 249.820313 90.636719 C 249.820313 90.636719 251.402344 95.195313 250.785156 97.824219 C 250.164063 100.453125 243.160156 113.351563 240.734375 115.488281 C 238.324219 117.625 223.648438 107.160156 223.648438 107.160156 L 225.222656 105.816406 C 225.222656 105.816406 237.070313 109.539063 237.761719 108.609375 C 238.460938 107.679688 242.550781 88.992188 249.820313 90.636719 Z M 249.820313 90.636719 "/>
<path style=" stroke:none;fill-rule:nonzero;fill:rgb(97.647095%,59.214783%,27.450562%);fill-opacity:1;" d="M 247.558594 125.605469 C 247.558594 125.605469 249.820313 141.359375 257.089844 152.765625 C 264.117188 163.777344 267.183594 180.234375 267.183594 180.234375 C 267.183594 180.234375 267.664063 180.660156 268.6875 180.292969 C 269.710938 179.925781 270.339844 180.476563 270.570313 180.003906 C 270.570313 180.003906 270.535156 154.28125 266.894531 148.457031 C 264.839844 145.160156 264.289063 133.460938 264.542969 130.289063 C 264.792969 127.121094 263.613281 123.171875 263.613281 123.171875 Z M 247.558594 125.605469 "/>
<path style=" stroke:none;fill-rule:nonzero;fill:rgb(13.725281%,21.960449%,38.430786%);fill-opacity:1;" d="M 270.203125 184.644531 L 268.367188 184.539063 C 267.757813 184.414063 267.308594 184.207031 266.679688 184.09375 C 265.726563 183.910156 265.265625 184.277344 265.171875 184.367188 C 265.164063 184.378906 265.152344 184.390625 265.152344 184.390625 L 257.339844 183.953125 C 257.15625 183.667969 257.386719 183.023438 257.59375 182.554688 C 257.730469 182.230469 258.019531 182.003906 258.363281 181.921875 C 259.203125 181.726563 260.855469 181.601563 262.417969 180.335938 C 263.300781 179.625 266.644531 177.765625 266.644531 177.765625 L 266.667969 177.765625 C 266.734375 177.765625 267.070313 177.890625 268.46875 179.210938 C 269.191406 179.890625 270.570313 178.417969 270.570313 178.417969 C 270.570313 178.417969 270.800781 178.636719 270.960938 179.015625 C 271.089844 179.316406 271.179688 179.730469 271.066406 180.222656 C 270.902344 180.921875 271.214844 182.242188 271.46875 183.152344 C 271.617188 183.703125 271.753906 184.082031 271.753906 184.082031 C 271.753906 184.082031 271.800781 184.539063 270.203125 184.644531 Z M 270.203125 184.644531 "/>
<path style=" stroke:none;fill-rule:nonzero;fill:rgb(13.725281%,21.960449%,38.430786%);fill-opacity:1;" d="M 270.949219 179.015625 C 270.492188 179.304688 269.539063 179.855469 268.917969 179.902344 C 268.078125 179.957031 266.644531 177.753906 266.644531 177.753906 L 266.667969 177.753906 C 266.734375 177.753906 267.070313 177.878906 268.46875 179.199219 C 269.191406 179.878906 270.570313 178.410156 270.570313 178.410156 C 270.570313 178.410156 270.789063 178.636719 270.949219 179.015625 Z M 270.949219 179.015625 "/>
<path style=" stroke:none;fill-rule:nonzero;fill:rgb(13.725281%,21.960449%,38.430786%);fill-opacity:1;" d="M 270.203125 184.644531 L 268.367188 184.539063 C 267.757813 184.414063 267.308594 184.207031 266.679688 184.09375 C 265.726563 183.910156 265.265625 184.277344 265.171875 184.367188 C 265.164063 184.378906 265.152344 184.390625 265.152344 184.390625 L 257.339844 183.953125 C 257.15625 183.667969 257.386719 183.023438 257.59375 182.554688 C 257.847656 182.359375 257.847656 183.484375 257.972656 183.679688 C 258.097656 183.863281 264.347656 184.105469 264.714844 183.863281 C 265.09375 183.621094 266.195313 183.21875 267.6875 183.667969 C 268.988281 184.058594 270.960938 183.359375 271.457031 183.175781 C 271.605469 183.726563 271.742188 184.105469 271.742188 184.105469 C 271.742188 184.105469 271.800781 184.539063 270.203125 184.644531 Z M 270.203125 184.644531 "/>
<path style=" stroke:none;fill-rule:nonzero;fill:rgb(45.097351%,60.391235%,94.116211%);fill-opacity:1;" d="M 264.609375 113.375 C 265.09375 104.636719 264.1875 91.933594 262.050781 90.84375 C 260.234375 89.925781 256.25 88.523438 252.070313 88.351563 C 248.773438 88.222656 241.664063 89.371094 240.644531 94.78125 C 240 98.203125 239.667969 101.039063 239.667969 101.039063 C 239.667969 101.039063 240.300781 103.28125 242.355469 103.992188 C 242.5625 104.980469 242.628906 105.957031 242.894531 106.78125 C 245.855469 116.085938 243.664063 125.109375 243.664063 125.109375 C 246.707031 127.9375 262.636719 127.246094 264.289063 126.292969 C 266.988281 124.742188 264.128906 122.113281 264.609375 113.375 Z M 264.609375 113.375 "/>
<path style=" stroke:none;fill-rule:nonzero;fill:rgb(13.725281%,21.960449%,38.430786%);fill-opacity:1;" d="M 257.535156 173.101563 L 256.148438 174.308594 C 255.617188 174.640625 255.160156 174.800781 254.621094 175.160156 C 253.816406 175.699219 253.734375 176.285156 253.734375 176.410156 C 253.734375 176.421875 253.734375 176.433594 253.734375 176.433594 L 247.832031 181.566406 C 247.5 181.484375 247.210938 180.867188 247.039063 180.382813 C 246.925781 180.050781 246.960938 179.695313 247.15625 179.394531 C 247.625 178.671875 248.71875 177.433594 248.957031 175.421875 C 249.097656 174.296875 250.1875 170.632813 250.1875 170.632813 L 250.199219 170.621094 C 250.253906 170.578125 250.578125 170.4375 252.496094 170.402344 C 253.484375 170.390625 253.449219 168.371094 253.449219 168.371094 C 253.449219 168.371094 253.757813 168.359375 254.148438 168.53125 C 254.449219 168.660156 254.804688 168.898438 255.066406 169.324219 C 255.445313 169.933594 256.582031 170.679688 257.398438 171.148438 C 257.894531 171.4375 258.261719 171.621094 258.261719 171.621094 C 258.261719 171.621094 258.605469 171.910156 257.535156 173.101563 Z M 257.535156 173.101563 "/>
<path style=" stroke:none;fill-rule:nonzero;fill:rgb(13.725281%,21.960449%,38.430786%);fill-opacity:1;" d="M 254.148438 168.542969 C 254.023438 169.058594 253.722656 170.140625 253.3125 170.597656 C 252.757813 171.230469 250.1875 170.644531 250.1875 170.644531 L 250.199219 170.632813 C 250.257813 170.585938 250.578125 170.449219 252.496094 170.414063 C 253.484375 170.402344 253.449219 168.382813 253.449219 168.382813 C 253.449219 168.382813 253.769531 168.382813 254.148438 168.542969 Z M 254.148438 168.542969 "/>
<path style=" stroke:none;fill-rule:nonzero;fill:rgb(13.725281%,21.960449%,38.430786%);fill-opacity:1;" d="M 257.535156 173.101563 L 256.148438 174.308594 C 255.617188 174.640625 255.160156 174.800781 254.621094 175.160156 C 253.816406 175.699219 253.734375 176.285156 253.734375 176.410156 C 253.734375 176.421875 253.734375 176.433594 253.734375 176.433594 L 247.832031 181.566406 C 247.5 181.484375 247.210938 180.867188 247.039063 180.382813 C 247.085938 180.074219 247.867188 180.878906 248.085938 180.921875 C 248.304688 180.96875 252.941406 176.777344 253.046875 176.339844 C 253.148438 175.90625 253.667969 174.847656 255.035156 174.125 C 256.226563 173.492188 257.15625 171.621094 257.386719 171.140625 C 257.882813 171.425781 258.25 171.609375 258.25 171.609375 C 258.25 171.609375 258.605469 171.910156 257.535156 173.101563 Z M 257.535156 173.101563 "/>
<path style=" stroke:none;fill-rule:nonzero;fill:rgb(100%,69.802856%,49.01886%);fill-opacity:1;" d="M 257.445313 91.75 C 257.445313 91.75 262.269531 91.957031 264.484375 93.507813 C 266.699219 95.058594 276.105469 106.324219 277.195313 109.355469 C 278.289063 112.386719 266.242188 120.207031 266.242188 120.207031 L 264.75 117.519531 C 264.75 117.519531 270.308594 110.5625 269.699219 109.574219 C 269.101563 108.597656 253.242188 97.90625 257.445313 91.75 Z M 257.445313 91.75 "/>
<path style=" stroke:none;fill-rule:nonzero;fill:rgb(100%,69.802856%,49.01886%);fill-opacity:1;" d="M 265.390625 117.152344 L 267.242188 118.738281 C 267.242188 118.738281 265.347656 122.296875 264.402344 122.597656 L 264.3125 122.609375 C 263.3125 122.757813 260.925781 121 260.601563 119.3125 C 260.578125 119.140625 260.589844 118.980469 260.648438 118.828125 C 261.085938 117.839844 263.429688 117.394531 264.644531 117.234375 C 265.09375 117.175781 265.390625 117.152344 265.390625 117.152344 Z M 265.390625 117.152344 "/>
<path style=" stroke:none;fill-rule:nonzero;fill:rgb(100%,69.802856%,49.01886%);fill-opacity:1;" d="M 226.542969 106.207031 L 225.449219 108.390625 C 225.449219 108.390625 221.535156 107.4375 221.019531 106.585938 L 220.984375 106.496094 C 220.59375 105.554688 221.707031 102.820313 223.257813 102.097656 C 223.417969 102.027344 223.578125 102.003906 223.738281 102.027344 C 224.808594 102.210938 225.804688 104.371094 226.277344 105.507813 C 226.449219 105.933594 226.542969 106.207031 226.542969 106.207031 Z M 226.542969 106.207031 "/>
<path style=" stroke:none;fill-rule:nonzero;fill:rgb(45.097351%,60.391235%,94.116211%);fill-opacity:1;" d="M 255.78125 88.796875 C 255.78125 88.796875 260.234375 89.246094 263.347656 91.417969 C 264.773438 92.417969 270.15625 98.113281 270.15625 98.113281 C 270.15625 98.113281 269.214844 103.703125 262.371094 104.851563 C 255.402344 106.023438 254.917969 94.460938 254.917969 94.460938 Z M 255.78125 88.796875 "/>
<path style=" stroke:none;fill-rule:nonzero;fill:rgb(100%,69.802856%,49.01886%);fill-opacity:1;" d="M 254.550781 88.820313 C 254.746094 89.144531 254.734375 89.554688 254.515625 89.878906 C 253.863281 90.796875 252.09375 92.347656 247.730469 91.808594 C 246.238281 91.625 245.949219 90.464844 246.972656 89.351563 C 247.210938 89.074219 247.222656 87.445313 247.234375 86.789063 C 247.234375 85.273438 247.339844 84.421875 247.339844 84.421875 L 250.554688 82.472656 L 253.609375 80.597656 C 252.851563 85.320313 253.976563 87.878906 254.550781 88.820313 Z M 254.550781 88.820313 "/>
<path style=" stroke:none;fill-rule:nonzero;fill:rgb(92.939758%,59.606934%,37.254333%);fill-opacity:1;" d="M 253.355469 82.976563 C 253.355469 82.976563 251.003906 86.25 247.222656 86.789063 C 247.222656 85.273438 247.328125 84.421875 247.328125 84.421875 L 250.542969 82.472656 Z M 253.355469 82.976563 "/>
<path style=" stroke:none;fill-rule:nonzero;fill:rgb(100%,69.802856%,49.01886%);fill-opacity:1;" d="M 245.996094 84.148438 C 245.996094 84.148438 253.117188 86.214844 254.34375 81.839844 C 255.574219 77.453125 257.308594 74.765625 252.816406 73.261719 C 248.328125 71.757813 246.972656 73.179688 246.203125 74.546875 C 245.421875 75.914063 244.179688 83.503906 245.996094 84.148438 Z M 245.996094 84.148438 "/>
<path style=" stroke:none;fill-rule:nonzero;fill:rgb(17.254639%,22.744751%,39.215088%);fill-opacity:1;" d="M 258.054688 73.351563 C 258.132813 73.285156 258.285156 73.238281 258.628906 73.261719 C 258.628906 73.261719 258.375 73.054688 258.019531 73.007813 C 258.007813 72.527344 257.859375 71.664063 257.066406 71.367188 C 257.066406 71.367188 257.46875 71.652344 257.46875 72.160156 C 256.640625 71.078125 254.722656 70.136719 249.097656 69.894531 C 241.6875 69.585938 243.539063 74.582031 244.421875 75.246094 C 245.304688 75.925781 247.878906 74.671875 249.636719 75.027344 C 251.394531 75.386719 251.417969 77.980469 251.980469 78.40625 C 252.542969 78.832031 252.378906 78.175781 253.230469 77.910156 C 254.09375 77.648438 254 79.003906 253.65625 79.839844 C 253.3125 80.691406 254.289063 81.976563 254.289063 81.976563 C 254.289063 81.976563 254.289063 81.976563 255.5625 80.898438 C 256.835938 79.816406 258.523438 74.800781 258.144531 73.640625 C 258.121094 73.558594 258.089844 73.457031 258.054688 73.351563 Z M 258.054688 73.351563 "/>
<path style=" stroke:none;fill-rule:nonzero;fill:rgb(100%,100%,100%);fill-opacity:1;" d="M 245.535156 81.3125 C 245.535156 81.3125 245.695313 81.976563 246.421875 82.101563 C 247.144531 82.230469 247.648438 81.734375 247.648438 81.734375 C 247.648438 81.734375 246.476563 81.117188 245.535156 81.3125 Z M 245.535156 81.3125 "/>
<path style=" stroke:none;fill-rule:nonzero;fill:rgb(11.764526%,25.097656%,46.665955%);fill-opacity:1;" d="M 192.628906 110.550781 L 199.175781 110.550781 L 209.730469 123.433594 L 202.460938 122.757813 Z M 192.628906 110.550781 "/>
<path style=" stroke:none;fill-rule:nonzero;fill:rgb(23.921204%,36.470032%,71.763611%);fill-opacity:1;" d="M 223.886719 179.109375 C 214.644531 174.410156 200.425781 174.652344 200.425781 174.652344 L 205.167969 125.375 L 219.789063 126.386719 C 220.363281 126.421875 220.914063 126.660156 221.339844 127.039063 L 227.953125 132.964844 L 229.285156 131.472656 L 221.992188 124.949219 C 221.683594 124.664063 221.28125 124.492188 220.855469 124.457031 L 202.4375 122.746094 L 192.59375 110.527344 L 192.019531 110.984375 C 191.46875 111.421875 191.390625 112.226563 191.824219 112.765625 L 201.769531 125.121094 L 195.636719 188.722656 L 195.636719 189.363281 C 195.636719 190.453125 196.523438 191.339844 197.613281 191.339844 L 302.578125 191.339844 L 302.578125 188.722656 C 302.578125 187.5625 301.679688 186.597656 300.53125 186.515625 L 231.570313 181.210938 C 228.929688 181.027344 226.300781 180.324219 223.886719 179.109375 Z M 223.886719 179.109375 "/>
<path style=" stroke:none;fill-rule:nonzero;fill:rgb(97.647095%,59.214783%,27.450562%);fill-opacity:1;" d="M 231.15625 133.484375 L 230.101563 134.664063 C 229.585938 135.238281 228.699219 135.296875 228.113281 134.78125 L 221.292969 128.683594 C 220.71875 128.164063 220.660156 127.28125 221.179688 126.695313 L 222.234375 125.511719 C 222.75 124.9375 223.636719 124.882813 224.210938 125.398438 L 231.03125 131.496094 C 231.617188 132.011719 231.664063 132.898438 231.15625 133.484375 Z M 231.15625 133.484375 "/>
<path style=" stroke:none;fill-rule:nonzero;fill:rgb(23.921204%,36.470032%,71.763611%);fill-opacity:1;" d="M 202.460938 122.757813 L 208.363281 121.757813 L 220.671875 124.445313 Z M 202.460938 122.757813 "/>
<path style=" stroke:none;fill-rule:nonzero;fill:rgb(86.273193%,89.802551%,100%);fill-opacity:1;" d="M 162.691406 149.25 L 155.273438 149.25 L 155.273438 153.671875 L 162.691406 153.671875 Z M 162.691406 149.25 "/>
<path style=" stroke:none;fill-rule:nonzero;fill:rgb(86.273193%,89.802551%,100%);fill-opacity:1;" d="M 162.691406 143.324219 L 155.273438 143.324219 L 155.273438 147.746094 L 162.691406 147.746094 Z M 162.691406 143.324219 "/>
<path style=" stroke:none;fill-rule:nonzero;fill:rgb(86.273193%,89.802551%,100%);fill-opacity:1;" d="M 172.542969 149.25 L 165.125 149.25 L 165.125 153.671875 L 172.542969 153.671875 Z M 172.542969 149.25 "/>
<path style=" stroke:none;fill-rule:nonzero;fill:rgb(86.273193%,89.802551%,100%);fill-opacity:1;" d="M 172.542969 143.324219 L 165.125 143.324219 L 165.125 147.746094 L 172.542969 147.746094 Z M 172.542969 143.324219 "/>
<path style=" stroke:none;fill-rule:nonzero;fill:rgb(86.273193%,89.802551%,100%);fill-opacity:1;" d="M 172.542969 137.410156 L 165.125 137.410156 L 165.125 141.832031 L 172.542969 141.832031 Z M 172.542969 137.410156 "/>
<path style=" stroke:none;fill-rule:nonzero;fill:rgb(86.273193%,89.802551%,100%);fill-opacity:1;" d="M 182.144531 149.25 L 174.726563 149.25 L 174.726563 153.671875 L 182.144531 153.671875 Z M 182.144531 149.25 "/>
<path style=" stroke:none;fill-rule:nonzero;fill:rgb(86.273193%,89.802551%,100%);fill-opacity:1;" d="M 182.144531 143.324219 L 174.726563 143.324219 L 174.726563 147.746094 L 182.144531 147.746094 Z M 182.144531 143.324219 "/>
<path style=" stroke:none;fill-rule:nonzero;fill:rgb(86.273193%,89.802551%,100%);fill-opacity:1;" d="M 191.320313 149.25 L 183.902344 149.25 L 183.902344 153.671875 L 191.320313 153.671875 Z M 191.320313 149.25 "/>
<path style=" stroke:none;fill-rule:nonzero;fill:rgb(86.273193%,89.802551%,100%);fill-opacity:1;" d="M 162.691406 155.257813 L 155.273438 155.257813 L 155.273438 159.675781 L 162.691406 159.675781 Z M 162.691406 155.257813 "/>
<path style=" stroke:none;fill-rule:nonzero;fill:rgb(86.273193%,89.802551%,100%);fill-opacity:1;" d="M 172.542969 155.257813 L 165.125 155.257813 L 165.125 159.675781 L 172.542969 159.675781 Z M 172.542969 155.257813 "/>
<path style=" stroke:none;fill-rule:nonzero;fill:rgb(86.273193%,89.802551%,100%);fill-opacity:1;" d="M 182.144531 155.257813 L 174.726563 155.257813 L 174.726563 159.675781 L 182.144531 159.675781 Z M 182.144531 155.257813 "/>
<path style=" stroke:none;fill-rule:nonzero;fill:rgb(86.273193%,89.802551%,100%);fill-opacity:1;" d="M 191.320313 155.257813 L 183.902344 155.257813 L 183.902344 159.675781 L 191.320313 159.675781 Z M 191.320313 155.257813 "/>
<path style=" stroke:none;fill-rule:nonzero;fill:rgb(86.273193%,89.802551%,100%);fill-opacity:1;" d="M 162.691406 161.273438 L 155.273438 161.273438 L 155.273438 165.695313 L 162.691406 165.695313 Z M 162.691406 161.273438 "/>
<path style=" stroke:none;fill-rule:nonzero;fill:rgb(86.273193%,89.802551%,100%);fill-opacity:1;" d="M 172.542969 161.273438 L 165.125 161.273438 L 165.125 165.695313 L 172.542969 165.695313 Z M 172.542969 161.273438 "/>
<path style=" stroke:none;fill-rule:nonzero;fill:rgb(86.273193%,89.802551%,100%);fill-opacity:1;" d="M 182.144531 161.273438 L 174.726563 161.273438 L 174.726563 165.695313 L 182.144531 165.695313 Z M 182.144531 161.273438 "/>
<path style=" stroke:none;fill-rule:nonzero;fill:rgb(86.273193%,89.802551%,100%);fill-opacity:1;" d="M 191.320313 161.273438 L 183.902344 161.273438 L 183.902344 165.695313 L 191.320313 165.695313 Z M 191.320313 161.273438 "/>
<path style=" stroke:none;fill-rule:nonzero;fill:rgb(86.273193%,89.802551%,100%);fill-opacity:1;" d="M 191.320313 143.324219 L 183.902344 143.324219 L 183.902344 147.746094 L 191.320313 147.746094 Z M 191.320313 143.324219 "/>
<path style=" stroke:none;fill-rule:nonzero;fill:rgb(86.273193%,89.802551%,100%);fill-opacity:1;" d="M 191.320313 137.410156 L 183.902344 137.410156 L 183.902344 141.832031 L 191.320313 141.832031 Z M 191.320313 137.410156 "/>
<path style=" stroke:none;fill-rule:nonzero;fill:rgb(86.273193%,89.802551%,100%);fill-opacity:1;" d="M 191.320313 131.484375 L 183.902344 131.484375 L 183.902344 135.90625 L 191.320313 135.90625 Z M 191.320313 131.484375 "/>
<path style=" stroke:none;fill-rule:nonzero;fill:rgb(23.921204%,36.470032%,71.763611%);fill-opacity:1;" d="M 141.054688 191.085938 L 99.230469 191.085938 C 97.667969 191.085938 96.382813 189.800781 96.382813 188.238281 L 96.382813 96.238281 C 96.382813 94.679688 97.667969 93.390625 99.230469 93.390625 L 141.054688 93.390625 C 142.617188 93.390625 143.902344 94.679688 143.902344 96.238281 L 143.902344 188.25 C 143.902344 189.8125 142.628906 191.085938 141.054688 191.085938 Z M 141.054688 191.085938 "/>
<path style=" stroke:none;fill-rule:nonzero;fill:rgb(96.861267%,49.01886%,28.234863%);fill-opacity:1;" d="M 142.570313 167.394531 L 97.230469 167.394531 C 94.085938 167.394531 91.511719 164.824219 91.511719 161.675781 L 91.511719 113.878906 C 91.511719 110.734375 94.085938 108.160156 97.230469 108.160156 L 142.570313 108.160156 C 145.71875 108.160156 148.289063 110.734375 148.289063 113.878906 L 148.289063 161.675781 C 148.289063 164.824219 145.71875 167.394531 142.570313 167.394531 Z M 142.570313 167.394531 "/>
<path style=" stroke:none;fill-rule:nonzero;fill:rgb(8.627319%,20.783997%,37.646484%);fill-opacity:1;" d="M 141.46875 164.261719 L 98.324219 164.261719 C 96.222656 164.261719 94.511719 162.539063 94.511719 160.445313 L 94.511719 115.121094 C 94.511719 113.019531 96.234375 111.308594 98.324219 111.308594 L 141.46875 111.308594 C 143.570313 111.308594 145.28125 113.03125 145.28125 115.121094 L 145.28125 160.445313 C 145.28125 162.539063 143.570313 164.261719 141.46875 164.261719 Z M 141.46875 164.261719 "/>
<path style=" stroke:none;fill-rule:nonzero;fill:rgb(86.273193%,89.802551%,100%);fill-opacity:1;" d="M 139.609375 136.078125 L 122.933594 136.078125 C 122.070313 136.078125 121.359375 135.367188 121.359375 134.503906 L 121.359375 117.453125 C 121.359375 116.589844 122.070313 115.878906 122.933594 115.878906 L 139.609375 115.878906 C 140.46875 115.878906 141.179688 116.589844 141.179688 117.453125 L 141.179688 134.503906 C 141.179688 135.367188 140.46875 136.078125 139.609375 136.078125 Z M 139.609375 136.078125 "/>
<path style=" stroke:none;fill-rule:nonzero;fill:rgb(96.861267%,49.01886%,28.234863%);fill-opacity:1;" d="M 138.597656 121.101563 C 135.609375 117.257813 131.683594 121.976563 131.683594 121.976563 C 131.683594 121.976563 127.746094 117.257813 124.769531 121.101563 C 121.785156 124.949219 131.683594 132.367188 131.683594 132.367188 C 131.683594 132.367188 141.582031 124.949219 138.597656 121.101563 Z M 138.597656 121.101563 "/>
<path style=" stroke:none;fill-rule:nonzero;fill:rgb(100%,100%,100%);fill-opacity:1;" d="M 131.660156 126.914063 C 131.59375 126.914063 131.546875 126.867188 131.546875 126.8125 L 131.257813 124.214844 L 130.707031 126.820313 C 130.695313 126.878906 130.652344 126.914063 130.59375 126.914063 L 129.558594 126.914063 C 129.511719 126.914063 129.480469 126.890625 129.457031 126.84375 L 129.179688 126.292969 L 128.871094 126.84375 C 128.847656 126.878906 128.8125 126.902344 128.765625 126.902344 L 128.148438 126.902344 C 128.101563 126.902344 128.054688 126.867188 128.03125 126.820313 L 127.390625 124.996094 L 126.597656 126.832031 C 126.574219 126.878906 126.539063 126.902344 126.492188 126.902344 L 123.507813 126.902344 C 123.4375 126.902344 123.390625 126.84375 123.390625 126.789063 C 123.390625 126.730469 123.449219 126.671875 123.507813 126.671875 L 126.414063 126.671875 L 127.296875 124.628906 C 127.320313 124.582031 127.367188 124.558594 127.410156 124.558594 C 127.457031 124.558594 127.503906 124.59375 127.515625 124.640625 L 128.238281 126.671875 L 128.710938 126.671875 L 129.089844 125.984375 C 129.113281 125.949219 129.15625 125.925781 129.191406 125.925781 C 129.238281 125.925781 129.273438 125.949219 129.296875 125.996094 L 129.640625 126.671875 L 130.511719 126.671875 L 131.203125 123.457031 C 131.214844 123.398438 131.257813 123.367188 131.316406 123.367188 C 131.375 123.367188 131.417969 123.410156 131.429688 123.46875 L 131.742188 126.179688 L 132.039063 125.109375 C 132.050781 125.054688 132.097656 125.019531 132.15625 125.03125 C 132.210938 125.03125 132.257813 125.078125 132.269531 125.121094 L 132.578125 126.683594 L 133.808594 126.683594 L 134.773438 123.746094 C 134.785156 123.699219 134.84375 123.664063 134.886719 123.664063 C 134.945313 123.664063 134.980469 123.710938 134.992188 123.757813 L 135.507813 126.683594 L 135.875 126.683594 L 136.382813 125.628906 C 136.402344 125.582031 136.449219 125.558594 136.496094 125.558594 C 136.542969 125.558594 136.585938 125.59375 136.597656 125.652344 L 136.863281 126.683594 L 138.550781 126.683594 C 138.621094 126.683594 138.667969 126.742188 138.667969 126.800781 C 138.667969 126.855469 138.609375 126.914063 138.550781 126.914063 L 136.769531 126.914063 C 136.714844 126.914063 136.667969 126.878906 136.65625 126.820313 L 136.449219 126.019531 L 136.046875 126.84375 C 136.023438 126.890625 135.992188 126.914063 135.945313 126.914063 L 135.40625 126.914063 C 135.347656 126.914063 135.300781 126.867188 135.289063 126.820313 L 134.832031 124.25 L 133.980469 126.832031 C 133.96875 126.878906 133.921875 126.914063 133.867188 126.914063 L 132.453125 126.914063 C 132.394531 126.914063 132.351563 126.878906 132.339844 126.820313 L 132.109375 125.652344 L 131.789063 126.832031 C 131.765625 126.878906 131.71875 126.914063 131.660156 126.914063 Z M 131.660156 126.914063 "/>
<path style=" stroke:none;fill-rule:nonzero;fill:rgb(86.273193%,89.802551%,100%);fill-opacity:1;" d="M 139.8125 159.207031 L 123.230469 159.207031 C 122.347656 159.207031 121.613281 158.484375 121.613281 157.585938 L 121.613281 139.488281 C 121.613281 138.605469 122.335938 137.871094 123.230469 137.871094 L 139.8125 137.871094 C 140.699219 137.871094 141.433594 138.59375 141.433594 139.488281 L 141.433594 157.585938 C 141.433594 158.484375 140.710938 159.207031 139.8125 159.207031 Z M 139.8125 159.207031 "/>
<path style=" stroke:none;fill-rule:nonzero;fill:rgb(8.627319%,20.783997%,37.646484%);fill-opacity:1;" d="M 130.683594 144.460938 C 130.925781 147.835938 129.628906 148.492188 128.320313 148.492188 C 127.011719 148.492188 125.574219 148.054688 125.953125 144.460938 C 126.195313 142.246094 127.011719 140.429688 128.320313 140.429688 C 129.628906 140.429688 130.523438 142.246094 130.683594 144.460938 Z M 130.683594 144.460938 "/>
<path style=" stroke:none;fill-rule:nonzero;fill:rgb(8.627319%,20.783997%,37.646484%);fill-opacity:1;" d="M 130.476563 151.742188 C 130.71875 153.578125 129.511719 153.890625 128.332031 153.890625 C 127.136719 153.890625 125.90625 153.71875 126.183594 151.742188 C 126.34375 150.558594 127.148438 149.59375 128.332031 149.59375 C 129.511719 149.582031 130.316406 150.558594 130.476563 151.742188 Z M 130.476563 151.742188 "/>
<path style=" stroke:none;fill-rule:nonzero;fill:rgb(8.627319%,20.783997%,37.646484%);fill-opacity:1;" d="M 136.644531 147.230469 C 136.886719 150.605469 135.589844 151.261719 134.277344 151.261719 C 132.96875 151.261719 131.535156 150.824219 131.914063 147.230469 C 132.15625 145.011719 132.96875 143.199219 134.277344 143.199219 C 135.589844 143.199219 136.484375 145 136.644531 147.230469 Z M 136.644531 147.230469 "/>
<path style=" stroke:none;fill-rule:nonzero;fill:rgb(8.627319%,20.783997%,37.646484%);fill-opacity:1;" d="M 136.4375 154.5 C 136.679688 156.335938 135.472656 156.644531 134.289063 156.644531 C 133.097656 156.644531 131.867188 156.472656 132.144531 154.5 C 132.304688 153.316406 133.109375 152.351563 134.289063 152.351563 C 135.472656 152.351563 136.277344 153.328125 136.4375 154.5 Z M 136.4375 154.5 "/>
<path style=" stroke:none;fill-rule:nonzero;fill:rgb(96.861267%,49.01886%,28.234863%);fill-opacity:1;" d="M 116.03125 159.875 L 101.332031 159.875 C 100.070313 159.875 99.046875 158.839844 99.046875 157.585938 L 99.046875 118.175781 C 99.046875 116.910156 100.078125 115.890625 101.332031 115.890625 L 116.03125 115.890625 C 117.292969 115.890625 118.316406 116.921875 118.316406 118.175781 L 118.316406 157.585938 C 118.328125 158.839844 117.292969 159.875 116.03125 159.875 Z M 116.03125 159.875 "/>
<path style=" stroke:none;fill-rule:nonzero;fill:rgb(100%,79.606628%,73.332214%);fill-opacity:1;" d="M 101.414063 129.246094 L 101.414063 128.511719 L 103.144531 126.214844 C 103.238281 126.097656 103.308594 125.972656 103.351563 125.847656 C 103.398438 125.71875 103.421875 125.605469 103.421875 125.488281 L 103.421875 125.480469 C 103.421875 125.304688 103.375 125.179688 103.273438 125.078125 C 103.167969 124.984375 103.019531 124.9375 102.835938 124.9375 C 102.652344 124.9375 102.515625 124.996094 102.398438 125.109375 C 102.285156 125.226563 102.214844 125.386719 102.191406 125.59375 L 101.34375 125.59375 C 101.390625 125.132813 101.550781 124.777344 101.8125 124.527344 C 102.078125 124.273438 102.410156 124.148438 102.835938 124.148438 C 103.296875 124.148438 103.652344 124.261719 103.902344 124.492188 C 104.15625 124.71875 104.28125 125.042969 104.28125 125.46875 C 104.28125 125.675781 104.25 125.878906 104.167969 126.085938 C 104.089844 126.292969 103.984375 126.488281 103.847656 126.671875 L 102.503906 128.441406 L 104.316406 128.441406 L 104.316406 129.234375 L 101.414063 129.234375 Z M 101.414063 129.246094 "/>
<path style=" stroke:none;fill-rule:nonzero;fill:rgb(100%,79.606628%,73.332214%);fill-opacity:1;" d="M 106.601563 129.3125 C 106.109375 129.3125 105.753906 129.1875 105.5 128.933594 C 105.257813 128.683594 105.132813 128.328125 105.132813 127.890625 L 105.132813 125.59375 C 105.132813 125.144531 105.257813 124.800781 105.5 124.546875 C 105.753906 124.296875 106.109375 124.167969 106.589844 124.167969 C 107.074219 124.167969 107.441406 124.296875 107.695313 124.546875 C 107.933594 124.800781 108.0625 125.144531 108.0625 125.59375 L 108.0625 127.890625 C 108.0625 128.339844 107.933594 128.683594 107.695313 128.933594 C 107.453125 129.1875 107.085938 129.3125 106.601563 129.3125 Z M 106.601563 128.523438 C 106.832031 128.523438 106.992188 128.453125 107.097656 128.316406 C 107.199219 128.175781 107.246094 127.992188 107.246094 127.765625 L 107.246094 125.707031 C 107.246094 125.46875 107.199219 125.285156 107.097656 125.15625 C 106.992188 125.019531 106.832031 124.960938 106.601563 124.960938 C 106.375 124.960938 106.210938 125.03125 106.109375 125.15625 C 106.003906 125.292969 105.960938 125.480469 105.960938 125.707031 L 105.960938 127.765625 C 105.960938 127.992188 106.003906 128.1875 106.109375 128.316406 C 106.210938 128.453125 106.375 128.523438 106.601563 128.523438 Z M 106.601563 128.523438 "/>
<path style=" stroke:none;fill-rule:nonzero;fill:rgb(100%,79.606628%,73.332214%);fill-opacity:1;" d="M 108.933594 126.5 L 108.933594 125.664063 L 109.773438 125.664063 L 109.773438 126.5 Z M 108.933594 129.246094 L 108.933594 128.40625 L 109.773438 128.40625 L 109.773438 129.246094 Z M 108.933594 129.246094 "/>
<path style=" stroke:none;fill-rule:nonzero;fill:rgb(100%,79.606628%,73.332214%);fill-opacity:1;" d="M 111.921875 124.226563 L 111.921875 129.246094 L 111.082031 129.246094 L 111.082031 125.191406 L 110.4375 125.558594 L 110.4375 124.617188 L 111.082031 124.214844 L 111.921875 124.214844 Z M 111.921875 124.226563 "/>
<path style=" stroke:none;fill-rule:nonzero;fill:rgb(100%,79.606628%,73.332214%);fill-opacity:1;" d="M 114.433594 129.3125 C 114.042969 129.3125 113.722656 129.199219 113.457031 128.957031 C 113.195313 128.71875 113.046875 128.371094 113 127.9375 L 113.828125 127.9375 C 113.847656 128.121094 113.90625 128.269531 114.023438 128.359375 C 114.125 128.464844 114.273438 128.511719 114.445313 128.511719 C 114.640625 128.511719 114.789063 128.441406 114.90625 128.316406 C 115.007813 128.1875 115.066406 128.003906 115.066406 127.765625 L 115.066406 127.328125 C 115.066406 127.097656 115.019531 126.914063 114.917969 126.777344 C 114.8125 126.648438 114.664063 126.582031 114.480469 126.582031 C 114.355469 126.582031 114.238281 126.617188 114.125 126.683594 C 114.023438 126.753906 113.941406 126.84375 113.871094 126.972656 L 113.113281 126.972656 L 113.113281 124.203125 L 115.746094 124.203125 L 115.746094 124.996094 L 113.941406 124.996094 L 113.941406 126.007813 C 114.023438 125.9375 114.125 125.878906 114.238281 125.847656 C 114.355469 125.8125 114.46875 125.789063 114.585938 125.789063 C 114.996094 125.789063 115.320313 125.925781 115.550781 126.191406 C 115.777344 126.453125 115.894531 126.832031 115.894531 127.328125 L 115.894531 127.765625 C 115.894531 128.257813 115.765625 128.636719 115.515625 128.902344 C 115.25 129.175781 114.894531 129.3125 114.433594 129.3125 Z M 114.433594 129.3125 "/>
<path style=" stroke:none;fill-rule:nonzero;fill:rgb(100%,79.606628%,73.332214%);fill-opacity:1;" d="M 104.15625 150.179688 L 101 150.179688 L 101 152.0625 L 104.15625 152.0625 Z M 104.15625 150.179688 "/>
<path style=" stroke:none;fill-rule:nonzero;fill:rgb(100%,79.606628%,73.332214%);fill-opacity:1;" d="M 104.15625 147.65625 L 101 147.65625 L 101 149.539063 L 104.15625 149.539063 Z M 104.15625 147.65625 "/>
<path style=" stroke:none;fill-rule:nonzero;fill:rgb(100%,79.606628%,73.332214%);fill-opacity:1;" d="M 108.359375 150.179688 L 105.203125 150.179688 L 105.203125 152.0625 L 108.359375 152.0625 Z M 108.359375 150.179688 "/>
<path style=" stroke:none;fill-rule:nonzero;fill:rgb(100%,79.606628%,73.332214%);fill-opacity:1;" d="M 108.359375 147.65625 L 105.203125 147.65625 L 105.203125 149.539063 L 108.359375 149.539063 Z M 108.359375 147.65625 "/>
<path style=" stroke:none;fill-rule:nonzero;fill:rgb(100%,79.606628%,73.332214%);fill-opacity:1;" d="M 108.359375 145.128906 L 105.203125 145.128906 L 105.203125 147.011719 L 108.359375 147.011719 Z M 108.359375 145.128906 "/>
<path style=" stroke:none;fill-rule:nonzero;fill:rgb(100%,79.606628%,73.332214%);fill-opacity:1;" d="M 112.460938 150.179688 L 109.300781 150.179688 L 109.300781 152.0625 L 112.460938 152.0625 Z M 112.460938 150.179688 "/>
<path style=" stroke:none;fill-rule:nonzero;fill:rgb(100%,79.606628%,73.332214%);fill-opacity:1;" d="M 112.460938 147.65625 L 109.300781 147.65625 L 109.300781 149.539063 L 112.460938 149.539063 Z M 112.460938 147.65625 "/>
<path style=" stroke:none;fill-rule:nonzero;fill:rgb(100%,79.606628%,73.332214%);fill-opacity:1;" d="M 116.363281 150.179688 L 113.207031 150.179688 L 113.207031 152.0625 L 116.363281 152.0625 Z M 116.363281 150.179688 "/>
<path style=" stroke:none;fill-rule:nonzero;fill:rgb(100%,79.606628%,73.332214%);fill-opacity:1;" d="M 104.15625 152.753906 L 101 152.753906 L 101 154.636719 L 104.15625 154.636719 Z M 104.15625 152.753906 "/>
<path style=" stroke:none;fill-rule:nonzero;fill:rgb(100%,79.606628%,73.332214%);fill-opacity:1;" d="M 108.359375 152.753906 L 105.203125 152.753906 L 105.203125 154.636719 L 108.359375 154.636719 Z M 108.359375 152.753906 "/>
<path style=" stroke:none;fill-rule:nonzero;fill:rgb(100%,79.606628%,73.332214%);fill-opacity:1;" d="M 112.460938 152.753906 L 109.300781 152.753906 L 109.300781 154.636719 L 112.460938 154.636719 Z M 112.460938 152.753906 "/>
<path style=" stroke:none;fill-rule:nonzero;fill:rgb(100%,79.606628%,73.332214%);fill-opacity:1;" d="M 116.363281 152.753906 L 113.207031 152.753906 L 113.207031 154.636719 L 116.363281 154.636719 Z M 116.363281 152.753906 "/>
<path style=" stroke:none;fill-rule:nonzero;fill:rgb(100%,79.606628%,73.332214%);fill-opacity:1;" d="M 104.15625 155.3125 L 101 155.3125 L 101 157.199219 L 104.15625 157.199219 Z M 104.15625 155.3125 "/>
<path style=" stroke:none;fill-rule:nonzero;fill:rgb(100%,79.606628%,73.332214%);fill-opacity:1;" d="M 108.359375 155.3125 L 105.203125 155.3125 L 105.203125 157.199219 L 108.359375 157.199219 Z M 108.359375 155.3125 "/>
<path style=" stroke:none;fill-rule:nonzero;fill:rgb(100%,79.606628%,73.332214%);fill-opacity:1;" d="M 112.460938 155.3125 L 109.300781 155.3125 L 109.300781 157.199219 L 112.460938 157.199219 Z M 112.460938 155.3125 "/>
<path style=" stroke:none;fill-rule:nonzero;fill:rgb(100%,79.606628%,73.332214%);fill-opacity:1;" d="M 116.363281 155.3125 L 113.207031 155.3125 L 113.207031 157.199219 L 116.363281 157.199219 Z M 116.363281 155.3125 "/>
<path style=" stroke:none;fill-rule:nonzero;fill:rgb(100%,79.606628%,73.332214%);fill-opacity:1;" d="M 116.363281 147.65625 L 113.207031 147.65625 L 113.207031 149.539063 L 116.363281 149.539063 Z M 116.363281 147.65625 "/>
<path style=" stroke:none;fill-rule:nonzero;fill:rgb(100%,79.606628%,73.332214%);fill-opacity:1;" d="M 116.363281 145.128906 L 113.207031 145.128906 L 113.207031 147.011719 L 116.363281 147.011719 Z M 116.363281 145.128906 "/>
<path style=" stroke:none;fill-rule:nonzero;fill:rgb(100%,79.606628%,73.332214%);fill-opacity:1;" d="M 116.363281 142.613281 L 113.207031 142.613281 L 113.207031 144.496094 L 116.363281 144.496094 Z M 116.363281 142.613281 "/>
<path style=" stroke:none;fill-rule:nonzero;fill:rgb(96.861267%,49.01886%,28.234863%);fill-opacity:1;" d="M 206.007813 66.566406 L 178.136719 66.566406 C 177.054688 66.566406 176.171875 65.691406 176.171875 64.601563 L 176.171875 55.988281 C 176.171875 54.910156 177.046875 54.023438 178.136719 54.023438 L 206.007813 54.023438 C 207.085938 54.023438 207.972656 54.898438 207.972656 55.988281 L 207.972656 64.601563 C 207.960938 65.691406 207.085938 66.566406 206.007813 66.566406 Z M 206.007813 66.566406 "/>
<path style=" stroke:none;fill-rule:nonzero;fill:rgb(100%,79.606628%,73.332214%);fill-opacity:1;" d="M 182.914063 63.351563 L 182.914063 62.441406 L 185.074219 59.582031 C 185.1875 59.433594 185.269531 59.285156 185.335938 59.136719 C 185.394531 58.984375 185.429688 58.835938 185.429688 58.699219 L 185.429688 58.6875 C 185.429688 58.480469 185.359375 58.308594 185.234375 58.195313 C 185.105469 58.078125 184.921875 58.023438 184.695313 58.023438 C 184.476563 58.023438 184.292969 58.089844 184.144531 58.226563 C 184.003906 58.367188 183.914063 58.574219 183.890625 58.824219 L 182.832031 58.824219 C 182.890625 58.25 183.085938 57.816406 183.417969 57.503906 C 183.742188 57.195313 184.164063 57.035156 184.683594 57.035156 C 185.257813 57.035156 185.703125 57.171875 186.015625 57.457031 C 186.324219 57.746094 186.484375 58.148438 186.484375 58.675781 C 186.484375 58.929688 186.441406 59.179688 186.335938 59.445313 C 186.246094 59.710938 186.105469 59.949219 185.933594 60.167969 L 184.257813 62.375 L 186.507813 62.375 L 186.507813 63.363281 L 182.914063 63.363281 Z M 182.914063 63.351563 "/>
<path style=" stroke:none;fill-rule:nonzero;fill:rgb(100%,79.606628%,73.332214%);fill-opacity:1;" d="M 189.390625 63.429688 C 188.78125 63.429688 188.324219 63.269531 188.023438 62.949219 C 187.714844 62.625 187.566406 62.203125 187.566406 61.652344 L 187.566406 58.800781 C 187.566406 58.25 187.714844 57.816406 188.023438 57.503906 C 188.335938 57.195313 188.78125 57.035156 189.390625 57.035156 C 190 57.035156 190.449219 57.195313 190.757813 57.503906 C 191.066406 57.816406 191.21875 58.25 191.21875 58.8125 L 191.21875 61.660156 C 191.21875 62.214844 191.066406 62.648438 190.757813 62.960938 C 190.449219 63.269531 189.988281 63.429688 189.390625 63.429688 Z M 189.390625 62.441406 C 189.679688 62.441406 189.875 62.363281 190 62.191406 C 190.125 62.019531 190.183594 61.789063 190.183594 61.5 L 190.183594 58.953125 C 190.183594 58.652344 190.125 58.421875 190 58.261719 C 189.875 58.101563 189.667969 58.011719 189.390625 58.011719 C 189.117188 58.011719 188.910156 58.089844 188.78125 58.261719 C 188.65625 58.421875 188.597656 58.664063 188.597656 58.953125 L 188.597656 61.5 C 188.597656 61.789063 188.65625 62.019531 188.78125 62.191406 C 188.898438 62.363281 189.105469 62.441406 189.390625 62.441406 Z M 189.390625 62.441406 "/>
<path style=" stroke:none;fill-rule:nonzero;fill:rgb(100%,79.606628%,73.332214%);fill-opacity:1;" d="M 192.285156 59.9375 L 192.285156 58.894531 L 193.328125 58.894531 L 193.328125 59.9375 Z M 192.285156 63.351563 L 192.285156 62.304688 L 193.328125 62.304688 L 193.328125 63.351563 Z M 192.285156 63.351563 "/>
<path style=" stroke:none;fill-rule:nonzero;fill:rgb(100%,79.606628%,73.332214%);fill-opacity:1;" d="M 196.003906 57.101563 L 196.003906 63.351563 L 194.960938 63.351563 L 194.960938 58.308594 L 194.15625 58.769531 L 194.15625 57.609375 L 194.960938 57.101563 Z M 196.003906 57.101563 "/>
<path style=" stroke:none;fill-rule:nonzero;fill:rgb(100%,79.606628%,73.332214%);fill-opacity:1;" d="M 199.117188 63.429688 C 198.636719 63.429688 198.222656 63.28125 197.898438 62.984375 C 197.578125 62.683594 197.382813 62.257813 197.328125 61.707031 L 198.347656 61.707031 C 198.371094 61.9375 198.453125 62.109375 198.589844 62.246094 C 198.726563 62.375 198.898438 62.441406 199.117188 62.441406 C 199.359375 62.441406 199.554688 62.363281 199.679688 62.203125 C 199.816406 62.039063 199.875 61.8125 199.875 61.523438 L 199.875 60.984375 C 199.875 60.699219 199.808594 60.46875 199.679688 60.308594 C 199.554688 60.144531 199.371094 60.066406 199.140625 60.066406 C 198.980469 60.066406 198.832031 60.113281 198.703125 60.191406 C 198.578125 60.273438 198.472656 60.398438 198.394531 60.546875 L 197.441406 60.546875 L 197.441406 57.101563 L 200.714844 57.101563 L 200.714844 58.089844 L 198.472656 58.089844 L 198.472656 59.34375 C 198.578125 59.25 198.691406 59.179688 198.84375 59.136719 C 198.980469 59.089844 199.128906 59.066406 199.277344 59.066406 C 199.796875 59.066406 200.195313 59.238281 200.472656 59.570313 C 200.761719 59.90625 200.898438 60.375 200.898438 60.984375 L 200.898438 61.523438 C 200.898438 62.132813 200.738281 62.605469 200.425781 62.9375 C 200.140625 63.257813 199.691406 63.429688 199.117188 63.429688 Z M 199.117188 63.429688 "/>
<g clip-path="url(#clip1)" clip-rule="nonzero">
<path style=" stroke:none;fill-rule:nonzero;fill:rgb(13.725281%,21.960449%,38.430786%);fill-opacity:1;" d="M 317.621094 192.015625 L 5.75 192.015625 C 5.542969 192.015625 5.371094 191.84375 5.371094 191.636719 L 5.371094 191.453125 C 5.371094 191.246094 5.542969 191.074219 5.75 191.074219 L 317.621094 191.074219 C 317.828125 191.074219 318 191.246094 318 191.453125 L 318 191.636719 C 318 191.84375 317.828125 192.015625 317.621094 192.015625 Z M 317.621094 192.015625 "/>
</g>
<path style=" stroke:none;fill-rule:nonzero;fill:rgb(92.939758%,49.01886%,16.862488%);fill-opacity:1;" d="M 107.554688 184.289063 L 107.554688 188.558594 C 107.554688 188.558594 100.4375 188.859375 97.253906 188.859375 C 94.683594 188.859375 86.953125 188.503906 86.953125 188.503906 L 86.953125 184.195313 C 86.953125 184.195313 93.773438 183.863281 96.613281 183.863281 C 98.929688 183.863281 107.554688 184.289063 107.554688 184.289063 Z M 107.554688 184.289063 "/>
<path style=" stroke:none;fill-rule:nonzero;fill:rgb(97.647095%,59.214783%,27.450562%);fill-opacity:1;" d="M 107.554688 184.289063 L 107.554688 186.988281 C 107.554688 186.988281 100.4375 187.285156 97.253906 187.285156 C 94.683594 187.285156 86.953125 186.929688 86.953125 186.929688 L 86.953125 184.195313 C 86.953125 184.195313 93.773438 183.863281 96.613281 183.863281 C 98.929688 183.863281 107.554688 184.289063 107.554688 184.289063 Z M 107.554688 184.289063 "/>
<path style=" stroke:none;fill-rule:nonzero;fill:rgb(84.70459%,40.783691%,11.372375%);fill-opacity:1;" d="M 89.421875 182.253906 L 89.421875 190.476563 C 89.421875 190.8125 89.148438 191.085938 88.8125 191.085938 L 85.105469 191.085938 C 84.773438 191.085938 84.496094 190.8125 84.496094 190.476563 L 84.496094 182.253906 C 84.496094 181.921875 84.773438 181.648438 85.105469 181.648438 L 88.8125 181.648438 C 89.148438 181.648438 89.421875 181.921875 89.421875 182.253906 Z M 89.421875 182.253906 "/>
<path style=" stroke:none;fill-rule:nonzero;fill:rgb(92.939758%,49.01886%,16.862488%);fill-opacity:1;" d="M 89.421875 182.253906 L 89.421875 184.792969 L 84.496094 184.792969 L 84.496094 182.253906 C 84.496094 181.921875 84.773438 181.648438 85.105469 181.648438 L 88.8125 181.648438 C 89.148438 181.648438 89.421875 181.921875 89.421875 182.253906 Z M 89.421875 182.253906 "/>
<path style=" stroke:none;fill-rule:nonzero;fill:rgb(93.72406%,52.156067%,20.783997%);fill-opacity:1;" d="M 89.410156 184.792969 L 84.484375 184.792969 L 84.484375 187.941406 L 89.410156 187.941406 Z M 89.410156 184.792969 "/>
<path style=" stroke:none;fill-rule:nonzero;fill:rgb(84.70459%,40.783691%,11.372375%);fill-opacity:1;" d="M 108.371094 182.253906 L 108.371094 190.476563 C 108.371094 190.8125 108.097656 191.085938 107.761719 191.085938 L 104.054688 191.085938 C 103.71875 191.085938 103.445313 190.8125 103.445313 190.476563 L 103.445313 182.253906 C 103.445313 181.921875 103.71875 181.648438 104.054688 181.648438 L 107.761719 181.648438 C 108.097656 181.648438 108.371094 181.921875 108.371094 182.253906 Z M 108.371094 182.253906 "/>
<path style=" stroke:none;fill-rule:nonzero;fill:rgb(92.939758%,49.01886%,16.862488%);fill-opacity:1;" d="M 108.371094 182.253906 L 108.371094 184.792969 L 103.445313 184.792969 L 103.445313 182.253906 C 103.445313 181.921875 103.71875 181.648438 104.054688 181.648438 L 107.761719 181.648438 C 108.097656 181.648438 108.371094 181.921875 108.371094 182.253906 Z M 108.371094 182.253906 "/>
<path style=" stroke:none;fill-rule:nonzero;fill:rgb(93.72406%,52.156067%,20.783997%);fill-opacity:1;" d="M 108.359375 184.792969 L 103.433594 184.792969 L 103.433594 187.941406 L 108.359375 187.941406 Z M 108.359375 184.792969 "/>
</g>
</svg>
