<svg width="16" height="20" viewBox="0 0 16 20" fill="none" xmlns="http://www.w3.org/2000/svg">
<path id="file-export" d="M13.5 20H2.5C1.83696 20 1.20107 19.7366 0.732233 19.2678C0.263392 18.7989 0 18.163 0 17.5L0 2.5C0 1.83696 0.263392 1.20107 0.732233 0.732233C1.20107 0.263392 1.83696 0 2.5 0L11.5 0C11.5653 8.02185e-05 11.63 0.0131136 11.6902 0.038346C11.7505 0.0635784 11.8051 0.100509 11.851 0.147L15.851 4.147C15.9019 4.19617 15.9416 4.25577 15.9673 4.3217C15.993 4.38764 16.0042 4.45835 16 4.529V6.5C16 6.63261 15.9473 6.75979 15.8536 6.85355C15.7598 6.94732 15.6326 7 15.5 7C15.3674 7 15.2402 6.94732 15.1464 6.85355C15.0527 6.75979 15 6.63261 15 6.5V5H11.5C11.3674 5 11.2402 4.94732 11.1464 4.85355C11.0527 4.75979 11 4.63261 11 4.5V1H2.5C2.10218 1 1.72064 1.15804 1.43934 1.43934C1.15804 1.72064 1 2.10218 1 2.5V17.5C1 17.8978 1.15804 18.2794 1.43934 18.5607C1.72064 18.842 2.10218 19 2.5 19H13.5C13.8978 19 14.2794 18.842 14.5607 18.5607C14.842 18.2794 15 17.8978 15 17.5V15.5C15 15.3674 15.0527 15.2402 15.1464 15.1464C15.2402 15.0527 15.3674 15 15.5 15C15.6326 15 15.7598 15.0527 15.8536 15.1464C15.9473 15.2402 16 15.3674 16 15.5V17.5C16 18.163 15.7366 18.7989 15.2678 19.2678C14.7989 19.7366 14.163 20 13.5 20ZM12 1.708V4H14.293L12 1.708ZM12.5 14C12.4008 14.0004 12.3037 13.9712 12.2211 13.9162C12.1385 13.8613 12.0741 13.783 12.0361 13.6913C11.9982 13.5996 11.9883 13.4987 12.0079 13.4014C12.0275 13.3041 12.0755 13.2149 12.146 13.145L14.293 11H6.486C6.35339 11 6.22621 10.9473 6.13245 10.8536C6.03868 10.7598 5.986 10.6326 5.986 10.5C5.986 10.3674 6.03868 10.2402 6.13245 10.1464C6.22621 10.0527 6.35339 10 6.486 10H14.293L12.146 7.855C12.0521 7.76125 11.9993 7.63404 11.9992 7.50135C11.9991 7.36867 12.0517 7.24139 12.1455 7.1475C12.2393 7.05361 12.3665 7.00082 12.4991 7.00072C12.6318 7.00063 12.7591 7.05325 12.853 7.147L15.853 10.147C15.8996 10.1934 15.9365 10.2486 15.9617 10.3094C15.9869 10.3701 15.9999 10.4352 15.9999 10.501C15.9999 10.5668 15.9869 10.6319 15.9617 10.6926C15.9365 10.7534 15.8996 10.8086 15.853 10.855L12.853 13.855C12.7591 13.9481 12.6322 14.0002 12.5 14Z" fill="#222B45"/>
</svg>
