<svg width="16" height="18" viewBox="0 0 16 18" fill="none" xmlns="http://www.w3.org/2000/svg">
<path id="copy" d="M9.5 18H2.5C1.83696 18 1.20107 17.7366 0.732233 17.2678C0.263392 16.7989 0 16.163 0 15.5L0 6.5C0 5.83696 0.263392 5.20107 0.732233 4.73223C1.20107 4.26339 1.83696 4 2.5 4H4V5H2.5C2.10218 5 1.72064 5.15804 1.43934 5.43934C1.15804 5.72064 1 6.10218 1 6.5V15.5C1 15.8978 1.15804 16.2794 1.43934 16.5607C1.72064 16.842 2.10218 17 2.5 17H9.5C9.89782 17 10.2794 16.842 10.5607 16.5607C10.842 16.2794 11 15.8978 11 15.5V14H6.5C5.83696 14 5.20107 13.7366 4.73223 13.2678C4.26339 12.7989 4 12.163 4 11.5V2.5C4 1.83696 4.26339 1.20107 4.73223 0.732233C5.20107 0.263392 5.83696 0 6.5 0L12.5 0C12.5653 8.02185e-05 12.63 0.0131136 12.6902 0.038346C12.7505 0.0635784 12.8051 0.100509 12.851 0.147L15.851 3.147C15.9019 3.19617 15.9416 3.25577 15.9673 3.3217C15.993 3.38764 16.0042 3.45835 16 3.529V11.5C16 12.163 15.7366 12.7989 15.2678 13.2678C14.7989 13.7366 14.163 14 13.5 14H12V15.5C12 15.8283 11.9353 16.1534 11.8097 16.4567C11.6841 16.76 11.4999 17.0356 11.2678 17.2678C11.0356 17.4999 10.76 17.6841 10.4567 17.8097C10.1534 17.9353 9.8283 18 9.5 18ZM6.5 1C6.10218 1 5.72064 1.15804 5.43934 1.43934C5.15804 1.72064 5 2.10218 5 2.5V11.5C5 11.8978 5.15804 12.2794 5.43934 12.5607C5.72064 12.842 6.10218 13 6.5 13H13.5C13.8978 13 14.2794 12.842 14.5607 12.5607C14.842 12.2794 15 11.8978 15 11.5V4H12.5C12.3674 4 12.2402 3.94732 12.1464 3.85355C12.0527 3.75979 12 3.63261 12 3.5V1H6.5ZM13 1.707V3H14.293L13 1.707ZM9.5 10H7.5C7.36739 10 7.24021 9.94732 7.14645 9.85355C7.05268 9.75979 7 9.63261 7 9.5C7 9.36739 7.05268 9.24021 7.14645 9.14645C7.24021 9.05268 7.36739 9 7.5 9H9.5C9.63261 9 9.75979 9.05268 9.85355 9.14645C9.94732 9.24021 10 9.36739 10 9.5C10 9.63261 9.94732 9.75979 9.85355 9.85355C9.75979 9.94732 9.63261 10 9.5 10ZM12.5 8H7.5C7.36739 8 7.24021 7.94732 7.14645 7.85355C7.05268 7.75979 7 7.63261 7 7.5C7 7.36739 7.05268 7.24021 7.14645 7.14645C7.24021 7.05268 7.36739 7 7.5 7H12.5C12.6326 7 12.7598 7.05268 12.8536 7.14645C12.9473 7.24021 13 7.36739 13 7.5C13 7.63261 12.9473 7.75979 12.8536 7.85355C12.7598 7.94732 12.6326 8 12.5 8ZM12.5 6H7.5C7.36739 6 7.24021 5.94732 7.14645 5.85355C7.05268 5.75979 7 5.63261 7 5.5C7 5.36739 7.05268 5.24021 7.14645 5.14645C7.24021 5.05268 7.36739 5 7.5 5H12.5C12.6326 5 12.7598 5.05268 12.8536 5.14645C12.9473 5.24021 13 5.36739 13 5.5C13 5.63261 12.9473 5.75979 12.8536 5.85355C12.7598 5.94732 12.6326 6 12.5 6Z" fill="#222B45"/>
</svg>
