<svg width="25" height="25" viewBox="0 0 25 25" fill="none" xmlns="http://www.w3.org/2000/svg">
<path d="M14.6278 7H8.37223C8.16662 7 8 7.22389 8 7.5C8 7.77611 8.16662 8 8.37223 8H14.6278C14.8334 8 15 7.77611 15 7.5C15 7.22382 14.8334 7 14.6278 7Z" fill="white"/>
<path d="M6.20983 7.09308L4.5148 8.25703L3.78152 7.77951C3.59921 7.66075 3.30764 7.66354 3.13035 7.78559C2.95307 7.90772 2.95711 8.10293 3.13948 8.22169L4.20239 8.91392C4.38207 9.031 4.67812 9.02825 4.85307 8.90813L6.86915 7.52369C7.04674 7.40176 7.04312 7.20651 6.861 7.08758C6.67875 6.96865 6.38736 6.9712 6.20983 7.09308Z" fill="white"/>
<path d="M14.6278 11H8.37223C8.16662 11 8 11.2238 8 11.5C8 11.7761 8.16662 12 8.37223 12H14.6278C14.8334 12 15 11.7761 15 11.5C15 11.2239 14.8334 11 14.6278 11Z" fill="white"/>
<path d="M6.20983 11.0931L4.5148 12.2571L3.78152 11.7795C3.59909 11.6608 3.30764 11.6636 3.13035 11.7857C2.95307 11.9077 2.95711 12.103 3.13948 12.2217L4.20239 12.9139C4.38207 13.031 4.67812 13.0282 4.85307 12.9081L6.86915 11.5237C7.04674 11.4018 7.04312 11.2065 6.861 11.0876C6.67887 10.9687 6.38736 10.9712 6.20983 11.0931Z" fill="white"/>
<path d="M6.20983 15.0931L4.5148 16.257L3.78152 15.7795C3.59921 15.6608 3.30764 15.6635 3.13035 15.7856C2.95307 15.9077 2.95711 16.103 3.13948 16.2217L4.20239 16.9139C4.38207 17.031 4.67812 17.0282 4.85307 16.9081L6.86915 15.5237C7.04674 15.4018 7.04312 15.2065 6.861 15.0876C6.67887 14.9687 6.38736 14.9712 6.20983 15.0931Z" fill="white"/>
<path d="M6.20983 18.1397L4.5148 19.8856L3.78152 19.1693C3.59921 18.9912 3.30764 18.9953 3.13035 19.1784C2.95307 19.3615 2.95711 19.6544 3.13948 19.8326L4.20239 20.8709C4.38207 21.0465 4.67812 21.0424 4.85307 20.8622L6.86915 18.7856C7.04674 18.6027 7.04312 18.3099 6.861 18.1315C6.67887 17.953 6.38736 17.9568 6.20983 18.1397Z" fill="white"/>
<path d="M21.8362 12.7912C22.6453 11.6235 22.4633 10.0167 22.4541 9.94071C22.4336 9.77157 22.2945 9.63812 22.1182 9.61849C22.0292 9.60863 19.9245 9.3892 18.7193 10.5454C18.6539 10.6081 18.5938 10.6739 18.5367 10.7413V8.20081C18.5367 7.99818 18.3654 7.83387 18.1541 7.83387C17.9428 7.83387 17.7716 7.99813 17.7716 8.20081V11.7013C17.5164 11.3139 17.1761 10.9253 16.7232 10.5722V4.15451C16.7232 3.95187 16.552 3.78756 16.3407 3.78756H13.6734V2.76158H17.1633C17.4987 2.76158 17.7715 3.02335 17.7715 3.34503V6.73308C17.7715 6.93572 17.9428 7.10003 18.1541 7.10003C18.3654 7.10003 18.5366 6.93572 18.5366 6.73308V3.34508C18.5366 2.61871 17.9205 2.02779 17.1633 2.02779H13.5986C13.4457 1.66246 13.0732 1.40347 12.6383 1.40347H11.3722V0.863724C11.3723 0.387453 10.9684 0 10.4719 0H8.06477C7.56826 0 7.16429 0.387453 7.16429 0.863724V1.40342H5.89833C5.46336 1.40342 5.09095 1.66236 4.93798 2.02774H1.37327C0.616032 2.02774 0 2.61866 0 3.34503V23.673C0 24.3994 0.616083 24.9903 1.37327 24.9903H16.3688C17.0147 25.0416 17.626 24.8566 18.1541 24.4436C18.6233 24.811 19.1584 25 19.7295 25C19.8406 25 19.9531 24.9928 20.0667 24.9785C21.3471 24.8163 22.6328 23.7665 23.5942 22.0982C23.6964 21.9208 23.6294 21.6976 23.4445 21.5995C23.2597 21.5016 23.0268 21.5658 22.9247 21.7432C22.0943 23.184 20.9885 24.1215 19.9666 24.2509C19.3933 24.3234 18.8765 24.1349 18.4295 23.6904C18.2812 23.5431 18.0272 23.5431 17.8789 23.6904C17.3101 24.2559 16.6369 24.4068 15.8776 24.1387C15.0112 23.8328 14.1192 22.9887 13.4301 21.8228C12.6683 20.5339 12.1899 18.9166 12.083 17.2689C12.0124 16.181 12.3302 15.2685 13.0274 14.5568C13.9591 13.6057 15.5822 13.0224 17.5394 12.9217C17.5751 13.0214 17.6084 13.1227 17.6371 13.2269C17.7634 13.6859 17.7915 14.0949 17.7918 14.3664C17.0824 14.2724 16.6192 13.9346 16.6152 13.9316C16.4494 13.806 16.2089 13.8329 16.0779 13.9919C15.9469 14.1509 15.975 14.3816 16.1408 14.5073C16.174 14.5325 16.9683 15.1243 18.1538 15.1244C18.1541 15.1244 18.1544 15.1245 18.1546 15.1245C18.1553 15.1245 18.1559 15.1244 18.1566 15.1244C19.341 15.1235 20.1343 14.5324 20.1675 14.5072C20.3574 14.3633 20.3575 14.0796 20.1692 13.9344C20.5574 13.8177 20.9468 13.6407 21.2855 13.3756C23.8605 14.2459 24.31 15.9638 24.2253 17.2688C24.1529 18.3846 23.921 19.4568 23.536 20.4555C23.4665 20.6358 23.5585 20.8425 23.7422 20.9192C23.941 21.0022 24.1784 20.9049 24.2535 20.71C24.6644 19.6441 24.9118 18.5016 24.9889 17.3144C25.125 15.2164 24.0095 13.6269 21.8362 12.7912ZM5.62823 2.3964C5.62823 2.25352 5.74943 2.13731 5.89833 2.13731H7.54683C7.75813 2.13731 7.92937 1.97305 7.92937 1.77037V0.863724C7.92937 0.792093 7.99015 0.733841 8.06477 0.733841H10.4719C10.5466 0.733841 10.6073 0.792093 10.6073 0.863724V1.77037C10.6073 1.97301 10.7785 2.13731 10.9898 2.13731H12.6384C12.7873 2.13731 12.9085 2.25352 12.9085 2.3964V4.11945C12.9085 4.26232 12.7873 4.37858 12.6384 4.37858H5.89833C5.74938 4.37858 5.62823 4.26232 5.62823 4.11945V2.3964ZM12.4699 14.0543C12.2264 14.3029 12.0222 14.5712 11.855 14.8573H7.97478C7.76348 14.8573 7.59224 15.0215 7.59224 15.2242C7.59224 15.4269 7.76348 15.5912 7.97478 15.5912H11.523C11.4605 15.7793 11.4109 15.9734 11.3758 16.1739H7.97478C7.76348 16.1739 7.59224 16.3382 7.59224 16.5409C7.59224 16.7435 7.76348 16.9078 7.97478 16.9078H11.3098C11.3081 17.0413 11.3105 17.1766 11.3195 17.3146C11.3476 17.7479 11.3988 18.1753 11.4716 18.5943H7.97478C7.76348 18.5943 7.59224 18.7586 7.59224 18.9613C7.59224 19.1639 7.76348 19.3282 7.97478 19.3282H11.6237C11.6711 19.5248 11.723 19.7193 11.7803 19.911H7.97478C7.76348 19.911 7.59224 20.0753 7.59224 20.2779C7.59224 20.4806 7.76348 20.6449 7.97478 20.6449H12.0293C12.2343 21.1862 12.4795 21.7024 12.7647 22.185C12.8277 22.2915 12.8923 22.3954 12.9581 22.4968H2.57836V14.8169C2.57836 14.6143 2.40712 14.45 2.19582 14.45C1.98452 14.45 1.81328 14.6143 1.81328 14.8169V22.8636C1.81328 23.0663 1.98452 23.2306 2.19582 23.2306H13.4936C13.8288 23.6371 14.1874 23.9821 14.56 24.2565H1.37327C1.03787 24.2565 0.765027 23.9948 0.765027 23.6731V3.34508C0.765027 3.02335 1.03787 2.76163 1.37327 2.76163H4.86315V3.78761H2.19582C1.98452 3.78761 1.81328 3.95187 1.81328 4.15456V13.3492C1.81328 13.5518 1.98452 13.7161 2.19582 13.7161C2.40712 13.7161 2.57836 13.5518 2.57836 13.3492V4.52145H4.95264C5.1139 4.86906 5.47674 5.11242 5.89833 5.11242H12.6383C13.0599 5.11242 13.4228 4.86911 13.584 4.52145H15.9583V10.0838C15.7905 10.0316 15.6019 10.0963 15.5098 10.2485C15.4037 10.4237 15.4657 10.6483 15.6483 10.7501C15.7559 10.8101 15.8586 10.8735 15.9583 10.9393V12.3743C14.4888 12.6595 13.2696 13.2379 12.4699 14.0543ZM16.7233 12.2555V11.58C16.905 11.7741 17.0641 11.9837 17.2007 12.2087C17.0393 12.2211 16.8802 12.2368 16.7233 12.2555ZM18.5572 14.3609C18.5571 14.2964 18.5556 14.2261 18.5522 14.1504C18.5656 14.1505 18.5782 14.1508 18.5921 14.1508C18.8158 14.1508 19.0981 14.1387 19.4069 14.0969C19.2083 14.1942 18.9156 14.3081 18.5572 14.3609ZM18.4963 13.415C18.4866 12.8724 18.5588 11.7372 19.2603 11.0643C19.9618 10.3913 21.1468 10.3222 21.7108 10.3314C21.7206 10.8741 21.6484 12.0093 20.9469 12.6822C20.2453 13.3551 19.0625 13.4241 18.4963 13.415Z" fill="white"/>
</svg>
