<svg width="18" height="18" viewBox="0 0 18 18" fill="none" xmlns="http://www.w3.org/2000/svg">
<g id="1. Icons - Line -  desktop-2" clip-path="url(#clip0_529_798)">
<path id="desktop-2" d="M15.5 18H2.5C1.83696 18 1.20107 17.7366 0.732233 17.2678C0.263392 16.7989 0 16.163 0 15.5L0 2.5C0 1.83696 0.263392 1.20107 0.732233 0.732233C1.20107 0.263392 1.83696 0 2.5 0L15.5 0C16.163 0 16.7989 0.263392 17.2678 0.732233C17.7366 1.20107 18 1.83696 18 2.5V15.5C18 16.163 17.7366 16.7989 17.2678 17.2678C16.7989 17.7366 16.163 18 15.5 18ZM1 4V15.5C1 15.8978 1.15804 16.2794 1.43934 16.5607C1.72064 16.842 2.10218 17 2.5 17H15.5C15.8978 17 16.2794 16.842 16.5607 16.5607C16.842 16.2794 17 15.8978 17 15.5V4H1ZM2.5 1C2.10218 1 1.72064 1.15804 1.43934 1.43934C1.15804 1.72064 1 2.10218 1 2.5V3H17V2.5C17 2.10218 16.842 1.72064 16.5607 1.43934C16.2794 1.15804 15.8978 1 15.5 1H2.5ZM13.5 15H10.5C10.3674 15 10.2402 14.9473 10.1464 14.8536C10.0527 14.7598 10 14.6326 10 14.5C10 14.3674 10.0527 14.2402 10.1464 14.1464C10.2402 14.0527 10.3674 14 10.5 14H13.5C13.6326 14 13.7598 14.0527 13.8536 14.1464C13.9473 14.2402 14 14.3674 14 14.5C14 14.6326 13.9473 14.7598 13.8536 14.8536C13.7598 14.9473 13.6326 15 13.5 15ZM6.5 15H3.5C3.36739 15 3.24021 14.9473 3.14645 14.8536C3.05268 14.7598 3 14.6326 3 14.5C3 14.3674 3.05268 14.2402 3.14645 14.1464C3.24021 14.0527 3.36739 14 3.5 14H6.5C6.63261 14 6.75979 14.0527 6.85355 14.1464C6.94732 14.2402 7 14.3674 7 14.5C7 14.6326 6.94732 14.7598 6.85355 14.8536C6.75979 14.9473 6.63261 15 6.5 15ZM14.5 13H10.5C10.3674 13 10.2402 12.9473 10.1464 12.8536C10.0527 12.7598 10 12.6326 10 12.5C10 12.3674 10.0527 12.2402 10.1464 12.1464C10.2402 12.0527 10.3674 12 10.5 12H14.5C14.6326 12 14.7598 12.0527 14.8536 12.1464C14.9473 12.2402 15 12.3674 15 12.5C15 12.6326 14.9473 12.7598 14.8536 12.8536C14.7598 12.9473 14.6326 13 14.5 13ZM7.5 13H3.5C3.36739 13 3.24021 12.9473 3.14645 12.8536C3.05268 12.7598 3 12.6326 3 12.5C3 12.3674 3.05268 12.2402 3.14645 12.1464C3.24021 12.0527 3.36739 12 3.5 12H7.5C7.63261 12 7.75979 12.0527 7.85355 12.1464C7.94732 12.2402 8 12.3674 8 12.5C8 12.6326 7.94732 12.7598 7.85355 12.8536C7.75979 12.9473 7.63261 13 7.5 13ZM13.5 10H11.5C11.1022 10 10.7206 9.84196 10.4393 9.56066C10.158 9.27936 10 8.89782 10 8.5V7.5C10 7.10218 10.158 6.72064 10.4393 6.43934C10.7206 6.15804 11.1022 6 11.5 6H13.5C13.8978 6 14.2794 6.15804 14.5607 6.43934C14.842 6.72064 15 7.10218 15 7.5V8.5C15 8.89782 14.842 9.27936 14.5607 9.56066C14.2794 9.84196 13.8978 10 13.5 10ZM11.5 7C11.3674 7 11.2402 7.05268 11.1464 7.14645C11.0527 7.24021 11 7.36739 11 7.5V8.5C11 8.63261 11.0527 8.75979 11.1464 8.85355C11.2402 8.94732 11.3674 9 11.5 9H13.5C13.6326 9 13.7598 8.94732 13.8536 8.85355C13.9473 8.75979 14 8.63261 14 8.5V7.5C14 7.36739 13.9473 7.24021 13.8536 7.14645C13.7598 7.05268 13.6326 7 13.5 7H11.5ZM6.5 10H4.5C4.10218 10 3.72064 9.84196 3.43934 9.56066C3.15804 9.27936 3 8.89782 3 8.5V7.5C3 7.10218 3.15804 6.72064 3.43934 6.43934C3.72064 6.15804 4.10218 6 4.5 6H6.5C6.89782 6 7.27936 6.15804 7.56066 6.43934C7.84196 6.72064 8 7.10218 8 7.5V8.5C8 8.89782 7.84196 9.27936 7.56066 9.56066C7.27936 9.84196 6.89782 10 6.5 10ZM4.5 7C4.36739 7 4.24021 7.05268 4.14645 7.14645C4.05268 7.24021 4 7.36739 4 7.5V8.5C4 8.63261 4.05268 8.75979 4.14645 8.85355C4.24021 8.94732 4.36739 9 4.5 9H6.5C6.63261 9 6.75979 8.94732 6.85355 8.85355C6.94732 8.75979 7 8.63261 7 8.5V7.5C7 7.36739 6.94732 7.24021 6.85355 7.14645C6.75979 7.05268 6.63261 7 6.5 7H4.5Z" fill="#222B45"/>
</g>
<defs>
<clipPath id="clip0_529_798">
<rect width="18" height="18" fill="white"/>
</clipPath>
</defs>
</svg>
