<svg width="18" height="18" viewBox="0 0 18 18" fill="none" xmlns="http://www.w3.org/2000/svg">
<path id="user-circle" d="M9 18C7.21997 18 5.47991 17.4722 3.99987 16.4832C2.51983 15.4943 1.36628 14.0887 0.685088 12.4442C0.00389956 10.7996 -0.17433 8.99002 0.172937 7.24419C0.520203 5.49836 1.37737 3.89472 2.63604 2.63604C3.89472 1.37737 5.49836 0.520203 7.24419 0.172937C8.99002 -0.17433 10.7996 0.00389956 12.4442 0.685088C14.0887 1.36628 15.4943 2.51983 16.4832 3.99987C17.4722 5.47991 18 7.21997 18 9C17.9974 11.3861 17.0483 13.6738 15.3611 15.3611C13.6738 17.0483 11.3861 17.9974 9 18ZM7.1667 12.2103L3.492 13.8807C3.26214 13.9841 3.0662 14.1504 2.9268 14.3604C3.68541 15.2211 4.61849 15.9105 5.66405 16.3829C6.7096 16.8552 7.8437 17.0997 8.991 17.1H9.0108C10.1578 17.0997 11.2917 16.8552 12.3369 16.3828C13.3822 15.9105 14.3149 15.2211 15.0732 14.3604C14.9339 14.1506 14.7384 13.9844 14.5089 13.8807L10.8351 12.2094C10.2578 12.4677 9.63242 12.6008 9 12.6H8.9946C8.36456 12.6012 7.74147 12.4684 7.1667 12.2103ZM9 3.6C9.93701 3.60002 10.8506 3.89253 11.6134 4.43672C12.3762 4.98091 12.9501 5.74964 13.255 6.63564C13.5599 7.52165 13.5806 8.48073 13.3143 9.37909C13.048 10.2774 12.5078 11.0703 11.7693 11.6469L14.8806 13.0599C15.1741 13.193 15.4353 13.388 15.6465 13.6314C16.4927 12.4169 16.9898 10.9938 17.084 9.51656C17.1782 8.03936 16.8659 6.56459 16.1808 5.25245C15.4958 3.9403 14.4643 2.84095 13.1984 2.07381C11.9325 1.30667 10.4806 0.901067 9.00045 0.901067C7.52026 0.901067 6.06836 1.30667 4.80247 2.07381C3.53658 2.84095 2.5051 3.9403 1.82007 5.25245C1.13505 6.56459 0.822672 8.03936 0.916874 9.51656C1.01108 10.9938 1.50825 12.4169 2.3544 13.6314C2.56496 13.3877 2.82599 13.1927 3.1194 13.0599L6.2307 11.6469C5.49216 11.0703 4.95204 10.2774 4.6857 9.37909C4.41937 8.48073 4.4401 7.52165 4.74502 6.63564C5.04993 5.74964 5.62381 4.98091 6.38659 4.43672C7.14937 3.89253 8.063 3.60002 9 3.6ZM9 4.5C8.28799 4.5 7.59197 4.71114 6.99995 5.10671C6.40793 5.50229 5.94651 6.06453 5.67404 6.72234C5.40156 7.38016 5.33027 8.104 5.46918 8.80233C5.60808 9.50066 5.95095 10.1421 6.45442 10.6456C6.95789 11.1491 7.59935 11.4919 8.29768 11.6308C8.99601 11.7697 9.71985 11.6984 10.3777 11.426C11.0355 11.1535 11.5977 10.6921 11.9933 10.1001C12.3889 9.50804 12.6 8.81202 12.6 8.1C12.6 7.14522 12.2207 6.22955 11.5456 5.55442C10.8705 4.87929 9.95478 4.5 9 4.5Z" fill="#222B45"/>
</svg>
