<svg width="23" height="23" viewBox="0 0 23 23" fill="none" xmlns="http://www.w3.org/2000/svg">
<path d="M19.8056 23H3.19444C2.34723 23 1.53471 22.6634 0.935631 22.0644C0.336557 21.4653 0 20.6528 0 19.8056L0 3.19444C0 2.34723 0.336557 1.53471 0.935631 0.935631C1.53471 0.336557 2.34723 0 3.19444 0L19.8056 0C20.6528 0 21.4653 0.336557 22.0644 0.935631C22.6634 1.53471 23 2.34723 23 3.19444V19.8056C23 20.6528 22.6634 21.4653 22.0644 22.0644C21.4653 22.6634 20.6528 23 19.8056 23ZM1.27778 7.66667V19.8056C1.27778 20.3139 1.47971 20.8014 1.83916 21.1608C2.1986 21.5203 2.68611 21.7222 3.19444 21.7222H19.8056C20.3139 21.7222 20.8014 21.5203 21.1608 21.1608C21.5203 20.8014 21.7222 20.3139 21.7222 19.8056V7.66667H1.27778ZM3.19444 1.27778C2.68611 1.27778 2.1986 1.47971 1.83916 1.83916C1.47971 2.1986 1.27778 2.68611 1.27778 3.19444V6.38889H21.7222V3.19444C21.7222 2.68611 21.5203 2.1986 21.1608 1.83916C20.8014 1.47971 20.3139 1.27778 19.8056 1.27778H3.19444ZM17.25 19.1667H15.9722C15.4639 19.1667 14.9764 18.9647 14.6169 18.6053C14.2575 18.2458 14.0556 17.7583 14.0556 17.25V12.1389C14.0556 11.6306 14.2575 11.143 14.6169 10.7836C14.9764 10.4242 15.4639 10.2222 15.9722 10.2222H17.25C17.7583 10.2222 18.2458 10.4242 18.6053 10.7836C18.9647 11.143 19.1667 11.6306 19.1667 12.1389V17.25C19.1667 17.7583 18.9647 18.2458 18.6053 18.6053C18.2458 18.9647 17.7583 19.1667 17.25 19.1667ZM15.9722 11.5C15.8028 11.5 15.6403 11.5673 15.5205 11.6871C15.4006 11.8069 15.3333 11.9694 15.3333 12.1389V17.25C15.3333 17.4194 15.4006 17.5819 15.5205 17.7018C15.6403 17.8216 15.8028 17.8889 15.9722 17.8889H17.25C17.4194 17.8889 17.5819 17.8216 17.7018 17.7018C17.8216 17.5819 17.8889 17.4194 17.8889 17.25V12.1389C17.8889 11.9694 17.8216 11.8069 17.7018 11.6871C17.5819 11.5673 17.4194 11.5 17.25 11.5H15.9722ZM8.30556 19.1667H4.47222C4.30278 19.1667 4.14027 19.0994 4.02046 18.9795C3.90064 18.8597 3.83333 18.6972 3.83333 18.5278C3.83333 18.3583 3.90064 18.1958 4.02046 18.076C4.14027 17.9562 4.30278 17.8889 4.47222 17.8889H8.30556C8.475 17.8889 8.6375 17.9562 8.75732 18.076C8.87713 18.1958 8.94444 18.3583 8.94444 18.5278C8.94444 18.6972 8.87713 18.8597 8.75732 18.9795C8.6375 19.0994 8.475 19.1667 8.30556 19.1667ZM10.8611 15.3333H4.47222C4.30278 15.3333 4.14027 15.266 4.02046 15.1462C3.90064 15.0264 3.83333 14.8639 3.83333 14.6944C3.83333 14.525 3.90064 14.3625 4.02046 14.2427C4.14027 14.1229 4.30278 14.0556 4.47222 14.0556H10.8611C11.0306 14.0556 11.1931 14.1229 11.3129 14.2427C11.4327 14.3625 11.5 14.525 11.5 14.6944C11.5 14.8639 11.4327 15.0264 11.3129 15.1462C11.1931 15.266 11.0306 15.3333 10.8611 15.3333ZM10.8611 11.5H4.47222C4.30278 11.5 4.14027 11.4327 4.02046 11.3129C3.90064 11.1931 3.83333 11.0306 3.83333 10.8611C3.83333 10.6917 3.90064 10.5292 4.02046 10.4093C4.14027 10.2895 4.30278 10.2222 4.47222 10.2222H10.8611C11.0306 10.2222 11.1931 10.2895 11.3129 10.4093C11.4327 10.5292 11.5 10.6917 11.5 10.8611C11.5 11.0306 11.4327 11.1931 11.3129 11.3129C11.1931 11.4327 11.0306 11.5 10.8611 11.5Z" fill="white"/>
</svg>
