<svg width="18" height="22" viewBox="0 0 18 22" fill="none" xmlns="http://www.w3.org/2000/svg">
<path d="M13 6.01368C11.6558 5.89064 10.3333 6.69487 9 6.69487C7.66667 6.69487 6.34375 5.88595 5 6.01368C2.33333 6.26913 1 8.73846 1 12.8256C1 16.2316 3.66667 21 5.63333 21C7.6 21 7.7975 19.9782 9 19.9782C10.2025 19.9782 10.3996 21 12.3667 21C14.3337 21 17 16.2316 17 12.8256C17 8.73846 15.7917 6.26913 13 6.01368Z" stroke="#1C274C" stroke-width="1.3" stroke-miterlimit="10"/>
<path d="M11.8288 3.49665C10.9547 4.59012 9.92827 4.90253 9.3805 4.99574C9.33042 5.00477 9.27935 4.9994 9.23117 4.98005C9.183 4.96069 9.13898 4.92786 9.10247 4.88404C9.06595 4.84022 9.0379 4.78657 9.02045 4.72716C9.00299 4.66775 8.99658 4.60414 9.00172 4.54117C9.10051 3.36989 9.52145 2.2779 10.1926 1.45187C11.1083 0.306332 12.1073 0.0511899 12.6367 0.00172355C12.6862 -0.00391857 12.736 0.00433262 12.7825 0.0258735C12.8291 0.0474145 12.8712 0.0817003 12.9058 0.126223C12.9404 0.170746 12.9666 0.224379 12.9825 0.283199C12.9984 0.34202 13.0035 0.40454 12.9976 0.466186C12.8931 1.61259 12.4811 2.68085 11.8288 3.49665Z" fill="#1C274C"/>
</svg>
