<svg width="18" height="18" viewBox="0 0 18 18" fill="none" xmlns="http://www.w3.org/2000/svg">
<path id="content-right" d="M15.5 18H2.5C1.83696 18 1.20107 17.7366 0.732233 17.2678C0.263392 16.7989 0 16.163 0 15.5L0 2.5C0 1.83696 0.263392 1.20107 0.732233 0.732233C1.20107 0.263392 1.83696 0 2.5 0L15.5 0C16.163 0 16.7989 0.263392 17.2678 0.732233C17.7366 1.20107 18 1.83696 18 2.5V15.5C18 16.163 17.7366 16.7989 17.2678 17.2678C16.7989 17.7366 16.163 18 15.5 18ZM6 1V17H15.5C15.8978 17 16.2794 16.842 16.5607 16.5607C16.842 16.2794 17 15.8978 17 15.5V2.5C17 2.10218 16.842 1.72064 16.5607 1.43934C16.2794 1.15804 15.8978 1 15.5 1H6ZM2.5 1C2.10218 1 1.72064 1.15804 1.43934 1.43934C1.15804 1.72064 1 2.10218 1 2.5V15.5C1 15.8978 1.15804 16.2794 1.43934 16.5607C1.72064 16.842 2.10218 17 2.5 17H5V1H2.5ZM12.5 14H8.5C8.36739 14 8.24021 13.9473 8.14645 13.8536C8.05268 13.7598 8 13.6326 8 13.5C8 13.3674 8.05268 13.2402 8.14645 13.1464C8.24021 13.0527 8.36739 13 8.5 13H12.5C12.6326 13 12.7598 13.0527 12.8536 13.1464C12.9473 13.2402 13 13.3674 13 13.5C13 13.6326 12.9473 13.7598 12.8536 13.8536C12.7598 13.9473 12.6326 14 12.5 14ZM14.5 12H8.5C8.36739 12 8.24021 11.9473 8.14645 11.8536C8.05268 11.7598 8 11.6326 8 11.5C8 11.3674 8.05268 11.2402 8.14645 11.1464C8.24021 11.0527 8.36739 11 8.5 11H14.5C14.6326 11 14.7598 11.0527 14.8536 11.1464C14.9473 11.2402 15 11.3674 15 11.5C15 11.6326 14.9473 11.7598 14.8536 11.8536C14.7598 11.9473 14.6326 12 14.5 12ZM12.5 9H8.5C8.36739 9 8.24021 8.94732 8.14645 8.85355C8.05268 8.75979 8 8.63261 8 8.5C8 8.36739 8.05268 8.24021 8.14645 8.14645C8.24021 8.05268 8.36739 8 8.5 8H12.5C12.6326 8 12.7598 8.05268 12.8536 8.14645C12.9473 8.24021 13 8.36739 13 8.5C13 8.63261 12.9473 8.75979 12.8536 8.85355C12.7598 8.94732 12.6326 9 12.5 9ZM14.5 7H8.5C8.36739 7 8.24021 6.94732 8.14645 6.85355C8.05268 6.75979 8 6.63261 8 6.5C8 6.36739 8.05268 6.24021 8.14645 6.14645C8.24021 6.05268 8.36739 6 8.5 6H14.5C14.6326 6 14.7598 6.05268 14.8536 6.14645C14.9473 6.24021 15 6.36739 15 6.5C15 6.63261 14.9473 6.75979 14.8536 6.85355C14.7598 6.94732 14.6326 7 14.5 7ZM14.5 5H8.5C8.36739 5 8.24021 4.94732 8.14645 4.85355C8.05268 4.75979 8 4.63261 8 4.5C8 4.36739 8.05268 4.24021 8.14645 4.14645C8.24021 4.05268 8.36739 4 8.5 4H14.5C14.6326 4 14.7598 4.05268 14.8536 4.14645C14.9473 4.24021 15 4.36739 15 4.5C15 4.63261 14.9473 4.75979 14.8536 4.85355C14.7598 4.94732 14.6326 5 14.5 5Z" fill="#222B45"/>
</svg>
