<?xml version="1.0" encoding="UTF-8" standalone="no"?>
<!DOCTYPE svg PUBLIC "-//W3C//DTD SVG 1.1//EN" "http://www.w3.org/Graphics/SVG/1.1/DTD/svg11.dtd">
<svg xmlns="http://www.w3.org/2000/svg" xmlns:xlink="http://www.w3.org/1999/xlink" version="1.1" width="352pt" height="221.24951pt" viewBox="0 0 352 221.24951">
<g enable-background="new">
<g>
<path transform="matrix(1,0,0,-1,0,236.3938)" d="M 341.4754 16.966828 C 341.3599 16.658783 321.8765 16.286576 321.7353 15.978531 L 288.5185 15.978531 L 286.50343 15.991379 L 278.80247 16.017045 L 191.75595 16.017045 L 184.59406 16.029877 L 183.70847 16.029877 L 171.77199 16.04271 L 166.32997 16.055542 L 99.29315 16.055542 L 71.30018 16.081208 L 20.679223 16.081208 C 20.679223 16.081208 20.602213 16.325074 20.422524 16.825638 L 20.396853 16.889817 C 20.396853 16.889817 20.371182 16.953995 20.371182 16.97966 C 20.255667 17.223526 -38.22027 140.41313 43.499719 162.81009 C 74.7656 171.35814 88.04976 175.645 120.61197 217.2045 C 148.16857 252.3722 245.09793 233.58187 272.5775 205.7429 C 276.18415 202.0978 307.0393 179.39279 294.12739 153.42774 C 285.9772 137.03754 310.04267 132.96887 322.12034 132.01909 C 363.43598 128.74619 341.74494 17.582901 341.4754 16.966828 Z " fill="#37cff0"/>
<path transform="matrix(1,0,0,-1,106.67969,97.22876)" d="M 2.560276 58.4535 C 6.949821 65.51271 19.207179 59.210763 19.207179 59.210763 C 19.207179 59.210763 23.981766 43.10293 26.446074 42.01196 C 28.91038 40.92099 25.05991 56.5796 25.05991 56.5796 C 30.168211 55.565645 41.000886 45.682748 41.000886 45.682748 C 41.000886 45.682748 35.481874 30.2295 38.138704 29.780278 C 40.795537 29.331055 42.322889 43.71901 42.322889 43.71901 C 46.699598 40.83115 49.497617 33.87462 49.497617 33.87462 C 52.359804 23.054776 38.331228 19.935887 38.331228 19.935887 C 38.331228 19.935887 36.534337 14.532387 38.023187 7.280655 C 38.023187 7.280655 38.433904 5.894482 38.61359 3.712547 L 37.304433 4.110424 C 37.304433 4.495472 37.291597 4.867683 37.25309 5.239899 C 37.25309 5.239899 37.25309 5.239902 37.25309 5.252735 L 37.25309 5.265568 C 37.22742 5.496597 37.176084 5.817474 37.12474 6.215355 C 36.957887 7.1138 36.86804 7.781216 36.8167 8.243275 C 36.354646 11.066956 35.59738 14.789082 34.63476 15.80304 C 34.63476 15.80304 34.84012 15.957058 35.096818 16.316437 C 34.95563 16.149582 34.801618 15.982727 34.63476 15.80304 C 30.951138 11.670193 19.489552 14.237183 13.636826 17.394574 C 7.771264 20.551964 11.031332 21.501755 15.254024 23.349984 C 19.476716 25.198212 26.304898 22.323185 28.717865 22.823746 C 31.143666 23.324307 28.435494 25.352227 24.174298 26.289177 C 19.913102 27.226124 16.576024 23.68369 9.657998 25.057026 C 2.739972 26.4432 1.417973 40.638628 1.417973 40.638628 C 5.627829 37.80211 14.727793 37.86628 15.536393 39.367967 C 16.332159 40.869657 3.959283 44.424928 2.175229 45.47739 C .378339 46.529855 -1.829269 51.39429 2.560276 58.4535 Z " fill="#dfebfd"/>
<path transform="matrix(1,0,0,-1,168.78711,100.20337)" d="M 33.85291 41.81619 C 30.708352 46.87315 21.942091 42.368089 21.942091 42.368089 C 21.942091 42.368089 18.527995 30.842324 16.76961 30.072228 C 15.011225 29.302132 17.757908 40.494188 17.757908 40.494188 C 14.099954 39.775434 6.360487 32.690557 6.360487 32.690557 C 6.360487 32.690557 10.313647 21.626847 8.401243 21.305974 C 6.501674 20.9851 5.410698 31.278714 5.410698 31.278714 C 2.278976 29.21229 .276727 24.245175 .276727 24.245175 C -1.776861 16.505715 8.272894 14.272436 8.272894 14.272436 C 8.272894 14.272436 9.55638 10.409126 8.491081 5.210979 C 8.491081 5.210979 8.195888 4.222691 8.067538 2.656826 L 9.004478 2.939198 C 9.004478 3.208733 9.01732 3.478264 9.04299 3.747795 L 9.04299 3.760628 C 9.068659 3.927483 9.094323 4.158516 9.132828 4.440887 C 9.248342 5.08263 9.325361 5.557522 9.35103 5.891232 C 9.684739 7.906315 10.223803 10.575981 10.904054 11.307571 C 10.904054 11.307571 10.762873 11.42308 10.570349 11.679779 C 10.673028 11.564266 10.78854 11.435921 10.904054 11.307571 C 13.535214 8.355537 21.736729 10.190929 25.93375 12.449875 C 30.130772 14.708822 27.794816 15.389074 24.778607 16.711071 C 21.7624 18.03307 16.872296 15.979477 15.13958 16.338856 C 13.406865 16.698235 15.344942 18.148587 18.399655 18.816002 C 21.454367 19.48342 23.828833 16.954932 28.783114 17.943222 C 33.737398 18.93151 34.68718 29.083943 34.68718 29.083943 C 31.67097 27.056025 25.163655 27.094525 24.586083 28.172659 C 24.008513 29.250794 32.877447 31.792113 34.1481 32.549375 C 35.405927 33.2938 36.98463 36.77206 33.85291 41.81619 Z " fill="#cde0fb"/>
<path transform="matrix(1,0,0,-1,100.72363,223.98535)" d="M 60.2801 38.417078 C 60.2801 38.417078 55.826387 45.951189 50.256029 48.518175 C 50.256029 48.518175 51.02611 31.640248 47.86872 31.69159 C 44.724164 31.742928 48.369287 50.571763 48.369287 50.571763 C 48.369287 50.571763 34.12252 60.082437 28.038767 60.351968 C 28.038767 60.351968 35.251989 42.947816 32.21011 43.78208 C 29.168232 44.603517 20.825537 62.36706 20.825537 62.36706 C 20.825537 62.36706 5.564811 67.48819 1.727168 58.555078 C -2.09764 49.62197 1.303617 44.411 3.54973 43.499719 C 5.795842 42.58844 20.710022 40.676027 20.05544 38.802125 C 19.388026 36.91539 8.889057 35.246866 3.524058 37.788179 C 3.524058 37.788179 7.554222 21.629002 15.794245 21.243954 C 24.034266 20.871743 27.255829 25.543656 32.33846 25.222783 C 37.42109 24.901909 40.9122 23.028004 38.20403 22.026883 C 35.49586 21.025757 27.11465 23.143525 22.558253 20.268502 C 18.001854 17.393479 14.420906 15.724934 21.736813 13.106606 C 29.065556 10.488281 42.747598 9.538498 46.277204 14.96767 C 47.560697 13.953712 49.08805 9.7952 50.127679 6.612137 C 50.268865 6.073071 50.487054 5.328644 50.84643 4.314682 C 50.923444 4.07082 50.987619 3.852631 51.038957 3.660107 L 52.46363 3.660107 C 52.348115 4.032318 52.232606 4.36602 52.129926 4.648388 C 51.873228 5.341473 51.693536 5.726524 51.693536 5.726524 C 48.702997 13.851032 49.819639 20.39685 49.819639 20.39685 C 49.819639 20.39685 65.49108 26.429257 60.2801 38.417078 Z M 46.302865 14.942009 C 46.456884 15.173038 46.598073 15.391224 46.739255 15.609417 C 46.533899 15.211536 46.34137 14.993347 46.302865 14.942009 Z " fill="#afcdfb"/>
<path transform="matrix(1,0,0,-1,166.11133,220.36377)" d="M 5.647368 64.29004 L 5.647368 -.000107 L .205371 .012726 L 0 .012726 L 0 64.29004 L 5.647368 64.29004 Z " fill="#94b0ed"/>
<path transform="matrix(1,0,0,-1,110.39551,156.07373)" d="M 0 .000015 L 64.32866 .000015 L 64.32866 36.93894 C 64.32866 54.702478 49.927858 69.10327 32.16432 69.10327 C 14.400784 69.10327 0 54.702478 0 36.93894 L 0 .000015 Z " fill="#afcdfb"/>
<path transform="matrix(1,0,0,-1,140.5957,128.85083)" d="M 52.43067 41.88037 L 0 41.88037 L 0 -.000004 L 46.026044 -.000004 L 52.43067 41.88037 Z " fill="#afcdfb"/>
<path transform="matrix(1,0,0,-1,160.8623,156.07373)" d="M 0 .000015 L 64.32865 .000015 L 64.32865 36.93894 C 64.32865 54.702478 49.927865 69.10327 32.164327 69.10327 C 14.400786 69.10327 0 54.702478 0 36.93894 L 0 .000015 Z " fill="#628ad3"/>
<path transform="matrix(1,0,0,-1,164.31543,152.35157)" d="M 0 -.000053 L 57.41063 -.000053 L 57.41063 32.960039 C 57.41063 48.81117 44.562875 61.658937 28.711739 61.658937 C 12.860605 61.658937 .012847 48.81117 .012847 32.960039 L .012847 -.000053 L 0 -.000053 Z " fill="#233862"/>
<path transform="matrix(1,0,0,-1,158.02539,156.07373)" d="M 118.24819 .000039 L 1.861064 .000039 C .83427 .000039 0 .834309 0 1.861104 C 0 2.887898 .83427 3.722168 1.861064 3.722168 L 118.24819 3.722168 C 119.27499 3.722168 120.10926 2.887898 120.10926 1.861104 C 120.10926 .834309 119.27499 .000039 118.24819 .000039 Z " fill="#628ad3"/>
<path transform="matrix(1,0,0,-1,153.90625,159.47534)" d="M 1.848233 .000117 L 29.10962 .000117 C 30.072237 .000117 30.855166 .783045 30.855166 1.745664 L 30.855166 3.491211 L 0 3.491211 L 0 1.84835 C 0 .821556 .821438 .000117 1.848233 .000117 Z " fill="#94b0ed"/>
<path transform="matrix(1,0,0,-1,293.62696,103.17871)" d="M 11.577098 11.266736 C 11.577098 11.266736 14.041417 7.210899 9.408008 4.656748 C 9.408008 4.656748 12.963289 3.373255 14.195442 3.860983 C 14.195442 3.860983 13.88741 3.540106 13.656382 3.424591 C 13.656382 3.424591 16.993464 2.359295 18.662003 2.936867 C 20.330544 3.514439 23.91147 19.686448 14.054246 20.546389 C 14.054246 20.546389 6.276292 23.331564 4.633421 14.655153 C 2.990551 5.978743 0 6.813015 0 6.813015 C 0 6.813015 .731597 6.196937 1.12948 6.081423 C 1.12948 6.081423 1.771239 6.11993 1.976598 6.389463 C 1.976598 6.389463 1.732715 5.95307 1.540191 5.837556 C 1.540191 5.837556 4.697596 4.643911 6.622835 5.311327 C 8.548074 6.004413 11.538593 9.380002 11.577098 11.266736 Z " fill="#163560"/>
<path transform="matrix(1,0,0,-1,295.30763,219.594)" d="M 0 .00011 L 12.578229 .00011 C 12.578229 .00011 12.873425 1.91252 12.218844 3.375702 C 11.589933 4.774709 10.614485 5.634652 10.52464 6.699951 C 9.728875 5.878516 8.740573 5.352271 6.918014 5.596135 C 6.69982 5.236757 5.480502 3.298683 4.736076 2.772451 C 3.91464 2.169209 .243864 2.374571 0 .00011 Z " fill="#233862"/>
<path transform="matrix(1,0,0,-1,290.8994,215.84033)" d="M 14.791991 1.046707 C 14.791991 1.046707 13.713877 .700165 12.597238 .597488 C 10.620659 .417793 10.325431 1.008194 10.325431 1.008194 C 10.325431 1.008194 8.361687 18.540719 1.982727 52.03988 C 1.058612 56.878648 .699253 59.561143 .365545 63.86084 C .262866 65.14433 .173002 66.58184 .057488 68.263217 C -.22488 72.78111 .455371 80.37939 3.843792 82.368808 C 5.383983 83.28008 7.488918 83.02339 10.299767 80.80295 C 10.517961 80.62326 10.748996 80.443569 10.980024 80.238208 C 19.232884 73.08915 15.857309 52.57894 16.191018 42.92708 C 16.242358 41.322713 16.409205 40.026388 16.730078 39.140775 C 17.153632 37.98563 18.064892 36.39409 18.283085 34.892404 C 20.04147 22.37835 14.791991 1.046707 14.791991 1.046707 Z " fill="#2b478b"/>
<path transform="matrix(1,0,0,-1,290.9121,172.90039)" d="M 16.190987 .000065 L .365514 20.920996 C .262834 22.204489 .173002 23.64199 .057488 25.323369 C -.22488 29.84126 .455371 37.43954 3.843792 39.428956 L 10.299767 37.863103 C 10.517961 37.68341 10.748996 37.50372 10.980024 37.29836 C 19.245718 30.16214 15.857278 9.639095 16.190987 .000065 Z " fill="#233862"/>
<path transform="matrix(1,0,0,-1,339.6787,193.88526)" d="M 12.180332 .757198 L 6.943707 12.193115 C 6.943707 12.193115 5.069783 11.666883 4.030154 10.4604 C 3.02903 9.305257 2.297452 9.510615 0 11.102146 C .85994 9.767314 .975461 8.984374 1.514528 7.225989 C 1.93808 7.174649 4.338192 4.851527 6.789663 4.209781 C 7.765118 3.965918 9.90855 -.000063 12.180332 .757198 Z " fill="#233862"/>
<path transform="matrix(1,0,0,-1,296.93849,188.91968)" d="M .024419 50.42991 C .024419 50.42991 11.293484 11.244873 15.426331 8.729229 C 19.559176 6.200748 41.275865 2.735313 45.67824 .848579 C 45.67824 .848579 46.217336 1.618679 45.89646 3.261551 C 45.832288 3.62093 45.203359 4.942924 45.203359 4.942924 C 45.203359 4.942924 31.713858 15.08252 22.844925 16.096478 C 20.637318 16.353177 27.324313 49.980688 12.448633 51.328355 C -1.130718 52.560506 .024419 50.42991 .024419 50.42991 Z " fill="#2b478b"/>
<path transform="matrix(1,0,0,-1,277.63185,74.889408)" d="M 2.633489 .651116 C 2.633489 .651116 2.890181 1.908945 3.172549 2.871565 C 3.300899 3.295117 2.428111 6.08029 1.812034 6.426833 C 1.208793 6.773376 -.369904 4.899483 .079319 3.449136 C .310348 2.70471 .682554 .304579 .682554 .304579 L 2.633489 .651116 Z " fill="#ffb27d"/>
<path transform="matrix(1,0,0,-1,280.26564,74.43262)" d="M 0 .194326 C 0 .194326 .333696 .925921 .628899 1.041436 C .924102 1.15695 1.244975 2.350594 1.463169 2.825486 C 1.463169 2.825486 1.25781 3.13353 .885597 2.735648 C .654569 2.491784 .154013 1.78586 .154013 1.78586 L 0 .194326 Z " fill="#ffb27d"/>
<path transform="matrix(1,0,0,-1,331.66896,83.753177)" d="M .641746 4.599164 C .718756 4.445145 .821429 4.149941 .924109 3.893243 C .924109 3.970253 .924109 4.034429 .924109 4.111438 C .924109 4.637671 2.91351 7.538361 3.734945 7.71805 C 4.55638 7.897738 5.711543 5.189573 4.684749 3.687887 C 4.158516 2.917792 2.579802 .171115 2.579802 .171115 L .821423 1.236412 C .821423 1.236412 .808582 1.980841 .333689 2.571248 C .089826 2.879286 .089844 4.291126 0 4.920037 C 0 4.907202 .359378 5.18957 .641746 4.599164 Z " fill="#ffb27d"/>
<path transform="matrix(1,0,0,-1,299.22267,103.96387)" d="M .000214 1.66847 C -.025455 1.655635 2.259168 -.000072 4.210077 .230957 C 6.032637 .449151 7.52147 2.55408 7.4958 2.566915 C 6.777044 2.823613 6.712882 3.87608 7.380298 8.265625 L 7.033761 8.252786 L 1.206685 7.970416 C 1.206685 7.970416 1.065501 6.173529 .821637 4.492154 C .629113 3.093147 .346757 1.771149 .000214 1.66847 Z " fill="#ffb27d"/>
<path transform="matrix(1,0,0,-1,300.05665,99.843997)" d="M .385048 3.863382 C .385048 3.863382 .243864 2.066487 0 .385112 C 3.183062 .000063 5.275161 2.644065 6.199276 4.145752 L .385048 3.863382 Z " fill="#ed975d"/>
<path transform="matrix(1,0,0,-1,298.01954,95.25903)" d="M 8.916699 .087094 C 8.916699 .087094 10.970313 2.461555 11.701903 4.643493 C 12.228135 6.196519 12.292304 12.254605 6.208549 12.280275 C 6.208549 12.280275 4.450151 12.370119 2.666097 11.51018 C 1.24142 10.829928 -.901994 9.225565 .407169 3.732217 L .689531 1.909656 L 8.916699 .087094 Z " fill="#163560"/>
<path transform="matrix(1,0,0,-1,291.91993,140.58179)" d="M 0 3.606537 C 0 3.606537 5.711555 -.00008 15.222235 2.323044 C 15.337749 2.348713 20.625752 3.195808 20.625752 3.195808 C 20.497403 3.555187 14.927025 12.757835 14.798676 13.091543 C 13.117301 17.442584 17.019112 38.235166 14.439292 39.403146 C 13.784711 38.684389 11.898002 38.196664 10.293635 38.33785 C 8.445406 38.5047 7.816483 39.30046 7.970501 40.1604 C 5.916914 39.184946 4.338211 38.286504 4.338211 38.286504 C 2.477147 35.475656 0 3.606537 0 3.606537 Z " fill="#ffb27d"/>
<path transform="matrix(1,0,0,-1,297.68653,99.325199)" d="M 1.458793 1.92012 C 1.458793 1.92012 8.928733 .687969 9.621819 5.347047 C 10.314905 10.006124 11.752412 12.996661 7.016324 13.984951 C 2.280235 14.97324 1.086587 13.330371 .47051 11.828685 C -.132731 10.314163 -.466446 2.356507 1.458793 1.92012 Z " fill="#ffb27d"/>
<path transform="matrix(1,0,0,-1,301.31446,94.74707)" d="M 0 10.009967 C 0 10.009967 1.232147 4.23425 4.261189 2.950757 C 7.290233 1.667264 8.779078 2.309011 8.779078 2.309011 C 8.779078 2.309011 6.648468 4.580795 6.648468 8.007721 C 6.648468 8.020556 1.938074 12.384428 0 10.009967 Z " fill="#163560"/>
<path transform="matrix(1,0,0,-1,297.48146,92.09326)" d="M 4.282247 6.842952 C 4.282247 6.842952 2.575189 5.854666 2.023287 4.712357 C 1.471385 3.582883 .945166 1.15708 .239245 1.349604 C .239245 1.349604 -.749051 5.302764 1.291702 7.150993 C 3.460805 9.101902 4.282247 6.842952 4.282247 6.842952 Z " fill="#163560"/>
<path transform="matrix(1,0,0,-1,277.94337,148.55567)" d="M 56.6264 64.94773 C 56.6264 64.94773 51.813306 50.303087 50.52981 48.044137 C 49.759717 46.683637 41.083318 41.280134 36.03919 37.71202 C 35.98785 37.673517 35.923677 37.5965 35.846666 37.480989 L 35.846666 37.468156 C 34.588846 35.53008 30.687027 23.490918 31.611142 21.334649 C 35.53863 12.260357 38.233957 8.743591 39.20941 6.202278 C 39.69714 4.931618 39.04255 3.506943 37.759057 3.057724 C 36.141859 2.480148 33.7674 1.761391 30.956549 1.273659 C 30.41748 1.183815 29.865592 1.093971 29.300856 1.029793 C 21.561394 .041504 16.324725 1.864067 13.65506 3.211731 C 12.397237 3.840645 11.639995 5.162651 11.717005 6.574493 C 11.871023 9.449516 13.308536 12.286022 13.963117 19.191216 C 14.450844 24.427865 9.932931 32.41119 10.125455 35.19637 C 10.202464 36.300176 11.062405 37.622175 11.537296 38.469278 C 12.371567 39.9838 12.820814 41.344305 12.268912 42.1144 C 8.585288 47.17136 .627608 54.140726 .306735 55.886278 C -.168158 58.440427 .050036 74.25305 .050036 74.25305 C .358074 74.355739 .807316 74.612438 1.384887 74.66377 C 1.911119 74.71511 2.552847 74.54826 2.552847 74.54826 C 2.552847 74.54826 4.657787 61.4438 4.811807 60.750719 C 4.965826 60.05763 13.847609 50.04638 16.24774 50.084886 C 18.404007 50.12339 21.458697 48.45485 21.933588 48.133977 C 21.933588 48.133977 19.995528 44.694215 19.5078 40.04797 C 19.174092 36.800737 21.343182 38.238256 22.703684 40.47153 C 24.551913 43.48774 28.261214 47.774599 28.261214 47.774599 C 28.261214 47.774599 31.290266 48.557527 33.53638 47.748929 C 35.78249 46.92749 47.4366 53.511816 47.80881 54.11506 C 48.181028 54.7183 54.4188 66.34674 54.4188 66.34674 C 54.4188 66.34674 54.932199 66.641948 55.766469 66.21839 C 56.61357 65.782009 56.6264 64.94773 56.6264 64.94773 Z " fill="#f99746"/>
<path transform="matrix(1,0,0,-1,298.72267,95.60425)" d="M 2.59268 .727656 C 2.59268 .727656 2.271801 .085913 1.848248 .073078 C 1.424696 .060243 .320873 .162919 .256699 .278433 C .179689 .393948 0 1.061369 0 1.061369 C 0 1.061369 1.796915 1.125539 2.59268 .727656 Z " fill="#ffffff"/>
<path transform="matrix(1,0,0,-1,302.68263,147.29468)" d="M 13.020205 1.784145 C 11.403004 1.206573 9.028543 .487816 6.217693 .000088 C 3.548029 3.683712 -.969866 8.317114 .185277 16.839507 C 1.391761 25.644265 10.042521 34.923925 11.08215 36.19458 C 9.824327 34.256509 5.922509 22.217345 6.846624 20.061078 C 10.774112 10.986784 13.46944 7.470018 14.444895 4.928703 C 14.958292 3.670879 14.303698 2.246204 13.020205 1.784145 Z " fill="#ed7d2b"/>
<path transform="matrix(1,0,0,-1,278.2627,110.08618)" d="M 11.230561 -.000006 C 12.064832 1.514516 12.514048 2.875021 11.962146 3.645117 C 8.278522 8.702078 .320873 15.671442 0 17.416993 C .782931 15.530258 10.421968 9.870053 13.130137 7.444252 C 15.812636 5.031285 11.346076 .115509 11.230561 -.000006 Z " fill="#ed7d2b"/>
<path transform="matrix(1,0,0,-1,216.0586,86.07202)" d="M .007603 27.851773 C .007603 27.851773 -.377451 32.074464 4.332967 32.074464 C 4.332967 32.074464 2.908287 31.689419 2.163861 30.906489 C 2.163861 30.906489 5.167237 32.66487 8.440144 29.9567 C 11.71305 27.24853 9.6723 20.446022 10.673425 19.162529 C 11.661714 17.866202 15.537855 17.609498 15.062963 13.438147 C 14.588071 9.266796 2.767112 4.042982 3.537208 .590387 C 3.537208 .590387 -1.096207 7.3929 2.215204 10.498953 C 2.215204 10.498953 .598 8.984428 .431146 7.174704 C .431146 7.174704 -.005229 10.704308 2.240884 11.83378 C 4.230297 12.834906 5.860323 16.48003 5.680634 17.134613 C 5.526615 17.789193 .007603 27.851773 .007603 27.851773 Z " fill="#2c3a64"/>
<path transform="matrix(1,0,0,-1,204.05176,97.73877)" d="M 18.67482 21.819336 C 18.67482 21.819336 11.974987 4.902899 10.52464 5.531811 C 9.074294 6.160722 .564724 8.856059 .564724 8.856059 L 0 6.789639 C 0 6.789639 8.098836 .551859 12.270187 .269489 C 16.44154 -.000044 22.088908 12.282987 22.088908 12.282987 L 18.67482 21.819336 Z " fill="#ffb27d"/>
<path transform="matrix(1,0,0,-1,176.84375,127.01074)" d="M 45.94812 38.949304 L 52.55811 15.846434 C 52.660787 15.499891 52.686449 15.16618 52.660779 14.832472 C 52.583768 13.613153 51.749505 12.535019 50.51735 12.17564 L 10.395369 .701221 C 9.150381 .341843 7.866879 .842403 7.160958 1.830692 C 6.968434 2.100227 6.814412 2.408264 6.724567 2.74197 L .11458 25.832007 C -.334643 27.410702 .57664 29.05357 2.155336 29.502793 L 42.277318 40.97722 C 43.843179 41.439279 45.48606 40.527997 45.94812 38.949304 Z " fill="#ed8537"/>
<path transform="matrix(1,0,0,-1,184.00489,126.668949)" d="M 45.499818 14.490745 C 45.42281 13.271426 44.588544 12.193291 43.35639 11.833913 L 3.234411 .359493 C 1.989423 .000114 .705921 .500675 0 1.488964 L 20.433215 20.09961 L 45.499818 14.490745 Z " fill="#dd6d22"/>
<path transform="matrix(1,0,0,-1,176.85645,110.717288)" d="M 45.93527 22.6559 L 27.979203 .348787 L .448286 8.344954 L .114581 9.525763 C -.334641 11.104459 .576626 12.747334 2.155322 13.196556 L 42.277315 24.670977 C 43.830339 25.145869 45.47321 24.234595 45.93527 22.6559 Z " fill="#f99746"/>
<path transform="matrix(1,0,0,-1,202.97852,93.1001)" d="M 4.603258 3.793782 C 4.603258 3.793782 .932456 5.346806 .419059 3.383062 C .149525 2.343433 -.47938 .970096 .650094 1.072776 C 1.779567 1.175455 2.92187 1.932716 3.050219 2.548792 C 3.178568 3.164869 4.603258 3.793782 4.603258 3.793782 Z " fill="#ffb27d"/>
<path transform="matrix(1,0,0,-1,229.31153,149.38672)" d="M 24.476216 45.345838 C 24.450547 45.2945 24.412035 45.230318 24.37353 45.178979 C 23.603436 43.844144 21.832213 40.558404 19.894139 36.964624 C 18.970023 35.257577 18.007412 33.48636 17.096133 31.81782 C 15.517437 28.942797 14.09276 26.375813 13.245654 25.015309 C 12.398549 23.641972 11.769638 22.66652 11.512939 22.281472 C 11.435929 22.165955 11.423082 22.024769 11.435917 21.883584 C 11.525762 20.664265 11.500104 19.457787 11.38459 18.27697 C 10.216612 6.597187 2.335966 .346584 2.335966 .346584 L 0 .000031 C 0 .000031 3.311414 12.270226 4.286869 19.21392 C 4.453723 20.394734 4.517901 21.34452 4.466561 21.960598 C 4.299707 23.77032 4.620584 26.42715 5.223825 29.46903 C 6.301959 34.88537 8.291363 41.53386 10.011244 46.84752 C 10.126758 47.181226 13.412499 59.09204 13.412499 59.09204 C 16.172009 56.679075 26.260258 55.67795 26.260258 55.67795 C 26.260258 55.67795 27.954482 51.545106 24.476216 45.345838 Z " fill="#2b478b"/>
<path transform="matrix(1,0,0,-1,224.39551,152.35132)" d="M 0 -.000117 L 9.767376 -.000117 C 9.767376 -.000117 9.998395 1.488737 9.484998 2.618211 C 8.997271 3.696344 8.304191 3.734849 9.39516 5.441895 C 8.779083 4.800148 6.776832 4.543453 5.36499 4.723142 C 5.198136 4.440773 4.248357 2.554027 3.670786 2.143309 C 3.041874 1.681252 .192524 1.848112 0 -.000117 Z " fill="#233862"/>
<path transform="matrix(1,0,0,-1,246.80567,116.82446)" d="M 6.982203 12.783609 C 6.956534 12.732269 6.918023 12.668089 6.879518 12.616749 C 6.109422 11.281916 1.938074 3.580961 0 .000017 C 2.258947 9.27967 .680242 18.559327 .680242 18.559327 L 6.982203 12.783609 Z " fill="#233862"/>
<path transform="matrix(1,0,0,-1,212.03516,69.753177)" d="M 5.365006 12.1233 C 5.300831 12.379998 10.948194 9.56915 11.230561 9.248277 C 13.874557 6.309079 13.117299 2.484266 11.602777 2.445762 C 10.627323 2.420092 10.81985 .802893 10.81985 .802893 L 0 5.384963 C .012835 5.397798 1.309169 12.996075 5.365006 12.1233 Z " fill="#2c3a64"/>
<path transform="matrix(1,0,0,-1,219.60742,86.174808)" d="M 1.437506 9.89574 C 1.437506 9.89574 0 8.406885 0 3.94033 C 0 3.94033 1.989411 .808611 7.136217 .012845 C 7.123382 .012845 2.695328 9.908574 1.437506 9.89574 Z " fill="#f9ddbf"/>
<path transform="matrix(1,0,0,-1,246.125,151.95362)" d="M .038511 57.53905 L 0 59.361604 C 3.645119 58.899545 12.552566 63.712648 12.552566 63.712648 C 12.552566 63.712648 16.364548 61.18417 16.877945 53.94527 C 17.134644 50.415666 18.738997 35.475809 18.918686 31.022084 C 18.98286 29.404885 19.008524 28.24974 19.008524 27.787682 C 19.008524 27.646496 19.072693 27.518155 19.162537 27.415474 C 19.919798 26.452855 20.574398 25.438889 21.139136 24.386425 C 26.69666 14.05431 23.79596 .000065 23.79596 .000065 L 22.499619 .333767 C 22.499619 .333767 17.80205 14.901421 14.734503 21.190533 C 14.208271 22.255833 13.733373 23.090104 13.348325 23.564995 C 12.193181 24.964 10.973872 27.351296 9.780224 30.213486 C 7.521277 35.629827 .038511 57.53905 .038511 57.53905 Z " fill="#2b478b"/>
<path transform="matrix(1,0,0,-1,262.16896,152.35157)" d="M 0 -.000083 L 9.767377 -.000083 C 9.767377 -.000083 9.998411 1.488771 9.485015 2.618245 C 8.997288 3.696379 8.227185 4.196941 8.419709 5.506104 C 7.803633 4.864357 6.78968 4.145605 5.377838 4.338128 C 5.210984 4.05576 4.261205 2.554061 3.683634 2.143343 C 3.041887 1.681286 .192524 1.848146 0 -.000083 Z " fill="#233862"/>
<path transform="matrix(1,0,0,-1,221.03223,96.58057)" d="M 6.36612 8.313906 C 7.675282 8.095711 6.14793 7.043253 7.957654 6.850729 C 10.524639 6.568359 13.181469 6.375835 14.567641 5.823935 C 15.068203 5.618576 15.414749 5.374712 15.517428 5.053839 C 16.12067 3.244114 19.932646 .125223 19.932646 .125223 C 36.95176 .895319 37.657678 8.339577 37.657678 8.339577 C 26.61964 19.069577 16.454382 25.384366 8.702086 26.23147 C 7.380089 26.372654 5.698704 25.538378 4.505056 24.999312 C 1.784051 23.792828 0 20.301732 0 20.301732 C 0 20.301732 1.373334 9.173845 6.36612 8.313906 Z " fill="#f9ddbf"/>
<path transform="matrix(1,0,0,-1,228.99121,90.756839)" d="M 0 1.026851 C 2.566985 .744482 5.223815 .551958 6.609987 .000056 C 7.174724 8.483943 3.170236 14.875732 3.170236 14.875732 C 3.170236 14.875732 .564737 4.248417 0 1.026851 Z " fill="#f2ccaa"/>
<path transform="matrix(1,0,0,-1,221.59668,112.15747)" d="M 5.172482 37.713827 C 5.172482 37.713827 11.62844 38.0732 12.783583 34.004529 C 13.925892 29.948689 10.627325 13.751013 9.921404 12.082472 C 8.625076 9.040594 2.323118 .351353 2.323118 .351353 L 0 1.057274 C 0 1.057274 4.209853 14.328587 5.146802 15.637749 C 6.609983 17.704173 3.234408 35.942605 5.172482 37.713827 Z " fill="#ffb27d"/>
<path transform="matrix(1,0,0,-1,219.32617,119.468509)" d="M 2.271776 8.381104 C 2.271776 8.381104 2.156255 7.354309 1.719868 6.815241 C 1.28348 6.289009 .02567 5.005517 0 4.248256 C 0 4.248256 .064172 3.914551 .333705 3.978725 C .603238 4.0429 1.553017 4.967016 2.027909 4.902842 C 2.027909 4.902842 1.771211 3.40115 1.514512 2.964763 C 1.257813 2.54121 1.463179 .744318 1.617198 .372106 C 1.771217 -.000108 3.657954 2.335853 4.42805 3.375482 C 5.198145 4.415112 4.440882 8.650635 4.440882 8.650635 L 2.271776 8.381104 Z " fill="#ffb27d"/>
<path transform="matrix(1,0,0,-1,224.63672,85.15625)" d="M 11.015537 1.587142 C 11.002703 1.497297 4.90611 .470501 1.081302 2.395741 C 1.081302 2.395741 -2.10175 12.381314 2.454648 11.893586 C 7.011047 11.418694 9.706368 9.981179 9.821883 7.799242 C 9.937398 5.630139 11.015537 1.587142 11.015537 1.587142 Z " fill="#f9ddbf"/>
<path transform="matrix(1,0,0,-1,218.53028,78.281009)" d="M 7.007867 6.699711 C 7.007867 6.699711 5.21098 -.000118 2.502811 2.002131 C 2.57982 2.323004 2.104925 3.272787 1.553023 4.222571 C .847102 5.441889 0 6.686879 0 6.686879 L 3.657954 9.895611 L 3.876158 10.088135 C 4.992796 8.137226 6.096587 7.367127 7.007867 6.699711 Z " fill="#ffb27d"/>
<path transform="matrix(1,0,0,-1,218.53028,74.0459)" d="M 0 2.464364 C 0 2.464364 .847102 1.219374 1.553023 .000056 C 3.824805 1.399063 3.824808 4.209914 3.657954 5.673096 L 0 2.464364 Z " fill="#ed985f"/>
<path transform="matrix(1,0,0,-1,212.46778,75.13208)" d="M 5.959536 1.93344 C 5.959536 1.93344 11.478547 5.000987 9.514804 8.415077 C 7.55106 11.829168 6.93499 14.511666 3.328375 12.701942 C -.278239 10.879383 -.201242 9.198008 .170971 7.90168 C .556018 6.592518 4.483519 1.227519 5.959536 1.93344 Z " fill="#ffb27d"/>
<path transform="matrix(1,0,0,-1,211.67676,70.67163)" d="M .03749 5.417879 C .294189 6.932401 1.064281 7.073586 1.590513 6.970906 C 3.631266 10.346492 6.955518 9.024494 6.955518 9.024494 C 8.739573 6.791217 11.306561 6.406166 11.306561 6.406166 C 11.306561 6.406166 10.664803 5.212518 8.020808 4.480927 C 7.212207 4.249898 6.300937 4.391087 5.415327 4.686291 C 7.250722 3.659496 9.163119 3.274448 9.163119 3.274448 C 5.684854 2.953575 2.373443 6.136633 2.039735 6.470341 C 1.872881 5.982614 1.603351 4.942986 1.770205 4.185725 C 2.001234 3.158931 2.912513 1.310703 2.347777 1.066839 C 2.360611 1.092509 -.347558 3.158932 .03749 5.417879 Z " fill="#2c3a64"/>
<path transform="matrix(1,0,0,-1,133.21582,125.3728)" d="M 10.961031 10.42207 C 11.307574 10.024187 11.346073 9.587798 11.179218 9.112906 C 10.858345 8.24013 9.831548 7.277508 8.625065 6.302053 C 8.471045 6.173704 8.329868 6.058188 8.214354 5.955509 C 8.188684 5.929839 8.150169 5.904172 8.124499 5.878503 C 8.09883 5.852833 8.073163 5.839997 8.047493 5.814328 C 6.91802 4.774698 7.341578 4.543671 5.326495 2.438744 C 3.016208 .038612 1.437506 .000109 .988283 .218302 C .603235 .410826 1.386172 1.681484 2.246112 3.106161 C 2.284617 3.170336 2.323122 3.247343 2.374462 3.311518 C 2.489976 3.504042 2.605484 3.696566 2.720998 3.88909 C 3.722123 5.608969 3.465424 6.417566 3.234396 8.971717 C 3.041872 11.050975 0 20.600167 0 20.600167 L 4.415218 21.357422 C 4.415218 21.357422 5.750041 13.759146 7.213223 12.591168 C 7.996153 11.962256 8.868935 11.962256 9.626196 11.500199 C 9.677535 11.461695 9.728868 11.436027 9.780209 11.397521 C 10.178091 11.115153 10.614488 10.819953 10.961031 10.42207 Z " fill="#ffb27d"/>
<path transform="matrix(1,0,0,-1,134.08985,125.35986)" d="M 10.08634 10.409031 C 10.432883 10.011148 10.471382 9.574759 10.304528 9.099867 C 9.91948 8.227093 8.90552 7.264474 7.737542 6.301855 C 7.583523 6.173506 7.45518 6.05799 7.326831 5.95531 C 7.301161 5.929641 7.262647 5.903966 7.236977 5.878296 C 7.211307 5.852626 7.18564 5.839791 7.159971 5.814122 C 6.030497 4.774492 6.454056 4.543466 4.438972 2.438538 C 2.128685 .038406 .549983 -.000096 .10076 .218097 C -.284288 .410621 .498649 1.681278 1.358589 3.105955 C 1.807812 3.272809 3.88707 4.119911 5.465766 6.134995 C 6.851939 7.906215 7.776041 10.178002 8.725825 11.5 C 8.777165 11.461495 8.828514 11.435819 8.879854 11.397314 C 9.303407 11.102111 9.739798 10.806914 10.08634 10.409031 Z " fill="#233862"/>
<path transform="matrix(1,0,0,-1,95.29785,113.55176)" d="M 13.262253 1.360523 C 12.99272 .000021 11.041809 .231049 8.872706 .75728 C 6.703604 1.283512 7.217002 .654596 4.123785 1.001139 C 1.030567 1.347682 .093621 2.489992 .003776 2.95205 C -.086068 3.362767 1.441288 3.50395 3.084159 3.696474 C 3.289517 3.722144 3.494875 3.747818 3.700233 3.773488 C 5.548463 4.004517 6.908965 5.198167 8.577505 6.173621 C 10.169036 7.097736 12.5435 10.884033 12.5435 10.884033 L 16.779026 10.550328 C 16.779026 10.550328 14.558583 7.174744 13.698644 5.698727 C 13.198081 4.838787 13.223749 3.696478 13.287924 2.810868 C 13.326429 2.335977 13.364932 1.835416 13.262253 1.360523 Z " fill="#ffb27d"/>
<path transform="matrix(1,0,0,-1,95.29785,113.55176)" d="M 8.872707 .757339 C 6.703605 1.283571 7.217002 .654655 4.123785 1.001199 C 1.030567 1.347742 .093621 2.490052 .003776 2.952109 C -.086068 3.362827 1.441288 3.504009 3.084159 3.696533 L 3.096991 3.67087 C 3.096991 3.67087 4.94522 2.361705 7.525041 2.297531 C 9.617134 2.246191 11.837579 2.84943 13.287926 2.82376 C 13.32643 2.348867 13.352102 1.848307 13.249423 1.373415 C 12.992724 .000077 11.054646 .231107 8.872707 .757339 Z " fill="#233862"/>
<path transform="matrix(1,0,0,-1,124.7959,113.384769)" d="M 0 28.288002 L 3.965995 17.635014 L 9.138469 3.721951 C 9.138469 3.721951 10.537478 3.580767 11.885146 3.978649 C 13.117299 4.338028 14.541969 5.274982 14.541969 5.274982 C 14.541969 5.274982 13.104461 20.214835 10.421962 28.8014 C 9.741711 31.009007 8.971615 32.780225 8.111674 33.78135 C 3.965994 38.671457 0 28.288002 0 28.288002 Z " fill="#233862"/>
<path transform="matrix(1,0,0,-1,105.38965,106.33862)" d="M 23.436585 38.17116 C 26.029242 39.005434 33.434995 37.9273 40.866418 36.47695 L 42.41944 39.043939 L 58.475934 40.301759 C 58.475934 40.301759 63.776769 28.54496 60.876077 21.062197 C 60.452524 19.958394 59.605409 19.252472 58.15506 19.226803 L 57.92404 19.226803 C 57.92404 19.226803 48.36201 19.226803 45.255956 19.226803 C 37.27263 19.226803 28.352362 24.720158 27.197218 24.951188 C 25.310484 25.323399 24.553225 21.549927 22.666489 17.583933 C 20.779755 13.617941 4.915784 .025753 4.915784 .025753 C 4.915784 .025753 2.477141 .00008 1.476017 .385128 C .397883 .795845 0 1.322079 0 1.322079 C 0 1.322079 17.583857 36.284429 23.436585 38.17116 Z " fill="#2b478b"/>
<path transform="matrix(1,0,0,-1,140.125,58.820558)" d="M 3.217598 13.858675 C 8.287394 9.738665 20.48057 2.602448 20.557579 2.628117 C 20.557579 2.628117 24.472226 .29216 27.129055 1.434467 C 31.569939 3.34687 34.984037 10.059536 28.836108 17.478123 C 25.768559 21.174582 23.227248 22.393902 23.817654 27.309678 C 24.4594 32.636175 22.059269 39.336004 15.924174 39.61837 C 15.410777 39.64404 12.304725 40.054758 10.084283 39.36167 C 4.44975 37.59045 -4.996755 16.57968 3.217598 13.858675 Z " fill="#a9453d"/>
<path transform="matrix(1,0,0,-1,151.9043,42.856935)" d="M 8.047493 4.119967 C 8.073163 4.119967 6.815353 1.373292 4.979958 .705875 C 3.029049 -.000046 .256692 1.155099 .282362 1.167933 C .61607 1.360457 .847102 2.605444 .718753 4.107131 C .705918 4.18414 .705924 4.248312 .693089 4.325322 C .526235 6.006698 .038505 7.85493 0 7.970444 L 5.942578 9.664652 L 6.289114 9.767334 C 6.686997 5.069751 7.238893 4.209811 8.047493 4.119967 Z " fill="#ffb27d"/>
<path transform="matrix(1,0,0,-1,151.92871,38.54419)" d="M 5.942578 5.352051 C 5.365006 3.619336 3.901821 .500451 .693089 -.000112 C .526235 1.681264 .038505 3.529493 0 3.645007 L 5.942578 5.352051 Z " fill="#ed975d"/>
<path transform="matrix(1,0,0,-1,147.47364,36.808107)" d="M 3.454144 .124747 C 3.454144 .124747 11.463132 .663813 11.052415 5.643765 C 10.641697 10.623717 11.398967 14.050644 6.264996 13.922295 C 1.131025 13.793945 .296742 11.804531 .027209 10.110321 C -.22949 8.41611 1.362051 .124747 3.454144 .124747 Z " fill="#ffb27d"/>
<path transform="matrix(1,0,0,-1,149.49024,30.868897)" d="M 0 8.072771 C 0 8.072771 1.98942 2.232881 6.712673 1.55263 C 10.165269 1.052068 11.525771 1.989017 11.525771 1.989017 C 11.525771 1.989017 9.600535 3.811576 8.560906 6.63526 C 8.252868 7.46953 7.521274 8.072771 6.648499 8.20112 C 4.209862 8.586168 1.039629 10.203369 0 8.072771 Z " fill="#a9453d"/>
<path transform="matrix(1,0,0,-1,146.92676,33.017824)" d="M 4.270562 9.195285 C 4.270562 9.195285 2.845882 8.617714 1.844758 6.487116 C 1.305691 5.319138 .907814 2.546795 1.241522 1.391651 C 1.241522 1.391651 -1.05593 6.718145 .599776 9.118277 C 2.370996 11.659592 4.270562 9.195285 4.270562 9.195285 Z " fill="#a9453d"/>
<path transform="matrix(1,0,0,-1,146.01172,70.46118)" d="M 20.614352 13.331747 C 20.473168 12.728506 20.344828 12.163769 20.254982 11.650372 C 20.088129 10.816101 19.985444 10.110182 19.8956 9.48127 C 19.651736 7.517527 19.728749 6.34955 19.561894 5.078892 C 19.47205 4.372971 19.3052 3.615713 18.958659 2.678762 C 18.62495 1.767483 9.948529 .946045 5.007082 1.279753 C 3.441221 1.382433 2.247582 1.60063 1.824029 1.972843 C .065644 3.500198 .232489 .137447 .00146 16.245278 C -.114054 24.100255 6.66279 31.095286 6.66279 31.095286 C 6.66279 31.095286 7.201854 27.745369 13.927357 31.737032 C 14.17122 31.878216 16.81522 27.950732 19.36937 23.1248 C 22.18022 17.785471 21.410117 16.655995 20.614352 13.331747 Z " fill="#aec3ff"/>
<path transform="matrix(1,0,0,-1,128.7627,109.803958)" d="M 0 14.054317 L 5.172474 .141253 C 5.172474 .141253 6.571485 .000067 7.919152 .397951 C 9.151305 .757328 10.575975 1.694283 10.575975 1.694283 C 10.575975 1.694283 9.138467 16.634137 6.455967 25.220704 L 0 14.054317 Z " fill="#2b478b"/>
<path transform="matrix(1,0,0,-1,138.5039,64.66333)" d="M 14.169763 25.297608 C 14.169763 25.297608 7.251731 24.12963 6.430295 21.139092 C 5.60886 18.148554 0 1.488817 0 1.488817 C 0 1.488817 4.351038 -.000034 5.981073 1.630001 C 7.611109 3.260038 11.641289 16.71104 11.641289 16.71104 L 14.169763 25.297608 Z " fill="#aec3ff"/>
<path transform="matrix(1,0,0,-1,149.46485,34.71924)" d="M 2.810852 1.244528 C 2.810852 1.244528 2.618322 .384584 1.745547 .230565 C .872772 .089381 .616083 .179228 .423559 .333247 C .231035 .487266 0 .820973 0 .820973 C 0 .820973 1.386175 1.347207 2.810852 1.244528 Z " fill="#ffffff"/>
<path transform="matrix(1,0,0,-1,150.88965,65.407718)" d="M 15.016865 4.427975 C 14.773002 2.464231 14.850014 1.296254 14.68316 .025596 C 8.394046 -.000073 0 4.877197 0 4.877197 L 15.016865 4.427975 Z " fill="#94b0ed"/>
<path transform="matrix(1,0,0,-1,150.88965,62.501466)" d="M 0 6.090796 C 0 6.090796 9.793045 6.385999 11.435916 11.943523 C 13.245641 18.052948 15.273561 9.427876 15.273561 9.427876 L 14.195425 3.921693 L 3.452598 3.921693 L 0 6.090796 Z " fill="#94b0ed"/>
<path transform="matrix(1,0,0,-1,130.2002,65.78003)" d="M 22.666476 .141144 L 7.482752 -.000042 L 0 17.570973 L 15.196555 17.712159 L 22.666476 .141144 Z " fill="#f9ddbf"/>
<path transform="matrix(1,0,0,-1,143.09668,60.34204)" d="M 7.793303 2.647882 L 6.676671 4.02122 C 6.676671 4.02122 5.919413 4.688633 5.380346 4.804147 C 4.828444 4.919662 3.673288 5.587079 3.570608 5.394555 C 3.455094 5.202031 4.456222 3.867199 4.456222 3.867199 L 4.507565 3.854364 C 3.365256 2.994424 .464556 3.751684 .105178 3.405141 C -.331209 2.981589 .695585 2.057474 1.260321 1.544077 C 1.812223 1.03068 3.390929 .157907 4.623082 .542954 C 5.521527 .825323 6.946201 1.10769 6.946201 1.10769 L 7.793303 2.647882 Z " fill="#ffb27d"/>
<path transform="matrix(1,0,0,-1,149.43848,65.34375)" d="M 10.498961 26.619629 C 10.498961 26.619629 16.852253 26.208914 18.443785 23.718939 C 20.035315 21.241799 21.999066 8.650732 21.17763 4.325363 C 20.356196 -.000008 0 5.146797 0 5.146797 L .654578 8.894598 C .654578 8.894598 12.398531 8.830421 13.065947 10.357779 C 13.951557 12.411366 10.498961 26.619629 10.498961 26.619629 Z " fill="#aec3ff"/>
<path transform="matrix(1,0,0,-1,131.24512,54.200685)" d="M .096828 2.898504 C .096828 2.898504 1.046614 3.989476 1.662691 3.463244 C 2.265932 2.937012 1.508678 .382861 .931106 .63956 C .353535 .909093 -.23688 2.577631 .096828 2.898504 Z " fill="#ffb27d"/>
<path transform="matrix(1,0,0,-1,54.168947,123.346927)" d="M 5.824142 10.05176 C 5.490434 11.065718 17.170216 12.68292 15.861053 3.364761 C 15.861053 3.364761 36.820497 .553913 28.70882 13.773888 C 25.89797 18.355957 26.783583 21.628865 27.386824 24.709248 C 27.990067 27.78963 27.16863 37.159124 19.30082 37.492834 C 19.30082 37.492834 17.414086 38.635145 14.680246 37.7367 C 8.442472 35.65744 -9.013034 8.896616 5.824142 10.05176 Z " fill="#163560"/>
<path transform="matrix(1,0,0,-1,76.99902,131.1101)" d="M 0 5.236643 C 0 5.236643 .744421 3.760628 2.104923 2.053581 C 3.734959 -.000006 12.321527 4.864429 11.589936 5.236643 C 10.84551 5.608854 6.532973 18.033066 5.506178 19.598927 C 4.479384 21.16479 .975451 21.973389 .975451 21.973389 L 0 5.236643 Z " fill="#f9ddbf"/>
<path transform="matrix(1,0,0,-1,46.058595,220.72339)" d="M 1.972047 11.038055 C 1.972047 11.038055 -.402418 8.881782 .059639 7.34159 C .521697 5.801399 2.66513 4.787443 2.947498 2.900709 C 3.242701 1.02681 4.397848 .000019 5.437477 .000019 C 6.477106 .000019 10.391756 .000019 10.391756 .000019 C 10.391756 .000019 11.161853 1.322004 9.313623 1.719887 C 7.465394 2.117769 6.772308 4.325386 6.887822 6.366139 C 7.003336 8.419727 6.708134 11.140725 6.708134 11.140725 L 2.780646 12.052002 L 1.972047 11.038055 Z " fill="#233862"/>
<path transform="matrix(1,0,0,-1,67.75391,220.26148)" d="M .325331 9.664795 C .325331 9.664795 -.521774 .500667 .517855 .000104 L 13.827667 .025767 C 13.827667 .025767 13.827674 1.565956 11.684241 1.899664 C 9.540809 2.246207 5.793007 3.491207 5.15126 6.276386 C 4.522349 9.061566 .325331 9.664795 .325331 9.664795 Z " fill="#233862"/>
<path transform="matrix(1,0,0,-1,58.53418,156.45899)" d="M .060295 11.564327 C 2.794135 17.712258 4.47551 19.470646 4.154636 21.370213 C 3.910773 22.794892 4.873393 47.822999 4.873393 47.822999 C 5.194266 47.925676 5.848847 48.015527 6.208225 48.092538 C 7.337698 48.3364 8.261817 49.132165 8.646865 50.210298 C 9.108922 51.519464 9.481134 53.4447 9.481134 55.857667 L 9.827672 55.79349 L 15.731738 54.625509 C 15.731738 54.625509 15.603392 52.764448 15.590557 51.018899 C 15.590557 51.00606 15.590557 50.99323 15.590557 50.980394 C 15.577723 49.465875 16.578845 48.1182 18.042025 47.69465 C 18.786452 47.476457 19.441037 47.29677 19.441037 47.29677 C 19.441037 47.29677 21.610135 41.110334 22.020853 34.757043 C 22.43157 28.403754 18.080536 25.644249 22.059365 12.950504 C 26.102366 .000065 -1.454226 8.175907 .060295 11.564327 Z " fill="#ffb27d"/>
<path transform="matrix(1,0,0,-1,68.36133,105.42749)" d="M 5.904067 3.606683 C 5.904067 3.606683 5.775721 1.745614 5.762886 .000063 C 2.464309 .089908 .718756 3.106118 0 4.774658 L 5.904067 3.606683 Z " fill="#e8945b"/>
<path transform="matrix(1,0,0,-1,67.60156,104.903568)" d="M 7.023253 .618571 C 7.023253 .618571 -.716214 1.722375 .053881 6.522638 C .811142 11.322901 .323418 14.711325 5.30337 14.210763 C 10.270487 13.7102 10.937902 11.72078 11.079087 10.065075 C 11.207436 8.383699 9.051171 .451716 7.023253 .618571 Z " fill="#ffb27d"/>
<path transform="matrix(1,0,0,-1,65.396488,98.69092)" d="M 11.025205 7.548874 C 11.025205 7.548874 8.021831 2.248043 4.646245 1.92717 C 1.270659 1.606297 0 2.697265 0 2.697265 C 0 2.697265 2.798011 4.275961 3.86331 7.638712 C 3.876144 7.651547 9.870061 10.488072 11.025205 7.548874 Z " fill="#163560"/>
<path transform="matrix(1,0,0,-1,75.831058,99.43408)" d="M 0 7.91986 C 0 7.91986 1.476021 7.085588 1.938079 5.8406 C 2.387301 4.621283 2.695336 3.05542 2.271784 1.25853 C 2.271784 1.25853 4.479394 4.839475 3.029047 7.290946 C 1.501691 9.896436 0 7.91986 0 7.91986 Z " fill="#163560"/>
<path transform="matrix(1,0,0,-1,57.76367,136.2439)" d="M .085566 16.544173 C .085566 16.544173 -.106958 13.746155 .085566 10.396238 C .213915 8.175797 2.472862 5.198088 2.780901 4.453661 C 3.576666 2.605433 4.487945 2.310234 4.487945 2.310234 L 11.470148 .603184 L 13.921616 -.000051 L 21.673916 2.310234 C 21.673916 2.310234 25.203522 12.154624 23.79168 17.712147 C 22.379837 23.256836 20.210732 27.107316 20.210732 27.107316 C 20.210732 27.107316 13.883112 20.920878 5.655924 27.633545 L .085566 16.544173 Z " fill="#f9ddbf"/>
<path transform="matrix(1,0,0,-1,57.182619,135.64087)" d="M 0 9.71612 C .128349 7.495677 3.041879 4.594974 3.362752 3.850548 C 4.158518 2.002318 5.069797 1.707122 5.069797 1.707122 L 12.052 .00007 L 13.913064 2.63123 C 13.913064 2.63123 2.605489 5.775797 4.736087 15.748535 L 0 9.71612 Z " fill="#f2ccaa"/>
<path transform="matrix(1,0,0,-1,66.08984,214.56275)" d="M 12.860311 79.127307 C 12.860311 79.127307 16.69796 67.17798 16.941824 63.12214 C 17.185688 59.053468 9.61308 5.352142 9.305042 3.478241 C 9.022674 1.707016 6.827896 .590378 6.827896 .590378 C 6.827896 .590378 5.81394 -.000023 4.376428 .397858 C 2.37418 .962593 1.745268 1.642838 1.745268 1.642838 C 1.745268 1.642838 -1.245273 39.94226 .602956 53.624296 C 2.451186 67.30633 2.47686 79.14014 2.47686 79.14014 L 12.860311 79.14014 L 12.860311 79.127307 Z " fill="#ed7d2b"/>
<path transform="matrix(1,0,0,-1,48.838869,210.76343)" d="M 13.848886 75.6875 C 13.848886 75.6875 7.99616 67.83253 7.444258 62.518869 C 6.892356 57.205209 6.584316 38.556058 5.429173 33.383584 C 4.261194 28.211106 0 18.25121 0 2.104874 C 0 2.104874 .449223 1.180756 1.809726 .693031 C 2.246113 .539009 2.836519 .384987 3.401256 .256638 C 4.530729 -.000061 5.685872 .551842 6.212104 1.591476 C 9.099963 7.405693 18.302609 26.157517 18.764666 30.046502 C 19.098374 32.80601 21.999064 51.03161 28.339518 61.73594 C 29.866875 64.302928 27.40257 74.51952 27.40257 74.51952 L 13.848886 75.6875 Z " fill="#f99746"/>
<path transform="matrix(1,0,0,-1,73.572269,102.29736)" d="M 0 1.105474 C 0 1.105474 .0385 .51507 1.463177 .386721 C 1.463177 .386721 2.656831 .271207 2.721006 .900118 C 2.721006 .887283 1.642871 1.516191 0 1.105474 Z " fill="#ffffff"/>
<path transform="matrix(1,0,0,-1,61.878908,139.04175)" d="M 17.686837 5.441895 C 17.686837 5.441895 16.146639 4.222576 13.091926 4.158401 C 9.433971 4.081392 .385352 5.095358 .385352 5.095358 C .385352 5.095358 -.012531 3.965884 .000304 2.785071 C .000304 2.785071 11.064012 -.000118 17.468642 2.374344 C 17.455805 2.374344 18.277243 3.940208 17.686837 5.441895 Z " fill="#233862"/>
<path transform="matrix(1,0,0,-1,74.174808,138.02783)" d="M 0 1.886709 C 0 2.926339 .744426 3.773438 1.668541 3.773438 C 2.592655 3.773438 3.337081 2.926339 3.337081 1.886709 C 3.337081 .84708 2.592655 -.000034 1.668541 -.000034 C .744426 -.000034 0 .84708 0 1.886709 Z M .5519 1.886709 C .5519 1.155119 1.052464 .551874 1.668541 .551874 C 2.284617 .551874 2.785173 1.155119 2.785173 1.886709 C 2.785173 2.6183 2.284617 3.221529 1.668541 3.221529 C 1.052464 3.221529 .5519 2.631135 .5519 1.886709 Z " fill="#ffffff"/>
<path transform="matrix(1,0,0,-1,67.84766,141.60913)" d="M 0 .154142 L 16.62123 .000113 L 24.809918 19.22684 L 8.175849 19.38086 L 0 .154142 Z " fill="#c5d9ea"/>
<path transform="matrix(1,0,0,-1,70.0166,135.656)" d="M 0 2.890297 L 1.219318 4.391985 C 1.219318 4.391985 2.04075 5.123578 2.643992 5.251927 C 3.247233 5.380276 4.505056 6.111864 4.633406 5.906505 C 4.761755 5.701147 3.657954 4.237965 3.657954 4.237965 L 3.606611 4.225133 C 4.864434 3.275348 8.034661 4.109615 8.419709 3.724568 C 8.894602 3.26251 7.76513 2.248548 7.161888 1.683811 C 6.558646 1.119074 4.82593 .16929 3.478262 .592842 C 2.489973 .90088 .936948 1.208925 .936948 1.208925 L 0 2.890297 Z " fill="#ffb27d"/>
<path transform="matrix(1,0,0,-1,89.44824,128.94995)" d="M 1.950944 3.179231 C 1.950944 3.179231 .911317 4.372886 .243901 3.795314 C -.423516 3.230577 .423588 .419724 1.052499 .702092 C 1.681411 .997295 2.323157 2.832688 1.950944 3.179231 Z " fill="#ffb27d"/>
<path transform="matrix(1,0,0,-1,49.67285,138.64429)" d="M 13.746208 30.020997 C 13.746208 30.020997 8.201517 29.63595 6.070919 24.463475 C 3.940321 19.290999 0 8.278627 0 6.828281 C 0 5.365099 4.351039 .000095 21.370154 4.145777 C 21.370154 4.145777 21.947728 5.775824 20.818255 6.610094 C 20.818255 6.610094 8.945944 10.422064 8.971614 11.179325 C 9.010118 12.616837 10.57598 13.848989 17.198803 20.484646 C 19.008528 22.281537 13.746208 30.020997 13.746208 30.020997 Z " fill="#f9ddbf"/>
<g opacity=".7">
<clipPath id="cp0">
<path transform="matrix(1,0,0,-1,0,221.24951)" d="M 0 0 L 352 0 L 352 221.24951 L 0 221.24951 Z "/>
</clipPath>
<g clip-path="url(#cp0)">
<path transform="matrix(1,0,0,-1,254.05664,66.72974)" d="M 0 5.429233 L 16.608399 .000056 L 6.648483 9.69043 L 5.647368 7.315969 L 1.373331 7.303133 L 0 5.429233 Z " fill="#9ec3f6"/>
<path transform="matrix(1,0,0,-1,243.99414,66.72949)" d="M 26.670987 -.000006 L 13.771883 9.805882 L 0 12.950439 L 26.670987 -.000006 Z " fill="#ffffff"/>
<path transform="matrix(1,0,0,-1,260.70509,66.72974)" d="M 0 9.690365 L 9.959915 -.00001 L 3.324265 13.579346 L 0 9.690365 Z " fill="#ffffff"/>
</g>
</g>
<g opacity=".7">
<clipPath id="cp1">
<path transform="matrix(1,0,0,-1,0,221.24951)" d="M 0 0 L 352 0 L 352 221.24951 L 0 221.24951 Z "/>
</clipPath>
<g clip-path="url(#cp1)">
<path transform="matrix(1,0,0,-1,183.5293,35.83618)" d="M 17.519677 2.502709 L 0 -.000102 L 11.628441 7.931885 L 12.218844 5.390569 L 16.48005 4.620473 L 17.519677 2.502709 Z " fill="#9ec3f6"/>
<path transform="matrix(1,0,0,-1,183.5293,35.836427)" d="M 0 -.000034 L 14.580473 7.521234 L 28.878584 8.23999 L 0 -.000034 Z " fill="#ffffff"/>
<path transform="matrix(1,0,0,-1,183.5293,35.836427)" d="M 11.62844 7.932023 L 0 .000036 L 9.010112 12.385742 L 11.62844 7.932023 Z " fill="#ffffff"/>
</g>
</g>
<path transform="matrix(1,0,0,-1,85.91699,225.07886)" d="M 25.080382 4.72768 L 24.053587 4.72768 C 18.714259 5.767309 -.153082 9.848819 .000938 15.624537 C .180626 21.86231 21.961495 6.896783 25.080382 4.72768 Z " fill="#cde0fb"/>
<path transform="matrix(1,0,0,-1,91.950199,227.66577)" d="M 27.274275 7.314524 L 23.398127 7.314524 C 13.592241 13.719151 -1.090915 24.705857 .064229 32.49666 C 1.771274 44.09943 11.641332 29.121075 14.862898 23.24268 C 16.852313 19.57189 22.948906 12.281639 27.274275 7.314524 Z " fill="#cde0fb"/>
<path transform="matrix(1,0,0,-1,15.643555,130.05054)" d="M 21.349707 8.45149 L 15.586823 .71203 C 15.496978 .596516 15.394298 .50667 15.291618 .429659 C 14.880901 .160126 14.329 .160133 13.918282 .46817 L .480112 10.479415 C .069395 10.787454 -.097459 11.313679 .05656 11.788571 C .095065 11.916921 .159239 12.032441 .236249 12.147956 L 5.999132 19.887415 C 6.397015 20.413647 7.14144 20.529158 7.667673 20.131274 L 21.105839 10.12003 C 21.63207 9.722148 21.74759 8.977722 21.349707 8.45149 Z " fill="#cde0fb"/>
<path transform="matrix(1,0,0,-1,15.643555,129.89038)" d="M 15.291616 .269507 C 14.880899 -.000027 14.328998 -.00002 13.918281 .308019 L .480112 10.319262 C .069395 10.6273 -.097459 11.153525 .05656 11.628418 L 10.979081 9.639004 L 15.291616 .269507 Z " fill="#bed7fb"/>
<path transform="matrix(1,0,0,-1,21.33496,121.75928)" d="M 15.658613 .160231 L 4.158518 .455441 L 0 11.198268 L .295204 11.596155 C .693086 12.122388 1.437512 12.237897 1.963744 11.840014 L 15.401915 1.828771 C 15.940982 1.430888 16.056496 .686462 15.658613 .160231 Z " fill="#dfebfd"/>
<path transform="matrix(1,0,0,-1,170.6582,220.25196)" d="M 72.71921 54.230985 L 79.36771 17.625775 C 79.47038 17.086709 79.45755 16.547638 79.38054 16.03424 C 79.0725 14.173176 77.622158 12.620144 75.65841 12.273602 L 12.074182 .735001 C 10.110438 .375622 8.198034 1.338242 7.261085 2.98111 C 7.004386 3.430332 6.824704 3.918064 6.722024 4.444298 L .073526 41.036676 C -.375696 43.539484 1.280016 45.939626 3.769991 46.388849 L 67.35422 57.92745 C 69.869869 58.37667 72.25715 56.720964 72.71921 54.230985 Z " fill="#ed8537"/>
<path transform="matrix(1,0,0,-1,177.9209,219.87671)" d="M 72.11945 15.658689 C 71.81142 13.797626 70.36107 12.244593 68.39732 11.89805 L 4.813097 .359447 C 2.849354 .000069 .93695 .962688 0 2.605558 L 34.333429 28.159913 L 72.11945 15.658689 Z " fill="#dd6d22"/>
<path transform="matrix(1,0,0,-1,170.68457,198.01856)" d="M 72.693538 31.997319 L 41.60735 .384884 L .407232 16.916277 L .073527 18.790173 C -.375695 21.292984 1.280001 23.693125 3.769977 24.142348 L 67.35421 35.680936 C 69.844188 36.142995 72.23148 34.487295 72.693538 31.997319 Z " fill="#f99746"/>
<path transform="matrix(1,0,0,-1,246.88184,223.40552)" d="M 40.673875 12.898797 C 42.214067 13.720233 44.26765 17.699055 40.866399 23.821316 C 37.46514 29.93074 26.914837 25.14332 26.914837 25.14332 C 26.914837 25.14332 22.242936 11.807822 20.125172 10.999222 C 18.00741 10.190622 21.896399 23.17957 21.896399 23.17957 C 17.558194 22.537823 8.060341 14.682856 8.060341 14.682856 C 8.060341 14.682856 10.473307 6.712358 10.498977 3.028734 L 31.920458 3.028734 L 39.621416 3.003071 C 40.712385 5.993608 41.11028 8.817284 41.11028 8.817284 C 37.452325 6.609676 29.815537 7.033237 29.19946 8.329565 C 28.583384 9.613058 39.133684 12.077362 40.673875 12.898797 Z M .423559 5.107986 C .19253 4.376396 .05134 3.683317 0 3.028734 L 8.355535 3.028734 C 7.226061 6.365816 6.853854 13.078489 6.853854 13.078489 C 3.067551 10.832376 .423559 5.107986 .423559 5.107986 Z " fill="#cde0fb"/>
<path transform="matrix(1,0,0,-1,8.229492,221.24951)" d="M 343.24446 .000053 L .526232 .000053 C .243863 .000053 0 .231094 0 .526297 L 0 1.129533 C 0 1.411901 .231028 1.655762 .526232 1.655762 L 343.24446 1.655762 C 343.5268 1.655762 343.7707 1.424736 343.7707 1.129533 L 343.7707 .526297 C 343.7707 .243929 343.53965 .000053 343.24446 .000053 Z " fill="#2e3552"/>
<path transform="matrix(1,0,0,-1,208.10547,193.8982)" d="M .053072 2.271579 C .373945 3.452392 .900171 4.235326 2.003974 4.248161 C 3.65968 4.260995 4.250083 3.324049 4.519617 2.245915 C 4.89183 .795569 3.39014 .269331 2.286336 .153816 C .720475 .012632 -.242132 1.20628 .053072 2.271579 Z " fill="#2b478b"/>
</g>
</g>
</svg>
