<?xml version="1.0" encoding="UTF-8" standalone="no"?>
<!DOCTYPE svg PUBLIC "-//W3C//DTD SVG 1.1//EN" "http://www.w3.org/Graphics/SVG/1.1/DTD/svg11.dtd">
<svg xmlns="http://www.w3.org/2000/svg" xmlns:xlink="http://www.w3.org/1999/xlink" version="1.1" width="386pt" height="230.1128pt" viewBox="0 0 386 230.1128">
<g enable-background="new">
<g>
<path transform="matrix(1,0,0,-1,0,238.01612)" d="M 27.67484 8.395752 C 27.67484 8.395752 -20.409062 50.76056 10.184521 100.610858 C 40.778104 150.46117 81.85429 125.38398 79.8707 183.4003 C 77.887119 241.41663 174.3445 246.41179 205.05391 229.5875 C 235.76332 212.7632 235.5751 192.50743 298.96305 199.21109 C 362.35096 205.91475 374.46968 150.04129 357.97837 121.5616 C 334.58073 81.15143 422.91554 87.811649 367.25926 8.410233 L 27.67484 8.410233 L 27.67484 8.395752 Z " fill="#ebf3fa"/>
<path transform="matrix(1,0,0,-1,237.60157,120.80078)" d="M 0 1.595306 C 0 1.595306 11.554038 25.543147 32.273118 23.863612 C 32.273118 23.863612 36.298204 23.472683 36.64569 18.882922 C 36.993185 14.293159 29.218104 15.9727 24.020236 15.306678 C 18.822367 14.640656 5.994199 9.775797 0 1.595306 Z " fill="#aec3ff" fill-opacity=".3"/>
<path transform="matrix(1,0,0,-1,238.19532,115.06372)" d="M 0 .694164 C 0 .694164 2.533791 22.079272 18.851332 26.263628 C 18.851332 26.263628 22.036648 27.030997 23.51348 23.599535 C 24.99031 20.168074 18.576222 19.415184 14.782792 17.532948 C 10.974883 15.650711 2.432428 8.541643 0 .694164 Z " fill="#aec3ff" fill-opacity=".3"/>
<path transform="matrix(1,0,0,-1,130.54785,221.91309)" d="M 59.056428 73.90938 C 59.056428 73.90938 67.179 55.130456 63.602758 53.870805 C 60.026506 52.611154 56.059335 75.42965 56.059335 75.42965 C 56.059335 75.42965 35.904924 80.222118 28.926169 77.97791 C 28.926169 77.97791 44.534246 61.312875 40.755296 60.979867 C 36.97634 60.632375 19.920382 77.22501 19.920382 77.22501 C 19.920382 77.22501 .504393 76.6169 .026594 64.903598 C -.451204 53.190298 5.62987 48.716363 8.554577 48.62949 C 11.464804 48.542619 29.128874 52.640115 29.20127 50.236646 C 29.259184 47.833177 18.139498 41.534914 11.001478 42.1575 C 11.001478 42.1575 22.497597 25.564866 31.937737 28.590924 C 41.392358 31.616982 43.028467 38.262723 48.892358 40.02913 C 54.770727 41.795537 59.50527 41.129514 56.884618 38.87083 C 54.26396 36.612146 43.89719 35.48279 39.98793 30.31388 C 36.09315 25.14497 32.748548 21.756955 42.14525 21.872784 C 51.541955 21.988614 67.38171 26.650765 69.03228 34.266584 C 69.104679 34.599596 69.03228 34.266584 69.03228 34.266584 C 70.90004 33.658479 74.43284 29.589955 76.96662 26.433587 C 77.34306 25.883397 77.92222 25.130497 78.761989 24.131466 C 79.109477 23.668145 79.39906 23.291703 79.58729 23.031083 C 84.55349 15.791714 85.972408 1.74733 85.972408 1.74733 L 87.99943 1.645973 C 89.114299 16.356373 79.095 26.071618 79.095 26.071618 C 72.23208 34.00597 70.68286 41.8824 70.68286 41.8824 C 70.68286 41.8824 85.74074 55.318677 74.70794 66.69897 C 74.69346 66.68449 66.42611 73.33023 59.056428 73.90938 Z " fill="#aec3ff" fill-opacity=".3"/>
<path transform="matrix(1,0,0,-1,228.63965,226.88282)" d="M 45.97 9.004711 C 49.358026 13.855089 41.800134 20.124394 41.800134 20.124394 C 41.800134 20.124394 29.91308 18.734433 28.508643 20.051999 C 27.104205 21.369565 38.441057 23.222847 38.441057 23.222847 C 36.341638 26.29234 26.829113 30.621479 26.829113 30.621479 C 26.829113 30.621479 18.257695 22.672657 17.215226 24.294278 C 16.172757 25.915896 25.164057 30.940005 25.164057 30.940005 C 22.051129 32.995988 16.70847 32.88016 16.70847 32.88016 C 8.817556 31.72186 10.714268 21.659136 10.714268 21.659136 C 10.714268 21.659136 7.688218 18.966088 2.504829 17.909138 C 2.504829 17.909138 1.476831 17.793316 0 17.301037 L .622593 16.548151 C .868731 16.649502 1.129342 16.75084 1.37548 16.823233 C 1.37548 16.823233 1.375477 16.823233 1.389956 16.823233 C 1.549222 16.866669 1.780896 16.939068 2.055992 17.011464 C 2.693056 17.15625 3.156365 17.27208 3.474898 17.373433 C 5.444006 17.865708 8.108098 18.401429 9.034738 18.068419 C 9.034738 18.068419 9.078177 18.24216 9.237443 18.517256 C 9.16505 18.372467 9.107131 18.227684 9.034738 18.068419 C 7.369682 14.492168 12.2635 7.701637 15.970057 4.747974 C 19.691094 1.794312 19.38703 4.183292 19.415987 7.469967 C 19.444945 10.756641 15.651514 14.419767 15.289546 16.142739 C 14.927578 17.865708 17.026995 16.663969 18.836838 14.130188 C 20.646679 11.596409 19.256735 8.425568 22.109047 4.270168 C 24.961359 .114769 34.618665 3.227707 34.618665 3.227707 C 31.578129 5.196815 29.058833 11.176521 29.826205 12.11764 C 30.593579 13.058758 36.385076 5.935225 37.57233 5.0665 C 38.774068 4.241211 42.567499 4.154333 45.97 9.004711 Z " fill="#aec3ff" fill-opacity=".3"/>
<path transform="matrix(1,0,0,-1,121.95996,178.45215)" d="M 3.836867 77.92456 L 8.803073 .159233 L 6.356171 -.000031 C 6.327214 -.000031 4.48841 7.384132 4.48841 7.384132 L 0 77.67842 L 3.836867 77.92456 Z " fill="#aec3ff"/>
<path transform="matrix(1,0,0,-1,128.83692,183.3894)" d="M 0 4.966092 L 1.172783 -.000106 L 1.433399 5.052979 L 0 4.966092 Z " fill="#0b0755"/>
<path transform="matrix(.998,-.06366,-.06366,-.998,127.47235,173.0042)" d="M 2.461386 .303546 C 3.820772 .303546 4.922772 1.405546 4.922772 2.764932 C 4.922772 4.124318 3.820772 5.226318 2.461386 5.226318 C 1.102 5.226318 0 4.124318 0 2.764932 C 0 1.405546 1.102 .303546 2.461386 .303546 Z " fill="#f78248"/>
<path transform="matrix(1,0,0,-1,127.62109,168.24463)" d="M 0 68.19482 L 37.731599 -.000053 L 39.87446 1.187195 C 39.903417 1.201675 37.456499 8.41209 37.456499 8.41209 L 3.373545 70.048099 L 0 68.19482 Z " fill="#aec3ff"/>
<path transform="matrix(1,0,0,-1,165.77246,172.125)" d="M 1.259643 4.821533 L 2.953667 .000105 L 0 4.112072 L 1.259643 4.821533 Z " fill="#0b0755"/>
<path transform="matrix(.875,-.4842,-.4842,-.875,159.4563,149.63895)" d="M 1.389956 6.095459 L 0 6.095459 L 0 -.101449 L 1.389956 -.101449 L 1.389956 6.095459 Z " fill="#f78248"/>
<path transform="matrix(.9613,-.2755,-.2755,-.9613,124.02983,96.26335)" d="M 2.881273 10.341797 L 0 10.341797 L 0 .409375 L 2.881273 .409375 L 2.881273 10.341797 Z " fill="#0b0755"/>
<path transform="matrix(1,0,0,-1,121.01953,114.812259)" d="M 10.366723 17.252499 L 9.773089 11.750577 L 12.466141 2.368353 L 6.312676 .601944 L 3.619625 9.984168 L .202645 14.342266 C -.593685 17.151143 1.027934 20.075854 3.822331 20.872183 C 6.645686 21.682993 9.570393 20.061375 10.366723 17.252499 Z " fill="#f78248"/>
<path transform="matrix(.9613,-.2755,-.2755,-.9613,125.470119,101.31476)" d="M 1.447874 .685795 C 2.247513 .685795 2.895748 1.33403 2.895748 2.133669 C 2.895748 2.933308 2.247513 3.581543 1.447874 3.581543 C .648235 3.581543 0 2.933308 0 2.133669 C 0 1.33403 .648235 .685795 1.447874 .685795 Z " fill="#0b0755"/>
<g opacity=".5">
<clipPath id="cp0">
<path transform="matrix(1,0,0,-1,0,230.1128)" d="M 0 0 L 386 0 L 386 230.1128 L 0 230.1128 Z "/>
</clipPath>
<g clip-path="url(#cp0)">
<path transform="matrix(1,0,0,-1,292.50587,78.59277)" d="M .970086 .000066 L 0 .000066 L 0 .362035 L .622593 .362035 L .622593 .984619 L .970086 .984619 L .970086 .000066 Z " fill="#aec3ff"/>
<path transform="matrix(1,0,0,-1,262.65138,78.59277)" d="M 28.190104 .000092 L 26.525048 .000092 L 26.525048 .362061 L 28.190104 .362061 L 28.190104 .000092 Z M 24.874485 .000092 L 23.20943 .000092 L 23.20943 .362061 L 24.874485 .362061 L 24.874485 .000092 Z M 21.55885 .000092 L 19.893795 .000092 L 19.893795 .362061 L 21.55885 .362061 L 21.55885 .000092 Z M 18.243214 .000092 L 16.57816 .000092 L 16.57816 .362061 L 18.243214 .362061 L 18.243214 .000092 Z M 14.927579 .000092 L 13.262524 .000092 L 13.262524 .362061 L 14.927579 .362061 L 14.927579 .000092 Z M 11.611943 .000092 L 9.946888 .000092 L 9.946888 .362061 L 11.611943 .362061 L 11.611943 .000092 Z M 8.296326 .000092 L 6.631271 .000092 L 6.631271 .362061 L 8.296326 .362061 L 8.296326 .000092 Z M 4.98069 .000092 L 3.330111 .000092 L 3.330111 .362061 L 4.995166 .362061 L 4.995166 .000092 L 4.98069 .000092 Z M 1.665055 .000092 L 0 .000092 L 0 .362061 L 1.665055 .362061 L 1.665055 .000092 Z " fill="#aec3ff"/>
<path transform="matrix(1,0,0,-1,260.03028,78.59277)" d="M .970069 .000066 L 0 .000066 L 0 .984619 L .347493 .984619 L .347493 .362035 L .970069 .362035 L .970069 .000066 Z " fill="#aec3ff"/>
<path transform="matrix(1,0,0,-1,260.01564,76.08789)" d="M .361969 -.000099 L 0 -.000099 L 0 1.520168 L .361969 1.520168 L .361969 -.000099 Z M .361969 3.054916 L 0 3.054916 L 0 4.575184 L .361969 4.575184 L .361969 3.054916 Z M .361969 6.109932 L 0 6.109932 L 0 7.630199 L .361969 7.630199 L .361969 6.109932 Z M .361969 9.164943 L 0 9.164943 L 0 10.685211 L .361969 10.685211 L .361969 9.164943 Z M .361969 12.219958 L 0 12.219958 L 0 13.740227 L .361969 13.740227 L .361969 12.219958 Z M .361969 15.274974 L 0 15.274974 L 0 16.795243 L .361969 16.795243 L .361969 15.274974 Z M .361969 18.32999 L 0 18.32999 L 0 19.850258 L .361969 19.850258 L .361969 18.32999 Z M .361969 21.385006 L 0 21.385006 L 0 22.905274 L .361969 22.905274 L .361969 21.385006 Z " fill="#aec3ff"/>
<path transform="matrix(1,0,0,-1,260.03028,51.647706)" d="M .347493 -.000107 L 0 -.000107 L 0 .969971 L .970069 .969971 L .970069 .608002 L .347493 .608002 L .347493 -.000107 Z " fill="#aec3ff"/>
<path transform="matrix(1,0,0,-1,262.65138,51.039796)" d="M 28.190104 .000092 L 26.525048 .000092 L 26.525048 .362061 L 28.190104 .362061 L 28.190104 .000092 Z M 24.874485 .000092 L 23.20943 .000092 L 23.20943 .362061 L 24.874485 .362061 L 24.874485 .000092 Z M 21.55885 .000092 L 19.893795 .000092 L 19.893795 .362061 L 21.55885 .362061 L 21.55885 .000092 Z M 18.243214 .000092 L 16.57816 .000092 L 16.57816 .362061 L 18.243214 .362061 L 18.243214 .000092 Z M 14.927579 .000092 L 13.262524 .000092 L 13.262524 .362061 L 14.927579 .362061 L 14.927579 .000092 Z M 11.611943 .000092 L 9.946888 .000092 L 9.946888 .362061 L 11.611943 .362061 L 11.611943 .000092 Z M 8.296326 .000092 L 6.631271 .000092 L 6.631271 .362061 L 8.296326 .362061 L 8.296326 .000092 Z M 4.98069 .000092 L 3.330111 .000092 L 3.330111 .362061 L 4.995166 .362061 L 4.995166 .000092 L 4.98069 .000092 Z M 1.665055 .000092 L 0 .000092 L 0 .362061 L 1.665055 .362061 L 1.665055 .000092 Z " fill="#aec3ff"/>
<path transform="matrix(1,0,0,-1,292.50587,51.647706)" d="M .970086 -.000107 L .622593 -.000107 L .622593 .608002 L 0 .608002 L 0 .969971 L .970086 .969971 L .970086 -.000107 Z " fill="#aec3ff"/>
<path transform="matrix(1,0,0,-1,293.11427,76.08789)" d="M .361969 -.000099 L 0 -.000099 L 0 1.520168 L .361969 1.520168 L .361969 -.000099 Z M .361969 3.054916 L 0 3.054916 L 0 4.575184 L .361969 4.575184 L .361969 3.054916 Z M .361969 6.109932 L 0 6.109932 L 0 7.630199 L .361969 7.630199 L .361969 6.109932 Z M .361969 9.164943 L 0 9.164943 L 0 10.685211 L .361969 10.685211 L .361969 9.164943 Z M .361969 12.219958 L 0 12.219958 L 0 13.740227 L .361969 13.740227 L .361969 12.219958 Z M .361969 15.274974 L 0 15.274974 L 0 16.795243 L .361969 16.795243 L .361969 15.274974 Z M .361969 18.32999 L 0 18.32999 L 0 19.850258 L .361969 19.850258 L .361969 18.32999 Z M .361969 21.385006 L 0 21.385006 L 0 22.905274 L .361969 22.905274 L .361969 21.385006 Z " fill="#aec3ff"/>
</g>
</g>
<path transform="matrix(1,0,0,-1,280.7207,92.10132)" d="M 17.533736 -.00005 C 16.940108 -.00005 16.332015 .028904 15.738385 .086819 L 15.781828 .477745 C 16.360978 .41983 16.954586 .390869 17.533736 .390869 L 17.533736 -.00005 Z M 19.32912 .086819 L 19.285677 .477745 C 19.864827 .53566 20.443976 .622532 21.023127 .738361 L 21.110013 .347435 C 20.530863 .231602 19.922749 .144733 19.32912 .086819 Z M 13.971986 .361916 C 13.392836 .477749 12.799208 .637009 12.234536 .810753 L 12.350356 1.187199 C 12.900548 1.013454 13.479709 .854191 14.044379 .738361 L 13.971986 .361916 Z M 22.847462 .810753 L 22.731625 1.187199 C 23.281817 1.360943 23.846474 1.563648 24.382187 1.795307 L 24.541468 1.433338 C 23.976796 1.201679 23.412133 .984501 22.847462 .810753 Z M 10.540513 1.447823 C 9.990321 1.679482 9.454611 1.954578 8.933376 2.244152 L 9.136083 2.591637 C 9.642838 2.302063 10.178555 2.041451 10.714269 1.809792 L 10.540513 1.447823 Z M 26.134129 2.229671 L 25.931405 2.577164 C 26.438162 2.866737 26.944924 3.18527 27.422722 3.518282 L 27.654397 3.199747 C 27.176598 2.852257 26.655364 2.533722 26.134129 2.229671 Z M 7.427584 3.214222 C 6.935307 3.561712 6.471994 3.938162 6.023153 4.329086 L 6.28376 4.633146 C 6.718122 4.24222 7.181442 3.880251 7.65924 3.547241 L 7.427584 3.214222 Z M 29.07332 4.300127 L 28.812697 4.604187 C 29.247059 4.980635 29.681414 5.400513 30.07234 5.820396 L 30.361914 5.545305 C 29.956509 5.110943 29.522162 4.691053 29.07332 4.300127 Z M 4.720066 5.574265 C 4.314662 6.008627 3.923735 6.471947 3.561767 6.949745 L 3.880292 7.195877 C 4.227782 6.732557 4.618715 6.283718 5.009641 5.849356 L 4.720066 5.574265 Z M 31.520215 6.920786 L 31.201689 7.166925 C 31.549178 7.630245 31.882197 8.122522 32.18625 8.614799 L 32.519235 8.412094 C 32.229658 7.905338 31.882182 7.398584 31.520215 6.920786 Z M 2.548255 8.441053 C 2.244201 8.947809 1.954623 9.483517 1.694006 10.01923 L 2.055974 10.192978 C 2.302113 9.671743 2.591695 9.150507 2.895748 8.643751 L 2.548255 8.441053 Z M 33.38796 9.99028 L 33.02599 10.164019 C 33.272127 10.685253 33.503816 11.235447 33.706518 11.785639 L 34.082944 11.655336 C 33.88024 11.090664 33.648576 10.525993 33.38796 9.99028 Z M 1.013512 11.684286 C .81081 12.248957 .637065 12.82811 .506756 13.407259 L .897675 13.494129 C 1.027984 12.929459 1.201728 12.36479 1.404431 11.814598 L 1.013512 11.684286 Z M 34.60419 13.363825 L 34.213274 13.465178 C 34.358064 14.02985 34.459386 14.608994 34.546258 15.188143 L 34.93721 15.130234 C 34.850339 14.536606 34.7345 13.942976 34.60419 13.363825 Z M .173738 15.173668 C .101344 15.767296 .043429 16.36092 .02895 16.969027 L .434362 16.983511 C .448841 16.404362 .506756 15.810728 .57915 15.231577 L .173738 15.173668 Z M 35.081998 16.925593 L 34.676588 16.940077 C 34.676588 17.142779 34.691045 17.331 34.691045 17.5337 C 34.691045 17.924628 34.676595 18.315554 34.647638 18.692002 L 35.038557 18.72096 C 35.067514 18.330035 35.081998 17.924628 35.081998 17.5337 C 35.096479 17.331 35.096479 17.128294 35.081998 16.925593 Z M .405394 17.5337 L 0 17.5337 C 0 18.127329 .028954 18.735436 .086869 19.329064 L .477788 19.28563 C .434352 18.70648 .405394 18.127329 .405394 17.5337 Z M 34.459405 20.443928 C 34.358057 21.023079 34.227754 21.602227 34.068487 22.15242 L 34.459405 22.253773 C 34.61867 21.674622 34.748975 21.09547 34.850324 20.501843 L 34.459405 20.443928 Z M .767363 21.023079 L .376444 21.109951 C .492274 21.689103 .651536 22.28273 .825281 22.8474 L 1.201725 22.731568 C 1.02798 22.166897 .883193 21.602229 .767363 21.023079 Z M 33.503797 23.817475 C 33.286615 24.353188 33.040475 24.90338 32.779859 25.410136 L 33.12737 25.598362 C 33.402463 25.062649 33.648584 24.512455 33.86576 23.962262 L 33.503797 23.817475 Z M 1.824318 24.367669 L 1.462349 24.526932 C 1.694009 25.077124 1.969105 25.612839 2.25868 26.134074 L 2.606174 25.931372 C 2.316599 25.424614 2.055978 24.903382 1.824318 24.367669 Z M 31.896676 26.930405 C 31.578143 27.42268 31.230626 27.900483 30.854178 28.349324 L 31.158246 28.595459 C 31.534693 28.13214 31.896668 27.639863 32.2152 27.147585 L 31.896676 26.930405 Z M 3.547292 27.42268 L 3.228749 27.65434 C 3.576239 28.146618 3.952697 28.60994 4.343623 29.07326 L 4.647673 28.812642 C 4.256746 28.3638 3.880303 27.900479 3.547292 27.42268 Z M 29.68142 29.652409 C 29.276017 30.072293 28.827176 30.463215 28.378334 30.825184 L 28.624466 31.129239 C 29.087786 30.752793 29.53662 30.34739 29.956503 29.927506 L 29.68142 29.652409 Z M 5.849398 30.072293 L 5.574316 30.361866 C 6.008678 30.767273 6.471997 31.158198 6.949796 31.520167 L 7.195928 31.201632 C 6.732608 30.839665 6.28376 30.463219 5.849398 30.072293 Z M 26.95941 31.867655 C 26.467133 32.186189 25.960377 32.490243 25.439143 32.75086 L 25.627373 33.098348 C 26.163086 32.823255 26.684313 32.5192 27.17659 32.186189 L 26.95941 31.867655 Z M 8.643802 32.186189 L 8.441095 32.53368 C 8.947852 32.83773 9.483568 33.127305 10.019282 33.387926 L 10.19302 33.025957 C 9.671785 32.76534 9.150558 32.490243 8.643802 32.186189 Z M 23.84648 33.489278 C 23.296288 33.70646 22.746096 33.89468 22.181426 34.053949 L 22.282769 34.44487 C 22.86192 34.285604 23.426598 34.09738 23.991269 33.86572 L 23.84648 33.489278 Z M 11.81465 33.69198 L 11.684338 34.068426 C 12.249008 34.27113 12.828161 34.444875 13.407311 34.57518 L 13.508656 34.184255 C 12.929505 34.053945 12.364841 33.89468 11.81465 33.69198 Z M 20.472928 34.430395 C 19.893776 34.531747 19.314627 34.604139 18.735478 34.633096 L 18.764428 35.02402 C 19.358057 34.980585 19.966172 34.908189 20.54532 34.80684 L 20.472928 34.430395 Z M 15.217154 34.51726 L 15.159235 34.90819 C 15.752864 34.995065 16.346478 35.038499 16.954586 35.05298 L 16.969079 34.647577 C 16.389929 34.647577 15.796304 34.604139 15.217154 34.51726 Z " fill="#aec3ff" fill-opacity=".5"/>
<path transform="matrix(1,0,0,-1,75.58594,229.11353)" d="M 21.081046 .000092 L 0 32.997148 L 42.5675 60.188234 L 21.081046 .000092 Z " fill="#aec3ff"/>
<path transform="matrix(1,0,0,-1,85.243167,213.43286)" d="M 9.52701 .000008 L 0 14.913112 L 19.242243 27.205567 L 9.52701 .000008 Z " fill="#ebf3fa"/>
<path transform="matrix(.8428,-.5383,-.5383,-.8428,79.923069,197.19606)" d="M .217181 2.532959 L 0 2.532959 L 0 -.333839 L .217181 -.333839 L .217181 2.532959 Z " fill="#060633"/>
<path transform="matrix(.8428,-.5383,-.5383,-.8428,80.49485,195.63703)" d="M .217181 1.532471 L 0 1.532471 L 0 -.14706 L .217181 -.14706 L .217181 1.532471 Z " fill="#060633"/>
<path transform="matrix(.8428,-.5383,-.5383,-.8428,81.42356,195.04767)" d="M .217181 1.532471 L 0 1.532471 L 0 -.14706 L .217181 -.14706 L .217181 1.532471 Z " fill="#060633"/>
<path transform="matrix(.8428,-.5383,-.5383,-.8428,82.30833,194.48444)" d="M .217181 1.532471 L 0 1.532471 L 0 -.14706 L .217181 -.14706 L .217181 1.532471 Z " fill="#060633"/>
<path transform="matrix(.8428,-.5383,-.5383,-.8428,83.13352,193.95954)" d="M .217181 1.532471 L 0 1.532471 L 0 -.14706 L .217181 -.14706 L .217181 1.532471 Z " fill="#060633"/>
<path transform="matrix(.8427,-.5383,-.5383,-.8427,84.035739,193.36713)" d="M .217181 1.532227 L 0 1.532227 L 0 -.147304 L .217181 -.147304 L .217181 1.532227 Z " fill="#060633"/>
<path transform="matrix(.8428,-.5383,-.5383,-.8428,85.49826,193.63649)" d="M .217181 2.532959 L 0 2.532959 L 0 -.333839 L .217181 -.333839 L .217181 2.532959 Z " fill="#060633"/>
<path transform="matrix(.8428,-.5382,-.5382,-.8428,86.06989,192.05548)" d="M .217181 1.532471 L 0 1.532471 L 0 -.14706 L .217181 -.14706 L .217181 1.532471 Z " fill="#060633"/>
<path transform="matrix(.8427,-.5383,-.5383,-.8427,86.98593,191.47382)" d="M .217181 1.532227 L 0 1.532227 L 0 -.147322 L .217181 -.147322 L .217181 1.532227 Z " fill="#060633"/>
<path transform="matrix(.8424,-.5388,-.5388,-.8424,87.87804,190.90509)" d="M .217181 1.531738 L 0 1.531738 L 0 -.147792 L .217181 -.147792 L .217181 1.531738 Z " fill="#060633"/>
<path transform="matrix(.8428,-.5382,-.5382,-.8428,88.70466,190.38434)" d="M .217181 1.532471 L 0 1.532471 L 0 -.147077 L .217181 -.147077 L .217181 1.532471 Z " fill="#060633"/>
<path transform="matrix(.8428,-.5383,-.5383,-.8428,89.62278,189.8211)" d="M .217181 1.532471 L 0 1.532471 L 0 -.147077 L .217181 -.147077 L .217181 1.532471 Z " fill="#060633"/>
<path transform="matrix(.8424,-.5388,-.5388,-.8424,91.41209,189.82678)" d="M .217181 2.531982 L 0 2.531982 L 0 -.334798 L .217181 -.334798 L .217181 2.531982 Z " fill="#060633"/>
<path transform="matrix(.8428,-.5383,-.5383,-.8428,91.9968,188.29914)" d="M .217181 1.532471 L 0 1.532471 L 0 -.147077 L .217181 -.147077 L .217181 1.532471 Z " fill="#060633"/>
<path transform="matrix(.8428,-.5383,-.5383,-.8428,92.94407,187.69245)" d="M .217181 1.532471 L 0 1.532471 L 0 -.14706 L .217181 -.14706 L .217181 1.532471 Z " fill="#060633"/>
<path transform="matrix(.8428,-.5383,-.5383,-.8428,93.814189,187.12653)" d="M .217181 1.532471 L 0 1.532471 L 0 -.14706 L .217181 -.14706 L .217181 1.532471 Z " fill="#060633"/>
<path transform="matrix(.8428,-.5383,-.5383,-.8428,94.62766,186.60944)" d="M .217181 1.532471 L 0 1.532471 L 0 -.14706 L .217181 -.14706 L .217181 1.532471 Z " fill="#060633"/>
<path transform="matrix(.8424,-.5388,-.5388,-.8424,95.548938,186.00421)" d="M .217181 1.531738 L 0 1.531738 L 0 -.147792 L .217181 -.147792 L .217181 1.531738 Z " fill="#060633"/>
<path transform="matrix(.8428,-.5383,-.5383,-.8428,97.0051,186.27858)" d="M .217181 2.532959 L 0 2.532959 L 0 -.333821 L .217181 -.333821 L .217181 2.532959 Z " fill="#060633"/>
<path transform="matrix(.8428,-.5383,-.5383,-.8428,97.57102,184.73932)" d="M .217181 1.532471 L 0 1.532471 L 0 -.14706 L .217181 -.14706 L .217181 1.532471 Z " fill="#060633"/>
<path transform="matrix(.8427,-.5383,-.5383,-.8427,98.49863,184.12885)" d="M .217181 1.532227 L 0 1.532227 L 0 -.147304 L .217181 -.147304 L .217181 1.532227 Z " fill="#060633"/>
<path transform="matrix(.8428,-.5383,-.5383,-.8428,99.391338,183.56208)" d="M .217181 1.532471 L 0 1.532471 L 0 -.14706 L .217181 -.14706 L .217181 1.532471 Z " fill="#060633"/>
<path transform="matrix(.8428,-.5382,-.5382,-.8428,100.20954,183.02692)" d="M .217181 1.532471 L 0 1.532471 L 0 -.14706 L .217181 -.14706 L .217181 1.532471 Z " fill="#060633"/>
<path transform="matrix(.8428,-.5383,-.5383,-.8428,101.12864,182.4632)" d="M .217181 1.532471 L 0 1.532471 L 0 -.14706 L .217181 -.14706 L .217181 1.532471 Z " fill="#060633"/>
<path transform="matrix(.8428,-.5383,-.5383,-.8428,102.83127,182.54982)" d="M .217181 2.532959 L 0 2.532959 L 0 -.333839 L .217181 -.333839 L .217181 2.532959 Z " fill="#060633"/>
<path transform="matrix(.8428,-.5383,-.5383,-.8428,103.40501,181.013)" d="M .217181 1.532471 L 0 1.532471 L 0 -.14706 L .217181 -.14706 L .217181 1.532471 Z " fill="#060633"/>
<path transform="matrix(.8428,-.5383,-.5383,-.8428,104.334697,180.42267)" d="M .217181 1.532471 L 0 1.532471 L 0 -.14706 L .217181 -.14706 L .217181 1.532471 Z " fill="#060633"/>
<path transform="matrix(.8425,-.5387,-.5387,-.8425,105.20516,179.84123)" d="M .217181 1.531982 L 0 1.531982 L 0 -.147548 L .217181 -.147548 L .217181 1.531982 Z " fill="#060633"/>
<path transform="matrix(.8428,-.5383,-.5383,-.8428,106.035869,179.32233)" d="M .217181 1.532471 L 0 1.532471 L 0 -.147077 L .217181 -.147077 L .217181 1.532471 Z " fill="#060633"/>
<path transform="matrix(.8427,-.5383,-.5383,-.8427,106.9371,178.73163)" d="M .217181 1.532227 L 0 1.532227 L 0 -.147322 L .217181 -.147322 L .217181 1.532227 Z " fill="#060633"/>
<path transform="matrix(.8428,-.5383,-.5383,-.8428,108.40158,178.99904)" d="M .217181 2.532959 L 0 2.532959 L 0 -.333839 L .217181 -.333839 L .217181 2.532959 Z " fill="#060633"/>
<path transform="matrix(.8428,-.5383,-.5383,-.8428,108.9802,177.45246)" d="M .217181 1.532471 L 0 1.532471 L 0 -.14706 L .217181 -.14706 L .217181 1.532471 Z " fill="#060633"/>
<path transform="matrix(.8427,-.5383,-.5383,-.8427,109.8873,176.83832)" d="M .217181 1.532227 L 0 1.532227 L 0 -.147304 L .217181 -.147304 L .217181 1.532227 Z " fill="#060633"/>
<path transform="matrix(.8427,-.5383,-.5383,-.8427,110.78378,176.26728)" d="M .217181 1.532227 L 0 1.532227 L 0 -.147322 L .217181 -.147322 L .217181 1.532227 Z " fill="#060633"/>
<path transform="matrix(.8425,-.5387,-.5387,-.8425,111.60165,175.76409)" d="M .217181 1.531982 L 0 1.531982 L 0 -.147548 L .217181 -.147548 L .217181 1.531982 Z " fill="#060633"/>
<path transform="matrix(.8427,-.5383,-.5383,-.8427,112.51425,175.16645)" d="M .217181 1.532227 L 0 1.532227 L 0 -.147304 L .217181 -.147304 L .217181 1.532227 Z " fill="#060633"/>
<path transform="matrix(.8428,-.5383,-.5383,-.8428,114.32834,175.22194)" d="M .217181 2.532959 L 0 2.532959 L 0 -.333821 L .217181 -.333821 L .217181 2.532959 Z " fill="#060633"/>
<path transform="matrix(1,0,0,-1,314.36817,198.43628)" d="M 0 .625763 C 0 .625763 .246153 12.918203 12.538605 14.423993 C 24.831057 15.929782 48.286603 15.046586 48.286603 15.046586 L 48.286603 7.966478 C 48.286603 7.966478 21.660204 8.212616 12.784736 7.966478 C 9.121614 7.865127 4.647676 7.532123 0 .625763 Z " fill="#f78248"/>
<path transform="matrix(1,0,0,-1,317.72657,231.76319)" d="M 16.46388 42.654298 C 16.46388 42.654298 15.464833 6.023075 9.933954 3.011494 C 4.417554 -.000084 -2.952138 3.677513 1.232218 10.699703 C 5.416574 17.721894 7.92141 18.054909 9.427198 26.249876 C 10.932987 34.444845 10.932973 42.63982 10.932973 42.63982 L 16.46388 42.63982 L 16.46388 42.654298 Z " fill="#f78248"/>
<path transform="matrix(1,0,0,-1,342.4463,231.43018)" d="M 2.790433 42.321458 C 2.790433 42.321458 -1.060884 17.229786 .285639 10.366863 C 1.617683 3.503941 7.814578 .000092 13.997 3.677692 C 20.179423 7.355293 18.340622 12.712429 18.340622 12.712429 C 18.340622 12.712429 13.302021 8.701817 9.291409 11.713392 C 5.295277 14.724972 7.293335 43.66797 7.293335 43.66797 L 2.790433 42.321458 Z " fill="#f78248"/>
<path transform="matrix(1,0,0,-1,70.18555,157.96509)" d="M 22.297263 -.000042 C 16.3465 -.000042 10.743223 2.316555 6.529909 6.529869 C 2.316595 10.743179 0 16.346459 0 22.29722 C 0 28.247982 2.316595 33.851259 6.529909 38.064577 C 10.743223 42.277887 16.3465 44.594484 22.297263 44.594484 C 28.248024 44.594484 33.85129 42.277887 38.064607 38.064577 C 42.27792 33.851259 44.594526 28.247982 44.594526 22.29722 C 44.594526 16.346459 42.27792 10.743179 38.064607 6.529869 C 33.85129 2.316555 28.248024 -.000042 22.297263 -.000042 Z M 22.297263 44.18908 C 16.44785 44.18908 10.960403 41.91592 6.819484 37.774999 C 2.678564 33.63408 .405403 28.146634 .405403 22.29722 C .405403 16.44781 2.678564 10.960361 6.819484 6.819443 C 10.960403 2.67852 16.44785 .405369 22.297263 .405369 C 28.146674 .405369 33.63411 2.67852 37.775033 6.819443 C 41.91595 10.960361 44.18912 16.44781 44.18912 22.29722 C 44.18912 28.146634 41.91595 33.63408 37.775033 37.774999 C 33.63411 41.91592 28.146674 44.18908 22.297263 44.18908 Z " fill="#aec3ff"/>
<path transform="matrix(1,0,0,-1,70.25781,142.67554)" d="M 22.224869 -.000048 C 22.137997 -.000048 22.05112 -.000048 21.949769 -.000048 L 21.949769 .231617 C 22.297259 .231617 22.644755 .231617 22.977765 .231617 L 22.977765 -.000048 C 22.731627 .014431 22.485486 -.000048 22.224869 -.000048 Z M 20.921782 .014436 C 20.574292 .014436 20.226798 .028916 19.893786 .043395 L 19.90827 .275051 C 20.241282 .260572 20.588767 .260571 20.936257 .246092 L 20.921782 .014436 Z M 24.020228 .028912 L 24.020228 .260576 C 24.367718 .275055 24.715212 .275048 25.048224 .289527 L 25.062699 .057871 C 24.715209 .043391 24.367718 .04339 24.020228 .028912 Z M 18.851325 .08683 C 18.503834 .101309 18.156338 .115782 17.823328 .144739 L 17.83781 .376405 C 18.1853 .361926 18.518309 .332965 18.865799 .318486 L 18.851325 .08683 Z M 26.090695 .115789 L 26.07621 .347445 C 26.4237 .361924 26.771195 .390885 27.104207 .405364 L 27.118681 .173698 C 26.78567 .15922 26.438185 .130268 26.090695 .115789 Z M 16.780858 .217134 C 16.433367 .246091 16.08588 .275053 15.752869 .30401 L 15.781828 .535667 C 16.11484 .50671 16.462327 .477756 16.809817 .448798 L 16.780858 .217134 Z M 28.161152 .260576 L 28.146668 .492232 C 28.494158 .521191 28.841654 .550149 29.174664 .593586 L 29.203623 .36192 C 28.856135 .318484 28.508643 .289534 28.161152 .260576 Z M 14.724882 .419839 C 14.377392 .463275 14.029897 .506715 13.696886 .550151 L 13.725845 .781808 C 14.058856 .738371 14.406343 .694932 14.753833 .651495 L 14.724882 .419839 Z M 30.217137 .463273 L 30.188178 .694939 C 30.535666 .738375 30.868674 .781806 31.216164 .825242 L 31.245123 .593586 C 30.912112 .550149 30.564625 .50671 30.217137 .463273 Z M 12.668899 .680454 C 12.321409 .73837 11.973914 .781811 11.640903 .839726 L 11.684346 1.071383 C 12.017357 1.013468 12.364847 .955556 12.697858 .91212 L 12.668899 .680454 Z M 32.27311 .752849 L 32.229677 .984513 C 32.577165 1.042428 32.910177 1.100336 33.243188 1.158251 L 33.28662 .926595 C 32.95361 .86868 32.620599 .810763 32.27311 .752849 Z M 10.627391 1.027947 C 10.279902 1.100342 9.94689 1.158251 9.613879 1.230645 L 9.657322 1.46231 C 9.990334 1.389916 10.323344 1.317519 10.670835 1.259604 L 10.627391 1.027947 Z M 34.314619 1.129301 L 34.271184 1.360957 C 34.61867 1.433351 34.951684 1.505745 35.284696 1.578138 L 35.342607 1.346482 C 34.995115 1.274088 34.64763 1.201694 34.314619 1.129301 Z M 8.600368 1.46231 C 8.252877 1.549183 7.919872 1.636053 7.601339 1.722926 L 7.659249 1.940106 C 7.977781 1.853234 8.310796 1.766364 8.658286 1.679491 L 8.600368 1.46231 Z M 36.327157 1.592613 L 36.26925 1.809794 C 36.60226 1.896667 36.935266 1.983543 37.268278 2.084894 L 37.326196 1.867713 C 37.00766 1.766362 36.67465 1.679486 36.327157 1.592613 Z M 6.602303 2.012501 C 6.269291 2.113852 5.936282 2.22968 5.61775 2.34551 L 5.690144 2.562691 C 6.008676 2.446861 6.32721 2.345508 6.660221 2.244157 L 6.602303 2.012501 Z M 38.32523 2.171763 L 38.25284 2.388945 C 38.58585 2.504774 38.918855 2.620607 39.222906 2.736438 L 39.309785 2.519257 C 38.991254 2.403426 38.65824 2.287593 38.32523 2.171763 Z M 4.633197 2.707479 C 4.300186 2.837787 3.981653 2.982578 3.677599 3.127365 L 3.778948 3.330063 C 4.068523 3.185275 4.387055 3.054968 4.720066 2.92466 L 4.633197 2.707479 Z M 40.265378 2.910184 L 40.17851 3.127365 C 40.51152 3.272153 40.815568 3.416941 41.10514 3.561728 L 41.206495 3.359022 C 40.91692 3.199756 40.59839 3.054972 40.265378 2.910184 Z M 2.765436 3.605162 C 2.446904 3.793386 2.142854 3.981613 1.882236 4.169837 L 2.012544 4.358059 C 2.273162 4.169835 2.562736 3.981613 2.866789 3.807868 L 2.765436 3.605162 Z M 42.118654 3.865778 L 41.98835 4.068483 C 42.292406 4.256707 42.5675 4.459406 42.81364 4.662108 L 42.958429 4.488361 C 42.712289 4.271181 42.422708 4.06848 42.118654 3.865778 Z M 1.071426 4.835855 C .79633 5.110951 .579148 5.386049 .405403 5.661145 L .608104 5.776974 C .767371 5.516356 .984554 5.255735 1.230693 4.995118 L 1.071426 4.835855 Z M 43.711317 5.212299 L 43.53758 5.357086 C 43.769239 5.632182 43.94298 5.921764 44.044336 6.19686 L 44.261518 6.109982 C 44.145685 5.820408 43.957456 5.516353 43.711317 5.212299 Z M .028955 6.660173 C .014476 6.776003 0 6.891837 0 7.007667 C 0 7.355156 .086869 7.702648 .231656 8.050138 L .448837 7.948785 C .30405 7.644731 .231656 7.326199 .231656 7.007667 C .231656 6.906315 .246137 6.804967 .260616 6.703616 L .028955 6.660173 Z M 44.203599 7.166929 C 44.17464 7.470983 44.087766 7.789518 43.91402 8.093573 L 44.116727 8.2094 C 44.290475 7.876389 44.4063 7.528903 44.420778 7.181413 L 44.203599 7.166929 Z M 1.013512 8.774075 L .839765 8.933337 C 1.056946 9.179476 1.317562 9.411139 1.607137 9.642799 L 1.751924 9.454577 C 1.462349 9.237396 1.216214 9.005734 1.013512 8.774075 Z M 43.320398 8.889902 C 43.103216 9.121563 42.84259 9.33874 42.553018 9.555922 L 42.697805 9.744152 C 43.001859 9.512492 43.262475 9.280825 43.494134 9.049166 L 43.320398 8.889902 Z M 2.591694 10.033727 L 2.475861 10.236423 C 2.750957 10.410169 3.069492 10.583914 3.388025 10.74318 L 3.489373 10.540483 C 3.170841 10.381217 2.86679 10.207472 2.591694 10.033727 Z M 41.71325 10.120596 C 41.438158 10.279861 41.134099 10.453606 40.815568 10.598392 L 40.91692 10.801098 C 41.24993 10.641832 41.55398 10.482563 41.82908 10.308818 L 41.71325 10.120596 Z M 4.416016 10.960361 L 4.329138 11.177542 C 4.633192 11.307851 4.966205 11.438165 5.299216 11.553995 L 5.386094 11.336814 C 5.038604 11.220984 4.72007 11.09067 4.416016 10.960361 Z M 39.87445 11.032755 C 39.570398 11.163063 39.251867 11.278898 38.918855 11.409207 L 38.99125 11.626389 C 39.32426 11.510559 39.657274 11.380244 39.961328 11.249936 L 39.87445 11.032755 Z M 6.356162 11.684299 L 6.283769 11.90148 C 6.602301 12.002831 6.935316 12.104187 7.282805 12.205538 L 7.340724 11.988358 C 6.993234 11.887006 6.660216 11.785649 6.356162 11.684299 Z M 37.934305 11.727733 C 37.615774 11.829084 37.28276 11.930435 36.94975 12.017307 L 37.00766 12.234488 C 37.34067 12.133138 37.688165 12.046265 38.006696 11.944914 L 37.934305 11.727733 Z M 8.325276 12.248973 L 8.267358 12.480629 C 8.600368 12.567501 8.93338 12.639896 9.280869 12.726769 L 9.338788 12.495113 C 8.991299 12.40824 8.658287 12.335845 8.325276 12.248973 Z M 35.950716 12.292407 C 35.617704 12.379279 35.284688 12.45167 34.951677 12.524063 L 34.99512 12.755729 C 35.34261 12.683334 35.67562 12.596457 36.008634 12.524063 L 35.950716 12.292407 Z M 10.337816 12.69781 L 10.294382 12.929475 C 10.627393 13.001869 10.974882 13.059782 11.307894 13.117697 L 11.351328 12.886032 C 11.018317 12.828117 10.670827 12.770204 10.337816 12.69781 Z M 33.938165 12.726769 C 33.605154 12.784684 33.272146 12.857077 32.924654 12.914991 L 32.968099 13.146656 C 33.315587 13.088741 33.648599 13.030819 33.98161 12.958426 L 33.938165 12.726769 Z M 12.36484 13.059778 L 12.33589 13.291444 C 12.6689 13.349359 13.016387 13.392795 13.363876 13.436232 L 13.392836 13.204566 C 13.045346 13.16113 12.71233 13.117694 12.36484 13.059778 Z M 31.91114 13.088737 C 31.57813 13.146653 31.230645 13.190089 30.883154 13.233525 L 30.912114 13.465181 C 31.259604 13.421745 31.60709 13.363831 31.9401 13.320395 L 31.91114 13.088737 Z M 14.420823 13.334878 L 14.391864 13.566535 C 14.739353 13.609971 15.07237 13.638927 15.41986 13.682363 L 15.448819 13.450706 C 15.101329 13.421749 14.753834 13.378314 14.420823 13.334878 Z M 29.869643 13.363837 C 29.53663 13.407273 29.189145 13.43623 28.841656 13.479666 L 28.870606 13.711322 C 29.218096 13.682364 29.56559 13.63893 29.898602 13.595494 L 29.869643 13.363837 Z M 16.462332 13.537576 L 16.447848 13.76924 C 16.795336 13.798198 17.142832 13.827155 17.475844 13.841634 L 17.490319 13.609969 C 17.157307 13.59549 16.80982 13.566533 16.462332 13.537576 Z M 27.81366 13.552059 C 27.480648 13.581017 27.133162 13.609974 26.785672 13.624453 L 26.800148 13.85611 C 27.147637 13.827152 27.495133 13.812674 27.828143 13.783715 L 27.81366 13.552059 Z M 18.53279 13.682363 L 18.518305 13.914028 C 18.865796 13.928507 19.21329 13.942984 19.5463 13.957462 L 19.560776 13.725806 C 19.213288 13.711328 18.8658 13.696841 18.53279 13.682363 Z M 25.7432 13.696847 C 25.395712 13.711326 25.062705 13.725802 24.715214 13.740281 L 24.729689 13.971937 C 25.077179 13.957458 25.424666 13.942982 25.757676 13.928503 L 25.7432 13.696847 Z M 20.588772 13.76924 L 20.588772 14.000896 C 20.936263 14.015375 21.283749 14.015381 21.61676 14.015381 L 21.61676 13.783715 C 21.283749 13.769237 20.936263 13.76924 20.588772 13.76924 Z M 23.687218 13.76924 C 23.339728 13.76924 23.00672 13.783715 22.659232 13.783715 L 22.659232 14.015381 C 23.00672 14.015381 23.354212 14.015375 23.701703 14.000896 L 23.687218 13.76924 Z " fill="#aec3ff"/>
<path transform="matrix(1,0,0,-1,84.924808,157.87818)" d="M 7.499986 .000042 C 7.138018 .014519 6.776049 .086926 6.414081 .246189 L 6.515434 .463371 C 6.833966 .318584 7.166975 .246178 7.499986 .231697 L 7.499986 .000042 Z M 8.585892 .202747 L 8.499023 .41993 C 8.803077 .535759 9.092648 .709499 9.382223 .941158 L 9.52701 .752945 C 9.222957 .506809 8.904425 .318577 8.585892 .202747 Z M 5.487447 .82534 C 5.226829 1.042522 4.966205 1.303127 4.720066 1.592701 L 4.908297 1.751965 C 5.154436 1.462391 5.40057 1.216255 5.646709 1.013554 L 5.487447 .82534 Z M 10.323341 1.520309 L 10.135119 1.679573 C 10.352301 1.925709 10.569485 2.215294 10.772187 2.519344 L 10.974884 2.389034 C 10.772182 2.056023 10.540523 1.766449 10.323341 1.520309 Z M 4.068523 2.475903 C 3.880299 2.765476 3.692077 3.069534 3.518332 3.402546 L 3.735513 3.518383 C 3.909258 3.185371 4.097484 2.88131 4.271229 2.606216 L 4.068523 2.475903 Z M 11.539558 3.301201 L 11.322378 3.417019 C 11.481644 3.706596 11.640908 4.039619 11.800175 4.372631 L 12.017356 4.271271 C 11.872568 3.938259 11.698825 3.605255 11.539558 3.301201 Z M 3.040536 4.372631 C 2.895748 4.691166 2.750957 5.024162 2.620649 5.371651 L 2.83783 5.458538 C 2.968138 5.111046 3.112929 4.792507 3.257717 4.473976 L 3.040536 4.372631 Z M 12.451717 5.270306 L 12.234536 5.357174 C 12.364845 5.675709 12.480672 6.008724 12.61098 6.356213 L 12.842646 6.283817 C 12.697858 5.936329 12.582026 5.58884 12.451717 5.270306 Z M 2.244205 6.385162 C 2.128375 6.718174 2.012547 7.065678 1.911196 7.413166 L 2.142852 7.485561 C 2.244203 7.138073 2.360031 6.790581 2.475861 6.47205 L 2.244205 6.385162 Z M 13.16118 7.297329 L 12.929515 7.369724 C 13.030866 7.702736 13.132216 8.05022 13.21909 8.397713 L 13.450754 8.339794 C 13.363882 7.977825 13.262531 7.630341 13.16118 7.297329 Z M 1.621621 8.441154 C 1.534748 8.774166 1.447878 9.136127 1.361005 9.483616 L 1.592662 9.541534 C 1.679534 9.194046 1.766405 8.846561 1.853277 8.499073 L 1.621621 8.441154 Z M 13.725845 9.382275 L 13.494189 9.440193 C 13.581061 9.773201 13.653452 10.135162 13.725845 10.482655 L 13.95751 10.43922 C 13.885117 10.077251 13.798239 9.715282 13.725845 9.382275 Z M 1.12934 10.540573 C 1.056946 10.888062 .984558 11.23555 .926643 11.597519 L 1.158299 11.640953 C 1.216214 11.293465 1.288612 10.931496 1.361005 10.584007 L 1.12934 10.540573 Z M 14.174691 11.481689 L 13.943027 11.525124 C 14.000941 11.872616 14.073334 12.220104 14.131248 12.582071 L 14.362913 12.538637 C 14.29052 12.191147 14.232607 11.829182 14.174691 11.481689 Z M .738412 12.654465 C .680497 13.001955 .622586 13.363922 .57915 13.711411 L .810806 13.74037 C .854242 13.378403 .912162 13.030914 .970077 12.683424 L .738412 12.654465 Z M 14.522176 13.610058 L 14.29052 13.639017 C 14.333956 13.986507 14.39187 14.348475 14.435308 14.695965 L 14.666964 14.667013 C 14.609049 14.319523 14.565612 13.957548 14.522176 13.610058 Z M .434362 14.782843 C .390926 15.130331 .347492 15.492294 .318534 15.854263 L .564674 15.883223 C .593632 15.521254 .637066 15.173769 .680503 14.811802 L .434362 14.782843 Z M 14.782792 15.738436 L 14.53666 15.767395 C 14.565618 16.114884 14.609047 16.476857 14.638004 16.838826 L 14.884145 16.82434 C 14.840709 16.462372 14.811749 16.100403 14.782792 15.738436 Z M .231656 16.925694 C .202699 17.273184 .173741 17.635155 .159263 17.997124 L .405403 18.011599 C .43436 17.649632 .448839 17.302138 .477797 16.940169 L .231656 16.925694 Z M 14.956538 17.881287 L 14.710398 17.895771 C 14.739355 18.243262 14.753838 18.605225 14.768316 18.967194 L 15.014457 18.952717 C 14.999978 18.605229 14.985496 18.243256 14.956538 17.881287 Z M .086869 19.068547 C .07239 19.416035 .057913 19.778008 .043434 20.139977 L .289575 20.154452 C .304054 19.792483 .318531 19.43052 .333009 19.08303 L .086869 19.068547 Z M 15.057891 20.038624 L 14.81175 20.053099 C 14.82623 20.400589 14.826231 20.76256 14.84071 21.124529 L 15.08685 21.124529 C 15.08685 20.748082 15.07237 20.386113 15.057891 20.038624 Z M .014475 21.211398 C .014475 21.544409 0 21.877425 0 22.210434 L 0 22.297305 L .24614 22.297305 L .24614 22.210434 C .24614 21.877425 .246137 21.544415 .260616 21.225882 L .014475 21.211398 Z M 15.101326 22.181475 L 14.855186 22.181475 L 14.855186 22.210434 C 14.855186 22.557925 14.855189 22.905417 14.84071 23.252905 L 15.08685 23.252905 C 15.08685 22.905417 15.101326 22.557925 15.101326 22.210434 L 15.101326 22.181475 Z M .260616 23.368735 L .014475 23.368735 C .014475 23.730702 .028956 24.092675 .043434 24.440165 L .289575 24.42568 C .275096 24.07819 .275094 23.716223 .260616 23.368735 Z M 14.826235 24.324328 C 14.811756 24.686297 14.797271 25.033789 14.782792 25.395758 L 15.028932 25.410233 C 15.04341 25.048264 15.057888 24.6863 15.072367 24.338812 L 14.826235 24.324328 Z M .333009 25.511586 L .086869 25.52607 C .101348 25.888039 .130309 26.250002 .144787 26.597493 L .390928 26.583016 C .376449 26.221049 .347488 25.859076 .333009 25.511586 Z M 14.724882 26.467188 C 14.695925 26.829157 14.681446 27.176642 14.652489 27.53861 L 14.898628 27.553093 C 14.927587 27.205605 14.95654 26.843632 14.985497 26.481663 L 14.724882 26.467188 Z M .477797 27.639964 L .231656 27.654438 C .260614 28.016407 .289573 28.378378 .333009 28.725869 L .57915 28.696909 C .535713 28.363898 .506754 28.00193 .477797 27.639964 Z M 14.53666 28.595557 C 14.507703 28.957524 14.464259 29.305018 14.420823 29.666987 L 14.652489 29.695946 C 14.695925 29.348456 14.739359 28.986485 14.768316 28.624516 L 14.53666 28.595557 Z M .694978 29.76834 L .463322 29.797299 C .506758 30.159268 .550194 30.506752 .608109 30.868721 L .839765 30.83976 C .796329 30.492272 .738414 30.130309 .694978 29.76834 Z M 14.29052 30.723933 C 14.247084 31.085902 14.189163 31.43339 14.131248 31.78088 L 14.362913 31.824322 C 14.420829 31.476834 14.47874 31.114857 14.522176 30.767369 L 14.29052 30.723933 Z M .999037 31.896718 L .767372 31.940152 C .825287 32.30212 .8832 32.649606 .955593 32.997098 L 1.187259 32.953664 C 1.129344 32.60617 1.056952 32.244207 .999037 31.896718 Z M 13.943027 32.837835 C 13.870633 33.185327 13.812723 33.54729 13.74033 33.89478 L 13.971986 33.938219 C 14.044379 33.590726 14.116776 33.243238 14.174691 32.881269 L 13.943027 32.837835 Z M 1.40444 33.99613 L 1.172775 34.039567 C 1.245168 34.401536 1.332046 34.749025 1.40444 35.096517 L 1.636096 35.038599 C 1.549224 34.705587 1.476833 34.343626 1.40444 33.99613 Z M 13.508664 34.937253 C 13.421792 35.28474 13.334921 35.632226 13.248049 35.979715 L 13.479705 36.037633 C 13.566577 35.70462 13.653457 35.34265 13.74033 34.995164 L 13.508664 34.937253 Z M 1.896712 36.081068 L 1.665055 36.138986 C 1.766406 36.486478 1.867754 36.83396 1.969105 37.166975 L 2.20077 37.094579 C 2.099419 36.776048 1.998063 36.42856 1.896712 36.081068 Z M 12.943998 37.00771 C 12.842648 37.3552 12.72681 37.70269 12.61098 38.02122 L 12.842646 38.093618 C 12.958475 37.760606 13.074304 37.41311 13.175654 37.06562 L 12.943998 37.00771 Z M 2.53378 38.122575 L 2.302124 38.19497 C 2.417953 38.542459 2.548259 38.87547 2.678567 39.20848 L 2.895748 39.121606 C 2.779918 38.80307 2.64961 38.470067 2.53378 38.122575 Z M 12.249012 39.02025 C 12.118703 39.36774 11.973921 39.68628 11.829134 40.00481 L 12.046315 40.106157 C 12.191102 39.787626 12.335884 39.454618 12.466193 39.10713 L 12.249012 39.02025 Z M 3.330111 40.09168 L 3.112929 40.19303 C 3.272196 40.526044 3.431465 40.85906 3.60521 41.16311 L 3.822391 41.04727 C 3.648646 40.757699 3.489377 40.43917 3.330111 40.09168 Z M 11.351336 40.960405 C 11.177592 41.27894 10.989362 41.59747 10.801138 41.872564 L 11.003843 42.002878 C 11.192067 41.713304 11.380289 41.409246 11.554034 41.076234 L 11.351336 40.960405 Z M 4.358098 41.959444 L 4.155401 42.089746 C 4.372582 42.408277 4.589759 42.697854 4.821419 42.95847 L 4.995166 42.799207 C 4.792463 42.53859 4.575279 42.263498 4.358098 41.959444 Z M 10.178554 42.71233 C 9.932415 43.001905 9.686275 43.248048 9.425657 43.45075 L 9.570445 43.638975 C 9.831062 43.42179 10.091682 43.175657 10.352301 42.8716 L 10.178554 42.71233 Z M 5.762537 43.50866 L 5.61775 43.69689 C 5.936282 43.943029 6.25482 44.11677 6.573352 44.24708 L 6.660221 44.015417 C 6.356168 43.914068 6.052112 43.74032 5.762537 43.50866 Z M 8.542458 43.986467 C 8.209447 44.116777 7.876437 44.189165 7.557905 44.189165 L 7.557905 44.435304 C 7.919873 44.435304 8.281842 44.362909 8.64381 44.21812 L 8.542458 43.986467 Z " fill="#aec3ff"/>
<path transform="matrix(1,0,0,-1,70.387699,135.73999)" d="M 44.189119 -.000083 L 44.087766 -.000083 L 44.087766 .15918 L 44.189119 .15918 L 44.189119 -.000083 Z M 43.37831 -.000083 L 42.66885 -.000083 L 42.66885 .15918 L 43.37831 .15918 L 43.37831 -.000083 Z M 41.959398 -.000083 L 41.249937 -.000083 L 41.249937 .15918 L 41.959398 .15918 L 41.959398 -.000083 Z M 40.54047 -.000083 L 39.83102 -.000083 L 39.83102 .15918 L 40.54047 .15918 L 40.54047 -.000083 Z M 39.121557 -.000083 L 38.412107 -.000083 L 38.412107 .15918 L 39.121557 .15918 L 39.121557 -.000083 Z M 37.688169 -.000083 L 36.978708 -.000083 L 36.978708 .15918 L 37.688169 .15918 L 37.688169 -.000083 Z M 36.269247 -.000083 L 35.55979 -.000083 L 35.55979 .15918 L 36.269247 .15918 L 36.269247 -.000083 Z M 34.850328 -.000083 L 34.140878 -.000083 L 34.140878 .15918 L 34.850328 .15918 L 34.850328 -.000083 Z M 33.43141 -.000083 L 32.707479 -.000083 L 32.707479 .15918 L 33.41694 .15918 L 33.41694 -.000083 L 33.43141 -.000083 Z M 31.998015 -.000083 L 31.28856 -.000083 L 31.28856 .15918 L 31.998015 .15918 L 31.998015 -.000083 Z M 30.5791 -.000083 L 29.869647 -.000083 L 29.869647 .15918 L 30.5791 .15918 L 30.5791 -.000083 Z M 29.160185 -.000083 L 28.450724 -.000083 L 28.450724 .15918 L 29.160185 .15918 L 29.160185 -.000083 Z M 27.74127 -.000083 L 27.031807 -.000083 L 27.031807 .15918 L 27.74127 .15918 L 27.74127 -.000083 Z M 26.30787 -.000083 L 25.598418 -.000083 L 25.598418 .15918 L 26.30787 .15918 L 26.30787 -.000083 Z M 24.888957 -.000083 L 24.179495 -.000083 L 24.179495 .15918 L 24.888957 .15918 L 24.888957 -.000083 Z M 23.470042 -.000083 L 22.76058 -.000083 L 22.76058 .15918 L 23.470042 .15918 L 23.470042 -.000083 Z M 22.051127 -.000083 L 21.341664 -.000083 L 21.341664 .15918 L 22.051127 .15918 L 22.051127 -.000083 Z M 20.617728 -.000083 L 19.908267 -.000083 L 19.908267 .15918 L 20.617728 .15918 L 20.617728 -.000083 Z M 19.198813 -.000083 L 18.489352 -.000083 L 18.489352 .15918 L 19.198813 .15918 L 19.198813 -.000083 Z M 17.779898 -.000083 L 17.070435 -.000083 L 17.070435 .15918 L 17.779898 .15918 L 17.779898 -.000083 Z M 16.360974 -.000083 L 15.651521 -.000083 L 15.651521 .15918 L 16.360974 .15918 L 16.360974 -.000083 Z M 14.927584 -.000083 L 14.218122 -.000083 L 14.218122 .15918 L 14.927584 .15918 L 14.927584 -.000083 Z M 13.508669 -.000083 L 12.799207 -.000083 L 12.799207 .15918 L 13.508669 .15918 L 13.508669 -.000083 Z M 12.089745 -.000083 L 11.380292 -.000083 L 11.380292 .15918 L 12.089745 .15918 L 12.089745 -.000083 Z M 10.67083 -.000083 L 9.961377 -.000083 L 9.961377 .15918 L 10.67083 .15918 L 10.67083 -.000083 Z M 9.23744 -.000083 L 8.527978 -.000083 L 8.527978 .15918 L 9.23744 .15918 L 9.23744 -.000083 Z M 7.818516 -.000083 L 7.109063 -.000083 L 7.109063 .15918 L 7.818516 .15918 L 7.818516 -.000083 Z M 6.399601 -.000083 L 5.690148 -.000083 L 5.690148 .15918 L 6.399601 .15918 L 6.399601 -.000083 Z M 4.980686 -.000083 L 4.271224 -.000083 L 4.271224 .15918 L 4.980686 .15918 L 4.980686 -.000083 Z M 3.547292 -.000083 L 2.837834 -.000083 L 2.837834 .15918 L 3.547292 .15918 L 3.547292 -.000083 Z M 2.128372 -.000083 L 1.418915 -.000083 L 1.418915 .15918 L 2.128372 .15918 L 2.128372 -.000083 Z M .709457 -.000083 L 0 -.000083 L 0 .15918 L .709457 .15918 L .709457 -.000083 Z " fill="#aec3ff"/>
<path transform="matrix(1,0,0,-1,92.39551,157.76245)" d="M .159271 .000095 L 0 .000095 L 0 .10144 L .159271 .10144 L .159271 .000095 Z M .159271 .810902 L 0 .810902 L 0 1.520363 L .159271 1.520363 L .159271 .810902 Z M .159271 2.229828 L 0 2.229828 L 0 2.93927 L .159271 2.93927 L .159271 2.229828 Z M .159271 3.648731 L 0 3.648731 L 0 4.358196 L .159271 4.358196 L .159271 3.648731 Z M .159271 5.067657 L 0 5.067657 L 0 5.777119 L .159271 5.777119 L .159271 5.067657 Z M .159271 6.501057 L 0 6.501057 L 0 7.210499 L .159271 7.210499 L .159271 6.501057 Z M .159271 7.91996 L 0 7.91996 L 0 8.629425 L .159271 8.629425 L .159271 7.91996 Z M .159271 9.338886 L 0 9.338886 L 0 10.04834 L .159271 10.04834 L .159271 9.338886 Z M .159271 10.757801 L 0 10.757801 L 0 11.467255 L .159271 11.467255 L .159271 10.757801 Z M .159271 12.191191 L 0 12.191191 L 0 12.900652 L .159271 12.900652 L .159271 12.191191 Z M .159271 13.610113 L 0 13.610113 L 0 14.319567 L .159271 14.319567 L .159271 13.610113 Z M .159271 15.029028 L 0 15.029028 L 0 15.738482 L .159271 15.738482 L .159271 15.029028 Z M .159271 16.447943 L 0 16.447943 L 0 17.157406 L .159271 17.157406 L .159271 16.447943 Z M .159271 17.881342 L 0 17.881342 L 0 18.590796 L .159271 18.590796 L .159271 17.881342 Z M .159271 19.300257 L 0 19.300257 L 0 20.00971 L .159271 20.00971 L .159271 19.300257 Z M .159271 20.719172 L 0 20.719172 L 0 21.428635 L .159271 21.428635 L .159271 20.719172 Z M .159271 22.138089 L 0 22.138089 L 0 22.84755 L .159271 22.84755 L .159271 22.138089 Z M .159271 23.571486 L 0 23.571486 L 0 24.28094 L .159271 24.28094 L .159271 23.571486 Z M .159271 24.9904 L 0 24.9904 L 0 25.699864 L .159271 25.699864 L .159271 24.9904 Z M .159271 26.409317 L 0 26.409317 L 0 27.118779 L .159271 27.118779 L .159271 26.409317 Z M .159271 27.828232 L 0 27.828232 L 0 28.537693 L .159271 28.537693 L .159271 27.828232 Z M .159271 29.261631 L 0 29.261631 L 0 29.971093 L .159271 29.971093 L .159271 29.261631 Z M .159271 30.680546 L 0 30.680546 L 0 31.390007 L .159271 31.390007 L .159271 30.680546 Z M .159271 32.09946 L 0 32.09946 L 0 32.80892 L .159271 32.80892 L .159271 32.09946 Z M .159271 33.518384 L 0 33.518384 L 0 34.227838 L .159271 34.227838 L .159271 33.518384 Z M .159271 34.951776 L 0 34.951776 L 0 35.661237 L .159271 35.661237 L .159271 34.951776 Z M .159271 36.37069 L 0 36.37069 L 0 37.08015 L .159271 37.08015 L .159271 36.37069 Z M .159271 37.78961 L 0 37.78961 L 0 38.499067 L .159271 38.499067 L .159271 37.78961 Z M .159271 39.208528 L 0 39.208528 L 0 39.91798 L .159271 39.91798 L .159271 39.208528 Z M .159271 40.64192 L 0 40.64192 L 0 41.35138 L .159271 41.35138 L .159271 40.64192 Z M .159271 42.06084 L 0 42.06084 L 0 42.770296 L .159271 42.770296 L .159271 42.06084 Z M .159271 43.479757 L 0 43.479757 L 0 44.18921 L .159271 44.18921 L .159271 43.479757 Z " fill="#aec3ff"/>
<path transform="matrix(1,0,0,-1,307.375,129.41309)" d="M 19.720074 11.105263 L 0 16.665095 L .333018 23.354275 L 29.695914 42.770265 L 37.195909 40.656373 L 30.217162 15.912197 L 35.6322 14.377455 L 33.605176 7.167042 L 28.190138 8.701786 L 25.728753 .000065 L 17.244196 2.389057 L 19.720074 11.105263 Z M 21.747099 18.315674 L 25.29439 30.88322 L 11.018336 21.327252 L 21.747099 18.315674 Z " fill="#aec3ff" fill-opacity=".5"/>
<path transform="matrix(1,0,0,-1,124.5957,82.4729)" d="M 11.684346 2.287655 L 14.276035 11.192081 C 18.619658 9.744209 22.384127 9.440151 26.018292 11.03281 C 30.231606 12.886089 31.96906 16.100373 30.332964 19.850367 C 28.78374 23.368702 24.903439 24.107117 20.617732 22.22488 C 18.040516 21.095538 15.999011 19.358092 14.435308 17.693036 L 7.702693 18.865815 L 0 39.599374 L 25.207486 50.661134 L 28.682385 42.74126 L 11.221025 35.067529 L 13.870633 27.77024 C 15.332986 28.899584 16.665036 29.840699 18.952677 30.839734 C 26.930462 34.34359 35.009607 33.272165 39.136049 23.904416 C 42.943956 15.231647 39.208429 7.022205 29.76829 2.866806 C 23.180462 .000015 17.345534 .231674 11.684346 2.287655 Z " fill="#f99746"/>
<path transform="matrix(1,0,0,-1,272.88673,123.38989)" d="M 7.746169 13.725844 C 7.760648 14.015419 7.977836 17.17179 12.784778 17.331055 C 12.784778 17.331055 10.424747 17.055962 10.019341 16.013493 C 10.019341 16.013493 11.626475 17.302102 12.94404 16.882218 C 14.247128 16.462334 15.028983 14.174689 15.028983 13.421795 C 15.043462 12.6689 14.305053 10.236471 13.479765 10.01929 C 13.161232 9.946897 12.799264 9.961375 12.466252 10.01929 C 12.683434 9.671801 12.900615 9.295353 13.117796 8.860991 C 15.02899 4.922773 13.059867 1.085909 11.438248 1.505792 C 10.395779 1.780888 10.106211 0 10.106211 0 L .000042 8.180489 C -.014436 8.194967 3.692122 15.883177 7.746169 13.725844 Z " fill="#2c3a64"/>
<path transform="matrix(1,0,0,-1,258.5088,156.6643)" d="M 2.389733 .306343 C 5.343396 .595917 8.861719 1.117149 10.251678 1.985872 C 12.380054 3.28896 16.072136 8.747458 18.345299 12.729113 C 18.417693 12.830463 18.562487 14.843006 18.605923 14.944358 C 19.79318 17.058255 20.328898 15.755169 20.40129 17.434704 C 20.444727 18.462695 20.343373 19.331414 20.12619 20.098786 C 19.851096 21.112299 19.387768 21.908635 18.924448 22.502264 C 18.866534 22.603615 18.794144 22.690482 18.692793 22.777356 C 17.91094 23.703993 17.143574 24.094925 17.143574 24.094925 C 16.752648 24.25419 16.33275 24.065968 15.898388 23.58817 L 15.898388 23.573685 C 15.536419 23.197237 15.1455 22.632567 14.783532 21.90863 C 14.769053 21.894152 14.754581 21.879673 14.754581 21.865195 C 14.667708 21.720408 14.595308 21.561139 14.493957 21.372914 C 14.464999 21.343956 14.450517 21.286044 14.436038 21.257086 C 14.262294 20.880639 14.074077 20.489716 13.900332 20.084313 C 11.902266 15.72621 10.396474 8.53028 8.630067 6.561171 C 7.862694 5.721403 3.750728 4.664444 .970809 3.419271 C -1.056215 2.550549 .420624 .10364 2.389733 .306343 Z " fill="#ffb27d"/>
<path transform="matrix(1,0,0,-1,277.11427,226.3916)" d="M 0 .796387 L 2.142843 .000053 C 2.142843 .000053 11.467156 12.944054 12.625456 24.32434 C 12.828158 26.351368 12.755768 28.320469 12.321405 30.14479 C 12.321405 30.14479 12.408271 30.666024 12.567537 31.592663 C 12.639931 32.027029 12.726807 32.53378 12.842637 33.127408 C 13.14669 34.864858 13.566581 37.239385 14.044379 39.946908 C 15.144764 46.172769 16.56368 54.136075 17.664065 59.999967 L 17.084916 60.18818 L 10.815613 62.215204 L 9.527001 66.32717 L 4.864854 67.55786 C 4.864854 67.55786 3.822388 65.516368 2.895748 55.888 C 2.722003 54.62835 2.562741 53.23838 2.446911 51.718118 C 2.084942 47.113878 2.055981 41.39477 2.895748 34.85038 C 3.112929 33.170846 3.37354 31.447884 3.72103 29.681477 C 3.967168 28.378392 3.996136 26.611977 3.894785 24.570473 C 3.416986 15.260643 0 .796387 0 .796387 Z " fill="#2c47f8"/>
<path transform="matrix(1,0,0,-1,279.56153,194.81348)" d="M 0 20.125479 L 10.120626 .000027 C 10.19302 .434391 10.279896 .941143 10.395726 1.534771 C 10.69978 3.272221 11.11967 5.646729 11.597468 8.354254 C 12.697853 14.580112 14.11677 22.54342 15.217154 28.40731 L 14.638004 28.595543 L 8.368702 30.622567 L 7.080091 34.73453 L .694969 36.414064 C .694969 36.414064 0 23.976824 0 20.125479 Z " fill="#94b0ed"/>
<path transform="matrix(1,0,0,-1,284.00587,228.0857)" d="M 0 66.645587 L .231656 68.658138 C 4.155396 67.61567 14.652479 71.56836 14.652479 71.56836 C 14.652479 71.56836 18.460396 68.22377 17.95364 60.202547 C 17.7075 56.29329 17.25866 39.657205 16.79534 34.748914 C 16.621596 32.96803 16.476794 31.693902 16.418879 31.187146 C 16.4044 31.027878 16.447844 30.883091 16.534716 30.752785 C 17.215218 29.594483 17.77991 28.378266 18.257708 27.147572 C 22.81851 14.985432 17.548228 -.000069 17.548228 -.000069 L 16.18724 .550133 C 16.18724 .550133 13.190141 17.229641 10.757712 24.584843 C 10.337829 25.830014 9.946888 26.814568 9.58492 27.4082 C 8.527971 29.116688 7.543428 31.911087 6.645746 35.22672 C 4.966212 41.51049 3.605203 49.676507 2.693043 55.989236 C 2.577213 55.97476 0 66.645587 0 66.645587 Z " fill="#2c47f8"/>
<path transform="matrix(1,0,0,-1,276.50587,138.49121)" d="M 0 1.433435 C 1.230693 .868765 2.722014 .477832 4.517378 .37648 C 11.264471 .000032 12.799214 5.921838 13.07431 9.860056 C 12.104235 10.207546 11.24999 10.178589 10.757712 10.149632 C 10.569489 10.135153 10.395737 10.120675 10.207513 10.106196 C 9.541491 10.048282 8.889947 10.337858 8.470064 10.859093 C 7.702691 11.843647 6.805016 13.610052 6.196908 16.04248 L 5.907334 15.912177 L 1.04248 13.624529 C 1.04248 13.624529 1.563708 12.046351 1.940155 10.526083 C 2.099421 9.87454 2.244209 9.222994 2.302124 8.730716 C 2.360039 8.252917 2.099421 7.804074 1.65058 7.615851 C 1.621623 7.485542 .564671 4.778025 0 1.433435 Z " fill="#ffb27d"/>
<path transform="matrix(1,0,0,-1,277.56349,127.96509)" d="M 0 3.098338 C 0 3.098338 .521228 1.520161 .897675 -.000107 C 3.749987 .796224 4.604236 3.793325 4.864853 5.385986 L 0 3.098338 Z " fill="#ed985f"/>
<path transform="matrix(1,0,0,-1,272.61134,127.55054)" d="M 4.343623 1.004393 C 4.343623 1.004393 11.163099 2.582572 10.106151 6.810365 C 9.063682 11.038157 9.237423 14.093171 4.835886 13.253405 C .448827 12.428116 0 10.603798 0 9.112488 C .014479 7.621177 2.548259 .700339 4.343623 1.004393 Z " fill="#ffb27d"/>
<path transform="matrix(1,0,0,-1,271.94435,122.87158)" d="M .305126 6.836883 C 1.043542 8.37163 1.897781 8.284762 2.433494 8.009666 C 5.633296 10.977809 8.775189 8.545382 8.775189 8.545382 C 9.976925 5.620676 12.597564 4.433415 12.597564 4.433415 C 12.597564 4.433415 11.555101 3.361986 8.514565 3.390944 C 7.587926 3.390944 6.661294 3.825306 5.807048 4.404456 C 7.443146 2.753879 9.35434 1.754848 9.35434 1.754848 C 5.560909 2.478785 3.012637 6.880319 2.752019 7.343639 C 2.433487 6.86584 1.810912 5.852335 1.767475 4.99809 C 1.695082 3.83979 2.100479 1.581104 1.434457 1.494232 C 1.434457 1.523189 -.795258 4.534763 .305126 6.836883 Z " fill="#2c3a64"/>
<path transform="matrix(1,0,0,-1,272.37989,164.12598)" d="M 23.614842 15.369188 C 23.383183 15.644285 23.165997 15.919384 22.977774 16.223439 C 22.514454 16.99081 22.2104 17.845063 22.109049 18.742743 C 21.732602 22.275557 21.877383 25.605664 21.848425 27.61821 C 21.471978 27.893307 21.110005 28.153922 20.776995 28.385582 C 20.270239 28.762028 19.80692 29.109522 19.473908 29.457013 C 19.111939 29.847939 18.88029 30.238863 18.851332 30.687705 C 18.836853 31.020716 18.836846 31.368203 18.880284 31.71569 C 18.894762 31.874958 18.923724 32.048707 18.938202 32.207975 C 19.198819 33.916467 19.922762 35.480165 19.922762 35.480165 C 18.11292 36.218584 13.943035 35.74078 13.943035 35.74078 C 13.943035 35.74078 13.523145 32.309324 11.944962 30.904887 C 11.307898 30.340214 7.78957 28.35662 6.196908 30.383646 C 5.545365 31.208935 6.110043 33.337316 6.167958 33.51106 C 6.167958 33.51106 3.445944 32.671285 1.867761 31.151017 C .839771 30.151986 .246139 28.284232 0 27.545815 C 0 27.545815 1.201736 27.603728 2.171811 26.908749 C 1.983588 25.576704 1.896719 24.070919 2.446911 22.623044 C 2.504826 22.492737 2.548273 22.362429 2.620666 22.21764 C 4.329158 18.540041 7.499995 3.279438 7.499995 3.279438 C 8.470071 .325775 28.117716 3.815151 28.161152 6.319975 C 28.899569 8.984064 25.511557 13.240814 23.614842 15.369188 Z " fill="#f99746"/>
<path transform="matrix(1,0,0,-1,283.66993,155.76416)" d="M 1.871241 .05784 C 6.02664 .101276 9.544981 4.415945 11.687835 7.861886 C 11.224515 8.629259 10.920462 9.483508 10.81911 10.38119 C 10.442663 13.914003 10.587443 17.244112 10.558486 19.256657 C 10.182038 19.531754 9.820066 19.792368 9.487056 20.024029 C 8.980299 20.400477 8.51698 20.747969 8.183969 21.095459 C 4.795944 15.361877 -3.760989 -.000074 1.871241 .05784 Z " fill="#ed7d2b"/>
<path transform="matrix(1,0,0,-1,293.62013,229.20044)" d="M 0 -.000088 L 10.815631 -.000088 C 10.815631 -.000088 11.076234 1.650489 10.511563 2.895661 C 9.975849 4.097396 9.121611 4.647585 9.324313 6.095459 C 8.643812 5.386001 7.514463 4.589666 5.950759 4.806848 C 5.762536 4.502794 4.720066 2.837749 4.068523 2.374429 C 3.373543 1.867673 .217181 2.041415 0 -.000088 Z " fill="#304b77"/>
<path transform="matrix(1,0,0,-1,270.39649,229.20044)" d="M 0 .000006 L 10.815613 .000006 C 10.815613 .000006 11.221022 1.722976 10.511563 2.895754 C 9.888977 3.938223 10.120637 4.531845 10.583957 5.38609 C 10.09168 5.183388 9.454618 5.009657 8.759639 5.038615 C 8.223926 5.067572 7.644779 5.313697 7.152502 5.603271 C 6.689182 5.067558 4.691109 2.808888 4.068523 2.360048 C 3.359065 1.86777 .217181 2.041508 0 .000006 Z " fill="#304b77"/>
<path transform="matrix(1,0,0,-1,160.5752,236.0188)" d="M 0 27.754631 L 17.533753 47.590509 C 26.061732 38.888788 33.590688 34.443826 44.49318 33.14074 C 60.376359 31.2585 70.30877 42.24785 74.218029 59.40516 C 67.29719 54.786439 58.204538 52.310586 46.9256 53.657106 C 18.83684 56.987215 2.577213 74.66576 5.733578 101.27769 C 8.832028 127.32494 31.245125 144.14923 60.448747 140.68881 C 77.823238 138.61835 87.48056 133.17435 96.10989 122.21394 C 104.24695 111.87612 108.67744 97.1078 105.60795 71.24877 C 100.62726 29.303856 77.446788 3.010468 40.685266 7.383057 C 21.833943 9.612778 9.831066 17.41681 0 27.754631 Z M 78.85123 93.71978 C 80.21223 105.17247 72.69776 114.49678 58.47964 116.190799 C 44.43526 117.85585 35.530828 110.67438 34.12639 98.845249 C 32.765386 87.39256 40.323297 78.43022 54.367677 76.76517 C 68.397579 75.10011 77.49022 82.2671 78.85123 93.71978 Z " fill="#2c47f8"/>
<path transform="matrix(1,0,0,-1,268.94825,160.34644)" d="M 0 1.729748 L .434362 .050219 C .434362 .050219 5.834933 1.179556 7.02219 1.440174 L 7.036665 1.440174 C 9.063688 1.932451 11.35133 2.511604 13.262524 3.163147 C 14.609047 3.640945 15.781828 4.133215 16.57816 4.639973 C 16.665032 4.683409 16.722943 4.74132 16.809817 4.799234 C 18.706532 6.174715 20.965218 10.243252 22.731625 14.601353 C 22.977763 15.209459 23.20943 15.803087 23.42661 16.382237 C 24.237421 18.554047 24.888955 20.711382 25.279879 22.564661 C 25.526019 23.665045 25.685284 24.678555 25.714241 25.503844 C 25.72872 25.793419 25.743195 26.068516 25.728716 26.329134 C 25.699759 31.049204 23.354218 31.686268 23.354218 31.686268 C 23.310782 31.700747 23.252852 31.715224 23.194937 31.729702 C 22.789532 31.787617 22.36966 31.51252 21.920819 30.976807 C 21.370627 30.310784 20.776999 29.224877 20.183369 27.90731 C 19.25673 25.807894 18.28665 23.100375 17.37449 20.392849 C 16.867733 18.91602 16.389943 17.439183 15.897665 16.063702 C 15.622569 15.238415 15.347459 14.456566 15.086842 13.732628 C 14.580086 12.371628 14.131259 11.25676 13.725854 10.561781 C 13.465237 10.11294 12.712336 9.475876 11.72778 8.751938 C 10.00481 7.550201 0 1.729748 0 1.729748 Z " fill="#ffb27d"/>
<path transform="matrix(1,0,0,-1,288.66798,134.31519)" d="M 0 1.731348 C 3.127408 2.600072 6.02317 .326908 6.02317 .326908 C 5.979734 5.032499 3.634178 5.684042 3.634178 5.684042 C 2.69306 6.06049 1.114863 4.250648 0 1.731348 Z " fill="#f99746"/>
<path transform="matrix(1,0,0,-1,264.9668,166.07324)" d="M 5.024116 8.064697 C 5.024116 8.064697 2.273162 6.993281 1.737449 6.573398 C 1.201735 6.153514 .188224 4.792505 0 4.068568 C 0 4.068568 .014479 3.778993 .289575 3.778993 C .564671 3.778993 1.187264 4.835938 1.636105 4.662193 C 1.636105 4.662193 1.056948 3.272237 .723937 2.910269 C .390926 2.562779 .188231 .78189 .260624 .390964 C .333018 .000038 2.64961 1.838845 3.619685 2.678612 C 4.14092 3.127453 4.126438 4.19888 4.285704 5.429573 C 4.430491 6.501 7.384158 7.123579 7.384158 7.123579 L 5.024116 8.064697 Z " fill="#ffb27d"/>
<path transform="matrix(1,0,0,-1,110.59473,217.28443)" d="M 41.669816 .000114 L 0 .000114 L 0 15.839844 L 41.814607 15.839844 C 45.188154 15.839844 47.939119 13.103373 47.939119 9.715347 L 47.939119 6.254924 C 47.939119 2.794505 45.130239 .000114 41.669816 .000114 Z " fill="#fcecdb"/>
<path transform="matrix(1,0,0,-1,108.350589,217.28467)" d="M 85.93133 9.324409 L 85.93133 6.935418 C 85.93133 5.661288 85.612789 4.474035 85.04811 3.446045 C 83.91877 1.390063 81.83384 .000114 79.44485 .000114 L .955602 .000114 C .434368 .000114 .014484 .448941 .014484 .999134 L .014484 1.361102 C .014484 1.911294 .434368 2.360139 .955602 2.360139 L 48.80784 2.360139 C 49.068456 2.69315 49.285634 3.055119 49.473859 3.446045 C 49.9227 4.343726 50.168844 5.386199 50.168844 6.472105 L 50.168844 9.498165 C 50.168844 10.048357 50.096445 10.598547 49.980615 11.105303 C 49.76343 11.974027 49.38699 12.77035 48.865758 13.450851 L .941118 13.450851 C .419883 13.450851 0 13.899693 0 14.464363 L 0 14.826332 C 0 15.376524 .419883 15.839844 .941118 15.839844 L 79.83577 15.839844 C 82.615688 15.839844 84.96124 13.841781 85.68518 11.119778 C 85.84445 10.540628 85.93133 9.946996 85.93133 9.324409 Z " fill="#699dee"/>
<path transform="matrix(1,0,0,-1,108.350589,206.1648)" d="M 85.69967 .00006 L 49.980619 .00006 C 49.763437 .868784 49.386999 1.665126 48.86576 2.345627 L .941118 2.345627 C .419884 2.345627 0 2.794468 0 3.359139 L 0 3.721107 C 0 4.271299 .419884 4.734619 .941118 4.734619 L 79.83578 4.734619 C 82.61569 4.72014 84.96125 2.722063 85.69967 .00006 Z " fill="#548ee2"/>
<path transform="matrix(1,0,0,-1,110.59473,209.79883)" d="M 0 .434326 L 5.80598 .159227 L 0 -.000036 L 0 .434326 Z " fill="#f4d2b8"/>
<path transform="matrix(1,0,0,-1,110.59473,212.2749)" d="M 0 .419922 L 13.827198 .159297 L 0 .000035 L 0 .419922 Z " fill="#f4d2b8"/>
<path transform="matrix(1,0,0,-1,118.68848,229.57666)" d="M 5.907325 -.000116 L 46.82425 -.000116 L 46.82425 12.321289 L 5.545357 12.321289 C 2.475863 12.321289 0 9.830938 0 6.775924 L 0 5.921692 C 0 2.649497 2.635129 -.000116 5.907325 -.000116 Z " fill="#505aba"/>
<path transform="matrix(1,0,0,-1,157.78125,229.57666)" d="M 5.762607 -.000116 L 52.398633 -.000116 L 52.398633 12.321289 L 5.64677 12.321289 C 2.53384 12.321289 .000061 9.787509 .000061 6.67458 L .000061 5.776905 C -.014418 2.591581 2.562805 -.000116 5.762607 -.000116 Z " fill="#fcecdb"/>
<path transform="matrix(1,0,0,-1,153.82813,229.5769)" d="M .854249 .000074 L 57.914968 .000074 C 58.392766 .000074 58.769216 .391004 58.769216 .854323 L 58.769216 .984618 C 58.769216 1.462416 58.378286 1.838867 57.914968 1.838867 L .854249 1.838867 C .376451 1.838867 0 1.447938 0 .984618 L 0 .854323 C 0 .391004 .376451 .000074 .854249 .000074 Z " fill="#505aba"/>
<path transform="matrix(1,0,0,-1,153.82813,219.09424)" d="M .854249 .000074 L 57.914968 .000074 C 58.392766 .000074 58.769216 .390986 58.769216 .854306 L 58.769216 .984618 C 58.769216 1.462416 58.378286 1.838867 57.914968 1.838867 L .854249 1.838867 C .376451 1.838867 0 1.447938 0 .984618 L 0 .854306 C 0 .376507 .376451 .000074 .854249 .000074 Z " fill="#505aba"/>
<path transform="matrix(1,0,0,-1,203.80957,223.74195)" d="M 6.356171 .333008 L 0 .130302 L 6.356171 -.00001 L 6.356171 .333008 Z " fill="#f4d2b8"/>
<path transform="matrix(1,0,0,-1,195.0498,220.90406)" d="M 15.115809 .333008 L 0 .115827 L 15.115809 .000007 L 15.115809 .333008 Z " fill="#f4d2b8"/>
<path transform="matrix(1,0,0,-1,195.20801,226.406)" d="M 0 5.661133 C 0 5.661133 .651543 5.125409 .868724 4.256684 C .912161 4.097418 .926639 3.938166 .941118 3.764421 C .970076 2.606122 .941118 -.000051 .941118 -.000051 L 2.852323 1.303035 L 4.76351 -.000051 L 4.76351 3.54724 C 4.76351 4.213262 4.60425 4.864802 4.300197 5.299164 C 4.155409 5.501867 3.967189 5.661133 3.778966 5.661133 L 0 5.661133 Z " fill="#f99746"/>
<path transform="matrix(1,0,0,-1,195.20801,222.20728)" d="M 0 1.462402 C 0 1.462402 .651543 .926678 .868724 .057954 L 4.705591 .000053 C 4.705591 .000053 4.560803 1.245225 3.764473 1.447927 L 0 1.447927 L 0 1.462402 Z " fill="#ed7d2b"/>
<path transform="matrix(1,0,0,-1,114.93652,201.48804)" d="M 44.015386 -.000038 L 0 -.000038 L 0 18.098389 L 44.16017 18.098389 C 47.881208 18.098389 50.90726 15.086814 50.90726 11.351299 L 50.90726 6.891839 C 50.90726 3.08393 47.82329 -.000038 44.015386 -.000038 Z " fill="#fcecdb"/>
<path transform="matrix(1,0,0,-1,112.57617,201.50244)" d="M 53.296247 11.090674 L 53.296247 7.195889 C 53.281766 5.530834 52.441995 4.082952 51.211305 3.315579 C 50.603197 2.939132 49.908224 2.721954 49.155328 2.721954 L 1.027987 2.721954 C .463316 2.721954 0 2.215209 0 1.592623 L 0 1.129293 C 0 .506706 .463316 -.000038 1.027987 -.000038 L 84.193889 -.000038 C 86.58288 -.000038 88.6823 1.303038 89.95643 3.301105 C 90.75276 4.560755 91.230548 6.095512 91.230548 7.746088 L 91.230548 10.815575 C 91.230548 11.944916 90.998889 13.016347 90.579 13.986423 C 89.507579 16.418852 87.24889 18.098389 84.62824 18.098389 L 1.027987 18.098389 C .463316 18.098389 0 17.591626 0 16.96904 L 0 16.505728 C 0 15.883142 .463316 15.376378 1.027987 15.376378 L 49.31459 15.376378 C 50.47289 15.376378 51.51537 14.840672 52.239309 13.971947 C 52.89085 13.233532 53.281766 12.220016 53.296247 11.090674 Z " fill="#f99746"/>
<path transform="matrix(1,0,0,-1,112.57617,201.48804)" d="M 0 1.592544 L 0 1.129214 C 0 .506628 .463316 -.000117 1.027987 -.000117 L 84.193889 -.000117 C 86.58288 -.000117 88.6823 1.302959 89.95643 3.301025 L 51.211305 3.301025 C 50.603197 2.924578 49.908224 2.707401 49.155328 2.707401 L 1.027987 2.707401 C .463316 2.707401 0 2.200652 0 1.592544 Z " fill="#ed7d2b"/>
<path transform="matrix(1,0,0,-1,114.93652,192.91675)" d="M 0 .477783 L 6.16795 .173733 L 0 -.000022 L 0 .477783 Z " fill="#f4d2b8"/>
<path transform="matrix(1,0,0,-1,114.93652,188.76123)" d="M 0 .492188 L 14.681447 .188137 L 0 -.000076 L 0 .492188 Z " fill="#f4d2b8"/>
<path transform="matrix(1,0,0,-1,151.09082,194.63965)" d="M 7.109058 6.124512 C 7.109058 6.124512 6.138979 5.545362 5.820447 4.604244 C 5.762532 4.444978 5.733582 4.256758 5.719103 4.083013 C 5.661188 2.823362 5.719103 -.000003 5.719103 -.000003 L 2.852305 1.418921 L 0 -.000003 L 0 3.836864 C 0 4.560801 .246146 5.270273 .694987 5.733593 C .912168 5.950774 1.187264 6.124512 1.491318 6.124512 L 7.109058 6.124512 Z " fill="#f99746"/>
<path transform="matrix(1,0,0,-1,151.17774,190.09326)" d="M 7.02219 1.578125 C 7.02219 1.578125 6.052111 .998975 5.733578 .057857 L 0 -.000061 C 0 -.000061 .23167 1.346465 1.404449 1.578125 L 7.02219 1.578125 Z " fill="#ed7d2b"/>
<path transform="matrix(1,0,0,-1,208.4707,129.84741)" d="M 8.947852 8.484561 C 9.222948 8.166029 9.266395 7.804062 9.121607 7.427614 C 8.86099 6.718156 8.021219 5.936306 7.036665 5.139976 C 6.906356 5.038624 6.804998 4.951748 6.703647 4.864876 C 6.674689 4.835918 6.645732 4.821439 6.631253 4.792481 C 6.616774 4.778003 6.587813 4.76353 6.573335 4.734572 C 5.661174 3.894805 6.008674 3.692102 4.358098 1.983611 C 2.49034 .02898 1.201728 .000023 .825281 .173769 C .521228 .318556 1.143813 1.361019 1.838793 2.519318 C 1.867751 2.577232 1.91118 2.635149 1.940137 2.693065 C 2.02701 2.85233 2.128364 2.99712 2.215237 3.156385 C 3.040525 4.560823 2.823348 5.212363 2.635124 7.297302 C 2.475858 8.991315 0 16.751929 0 16.751929 L 3.590717 17.374512 C 3.590717 17.374512 4.676633 11.192087 5.86389 10.250969 C 6.500955 9.744213 7.21041 9.744217 7.832996 9.367769 C 7.876432 9.338812 7.919872 9.309849 7.963308 9.280891 C 8.310798 9.049232 8.658277 8.803093 8.947852 8.484561 Z " fill="#ffb27d"/>
<path transform="matrix(1,0,0,-1,209.2168,129.84741)" d="M 8.201675 8.484618 C 8.476771 8.166085 8.520218 7.804119 8.375431 7.427671 C 8.056899 6.718213 7.246086 5.936359 6.290489 5.154507 C 6.16018 5.053156 6.058822 4.951805 5.95747 4.864933 C 5.928513 4.835975 5.899556 4.821496 5.885077 4.792539 C 5.870598 4.77806 5.841637 4.763587 5.827158 4.734629 C 4.914998 3.894862 5.262498 3.69216 3.611922 1.983668 C 1.744164 .029038 .455552 .000081 .079105 .173825 C -.224949 .318613 .397637 1.361075 1.092617 2.519374 C 1.454585 2.649683 3.148595 3.344663 4.437202 4.980761 C 5.566545 6.414156 6.319446 8.267441 7.08682 9.338867 C 7.130256 9.30991 7.173696 9.280947 7.217132 9.251989 C 7.564621 9.049287 7.912101 8.80315 8.201675 8.484618 Z " fill="#233862"/>
<path transform="matrix(1,0,0,-1,177.7002,120.23364)" d="M 10.760703 1.114958 C 10.543522 .000095 8.965343 .188324 7.198936 .622686 C 5.43253 1.057048 5.852417 .535809 3.347595 .825383 C .842773 1.100479 .075403 2.041597 .003009 2.418045 C -.069384 2.751056 1.175777 2.866888 2.507821 3.026154 C 2.681566 3.040632 2.840832 3.069593 3.014577 3.084072 C 4.520366 3.272295 5.620754 4.242371 6.981755 5.038702 C 8.270364 5.791596 10.210522 8.861084 10.210522 8.861084 L 13.656452 8.585993 C 13.656452 8.585993 11.84662 5.835031 11.15164 4.647774 C 10.746235 3.952795 10.760707 3.011675 10.818622 2.302217 C 10.818622 1.911291 10.847576 1.505884 10.760703 1.114958 Z " fill="#ffb27d"/>
<path transform="matrix(1,0,0,-1,177.7002,120.218997)" d="M 7.198936 .608007 C 5.43253 1.042369 5.852417 .521129 3.347595 .810704 C .842773 1.0858 .075403 2.026918 .003009 2.403366 C -.069384 2.736377 1.175777 2.852208 2.507821 3.011475 L 2.522296 2.982515 C 2.522296 2.982515 4.028092 1.911087 6.113031 1.86765 C 7.821522 1.824214 9.61689 2.316491 10.804147 2.302013 C 10.833104 1.911087 10.862051 1.520164 10.775179 1.129238 C 10.543519 -.000104 8.965343 .173645 7.198936 .608007 Z " fill="#233862"/>
<path transform="matrix(1,0,0,-1,201.66602,120.085208)" d="M 0 22.988787 L 3.214273 14.330492 L 7.413109 3.022598 C 7.413109 3.022598 8.556932 2.906773 9.642838 3.225304 C 10.641871 3.514879 11.800175 4.282249 11.800175 4.282249 C 11.800175 4.282249 10.627382 16.42991 8.455571 23.408665 C 7.8909 25.20403 7.268328 26.651904 6.587827 27.462712 C 3.228759 31.429888 0 22.988787 0 22.988787 Z " fill="#ed7d2b"/>
<path transform="matrix(1,0,0,-1,185.91309,114.340579)" d="M 19.02507 31.013356 C 20.907307 31.621462 25.931424 30.984398 31.288558 29.999842 C 32.432378 29.782662 33.59067 30.303896 34.19878 31.302929 L 34.459405 31.722817 L 47.519224 32.73633 C 47.519224 32.73633 51.70358 23.223795 49.473855 17.099287 C 48.85127 15.376316 42.292406 15.173613 36.776006 15.622454 C 30.304007 16.143689 23.035676 20.081902 22.094557 20.270127 C 20.559809 20.57418 19.951699 17.504689 18.416953 14.290407 C 16.882206 11.061649 3.996129 .014374 3.996129 .014374 C 3.996129 .014374 2.012552 -.000107 1.201743 .303947 C .318539 .636959 0 1.056835 0 1.056835 C 0 1.056835 14.276043 29.478608 19.02507 31.013356 Z " fill="#f99746"/>
<path transform="matrix(1,0,0,-1,216.1123,75.46362)" d="M 2.479425 9.192438 C 6.417643 5.630669 15.46687 2.300558 15.524785 2.329515 C 15.524785 2.329515 18.594279 .259056 20.809527 1.084343 C 24.501605 2.445345 27.556609 7.744568 22.879975 14.028341 C 20.548899 17.15575 18.53636 18.25613 19.23134 22.223305 C 19.984234 26.52349 18.319182 32.06885 13.352974 32.54665 C 12.93309 32.590089 10.428262 33.053407 8.60394 32.590085 C 3.927307 31.38835 -4.079444 11.755177 2.479425 9.192438 Z " fill="#a9453d"/>
<path transform="matrix(1,0,0,-1,223.96289,62.361818)" d="M .0003 1.303131 C -.028657 1.288652 2.0418 .000045 3.706855 .304098 C 5.270559 .593673 6.732901 2.620698 6.718422 2.635177 C 6.081358 2.8234 5.661478 3.590773 5.98001 7.398682 L 5.67596 7.369727 L .680794 6.805052 C .680794 6.805052 .666312 5.255829 .550482 3.793476 C .46361 2.577261 .289875 1.418961 .0003 1.303131 Z " fill="#ffb27d"/>
<path transform="matrix(1,0,0,-1,224.52832,58.713136)" d="M .130312 3.156273 C .130312 3.156273 .11583 1.607049 0 .144696 C 2.750961 -.000091 4.416019 2.388903 5.125477 3.720947 L .130312 3.156273 Z " fill="#ed975d"/>
<path transform="matrix(1,0,0,-1,222.00879,57.946535)" d="M 1.621531 1.08665 C 1.621531 1.08665 8.122479 .449586 8.45549 4.503633 C 8.788502 8.557682 9.859942 11.207294 5.719022 11.786444 C 1.592581 12.365594 .651448 10.888759 .202607 9.556714 C -.231755 8.224669 -.058003 1.361746 1.621531 1.08665 Z " fill="#ffb27d"/>
<path transform="matrix(1,0,0,-1,224.3252,53.44751)" d="M 0 7.909986 C 0 7.909986 .810802 2.958258 4.51736 1.78548 C 7.210406 .931234 8.441095 1.495905 8.441095 1.495905 C 8.441095 1.495905 7.138016 3.218874 6.674696 5.607866 C 6.544388 6.317325 6.037635 6.896474 5.357134 7.113655 C 3.431462 7.765198 1.114863 9.488169 0 7.909986 Z " fill="#a9453d"/>
<path transform="matrix(1,0,0,-1,221.69727,53.548585)" d="M 3.843538 6.954006 C 3.843538 6.954006 2.612859 6.678907 1.541432 5.100724 C .947804 4.232 .267303 2.060188 .383133 1.104591 C .383133 1.104591 -.760691 5.679876 .904364 7.388368 C 2.656292 9.198211 3.843538 6.954006 3.843538 6.954006 Z " fill="#a9453d"/>
<path transform="matrix(1,0,0,-1,218.88672,84.54028)" d="M 16.775465 10.175409 C 16.659634 9.683132 16.558283 9.234287 16.48589 8.814404 C 16.355582 8.133904 16.26871 7.554752 16.196314 7.047997 C 15.993612 5.455334 16.051524 4.499735 15.921215 3.471745 C 15.848822 2.892595 15.704048 2.284489 15.428952 1.517115 C 15.153856 .7787 8.102701 .112682 4.09209 .373299 C 2.817961 .460173 1.905797 .720783 1.500392 .937965 C .284178 1.575029 -.063302 .764225 .009092 12.535442 C .052528 18.920567 5.424128 24.610713 5.424128 24.610713 C 5.424128 24.610713 5.858497 21.88871 11.331461 25.131949 C 11.519685 25.247778 13.677017 22.06245 15.747478 18.124234 C 18.049597 13.79509 17.427008 12.882935 16.775465 10.175409 Z " fill="#aec3ff"/>
<path transform="matrix(1,0,0,-1,204.89453,117.17847)" d="M 0 11.42378 L 4.198835 .115887 C 4.198835 .115887 5.342659 .000061 6.428565 .318592 C 7.427598 .608168 8.585901 1.37554 8.585901 1.37554 C 8.585901 1.37554 7.413126 13.523199 5.241315 20.501954 L 0 11.42378 Z " fill="#f99746"/>
<path transform="matrix(1,0,0,-1,212.84375,79.70752)" d="M 11.481649 19.79248 C 11.481649 19.79248 6.862916 19.401555 5.313691 14.942102 C 4.488403 12.567589 0 .492319 0 .492319 C 0 .492319 3.590728 .000036 4.922772 1.3176 C 6.240338 2.635166 9.425657 12.813725 9.425657 12.813725 L 11.481649 19.79248 Z " fill="#aec3ff"/>
<path transform="matrix(1,0,0,-1,195.61524,79.760257)" d="M 5.761065 3.600171 L 4.42901 4.135887 C 4.42901 4.135887 3.632679 4.309629 3.198317 4.179321 C 2.763955 4.049012 1.678049 4.063495 1.678049 3.875271 C 1.678049 3.701526 2.908742 3.151334 2.908742 3.151334 L 2.952186 3.165809 C 2.474387 2.094382 .128824 1.486277 .012994 1.095351 C -.131793 .617552 .968602 .371414 1.56223 .226626 C 2.155858 .081839 3.618204 .096316 4.342142 .849211 C 4.863376 1.399403 5.761065 2.166772 5.761065 2.166772 L 5.761065 3.600171 Z " fill="#ffb27d"/>
<path transform="matrix(1,0,0,-1,222.81934,55.277345)" d="M 2.302124 .806278 C 2.302124 .806278 2.02702 .140259 1.317562 .140259 C .593625 .140259 .405408 .241609 .2751 .400875 C .144791 .560141 0 .849717 0 .849717 C 0 .849717 1.18726 1.081374 2.302124 .806278 Z " fill="#ffffff"/>
<path transform="matrix(1,0,0,-1,203.06543,80.21411)" d="M 11.312352 5.632164 L 1.379939 7.948758 C 1.379939 7.948758 -.661564 7.137953 .22164 5.632164 C .22164 5.632164 9.212941 -.000069 12.586489 .608038 C 16.437834 1.303018 19.029528 8.513428 19.029528 8.513428 L 11.312352 5.632164 Z " fill="#aec3ff"/>
<path transform="matrix(1,0,0,-1,222.8623,81.08301)" d="M 12.220062 3.590832 C 12.017361 1.998171 12.075272 1.042572 11.944963 .014582 C 6.833967 .000103 0 3.967285 0 3.967285 L 12.220062 3.590832 Z " fill="#94b0ed"/>
<path transform="matrix(1,0,0,-1,222.8623,78.71045)" d="M 0 4.939176 C 0 4.939176 7.963318 5.170835 9.295362 9.702681 C 10.772194 14.668889 12.422768 7.661178 12.422768 7.661178 L 11.539568 3.187251 L 2.808879 3.187251 L 0 4.939176 Z " fill="#94b0ed"/>
<path transform="matrix(1,0,0,-1,179.77344,94.44678)" d="M 16.389946 13.653408 L 2.664092 10.164036 L 0 20.632164 L 13.725854 24.121539 L 10.250957 37.774995 L 21.023144 40.511476 L 24.498042 26.858023 L 38.223878 30.347397 L 40.88797 19.879269 L 27.162116 16.389895 L 30.637015 2.736435 L 19.864844 -.000042 L 16.389946 13.653408 Z " fill="#505aba"/>
<path transform="matrix(1,0,0,-1,216.52442,76.985599)" d="M 6.337995 2.157531 L 5.425845 3.272391 C 5.425845 3.272391 4.81773 3.822582 4.368889 3.909455 C 3.920048 3.996327 2.978937 4.546522 2.892065 4.387256 C 2.805192 4.22799 3.616002 3.142084 3.616002 3.142084 L 3.659428 3.142084 C 2.732788 2.447104 .37276 3.055211 .083186 2.780115 C -.264304 2.432625 .560988 1.67973 1.009829 1.259847 C 1.45867 .839963 2.747281 .130508 3.746314 .449041 C 4.48473 .680701 5.628551 .912354 5.628551 .912354 L 6.337995 2.157531 Z " fill="#ffb27d"/>
<path transform="matrix(1,0,0,-1,221.69043,81.0105)" d="M 8.556932 21.6167 C 8.556932 21.6167 13.711365 21.26921 14.999972 19.256667 C 16.28858 17.244122 17.895728 7.007652 17.215228 3.503798 C 16.534728 -.000059 0 4.169815 0 4.169815 L .521231 7.224831 C .521231 7.224831 10.077211 7.166918 10.612925 8.412089 C 11.35134 10.062666 8.556932 21.6167 8.556932 21.6167 Z " fill="#aec3ff"/>
<path transform="matrix(1,0,0,-1,89.69531,160.63282)" d="M .1083 1.610942 C .1083 1.610942 2.989566 .467132 3.959641 .771186 C 4.929717 1.075239 6.609254 2.016361 6.913307 2.783734 C 7.217361 3.551107 4.92972 2.581032 4.162347 2.783734 C 3.394974 2.986437 2.555207 3.218096 1.049418 2.783734 C -.47085 2.349372 .1083 1.610942 .1083 1.610942 Z " fill="#ffb27d"/>
<path transform="matrix(1,0,0,-1,63.61133,230.97315)" d="M 0 5.682081 C 0 5.682081 .217181 2.178222 .868724 1.352933 L 10.888016 1.352933 C 10.8301 1.700423 10.540525 2.569151 9.295354 2.786333 C 7.717171 3.061429 5.067563 4.176291 4.111966 6.26123 C 3.083976 8.461999 0 5.682081 0 5.682081 Z " fill="#334272"/>
<path transform="matrix(1,0,0,-1,45.58789,231.00513)" d="M .243993 6.2063 C .243993 6.2063 -.42203 1.848187 .446695 1.761315 C .562525 1.746836 4.573136 1.761319 5.659042 1.602052 C 7.439927 1.341435 10.408072 1.573102 10.408072 1.573102 C 10.784518 1.558623 11.030656 1.964031 10.827954 2.282564 C 10.625252 2.630054 10.219848 3.006501 9.466953 3.151288 C 7.88877 3.455342 5.268115 4.613634 4.341475 6.72753 C 3.385879 8.9283 .243993 6.2063 .243993 6.2063 Z " fill="#334272"/>
<path transform="matrix(1,0,0,-1,45.84668,225.01612)" d="M 22.471005 46.37547 C 22.471005 46.37547 19.951706 37.557916 12.741293 22.268364 C 5.530879 6.964333 4.966207 .000069 4.966207 .000069 L 0 .231724 C 0 .231724 .463318 18.44598 3.880301 26.163149 C 7.282805 33.880319 7.977787 55.019289 7.977787 55.019289 L 22.471005 46.37547 Z " fill="#94b0ed"/>
<path transform="matrix(1,0,0,-1,55.9375,225.5083)" d="M 16.418896 54.440187 C 16.418896 54.440187 16.621596 40.80121 14.26156 24.049304 C 11.901525 7.297401 12.697858 .188347 12.697858 .188347 L 7.036669 .000118 C 7.036669 .000118 3.663122 16.752015 4.633197 25.149685 C 5.603273 33.532876 0 53.918954 0 53.918954 L 16.418896 54.440187 Z " fill="#aec3ff"/>
<path transform="matrix(1,0,0,-1,61.208009,141.09717)" d="M 0 1.969045 L 2.664088 -.00006 L 6.515434 .810746 C 6.457519 1.158236 6.211379 2.620594 5.979719 3.938159 C 5.96524 4.010553 5.950763 4.097422 5.936284 4.169816 C 5.733582 5.299158 5.559836 6.254758 5.559836 6.254758 L 1.969105 8.035642 L .622584 8.70166 C .622584 8.672703 .723934 7.45649 .738412 7.282745 C .99903 4.111901 0 1.969045 0 1.969045 Z " fill="#ffb27d"/>
<path transform="matrix(1,0,0,-1,53.5625,177.03125)" d="M 19.3158 5.514191 C 19.56194 3.08176 .073553 .200493 .001159 4.283497 C -.056756 7.874226 2.071619 27.65218 2.737641 30.475537 C 3.910419 35.48518 4.96737 38.337495 7.197096 39.003519 C 8.022384 39.249658 11.062918 38.453325 13.249207 37.816259 C 13.408473 37.772825 13.553262 37.714914 13.69805 37.656999 C 14.233763 37.439817 14.740519 37.12128 15.145924 36.730356 C 15.739552 36.18016 16.18839 35.4707 16.420052 34.67437 C 16.753062 33.53055 17.14399 32.0682 17.462523 30.46106 C 17.752097 29.013186 17.969279 27.449479 18.05615 25.885773 C 18.07063 25.567242 18.085106 25.234238 18.085106 24.915703 C 18.099585 23.728447 18.20094 22.179215 18.345726 20.456246 C 18.432599 19.370339 18.548428 18.226519 18.664258 17.05374 C 18.693215 16.72073 18.736653 16.37324 18.76561 16.040228 C 18.794568 15.808569 19.156537 8.076931 19.272366 6.00647 C 19.272366 5.977512 19.272366 5.948544 19.272366 5.919586 C 19.272366 5.919586 19.272366 5.91959 19.272366 5.905109 C 19.272366 5.876152 19.272366 5.847198 19.272366 5.818241 C 19.301323 5.658974 19.3158 5.543148 19.3158 5.514191 Z " fill="#f99746"/>
<path transform="matrix(1,0,0,-1,62.11621,137.18726)" d="M .105531 3.314942 C .901862 1.809153 3.841045 .49158 5.071738 .013782 C 5.057259 .086176 5.042782 .173054 5.028304 .245447 C 4.825601 1.374789 4.651855 2.330381 4.651855 2.330381 L 1.061125 4.125748 C .264794 4.140227 -.22748 3.937528 .105531 3.314942 Z " fill="#fca56b"/>
<path transform="matrix(1,0,0,-1,59.463869,137.48242)" d="M 9.055698 2.842832 C 9.055698 2.842832 2.554743 .815812 1.367486 4.884338 C .165751 8.952866 -1.484825 11.428728 2.612659 12.891081 C 6.710142 14.353434 7.96979 13.050351 8.708205 11.7907 C 9.432142 10.516571 10.720754 3.479896 9.055698 2.842832 Z " fill="#ffb27d"/>
<path transform="matrix(1,0,0,-1,56.660158,136.08155)" d="M 11.251335 10.766092 C 11.251335 10.766092 10.83145 6.031542 9.861375 6.248723 C 8.876821 6.451425 7.993618 6.610697 8.138406 5.177301 C 8.283193 3.758385 9.644195 2.107808 6.618138 1.847191 C 3.60656 1.601052 -.722585 9.361654 .102704 10.838486 C 2.506175 15.095236 14.711754 15.949481 11.251335 10.766092 Z " fill="#163560"/>
<path transform="matrix(1,0,0,-1,60.745119,140.48755)" d="M 6.703656 2.343878 C 6.616783 2.372836 1.462355 3.907582 .897684 3.719359 C .333013 3.531135 0 2.445222 0 2.445222 L 7.963308 .172066 C 7.977787 .186545 7.789561 1.895037 6.703656 2.343878 Z " fill="#ed7d2b"/>
<path transform="matrix(1,0,0,-1,90.73047,158.40747)" d="M 0 .558537 C 0 .558537 .926643 1.340386 1.722974 1.514131 C 2.533783 1.687876 3.228766 2.411802 3.228766 2.064312 C 3.228766 1.716822 2.620657 .862591 2.620657 .558537 C 2.635136 .254484 0 .558537 0 .558537 Z " fill="#ffb27d"/>
<path transform="matrix(1,0,0,-1,64.6543,156.56055)" d="M 7.26833 .000095 C 3.12741 1.563799 0 7.673828 0 7.673828 L 6.978755 5.429623 C 6.993234 5.111091 7.00771 4.778087 7.00771 4.459555 C 7.022189 3.257819 7.123543 1.708587 7.26833 .000095 Z " fill="#ed7d2b"/>
<path transform="matrix(1,0,0,-1,59.82129,160.02588)" d="M 31.038605 1.510895 C 31.038605 1.525373 31.038603 1.539864 31.053082 1.539864 C 31.241305 2.249323 30.893822 2.987731 30.2278 3.306263 C 27.621626 4.551435 20.889006 7.809155 20.15059 8.214561 C 19.35426 8.634443 11.477826 16.221304 9.117791 18.494467 C 8.712386 18.885394 8.118757 19.030184 7.583044 18.84196 L 1.053131 16.713583 C -.148605 16.322659 -.380262 14.715519 .662207 13.991582 C 5.46915 10.704907 15.517393 3.84198 17.327237 2.929819 C 20.512558 1.308201 26.955603 .453957 29.330117 .17886 C 29.996138 .106466 30.647677 .468437 30.908293 1.105501 C 30.951729 1.221331 31.009648 1.366108 31.038605 1.510895 Z " fill="#f99746"/>
<path transform="matrix(1,0,0,-1,78.01758,229.14258)" d="M 0 3.865784 C 0 3.706518 .014481 3.547262 .028959 3.387996 C .086874 2.895719 .24614 2.432399 .463322 2.012516 C .637066 1.679504 .868723 1.389915 1.12934 1.129298 C 1.838798 .434319 2.794399 -.000033 3.865826 -.000033 L 58.407247 -.000033 C 60.550104 -.000033 62.287549 1.737405 62.287549 3.880259 C 62.287549 4.951686 61.853189 5.921765 61.158208 6.616745 C 60.46323 7.326203 59.49315 7.746094 58.421724 7.746094 L 3.880301 7.746094 C 1.737447 7.746094 0 6.008637 0 3.865784 Z " fill="#f78248"/>
<path transform="matrix(1,0,0,-1,81.5791,220.70142)" d="M .593625 -.000012 L 19.300162 -.000012 C 19.633172 -.000012 19.893786 .26062 19.893786 .593631 C 19.893786 .926642 19.618693 1.187256 19.300162 1.187256 L .593625 1.187256 C .260614 1.187256 0 .926642 0 .593631 C 0 .275099 .275093 -.000012 .593625 -.000012 Z " fill="#f78248"/>
<path transform="matrix(-1,-0,-0,1,85.24219,220.69678)" d="M 2.027024 .695068 L 0 .695068 L 0 .000099 L 2.027024 .000099 L 2.027024 .695068 Z " fill="#ea642f"/>
<path transform="matrix(1,0,0,-1,78.48047,229.14258)" d="M 0 2.012625 C .173745 1.679613 .405401 1.390024 .666019 1.129407 C 1.375477 .434427 2.331077 .000076 3.402504 .000076 L 14.956538 .000076 L 14.956538 2.0271 L 0 2.0271 L 0 2.012625 Z " fill="#ea642f"/>
<path transform="matrix(1,0,0,-1,85.22754,229.15699)" d="M 62.30204 5.024012 L 62.30204 2.750856 C 62.30204 2.504718 62.27308 2.258579 62.200689 2.026919 C 61.882154 .854141 60.825208 -.000105 59.55108 -.000105 L 2.750961 -.000105 C 1.491311 -.000105 .419885 .854141 .101353 2.026919 C .043438 2.258579 0 2.490239 0 2.750856 L 0 5.024012 C 0 6.54428 1.230697 7.760498 2.736486 7.760498 L 59.56555 7.760498 C 61.071344 7.760498 62.30204 6.529801 62.30204 5.024012 Z " fill="#f99746"/>
<path transform="matrix(1,0,0,-1,85.3291,229.15723)" d="M 62.099328 2.0271 C 61.780794 .854321 60.723848 .000076 59.44972 .000076 L 2.649608 .000076 C 1.389957 .000076 .318532 .854321 0 2.0271 L 62.099328 2.0271 Z " fill="#ef873a"/>
<path transform="matrix(1,0,0,-1,141.88282,229.18604)" d="M 0 3.894837 C 0 2.693101 .43436 1.607203 1.12934 .897744 C 1.143819 .883265 1.158296 .86878 1.172775 .854301 C 1.708488 .318587 2.388992 .000051 3.112929 .000051 C 4.25675 .000051 7.109052 1.737504 8.875458 2.881325 C 9.758661 3.460474 10.366776 3.880362 10.366776 3.880362 C 10.366776 3.880362 9.758661 4.314727 8.875458 4.879398 C 7.109052 6.037698 4.25675 7.775146 3.112929 7.775146 C 2.779918 7.775146 2.461381 7.702746 2.157327 7.586916 C 1.650571 7.384213 1.201734 7.022252 .839765 6.544454 C .448839 6.023219 .173743 5.371661 .043434 4.647724 C .043434 4.633245 .043434 4.633252 .043434 4.618773 C .028956 4.401593 0 4.155454 0 3.894837 Z " fill="#aec3ff"/>
<path transform="matrix(1,0,0,-1,142.7373,225.01612)" d="M 0 2.389005 L 8.716204 .000013 L 1.303087 3.416992 C .810809 3.228769 .361969 2.866804 0 2.389005 Z " fill="#ebf3fa"/>
<path transform="matrix(1,0,0,-1,150.20801,226.29029)" d="M 0 .99901 C 0 .53569 .231663 .144761 .564674 -.000027 C 1.447878 .579123 2.055974 .99901 2.055974 .99901 C 2.055974 .99901 1.447878 1.433376 .564674 1.998047 C .231663 1.853259 0 1.46233 0 .99901 Z " fill="#f99746"/>
<path transform="matrix(1,0,0,-1,14.09375,230.11255)" d="M 364.21275 -.000013 L .419883 -.000013 C .188223 -.000013 0 .188214 0 .419874 L 0 .579136 C 0 .810796 .188223 .999023 .419883 .999023 L 364.21275 .999023 C 364.4444 .999023 364.6326 .810796 364.6326 .579136 L 364.6326 .419874 C 364.6326 .188214 364.4444 -.000013 364.21275 -.000013 Z " fill="#2e3552"/>
</g>
</g>
</svg>
