<svg width="18" height="18" viewBox="0 0 18 18" fill="none" xmlns="http://www.w3.org/2000/svg">
<path id="desktop-1" d="M15.5 18H2.5C1.83696 18 1.20107 17.7366 0.732233 17.2678C0.263392 16.7989 0 16.163 0 15.5L0 2.5C0 1.83696 0.263392 1.20107 0.732233 0.732233C1.20107 0.263392 1.83696 0 2.5 0L15.5 0C16.163 0 16.7989 0.263392 17.2678 0.732233C17.7366 1.20107 18 1.83696 18 2.5V15.5C18 16.163 17.7366 16.7989 17.2678 17.2678C16.7989 17.7366 16.163 18 15.5 18ZM1 6V15.5C1 15.8978 1.15804 16.2794 1.43934 16.5607C1.72064 16.842 2.10218 17 2.5 17H15.5C15.8978 17 16.2794 16.842 16.5607 16.5607C16.842 16.2794 17 15.8978 17 15.5V6H1ZM2.5 1C2.10218 1 1.72064 1.15804 1.43934 1.43934C1.15804 1.72064 1 2.10218 1 2.5V5H17V2.5C17 2.10218 16.842 1.72064 16.5607 1.43934C16.2794 1.15804 15.8978 1 15.5 1H2.5ZM13.5 15H12.5C12.1022 15 11.7206 14.842 11.4393 14.5607C11.158 14.2794 11 13.8978 11 13.5V9.5C11 9.10218 11.158 8.72064 11.4393 8.43934C11.7206 8.15804 12.1022 8 12.5 8H13.5C13.8978 8 14.2794 8.15804 14.5607 8.43934C14.842 8.72064 15 9.10218 15 9.5V13.5C15 13.8978 14.842 14.2794 14.5607 14.5607C14.2794 14.842 13.8978 15 13.5 15ZM12.5 9C12.3674 9 12.2402 9.05268 12.1464 9.14645C12.0527 9.24021 12 9.36739 12 9.5V13.5C12 13.6326 12.0527 13.7598 12.1464 13.8536C12.2402 13.9473 12.3674 14 12.5 14H13.5C13.6326 14 13.7598 13.9473 13.8536 13.8536C13.9473 13.7598 14 13.6326 14 13.5V9.5C14 9.36739 13.9473 9.24021 13.8536 9.14645C13.7598 9.05268 13.6326 9 13.5 9H12.5ZM6.5 15H3.5C3.36739 15 3.24021 14.9473 3.14645 14.8536C3.05268 14.7598 3 14.6326 3 14.5C3 14.3674 3.05268 14.2402 3.14645 14.1464C3.24021 14.0527 3.36739 14 3.5 14H6.5C6.63261 14 6.75979 14.0527 6.85355 14.1464C6.94732 14.2402 7 14.3674 7 14.5C7 14.6326 6.94732 14.7598 6.85355 14.8536C6.75979 14.9473 6.63261 15 6.5 15ZM8.5 12H3.5C3.36739 12 3.24021 11.9473 3.14645 11.8536C3.05268 11.7598 3 11.6326 3 11.5C3 11.3674 3.05268 11.2402 3.14645 11.1464C3.24021 11.0527 3.36739 11 3.5 11H8.5C8.63261 11 8.75979 11.0527 8.85355 11.1464C8.94732 11.2402 9 11.3674 9 11.5C9 11.6326 8.94732 11.7598 8.85355 11.8536C8.75979 11.9473 8.63261 12 8.5 12ZM8.5 9H3.5C3.36739 9 3.24021 8.94732 3.14645 8.85355C3.05268 8.75979 3 8.63261 3 8.5C3 8.36739 3.05268 8.24021 3.14645 8.14645C3.24021 8.05268 3.36739 8 3.5 8H8.5C8.63261 8 8.75979 8.05268 8.85355 8.14645C8.94732 8.24021 9 8.36739 9 8.5C9 8.63261 8.94732 8.75979 8.85355 8.85355C8.75979 8.94732 8.63261 9 8.5 9Z" fill="#222B45"/>
</svg>
