<svg width="19" height="20" viewBox="0 0 19 20" fill="none" xmlns="http://www.w3.org/2000/svg">
<path id="cog" d="M10.0314 20H8.47339C8.15853 20 7.85166 19.9009 7.59626 19.7167C7.34087 19.5326 7.14989 19.2727 7.05039 18.974L6.57139 17.54C5.65421 17.2138 4.80453 16.7223 4.06439 16.09L2.58039 16.39C2.27188 16.4531 1.95132 16.4176 1.66414 16.2883C1.37697 16.1591 1.13775 15.9428 0.980393 15.67L0.200393 14.325C0.0431965 14.0522 -0.0242015 13.737 0.00774496 13.4238C0.0396914 13.1106 0.169363 12.8154 0.378393 12.58L1.37839 11.448C1.20275 10.4893 1.20275 9.50669 1.37839 8.548L0.378393 7.416C0.170248 7.18094 0.0411096 6.88649 0.00917571 6.57415C-0.0227582 6.26181 0.0441225 5.94732 0.200393 5.675L0.980393 4.325C1.13775 4.05223 1.37697 3.8359 1.66414 3.70667C1.95132 3.57744 2.27188 3.54187 2.58039 3.605L4.06239 3.905C4.80372 3.27452 5.65402 2.78481 6.57139 2.46L7.04939 1.026C7.14883 0.727434 7.33966 0.467705 7.59486 0.283575C7.85006 0.0994443 8.1567 0.00023894 8.47139 0L10.0294 0C10.3443 2.91324e-05 10.6511 0.0991373 10.9065 0.283283C11.1619 0.467428 11.3529 0.727272 11.4524 1.026L11.9304 2.46C12.8476 2.78623 13.6973 3.27767 14.4374 3.91L15.9224 3.61C16.2309 3.54687 16.5515 3.58244 16.8386 3.71167C17.1258 3.8409 17.365 4.05723 17.5224 4.33L18.3004 5.675C18.4576 5.94744 18.5252 6.26242 18.4936 6.57538C18.4621 6.88835 18.3329 7.18347 18.1244 7.419L17.1244 8.551C17.3009 9.50961 17.3009 10.4924 17.1244 11.451L18.1244 12.583C18.3331 12.8186 18.4624 13.1139 18.494 13.4271C18.5256 13.7403 18.4579 14.0555 18.3004 14.328L17.5214 15.678C17.364 15.9508 17.1248 16.1671 16.8376 16.2963C16.5505 16.4256 16.2299 16.4611 15.9214 16.398L14.4384 16.098C13.6973 16.7276 12.8473 17.2163 11.9304 17.54L11.4524 18.974C11.353 19.2724 11.1623 19.532 10.9073 19.7161C10.6523 19.9002 10.3459 19.9996 10.0314 20ZM4.20739 15.051C4.33248 15.0508 4.45308 15.0976 4.54539 15.182C5.28596 15.8579 6.16406 16.3656 7.11939 16.67C7.19458 16.6939 7.26305 16.7353 7.31918 16.7907C7.37532 16.8462 7.41754 16.9141 7.44239 16.989L8.00039 18.658C8.03349 18.7574 8.09694 18.8438 8.18181 18.9052C8.26668 18.9665 8.36867 18.9997 8.47339 19H10.0314C10.1365 19.0001 10.2389 18.9672 10.3242 18.9058C10.4094 18.8444 10.4732 18.7577 10.5064 18.658L11.0624 16.988C11.0872 16.9131 11.1295 16.8452 11.1856 16.7897C11.2417 16.7343 11.3102 16.6929 11.3854 16.669C12.3407 16.3646 13.2188 15.8569 13.9594 15.181C14.0515 15.0968 14.1717 15.0501 14.2964 15.05C14.33 15.05 14.3635 15.0534 14.3964 15.06L16.1234 15.415C16.2265 15.4364 16.3337 15.4248 16.4298 15.3817C16.5258 15.3386 16.6058 15.2662 16.6584 15.175L17.4364 13.825C17.4888 13.734 17.5112 13.6288 17.5004 13.5243C17.4896 13.4198 17.4462 13.3214 17.3764 13.243L16.2094 11.925C16.1574 11.8662 16.12 11.796 16.1002 11.7201C16.0804 11.6442 16.0788 11.5647 16.0954 11.488C16.3062 10.5075 16.3062 9.49346 16.0954 8.513C16.0792 8.43631 16.081 8.35689 16.1008 8.28105C16.1206 8.2052 16.1578 8.135 16.2094 8.076L17.3784 6.758C17.4481 6.67947 17.4913 6.58099 17.5019 6.47653C17.5125 6.37207 17.4899 6.26692 17.4374 6.176L16.6574 4.826C16.605 4.73514 16.5253 4.66307 16.4296 4.62C16.334 4.57693 16.2272 4.56503 16.1244 4.586L14.4004 4.939C14.3675 4.94564 14.334 4.94899 14.3004 4.949C14.1757 4.9489 14.0555 4.90218 13.9634 4.818C13.2226 4.14234 12.3446 3.63475 11.3894 3.33C11.314 3.30622 11.2454 3.26491 11.189 3.20946C11.1327 3.15401 11.0903 3.086 11.0654 3.011L10.5004 1.342C10.4675 1.24312 10.4045 1.15701 10.3202 1.09569C10.2359 1.03437 10.1346 1.00091 10.0304 1H8.47239C8.36784 1.0005 8.26607 1.03376 8.1814 1.09511C8.09674 1.15646 8.03343 1.2428 8.00039 1.342L7.44539 3.012C7.42054 3.08689 7.37832 3.15483 7.32218 3.21027C7.26605 3.26571 7.19758 3.30708 7.12239 3.331C6.16689 3.63773 5.28794 4.14505 4.54439 4.819C4.45208 4.90341 4.33148 4.95015 4.20639 4.95C4.17281 4.94999 4.13931 4.94664 4.10639 4.94L2.38139 4.585C2.27845 4.56381 2.17145 4.57559 2.07559 4.61867C1.97973 4.66175 1.89988 4.73395 1.84739 4.825L1.06839 6.175C1.01601 6.26602 0.993608 6.37123 1.00438 6.47569C1.01515 6.58016 1.05854 6.67858 1.12839 6.757L2.30039 8.075C2.35201 8.134 2.38918 8.2042 2.40897 8.28005C2.42875 8.3559 2.43061 8.43531 2.41439 8.512C2.20354 9.49246 2.20354 10.5065 2.41439 11.487C2.43101 11.5637 2.42935 11.6432 2.40954 11.7191C2.38974 11.795 2.35235 11.8652 2.30039 11.924L1.12739 13.243C1.05769 13.3215 1.01449 13.42 1.0039 13.5245C0.993307 13.6289 1.01587 13.7341 1.06839 13.825L1.84839 15.175C1.90083 15.2659 1.98051 15.3379 2.07617 15.381C2.17182 15.4241 2.2786 15.436 2.38139 15.415L4.10839 15.06C4.14102 15.0538 4.17418 15.0508 4.20739 15.051ZM9.25139 14C8.46027 14 7.68691 13.7654 7.02911 13.3259C6.37132 12.8864 5.85863 12.2616 5.55587 11.5307C5.25312 10.7998 5.17391 9.99556 5.32825 9.21964C5.48259 8.44372 5.86356 7.73098 6.42297 7.17157C6.98238 6.61216 7.69511 6.2312 8.47103 6.07686C9.24695 5.92252 10.0512 6.00173 10.7821 6.30448C11.513 6.60723 12.1377 7.11992 12.5773 7.77772C13.0168 8.43552 13.2514 9.20887 13.2514 10C13.2501 11.0605 12.8282 12.0771 12.0784 12.827C11.3285 13.5768 10.3119 13.9987 9.25139 14ZM9.25139 7C8.65805 7 8.07803 7.17595 7.58468 7.50559C7.09133 7.83524 6.70682 8.30377 6.47975 8.85195C6.25269 9.40013 6.19328 10.0033 6.30904 10.5853C6.42479 11.1672 6.71052 11.7018 7.13007 12.1213C7.54963 12.5409 8.08418 12.8266 8.66612 12.9424C9.24806 13.0581 9.85126 12.9987 10.3994 12.7716C10.9476 12.5446 11.4162 12.1601 11.7458 11.6667C12.0754 11.1734 12.2514 10.5933 12.2514 10C12.2514 9.20435 11.9353 8.44129 11.3727 7.87868C10.8101 7.31607 10.047 7 9.25139 7Z" fill="#222B45"/>
</svg>
