<svg width="45" height="44" viewBox="0 0 45 44" fill="none" xmlns="http://www.w3.org/2000/svg">
<path d="M44.1334 20.4534C44.1334 21.5097 44.1334 22.5776 44.1334 23.634C44.0405 23.6804 44.0521 23.7733 44.0521 23.8545C43.8896 25.8163 43.4717 27.7316 42.7868 29.5773C38.4802 41.2201 25.5489 47.0009 13.9989 42.439C4.00436 38.5039 -1.7184 27.6968 0.649637 17.2263C2.66944 8.26492 9.86642 1.60191 18.9903 0.220553C19.4895 0.150905 20.0118 0.162513 20.4994 0C21.5557 0 22.6237 0 23.68 0C23.738 0.11608 23.8541 0.0696482 23.947 0.0812563C25.5953 0.208945 27.2204 0.487538 28.7759 1.03312C37.273 4.0396 42.3341 9.97131 43.9128 18.8631C44.0057 19.397 43.9708 19.9426 44.1334 20.4534ZM22.4031 37.2966C22.6933 37.2966 22.9719 37.3082 23.2621 37.2966C23.5523 37.285 23.8309 37.2502 24.1211 37.2154C26.6284 36.902 28.9036 35.9965 30.935 34.4991C33.6745 32.4909 35.555 29.8559 36.6462 26.6404C37.1453 25.1662 37.4007 23.6456 37.4239 22.0901C37.4355 21.5677 37.1569 21.2543 36.6926 21.2079C36.1122 21.1382 35.7291 21.4865 35.7059 22.1714C35.6247 23.959 35.3228 25.7118 34.5567 27.3369C32.2699 32.2007 28.4393 34.9866 23.0532 35.5206C17.1331 36.101 11.7701 32.398 9.57622 27.0003C8.94938 25.4448 8.63597 23.8313 8.5431 22.1597C8.50828 21.5213 8.18325 21.1731 7.63768 21.1847C7.0921 21.1963 6.8019 21.5561 6.81351 22.2178C6.83672 23.1232 6.92958 24.017 7.11531 24.8992C7.83501 28.3468 9.50657 31.2488 12.188 33.5472C15.1365 36.0778 18.5492 37.285 22.4031 37.2966ZM15.4963 10.9696C13.6274 10.9116 12.0487 12.4438 11.9907 14.3475C11.9326 16.2048 13.4533 17.7835 15.3686 17.8648C17.2143 17.946 18.8162 16.4138 18.8859 14.4984C18.9439 12.5947 17.4349 11.0276 15.4963 10.9696ZM28.5089 10.9696C26.6168 10.9696 25.0613 12.5135 25.0497 14.4056C25.0381 16.2745 26.5936 17.8532 28.4857 17.8764C30.3778 17.8996 31.9565 16.3093 31.9565 14.4056C31.9449 12.5019 30.401 10.9696 28.5089 10.9696Z" fill="#FEC00E"/>
<path d="M22.4031 37.2966C18.5492 37.285 15.1254 36.0654 12.2002 33.5464C9.53037 31.2481 7.85881 28.346 7.12751 24.8985C6.94178 24.0162 6.84891 23.1224 6.8257 22.217C6.80248 21.5669 7.09268 21.1955 7.64987 21.1839C8.19545 21.1723 8.52047 21.5089 8.55529 22.159C8.63655 23.8305 8.94997 25.4556 9.58841 26.9995C11.7823 32.3972 17.1336 36.1002 23.0653 35.5198C28.4515 34.9858 32.2821 32.1999 34.5689 27.3245C35.335 25.6994 35.6368 23.9466 35.7181 22.159C35.7529 21.4741 36.1244 21.1375 36.7048 21.1955C37.1807 21.2535 37.4477 21.5553 37.4361 22.0777C37.4013 23.6332 37.1459 25.1538 36.6584 26.6281C35.5672 29.8435 33.6867 32.4785 30.9472 34.4867C28.9158 35.9841 26.6406 36.8896 24.1333 37.203C23.8547 37.2378 23.5645 37.2726 23.2743 37.2842C22.9841 37.3074 22.6933 37.2966 22.4031 37.2966Z" fill="#353432"/>
<path d="M15.5002 10.9689C17.4503 11.0269 18.9594 12.594 18.8897 14.4977C18.8201 16.413 17.2182 17.9453 15.3725 17.864C13.4572 17.7828 11.9365 16.2157 11.9945 14.3468C12.0526 12.4431 13.6313 10.9108 15.5002 10.9689Z" fill="#343433"/>
<path d="M28.5105 10.9693C30.4143 10.9693 31.9465 12.5016 31.9581 14.4053C31.9697 16.309 30.3794 17.8993 28.4873 17.8761C26.6068 17.8529 25.0513 16.2858 25.0513 14.4053C25.0629 12.5132 26.6184 10.9693 28.5105 10.9693Z" fill="#343433"/>
</svg>
