<svg width="26" height="24" viewBox="0 0 26 24" fill="none" xmlns="http://www.w3.org/2000/svg">
<g id="Group 848">
<path id="Vector" d="M25.0821 5.34947C24.7222 6.70308 24.3624 8.04586 24.0134 9.39947C23.6426 10.8505 23.2827 12.3016 22.9229 13.7418C22.7375 14.4566 22.5303 14.6298 21.7887 14.6298C17.5902 14.6298 13.3917 14.6298 9.19314 14.6298C8.97504 14.6298 8.76784 14.6298 8.54973 14.6298C8.65878 16.2 9.41125 16.9147 10.9598 16.9255C14.5367 16.9364 18.1137 16.9255 21.7015 16.9255C22.3449 16.9255 22.7593 17.2937 22.683 17.8027C22.6175 18.2792 22.3231 18.5499 21.8323 18.5499C18.1246 18.5499 14.4168 18.5824 10.709 18.5282C8.66969 18.4957 7.71002 17.7594 7.11023 15.7777C6.34687 13.2437 5.71436 10.6773 5.02733 8.12166C4.65655 6.74639 4.30758 5.37113 3.9259 3.99586C3.64236 2.93463 3.16253 2.56644 2.0611 2.54479C1.76665 2.53396 1.47221 2.52313 1.18867 2.54479C0.665221 2.59893 0.272632 2.4365 0 1.98169C0 1.79759 0 1.62433 0 1.44024C0.261726 1.01791 0.632506 0.844653 1.14505 0.887968C1.52674 0.920455 1.90842 0.887968 2.29011 0.898797C3.89318 0.96377 4.99461 1.81925 5.44173 3.3353C5.49626 3.53022 5.55078 3.71431 5.5835 3.90923C5.64893 4.24492 5.83432 4.30989 6.12876 4.19078C6.13967 4.14746 6.16148 4.11497 6.16148 4.08249C6.17238 3.05374 6.16148 2.025 6.17238 0.996257C6.18329 0.270722 6.43411 0.0108289 7.14295 0C8.52792 0 9.90198 0 11.287 0C11.9631 0 12.2357 0.281551 12.2357 0.952942C12.2466 1.5377 12.2357 2.12246 12.2357 2.79385C12.3884 2.69639 12.4647 2.65308 12.5302 2.59893C13.5334 1.80842 14.6567 1.57019 15.9108 1.84091C16.1071 1.88423 16.3797 1.77594 16.5542 1.64599C18.0482 0.454813 19.684 0.184091 21.4398 0.942113C22.8683 1.55936 23.6862 2.70722 24.0025 3.9742C24.4605 4.32072 24.7768 4.54813 25.093 4.78637C25.0821 4.99211 25.0821 5.16538 25.0821 5.34947ZM6.16148 5.91257C6.18329 6.05334 6.19419 6.16163 6.216 6.25909C6.78308 8.38155 7.36106 10.4932 7.90632 12.6156C8.00447 13.0055 8.23348 12.973 8.50611 12.973C12.6501 12.973 16.7832 12.9622 20.9272 12.9838C21.3089 12.9838 21.4616 12.8755 21.5488 12.5074C21.8651 11.1754 22.2031 9.85428 22.5303 8.52233C22.7484 7.65602 22.9447 6.78971 23.1628 5.90174C17.4811 5.91257 11.854 5.91257 6.16148 5.91257ZM11.3415 4.23409C11.3415 3.25949 11.3524 2.31738 11.3306 1.3861C11.3197 0.985428 11.0143 0.833824 10.6544 0.833824C9.69478 0.822995 8.72421 0.801337 7.76455 0.855482C7.53554 0.86631 7.13205 1.1262 7.13205 1.29947C7.06661 2.27407 7.09933 3.25949 7.09933 4.26658C8.41887 4.26658 9.67297 4.26658 10.9271 4.26658C11.0361 4.25575 11.1452 4.24492 11.3415 4.23409ZM17.5357 2.6639C17.8519 3.14038 18.1355 3.59519 18.4408 4.02834C18.5062 4.1258 18.648 4.24492 18.7571 4.25575C20.0221 4.26658 21.2762 4.26658 22.5412 4.26658C22.1159 2.03583 19.3241 1.18035 17.5357 2.6639Z" fill="#646464"/>
<path id="Vector_2" d="M19.3791 23.5635C18.2232 23.5635 17.3398 22.708 17.3398 21.571C17.3398 20.4664 18.2777 19.5352 19.3791 19.546C20.5024 19.5568 21.3966 20.4664 21.3857 21.5926C21.3857 22.6972 20.5024 23.5527 19.3791 23.5635Z" fill="#646464"/>
<path id="Vector_3" d="M10.4268 23.5636C9.27086 23.5636 8.39844 22.6973 8.39844 21.5494C8.39844 20.4449 9.3472 19.5244 10.4486 19.5353C11.5719 19.5461 12.4552 20.4665 12.4443 21.6036C12.4334 22.7081 11.561 23.5636 10.4268 23.5636Z" fill="#646464"/>
<path id="Vector_4" d="M13.7744 9.2478C13.7744 8.7605 13.7744 8.2732 13.7744 7.7859C13.7744 7.41772 13.9598 7.20114 14.3305 7.19031C14.7231 7.17948 14.9303 7.40689 14.9303 7.79673C14.9303 8.74967 14.9303 9.70261 14.9303 10.6556C14.9303 11.0562 14.7231 11.2836 14.3415 11.2836C13.9489 11.2836 13.7635 11.0454 13.7744 10.6447C13.7744 10.1791 13.7635 9.71344 13.7744 9.2478Z" fill="#646464"/>
<path id="Vector_5" d="M11.451 9.26949C11.451 9.73513 11.4401 10.2116 11.451 10.6772C11.4619 11.0887 11.2329 11.2837 10.8512 11.2837C10.4913 11.2837 10.306 11.0671 10.3169 10.6881C10.3278 9.71347 10.3278 8.73887 10.3169 7.7751C10.3169 7.39609 10.5023 7.20117 10.873 7.20117C11.2438 7.20117 11.4401 7.39609 11.451 7.76427C11.451 8.2624 11.451 8.77136 11.451 9.26949Z" fill="#646464"/>
<path id="Vector_6" d="M17.2297 9.2045C17.2297 8.73886 17.2297 8.27322 17.2297 7.79675C17.2297 7.39608 17.426 7.1795 17.8185 7.19033C18.1893 7.19033 18.3638 7.40691 18.3638 7.78592C18.3638 8.76052 18.3529 9.73512 18.3638 10.6989C18.3638 11.0887 18.1675 11.2836 17.8076 11.2836C17.426 11.2836 17.2188 11.0671 17.2188 10.6664C17.2406 10.1791 17.2297 9.6918 17.2297 9.2045Z" fill="#646464"/>
</g>
</svg>
