<svg width="41" height="41" viewBox="0 0 41 41" fill="none" xmlns="http://www.w3.org/2000/svg">
<path d="M20.5 41C16.4455 41 12.482 39.7977 9.11082 37.5451C5.73961 35.2926 3.11207 32.0909 1.56048 28.345C0.00888232 24.5991 -0.397086 20.4773 0.393911 16.5007C1.18491 12.524 3.13734 8.8713 6.00432 6.00432C8.8713 3.13734 12.524 1.18491 16.5007 0.393911C20.4773 -0.397086 24.5991 0.00888232 28.345 1.56048C32.0909 3.11207 35.2926 5.73961 37.5451 9.11082C39.7977 12.482 41 16.4455 41 20.5C40.994 25.9351 38.8323 31.1459 34.9891 34.9891C31.1459 38.8323 25.9351 40.994 20.5 41ZM16.3242 27.8124L7.95401 31.6172C7.43043 31.8527 6.98412 32.2315 6.66661 32.7098C8.39455 34.6703 10.5199 36.2407 12.9014 37.3166C15.283 38.3925 17.8662 38.9493 20.4795 38.95H20.5246C23.1373 38.9492 25.7199 38.3924 28.1008 37.3164C30.4816 36.2405 32.6063 34.6702 34.3334 32.7098C34.0162 32.232 33.5707 31.8533 33.0481 31.6172L24.68 27.8103C23.3651 28.3986 21.9405 28.7018 20.5 28.7H20.4877C19.0526 28.7027 17.6334 28.4001 16.3242 27.8124ZM20.5 8.20001C22.6343 8.20005 24.7153 8.86632 26.4528 10.1059C28.1902 11.3454 29.4974 13.0964 30.1919 15.1145C30.8864 17.1326 30.9337 19.3172 30.327 21.3635C29.7204 23.4097 28.4901 25.2156 26.8079 26.5291L33.8947 29.7476C34.5631 30.0508 35.1582 30.4949 35.6393 31.0493C37.5666 28.2829 38.6991 25.0413 38.9136 21.6766C39.1282 18.3119 38.4167 14.9527 36.8563 11.9639C35.296 8.97513 32.9465 6.47106 30.0631 4.72368C27.1797 2.9763 23.8726 2.05243 20.501 2.05243C17.1295 2.05243 13.8224 2.9763 10.9389 4.72368C8.05553 6.47106 5.70606 8.97513 4.14572 11.9639C2.58539 14.9527 1.87386 18.3119 2.08844 21.6766C2.30301 25.0413 3.43547 28.2829 5.36281 31.0493C5.8424 30.4942 6.43697 30.05 7.10531 29.7476L14.1922 26.5291C12.5099 25.2156 11.2796 23.4097 10.673 21.3635C10.0663 19.3172 10.1136 17.1326 10.8081 15.1145C11.5026 13.0964 12.8098 11.3454 14.5472 10.1059C16.2847 8.86632 18.3657 8.20005 20.5 8.20001ZM20.5 10.25C18.8782 10.25 17.2928 10.7309 15.9443 11.632C14.5958 12.533 13.5448 13.8136 12.9242 15.312C12.3036 16.8104 12.1412 18.4591 12.4576 20.0497C12.774 21.6404 13.5549 23.1015 14.7017 24.2483C15.8485 25.3951 17.3096 26.176 18.9003 26.4924C20.4909 26.8088 22.1397 26.6465 23.638 26.0258C25.1364 25.4052 26.417 24.3542 27.3181 23.0057C28.2191 21.6572 28.7 20.0718 28.7 18.45C28.7 16.2752 27.8361 14.1895 26.2983 12.6517C24.7605 11.1139 22.6748 10.25 20.5 10.25Z" fill="#C0C0C0"/>
</svg>
