<svg width="40" height="23" viewBox="0 0 40 23" fill="none" xmlns="http://www.w3.org/2000/svg">
<path d="M2.03174 2.43701L2.03201 2.4367C2.73143 1.60967 3.58071 1.16416 4.65244 1.13148L4.65421 1.13142C5.36534 1.10804 6.06765 1.10957 6.78911 1.11114C6.97168 1.11154 7.15548 1.11194 7.34096 1.11194H7.37041H7.39986H7.42931H7.45877H7.48822H7.51767H7.54713H7.57658H7.60603H7.63549H7.66494H7.6944H7.72385H7.75331H7.78276H7.81222H7.84167H7.87113H7.90059H7.93004H7.9595H7.98896H8.01841H8.04787H8.07733H8.10679H8.13624H8.1657H8.19516H8.22462H8.25408H8.28354H8.313H8.34246H8.37192H8.40138H8.43084H8.4603H8.48976H8.51922H8.54868H8.57814H8.6076H8.63706H8.66653H8.69599H8.72545H8.75491H8.78437H8.81384H8.8433H8.87276H8.90223H8.93169H8.96115H8.99062H9.02008H9.04955H9.07901H9.10848H9.13794H9.16741H9.19687H9.22634H9.2558H9.28527H9.31473H9.3442H9.37366H9.40313H9.4326H9.46206H9.49153H9.521H9.55047H9.57993H9.6094H9.63887H9.66834H9.6978H9.72727H9.75674H9.78621H9.81568H9.84515H9.87462H9.90409H9.93356H9.96303H9.99249H10.022H10.0514H10.0809H10.1104H10.1398H10.1693H10.1988H10.2283H10.2577H10.2872H10.3167H10.3461H10.3756H10.4051H10.4346H10.464H10.4935H10.523H10.5524H10.5819H10.6114H10.6409H10.6703H10.6998H10.7293H10.7588H10.7882H10.8177H10.8472H10.8767H10.9061H10.9356H10.9651H10.9945H11.024H11.0535H11.083H11.1124H11.1419H11.1714H11.2009H11.2303H11.2598H11.2893H11.3188H11.3483H11.3777H11.4072H11.4367H11.4662H11.4956H11.5251H11.5546H11.5841H11.6135H11.643H11.6725H11.702H11.7314H11.7609H11.7904H11.8199H11.8494H11.8788H11.9083H11.9378H11.9673H11.9967H12.0262H12.0557H12.0852H12.1147H12.1441H12.1736H12.2031H12.2326H12.2621H12.2915H12.321H12.3505H12.38H12.4095H12.4389H12.4684H12.4979H12.5274H12.5568H12.5863H12.6158H12.6453H12.6748H12.7042H12.7337H12.7632H12.7927H12.8222H12.8516H12.8811H12.9106H12.9401H12.9696H12.9991H13.0285H13.058H13.0875H13.117H13.1465H13.1759H13.2054H13.2349H13.2644H13.2939H13.3233H13.3528H13.3823H13.4118H13.4413H13.4707H13.5002H13.5297H13.5592H13.5887H13.6182H13.6476H13.6771H13.7066H13.7361H13.7656H13.795H13.8245H13.854H13.8835H13.913H13.9425H13.9719H14.0014H14.0309H14.0604H14.0899H14.1194H14.1488H14.1783H14.2078H14.2373H14.2668H14.2962H14.3257H14.3552H14.3847H14.4142H14.4437H14.4731H14.5026H14.5321H14.5616H14.5911H14.6206H14.65H14.6795H14.709H14.7385H14.768H14.7975H14.8269H14.8564H14.8859H14.9154H14.9449H14.9743H15.0038H15.0333H15.0628H15.0923H15.1218H15.1512H15.1807H15.2102H15.2397H15.2692H15.2987H15.3281H15.3576H15.3871H15.4166H15.4461H15.4755H15.505H15.5345H15.564H15.5935H15.623H15.6524H15.6819H15.7114H15.7409H15.7704H15.7999H15.8293H15.8588H15.8883H15.9178H15.9473H15.9767H16.0062H16.0357H16.0652H16.0947H16.1242H16.1536H16.1831H16.2126H16.2421H16.2716H16.301H16.3305H16.36H16.3895H16.419H16.4485H16.4779H16.5074H16.5369H16.5664H16.5959H16.6253H16.6548H16.6843H16.7138H16.7433H16.7727H16.8022H16.8317H16.8612H16.8907H16.9201H16.9496H16.9791H17.0086H17.0381H17.0675H17.097H17.1265H17.156H17.1855H17.2149H17.2444H17.2739H17.3034H17.3329H17.3623H17.3918H17.4213H17.4508H17.4803H17.5097H17.5392H17.5687H17.5982H17.6277H17.6571H17.6866H17.7161H17.7456H17.775H17.8045H17.834H17.8635H17.893H17.9224H17.9519H17.9814H18.0109H18.0403H18.0698H18.0993H18.1288H18.1583H18.1877H18.2172H18.2467H18.2762H18.3056H18.3351H18.3646H18.3941H18.4235H18.453H18.4825H18.512H18.5414H18.5709H18.6004H18.6299H18.6593H18.6888H18.7183H18.7478H18.7772H18.8067H18.8362H18.8657H18.8951H18.9246H18.9541H18.9836H19.013H19.0425H19.072H19.1015H19.1309H19.1604H19.1899H19.2193H19.2488H19.2783H19.3078H19.3372H19.3667H19.3962H19.4257H19.4551H19.4846H19.5141H19.5435H19.573H19.6025H19.632H19.6614H19.6909H19.7204H19.7498H19.7793H19.8088H19.8382H19.8677H19.8972H19.9266H19.9561H19.9856H20.0151H20.0445H20.074H20.1035H20.1329H20.1624H20.1919H20.2213H20.2508H20.2803H20.3097H20.3392H20.3687H20.3981H20.4276H20.4571H20.4865H20.516H20.5455H20.5749H20.6044H20.6339H20.6633H20.6928H20.7222H20.7517H20.7812H20.8106H20.8401H20.8696H20.899H20.9285H20.958H20.9874H21.0169H21.0463H21.0758H21.1053H21.1347H21.1642H21.1937H21.2231H21.2526H21.282H21.3115H21.341H21.3704H21.3999H21.4293H21.4588H21.4883H21.5177H21.5472H21.5766H21.6061H21.6355H21.665H21.6945H21.7239H21.7534H21.7828H21.8123H21.8418H21.8712H21.9007H21.9301H21.9596H21.989H22.0185H22.0479H22.0774H22.1069H22.1363H22.1658H22.1952H22.2247H22.2541H22.2836H22.313H22.3425H22.3719H22.4014H22.4308C23.2755 1.11194 23.9637 1.28073 24.5124 1.59533C25.0544 1.90609 25.5045 2.38409 25.8415 3.07971C26.0475 3.52159 26.1546 4.0646 26.1546 4.58657L26.1546 4.59183C26.1859 9.05093 26.1755 13.5206 26.165 17.9943V17.996C26.165 19.7578 25.0293 21.0981 23.2454 21.4232L23.2438 21.4235C22.9995 21.4685 22.7353 21.4707 22.3891 21.4707H22.3553H22.3215H22.2878H22.254H22.2202H22.1864H22.1526H22.1188H22.085H22.0512H22.0174H21.9836H21.9499H21.9161H21.8823H21.8485H21.8147H21.7809H21.7471H21.7133H21.6795H21.6457H21.6119H21.5782H21.5444H21.5106H21.4768H21.443H21.4092H21.3754H21.3416H21.3078H21.274H21.2403H21.2065H21.1727H21.1389H21.1051H21.0713H21.0375H21.0037H20.9699H20.9361H20.9023H20.8686H20.8348H20.801H20.7672H20.7334H20.6996H20.6658H20.632H20.5982H20.5644H20.5307H20.4969H20.4631H20.4293H20.3955H20.3617H20.3279H20.2941H20.2603H20.2265H20.1927H20.159H20.1252H20.0914H20.0576H20.0238H19.99H19.9562H19.9224H19.8886H19.8548H19.8211H19.7873H19.7535H19.7197H19.6859H19.6521H19.6183H19.5845H19.5507H19.5169H19.4831H19.4494H19.4156H19.3818H19.348H19.3142H19.2804H19.2466H19.2128H19.179H19.1452H19.1115H19.0777H19.0439H19.0101H18.9763H18.9425H18.9087H18.8749H18.8411H18.8073H18.7736H18.7398H18.706H18.6722H18.6384H18.6046H18.5708H18.537H18.5032H18.4694H18.4356H18.4019H18.3681H18.3343H18.3005H18.2667H18.2329H18.1991H18.1653H18.1315H18.0977H18.0639H18.0302H17.9964H17.9626H17.9288H17.895H17.8612H17.8274H17.7936H17.7598H17.726H17.6923H17.6585H17.6247H17.5909H17.5571H17.5233H17.4895H17.4557H17.4219H17.3881H17.3544H17.3206H17.2868H17.253H17.2192H17.1854H17.1516H17.1178H17.084H17.0502H17.0164H16.9827H16.9489H16.9151H16.8813H16.8475H16.8137H16.7799H16.7461H16.7123H16.6785H16.6448H16.611H16.5772H16.5434H16.5096H16.4758H16.442H16.4082H16.3744H16.3406H16.3068H16.2731H16.2393H16.2055H16.1717H16.1379H16.1041H16.0703H16.0365H16.0027H15.9689H15.9352H15.9014H15.8676H15.8338H15.8H15.7662H15.7324H15.6986H15.6648H15.631H15.5972H15.5635H15.5297H15.4959H15.4621H15.4283H15.3945H15.3607H15.3269H15.2931H15.2593H15.2256H15.1918H15.158H15.1242H15.0904H15.0566H15.0228H14.989H14.9552H14.9214H14.8876H14.8539H14.8201H14.7863H14.7525H14.7187H14.6849H14.6511H14.6173H14.5835H14.5497H14.516H14.4822H14.4484H14.4146H14.3808H14.347H14.3132H14.2794H14.2456H14.2118H14.1781H14.1443H14.1105H14.0767H14.0429H14.0091H13.9753H13.9415H13.9077H13.8739H13.8401H13.8064H13.7726H13.7388H13.705H13.6712H13.6374H13.6036H13.5698H13.536H13.5022H13.4685H13.4347H13.4009H13.3671H13.3333H13.2995H13.2657H13.2319H13.1981H13.1643H13.1305H13.0968H13.063H13.0292H12.9954H12.9616H12.9278H12.894H12.8602H12.8264H12.7926H12.7589H12.7251H12.6913H12.6575H12.6237H12.5899H12.5561H12.5223H12.4885H12.4547H12.4209H12.3872H12.3534H12.3196H12.2858H12.252H12.2182H12.1844H12.1506H12.1168H12.083H12.0493H12.0155H11.9817H11.9479H11.9141H11.8803H11.8465H11.8127H11.7789H11.7451H11.7113H11.6776H11.6438H11.61H11.5762H11.5424H11.5086H11.4748H11.441H11.4072H11.3734H11.3397H11.3059H11.2721H11.2383H11.2045H11.1707H11.1369H11.1031H11.0693H11.0355H11.0017H10.968H10.9342H10.9004H10.8666H10.8328H10.799H10.7652H10.7314H10.6976H10.6638H10.6301H10.5963H10.5625H10.5287H10.4949H10.4611H10.4273H10.3935H10.3597H10.3259H10.2921H10.2584H10.2246H10.1908H10.157H10.1232H10.0894H10.0556H10.0218H9.98804H9.95425H9.92045H9.88666H9.85287H9.81908H9.78529H9.7515H9.71771H9.68392H9.65013H9.61634H9.58255H9.54876H9.51497H9.48118H9.44739H9.4136H9.37981H9.34602H9.31223H9.27844H9.24465H9.21086H9.17707H9.14328H9.10948H9.07569H9.0419H9.00811H8.97432H8.94053H8.90674H8.87295H8.83916H8.80537H8.77158H8.73779H8.704H8.67021H8.63642H8.60263H8.56884H8.53505H8.50126H8.46747H8.43368H8.39989H8.3661H8.3323H8.29851H8.26472H8.23093H8.19714H8.16335H8.12956H8.09577H8.06198H8.02819H7.9944H7.96061H7.92682H7.89303H7.85924H7.82545H7.79166H7.75787H7.72408H7.69029H7.6565H7.62271H7.58891H7.55512H7.52133H7.48754H7.45375H7.41996H7.38617H7.35238H7.31859H7.2848H7.25101H7.21722H7.18343H7.14964H7.11585H7.08206H7.04827H7.01448H6.98069H6.9469H6.91311H6.87932H6.84553H6.81174H6.77794H6.74415H6.71036H6.67657H6.64278H6.60899H6.5752H6.54141H6.50762H6.47383H6.44004H6.40625H6.37246H6.33867H6.30488H6.27109H6.2373H6.20351H6.16972H6.13593H6.10214H6.06835H6.03455H6.00076H5.96697H5.93318H5.89939H5.8656H5.83181H5.79802H5.76423H5.73044H5.69665H5.66286H5.62907H5.59528H5.56149H5.5277H5.49391H5.46012H5.42633H5.39254H5.35875H5.32496H5.29117H5.25737H5.22358H5.18979H5.156H5.12221H5.08842C4.03439 21.4707 3.21417 21.1998 2.61349 20.7386C2.0158 20.2797 1.57431 19.5856 1.35649 18.6254L1.34708 18.5839L1.33303 18.5437C1.3265 18.525 1.31958 18.5074 1.3125 18.4909V3.98783C1.50031 3.34915 1.68425 2.84745 2.03174 2.43701ZM32.8056 17.2019C31.8009 16.6536 30.795 16.1047 29.7866 15.5581L39.5794 5.19137C39.595 6.70438 39.5931 8.22857 39.5911 9.75555C39.5905 10.2651 39.5898 10.7749 39.5898 11.2848C39.5898 11.981 39.591 12.676 39.5921 13.3708V13.3719V13.373C39.5944 14.7606 39.5968 16.1467 39.5898 17.5372L38.8398 17.5325C38.8398 17.5328 38.8398 17.5332 38.8398 17.5335C38.8321 18.6578 37.7199 19.5022 36.5238 19.1627C36.3283 19.105 36.1127 19.0051 35.8872 18.8797L35.8872 18.8797L35.8801 18.8758C34.854 18.3198 33.8304 17.7612 32.8056 17.2019L32.8056 17.2019Z" stroke="#6D6D6D" stroke-width="1.5"/>
</svg>
