<svg xmlns="http://www.w3.org/2000/svg" width="68.512" height="22.199" viewBox="0 0 68.512 22.199">
  <path id="path3789" d="M45.125.5c-4.865,0-9.212,2.521-9.212,7.18,0,5.342,7.71,5.711,7.71,8.4,0,1.13-1.3,2.142-3.507,2.142A11.645,11.645,0,0,1,34.63,16.8l-1,4.7A17.122,17.122,0,0,0,39.918,22.7c5.319,0,9.5-2.645,9.5-7.383,0-5.645-7.742-6-7.742-8.494,0-.885,1.063-1.855,3.269-1.855a11.11,11.11,0,0,1,4.519,1.028l.982-4.54A14.7,14.7,0,0,0,45.125.5ZM.618.843.5,1.528A22.879,22.879,0,0,1,4.39,2.65c2.373.857,2.542,1.356,2.942,2.9l4.356,16.791h5.839l9-21.5H20.7l-5.78,14.62L12.558,3.07A2.55,2.55,0,0,0,9.9.843H.618Zm28.246,0-4.57,21.5h5.555L34.4.843H28.864Zm30.982,0a2.621,2.621,0,0,0-2.57,1.97L49.138,22.345h5.825L56.09,19.09h7.1l.685,3.255h5.14L64.528.843H59.846ZM60.6,6.652l1.727,8.069H57.7l2.9-8.069Z" transform="translate(-0.5 -0.5)" fill="#fff"/>
</svg>
