<svg width="17" height="17" viewBox="0 0 17 17" fill="none" xmlns="http://www.w3.org/2000/svg">
<path id="command" d="M3.508 16.026H2.5C1.83696 16.026 1.20107 15.7626 0.732233 15.2938C0.263392 14.8249 0 14.189 0 13.526L0 12.5C0 11.837 0.263392 11.2011 0.732233 10.7322C1.20107 10.2634 1.83696 10 2.5 10H5.008V11H2.5C2.10218 11 1.72064 11.158 1.43934 11.4393C1.15804 11.7206 1 12.1022 1 12.5V13.526C1 13.9238 1.15804 14.3054 1.43934 14.5867C1.72064 14.868 2.10218 15.026 2.5 15.026H3.508C3.90582 15.026 4.28736 14.868 4.56866 14.5867C4.84996 14.3054 5.008 13.9238 5.008 13.526V11H6.008V13.526C6.008 14.189 5.74461 14.8249 5.27577 15.2938C4.80693 15.7626 4.17104 16.026 3.508 16.026ZM13.508 16.008H12.508C11.845 16.008 11.2091 15.7446 10.7402 15.2758C10.2714 14.8069 10.008 14.171 10.008 13.508V11H6.008V10H5.008V6.017H2.508C2.17944 6.01805 1.8539 5.95433 1.54999 5.82948C1.24608 5.70462 0.969756 5.52109 0.736827 5.28937C0.503899 5.05765 0.31893 4.78228 0.1925 4.47902C0.0660688 4.17576 0.000655433 3.85056 0 3.522L0 2.5C0 1.83696 0.263392 1.20107 0.732233 0.732233C1.20107 0.263392 1.83696 0 2.5 0L3.508 0C4.17104 0 4.80693 0.263392 5.27577 0.732233C5.74461 1.20107 6.008 1.83696 6.008 2.5V5.017L10.008 5.01V6.01H11.008V10H13.508C14.171 10 14.8069 10.2634 15.2758 10.7322C15.7446 11.2011 16.008 11.837 16.008 12.5V13.508C16.008 14.171 15.7446 14.8069 15.2758 15.2758C14.8069 15.7446 14.171 16.008 13.508 16.008ZM10.008 11H11.008V13.508C11.008 13.9058 11.166 14.2874 11.4473 14.5687C11.7286 14.85 12.1102 15.008 12.508 15.008H13.508C13.9058 15.008 14.2874 14.85 14.5687 14.5687C14.85 14.2874 15.008 13.9058 15.008 13.508V12.5C15.008 12.1022 14.85 11.7206 14.5687 11.4393C14.2874 11.158 13.9058 11 13.508 11H11.008V10H10.008V6.01L6.008 6.015V5.015H5.008V2.5C5.008 2.10218 4.84996 1.72064 4.56866 1.43934C4.28736 1.15804 3.90582 1 3.508 1H2.5C2.10218 1 1.72064 1.15804 1.43934 1.43934C1.15804 1.72064 1 2.10218 1 2.5V3.522C1 3.91982 1.15804 4.30136 1.43934 4.58266C1.72064 4.86396 2.10218 5.022 2.5 5.022H5.007V6.022H6.007V10H10.007V11H10.008ZM11.008 6.008V5.008H10.008V2.5C10.008 1.83696 10.2714 1.20107 10.7402 0.732233C11.2091 0.263392 11.845 0 12.508 0L13.508 0C14.171 0 14.8069 0.263392 15.2758 0.732233C15.7446 1.20107 16.008 1.83696 16.008 2.5V3.5C16.008 3.8283 15.9433 4.15339 15.8177 4.45671C15.6921 4.76002 15.5079 5.03562 15.2758 5.26777C15.0436 5.49991 14.768 5.68406 14.4647 5.8097C14.1614 5.93534 13.8363 6 13.508 6L11.008 6.008ZM12.508 1C12.1102 1 11.7286 1.15804 11.4473 1.43934C11.166 1.72064 11.008 2.10218 11.008 2.5V5.008H13.508C13.9058 5.008 14.2874 4.84996 14.5687 4.56866C14.85 4.28736 15.008 3.90582 15.008 3.508V2.508C15.008 2.11018 14.85 1.72864 14.5687 1.44734C14.2874 1.16604 13.9058 1.008 13.508 1.008L12.508 1Z" fill="#222B45"/>
</svg>
