<svg width="20" height="20" viewBox="0 0 20 20" fill="none" xmlns="http://www.w3.org/2000/svg">
<path d="M5.37141 14.6286C5.64386 14.901 5.64386 15.3428 5.37141 15.6153C5.09894 15.8877 4.6572 15.8877 4.38475 15.6153L5.37141 14.6286ZM15.6153 4.38475C15.8877 4.6572 15.8877 5.09894 15.6153 5.37141C15.3428 5.64386 14.901 5.64386 14.6286 5.37141L15.6153 4.38475ZM2.98116 15.653L4.34702 17.0188L3.36036 18.0055L1.9945 16.6396L2.98116 15.653ZM17.0188 4.34702L15.653 2.98116L16.6396 1.9945L18.0055 3.36036L17.0188 4.34702ZM17.0188 6.09205C17.3547 5.75617 17.5559 5.55284 17.6819 5.38783C17.7398 5.31189 17.7637 5.26642 17.7737 5.24264C17.7813 5.22443 17.7803 5.22027 17.7803 5.21954H19.1756C19.1756 5.63343 18.9995 5.96119 18.7912 6.23422C18.5952 6.49116 18.3135 6.77073 18.0055 7.07871L17.0188 6.09205ZM18.0055 3.36036C18.3135 3.66835 18.5952 3.94792 18.7912 4.20485C18.9995 4.47788 19.1756 4.80563 19.1756 5.21954H17.7803C17.7803 5.21879 17.7813 5.21463 17.7737 5.19642C17.7637 5.17265 17.7398 5.12717 17.6819 5.05124C17.5559 4.88622 17.3547 4.68289 17.0188 4.34702L18.0055 3.36036ZM4.34702 17.0188C4.68289 17.3547 4.88622 17.5559 5.05124 17.6819C5.12717 17.7398 5.17265 17.7637 5.19642 17.7737C5.21463 17.7813 5.21879 17.7803 5.21954 17.7803V19.1756C4.80563 19.1756 4.47788 18.9995 4.20485 18.7912C3.94792 18.5952 3.66835 18.3135 3.36036 18.0055L4.34702 17.0188ZM7.07871 18.0055C6.77073 18.3135 6.49116 18.5952 6.23422 18.7912C5.96119 18.9995 5.63343 19.1756 5.21954 19.1756V17.7803C5.22027 17.7803 5.22443 17.7813 5.24264 17.7737C5.26642 17.7637 5.31189 17.7398 5.38783 17.6819C5.55284 17.5559 5.75617 17.3547 6.09205 17.0188L7.07871 18.0055ZM2.98116 13.9079C2.64529 14.2438 2.44406 14.4472 2.31815 14.6122C2.26022 14.6881 2.23624 14.7336 2.22633 14.7574C2.21873 14.7755 2.21971 14.7797 2.21971 14.7805H0.824365C0.824365 14.3666 1.0005 14.0388 1.20882 13.7658C1.40486 13.5088 1.68652 13.2293 1.9945 12.9213L2.98116 13.9079ZM1.9945 16.6396C1.68652 16.3316 1.40486 16.0521 1.20882 15.7952C1.0005 15.5221 0.824365 15.1943 0.824365 14.7805H2.21971C2.21971 14.7812 2.21873 14.7854 2.22633 14.8035C2.23624 14.8273 2.26022 14.8728 2.31815 14.9487C2.44406 15.1138 2.64529 15.3171 2.98116 15.653L1.9945 16.6396ZM12.9213 1.9945C13.2293 1.68652 13.5088 1.40486 13.7658 1.20882C14.0388 1.0005 14.3666 0.824365 14.7805 0.824365V2.21971C14.7797 2.21971 14.7755 2.21873 14.7574 2.22633C14.7336 2.23624 14.6881 2.26022 14.6122 2.31815C14.4472 2.44406 14.2438 2.64529 13.9079 2.98116L12.9213 1.9945ZM15.653 2.98116C15.3171 2.64529 15.1138 2.44406 14.9487 2.31815C14.8728 2.26022 14.8273 2.23624 14.8035 2.22633C14.7854 2.21873 14.7812 2.21971 14.7805 2.21971V0.824365C15.1943 0.824365 15.5221 1.0005 15.7952 1.20882C16.0521 1.40486 16.3316 1.68652 16.6396 1.9945L15.653 2.98116ZM7.76164 17.0188L8.44456 17.7018L7.4579 18.6884L6.77498 18.0055L7.76164 17.0188ZM10.8726 17.7018C11.2007 17.3736 11.4134 17.1599 11.5607 16.9833C11.7016 16.8142 11.7367 16.7314 11.7499 16.6821L13.0976 17.0433C13.0103 17.3689 12.8355 17.6332 12.6323 17.8769C12.4353 18.1133 12.1692 18.3783 11.8592 18.6884L10.8726 17.7018ZM11.8592 14.2872C12.1692 14.5972 12.4353 14.8622 12.6323 15.0986C12.8355 15.3423 13.0103 15.6066 13.0976 15.9323L11.7499 16.2934C11.7367 16.2441 11.7016 16.1613 11.5607 15.9922C11.4134 15.8156 11.2007 15.602 10.8726 15.2738L11.8592 14.2872ZM11.7499 16.6821C11.7839 16.5548 11.7839 16.4207 11.7499 16.2934L13.0976 15.9323C13.1952 16.2962 13.1952 16.6793 13.0976 17.0433L11.7499 16.6821ZM11.8592 18.6884C11.5491 18.9985 11.2841 19.2645 11.0477 19.4616C10.804 19.6647 10.5397 19.8396 10.214 19.9269L9.85293 18.5791C9.90223 18.5659 9.98502 18.5309 10.1541 18.3899C10.3307 18.2427 10.5443 18.03 10.8726 17.7018L11.8592 18.6884ZM8.44456 17.7018C8.77275 18.03 8.98642 18.2427 9.16298 18.3899C9.33209 18.5309 9.41489 18.5659 9.46419 18.5791L9.10298 19.9269C8.7774 19.8396 8.51312 19.6647 8.2694 19.4616C8.03301 19.2645 7.76795 18.9985 7.4579 18.6884L8.44456 17.7018ZM10.214 19.9269C9.85014 20.0244 9.46698 20.0244 9.10298 19.9269L9.46419 18.5791C9.59154 18.6132 9.72558 18.6132 9.85293 18.5791L10.214 19.9269ZM2.29824 9.12744C1.97003 9.45572 1.75732 9.6693 1.61015 9.84586C1.46914 10.015 1.43415 10.0978 1.42094 10.1471L0.0731372 9.78596C0.160393 9.46028 0.335212 9.196 0.538458 8.95228C0.735528 8.71591 1.00153 8.45089 1.31158 8.14084L2.29824 9.12744ZM1.31158 12.5421C1.00153 12.232 0.735528 11.967 0.538458 11.7306C0.335212 11.4869 0.160393 11.2226 0.0731372 10.897L1.42094 10.5358C1.43415 10.5851 1.46914 10.6679 1.61015 10.837C1.75732 11.0136 1.97003 11.2273 2.29824 11.5554L1.31158 12.5421ZM1.42094 10.1471C1.38682 10.2744 1.38682 10.4085 1.42094 10.5358L0.0731372 10.897C-0.0243791 10.533 -0.0243791 10.1499 0.0731372 9.78596L1.42094 10.1471ZM1.31158 8.14084C1.62164 7.83076 1.88669 7.56476 2.12305 7.36769C2.36681 7.16445 2.63105 6.98963 2.9567 6.90237L3.31784 8.25014C3.26854 8.26335 3.18574 8.29842 3.01663 8.43935C2.84011 8.58661 2.62646 8.79926 2.29824 9.12744L1.31158 8.14084ZM4.72621 9.12744C4.39799 8.79926 4.18434 8.58661 4.00783 8.43935C3.83871 8.29842 3.75591 8.26335 3.70661 8.25014L4.06775 6.90237C4.3934 6.98963 4.65764 7.16445 4.9014 7.36769C5.13775 7.56476 5.40281 7.83076 5.71287 8.14084L4.72621 9.12744ZM2.9567 6.90237C3.32063 6.80486 3.70382 6.80487 4.06775 6.90237L3.70661 8.25014C3.57927 8.21609 3.44518 8.21609 3.31784 8.25014L2.9567 6.90237ZM18.0055 6.77498L18.6884 7.4579L17.7018 8.44456L17.0188 7.76164L18.0055 6.77498ZM18.6884 11.8592C18.3783 12.1692 18.1133 12.4353 17.8769 12.6323C17.6332 12.8355 17.3689 13.0103 17.0433 13.0976L16.6821 11.7499C16.7314 11.7367 16.8142 11.7016 16.9833 11.5607C17.1599 11.4134 17.3736 11.2007 17.7018 10.8726L18.6884 11.8592ZM15.2738 10.8726C15.602 11.2007 15.8156 11.4134 15.9922 11.5607C16.1613 11.7016 16.2441 11.7367 16.2934 11.7499L15.9323 13.0976C15.6066 13.0103 15.3423 12.8355 15.0986 12.6323C14.8622 12.4353 14.5972 12.1692 14.2872 11.8592L15.2738 10.8726ZM17.0433 13.0976C16.6793 13.1952 16.2962 13.1952 15.9323 13.0976L16.2934 11.7499C16.4207 11.7839 16.5548 11.7839 16.6821 11.7499L17.0433 13.0976ZM17.7018 10.8726C18.03 10.5443 18.2427 10.3307 18.3899 10.1541C18.5309 9.98502 18.5659 9.90223 18.5791 9.85293L19.9269 10.214C19.8396 10.5397 19.6647 10.804 19.4616 11.0477C19.2645 11.2841 18.9985 11.5491 18.6884 11.8592L17.7018 10.8726ZM18.6884 7.4579C18.9985 7.76795 19.2645 8.03301 19.4616 8.2694C19.6647 8.51312 19.8396 8.7774 19.9269 9.10298L18.5791 9.46419C18.5659 9.41489 18.5309 9.33209 18.3899 9.16298C18.2427 8.98642 18.03 8.77275 17.7018 8.44456L18.6884 7.4579ZM18.5791 9.85293C18.6132 9.72558 18.6132 9.59154 18.5791 9.46419L19.9269 9.10298C20.0244 9.46698 20.0244 9.85014 19.9269 10.214L18.5791 9.85293ZM8.14084 1.31158C8.45089 1.00153 8.71591 0.735528 8.95228 0.538458C9.196 0.335212 9.46028 0.160393 9.78596 0.0731372L10.1471 1.42094C10.0978 1.43415 10.015 1.46914 9.84586 1.61015C9.6693 1.75732 9.45572 1.97003 9.12744 2.29824L8.14084 1.31158ZM11.5554 2.29824C11.2273 1.97003 11.0136 1.75732 10.837 1.61015C10.6679 1.46914 10.5851 1.43415 10.5358 1.42094L10.897 0.0731372C11.2226 0.160393 11.4869 0.335212 11.7306 0.538458C11.967 0.735528 12.232 1.00153 12.5421 1.31158L11.5554 2.29824ZM9.78596 0.0731372C10.1499 -0.0243791 10.533 -0.0243791 10.897 0.0731372L10.5358 1.42094C10.4085 1.38682 10.2744 1.38682 10.1471 1.42094L9.78596 0.0731372ZM9.12744 2.29824C8.79926 2.62646 8.58661 2.84011 8.43935 3.01663C8.29842 3.18574 8.26335 3.26854 8.25014 3.31784L6.90237 2.9567C6.98963 2.63105 7.16445 2.36681 7.36769 2.12305C7.56476 1.88669 7.83076 1.62164 8.14084 1.31158L9.12744 2.29824ZM8.14084 5.71287C7.83076 5.40281 7.56476 5.13775 7.36769 4.9014C7.16445 4.65764 6.98964 4.3934 6.90237 4.06775L8.25014 3.70661C8.26335 3.75591 8.29842 3.83871 8.43935 4.00783C8.58661 4.18434 8.79926 4.39799 9.12744 4.72621L8.14084 5.71287ZM8.25014 3.31784C8.21609 3.44518 8.21609 3.57926 8.25014 3.70661L6.90237 4.06775C6.80487 3.70382 6.80486 3.32063 6.90237 2.9567L8.25014 3.31784ZM2.29824 11.5554L5.37141 14.6286L4.38475 15.6153L1.31158 12.5421L2.29824 11.5554ZM12.5421 1.31158L15.6153 4.38475L14.6286 5.37141L11.5554 2.29824L12.5421 1.31158ZM10.8726 15.2738L9.84809 14.2494L10.8348 13.2628L11.8592 14.2872L10.8726 15.2738ZM9.84809 13.2628L13.2628 9.84809L14.2494 10.8348L10.8348 14.2494L9.84809 13.2628ZM14.2872 11.8592L13.2628 10.8348L14.2494 9.84809L15.2738 10.8726L14.2872 11.8592ZM9.84809 14.2494L5.75059 10.1519L6.73725 9.16521L10.8348 13.2628L9.84809 14.2494ZM5.75059 10.1519L4.72621 9.12744L5.71287 8.14084L6.73725 9.16521L5.75059 10.1519ZM10.1519 6.73725L6.73725 10.1519L5.75059 9.16521L9.16521 5.75059L10.1519 6.73725ZM13.2628 10.8348L9.16521 6.73725L10.1519 5.75059L14.2494 9.84809L13.2628 10.8348ZM9.16521 6.73725L8.14084 5.71287L9.12744 4.72621L10.1519 5.75059L9.16521 6.73725ZM17.0188 7.76164C16.5578 7.3006 16.5578 6.5531 17.0188 6.09205L18.0055 7.07871C18.0894 6.99484 18.0894 6.85885 18.0055 6.77498L17.0188 7.76164ZM6.77498 18.0055C6.85885 18.0894 6.99484 18.0894 7.07871 18.0055L6.09205 17.0188C6.55309 16.5578 7.3006 16.5578 7.76164 17.0188L6.77498 18.0055Z" fill="#1C274C"/>
</svg>
